<svg width="457" height="556" viewBox="0 0 457 556" fill="none" xmlns="http://www.w3.org/2000/svg">
<path d="M52.3047 542.334H136.728C138.176 542.334 138.176 538.845 136.728 538.845C108.574 538.845 80.4209 538.845 52.3047 538.845C50.8562 538.845 50.8562 542.334 52.3047 542.334Z" fill="#E8E8E8"/>
<path d="M79.8266 528.669H164.547H188.577C190.026 528.669 190.026 525.179 188.577 525.179C160.35 525.179 132.122 525.179 103.857 525.179C95.8347 525.179 87.8121 525.179 79.8266 525.179C78.4153 525.179 78.4153 528.669 79.8266 528.669Z" fill="#E8E8E8"/>
<path d="M186.757 507.152H244.104C245.553 507.152 245.553 503.663 244.104 503.663C224.976 503.663 205.848 503.663 186.757 503.663C185.309 503.663 185.309 507.152 186.757 507.152Z" fill="#E8E8E8"/>
<path d="M235.859 556H355.269H388.659C390.108 556 390.108 552.511 388.659 552.511C348.844 552.511 309.028 552.511 269.249 552.511C258.106 552.511 247.001 552.511 235.859 552.511C234.41 552.511 234.41 556 235.859 556Z" fill="#E8E8E8"/>
<path d="M329.938 542.334H408.864C410.313 542.334 410.313 538.845 408.864 538.845C382.568 538.845 356.235 538.845 329.938 538.845C328.49 538.845 328.49 542.334 329.938 542.334Z" fill="#E8E8E8"/>
<path d="M121.982 118.981C120.051 119.504 117.005 120.725 113.811 123.807C111.806 125.726 107.72 130.379 105.157 138.927C104.229 141.951 102.149 148.988 103.189 157.711C104.712 170.621 111.954 177.075 113.106 178.064C116.783 169.283 120.422 160.444 124.099 151.663C123.357 140.788 122.651 129.913 121.982 118.981Z" fill="#EC615B"/>
<path d="M124.731 150.617C130.154 146.022 135.539 141.428 140.962 136.776C142.15 139.102 144.379 144.278 144.342 151.256C144.342 152.826 144.23 154.28 144.044 155.618C137.582 153.931 131.156 152.245 124.731 150.617Z" fill="#5222D0"/>
<path d="M66.5671 190.742C67.2356 204.408 67.867 218.132 68.5356 231.798C70.9126 231.565 73.2897 231.274 75.6296 231.042C74.8497 217.143 74.0697 203.303 73.2897 189.404C71.0241 189.87 68.7956 190.277 66.5671 190.742Z" fill="#5222D0"/>
<path d="M79.8267 204.989C80.1981 213.421 80.5695 221.795 80.9781 230.227C83.3551 229.879 85.7322 229.588 88.0721 229.239C87.5521 220.807 87.0693 212.433 86.5493 204C84.2837 204.291 82.0552 204.64 79.8267 204.989Z" fill="#EC615B"/>
<path d="M164.324 257.095C127.479 262.386 90.672 267.62 53.8275 272.912C50.4476 188.474 47.0306 104.036 43.6507 19.5399C80.3837 17.5045 117.154 15.4692 153.887 13.4338C157.378 94.6735 160.87 175.913 164.324 257.095V257.095Z" stroke="#161616" stroke-width="0.344856" stroke-miterlimit="10"/>
<path d="M81.6466 3.54768C82.0552 8.14177 82.5009 12.7358 82.9094 17.3299C83.0209 18.4348 84.098 17.9696 83.9865 16.8647C83.578 12.2706 83.1323 7.67654 82.7237 3.08246C82.6123 1.97755 81.5352 2.44278 81.6466 3.54768Z" fill="#E8E8E8"/>
<path d="M82.4265 3.43102C90.7834 2.55872 99.1774 2.03535 107.534 1.74459C108.24 1.74459 108.24 0 107.534 0C99.1403 0.290765 90.7834 0.87229 82.4265 1.68643C81.7208 1.74458 81.7208 3.48917 82.4265 3.43102Z" fill="#E8E8E8"/>
<path d="M107.2 1.04645C107.571 5.98945 107.869 10.8743 108.054 15.8173C108.091 16.9222 109.206 16.9222 109.169 15.8173C108.983 10.8743 108.686 5.9313 108.314 1.04645C108.203 -0.0584529 107.089 -0.0584529 107.2 1.04645Z" fill="#E8E8E8"/>
<path d="M82.4637 3.37262C82.7237 7.67594 82.9837 12.0374 83.2437 16.3407C83.2808 16.806 83.4666 17.213 83.8008 17.213C91.7863 17.3293 99.7346 15.3521 107.757 15.7592C108.463 15.8174 108.463 14.0728 107.757 14.0146C99.7717 13.6075 91.8234 15.5266 83.8008 15.4684L84.358 16.3407C84.098 12.0374 83.838 7.67594 83.578 3.37262C83.5037 2.26772 82.3894 2.26772 82.4637 3.37262Z" fill="#E8E8E8"/>
<path d="M83.058 3.95403C84.2837 5.11709 85.8808 4.53556 87.2179 4.41926C89.4464 4.2448 91.6748 4.07034 93.9033 3.89588C98.3603 3.54696 102.78 3.13989 107.237 2.79097C107.051 2.50021 106.866 2.20945 106.68 1.91868C106.791 5.69862 106.903 9.47856 107.014 13.3166C107.051 14.4216 108.166 14.4216 108.129 13.3166C108.017 9.53671 107.906 5.75677 107.794 1.91868C107.794 1.45346 107.534 1.04639 107.237 1.04639C103.3 1.3953 99.326 1.68607 95.389 2.03498C93.4205 2.20944 91.452 2.3839 89.4464 2.50021C87.8864 2.61652 84.9894 3.77957 83.6151 2.44205C83.0208 1.86052 82.4637 3.3725 83.058 3.95403Z" fill="#E8E8E8"/>
<path d="M83.0208 4.30324C83.5779 7.85057 83.9493 11.4561 84.1722 15.1197C84.5436 15.0615 84.915 14.9452 85.2493 14.8871C84.8407 11.7468 84.9521 8.66471 85.3236 5.4663C84.9521 5.40815 84.5807 5.29185 84.2464 5.23369C84.3207 8.72287 84.4693 12.0376 85.3236 15.236C85.5835 16.1664 86.5121 15.4686 86.3264 14.5382C85.695 10.8164 85.1007 7.15274 85.7321 3.31464C85.3607 3.31464 85.0264 3.31464 84.655 3.31464C84.9893 6.80382 85.3236 10.293 85.6578 13.7822C85.7693 14.8871 86.8464 14.4219 86.7349 13.3169C86.4007 9.82777 86.0664 6.33859 85.7321 2.84942C85.6578 1.97713 84.7664 2.09343 84.655 2.84942C83.9864 6.97828 84.5807 10.9908 85.2493 15.0034C85.5835 14.7708 85.9178 14.5382 86.2521 14.3056C85.4721 11.3979 85.3978 8.25764 85.3236 5.17554C85.3236 4.24509 84.3579 3.95433 84.2464 4.94293C83.8379 8.4321 83.6893 11.805 84.1722 15.2942C84.2836 16.2246 85.3236 16.0501 85.2493 15.0615C85.0264 11.2816 84.6179 7.50166 84.0607 3.77987C83.9122 2.73312 82.8722 3.19834 83.0208 4.30324Z" fill="#E8E8E8"/>
<path d="M85.8807 7.38495C86.2893 6.33819 86.6978 5.29144 87.1064 4.24469C86.7721 3.95393 86.475 3.66316 86.1407 3.3724C85.6579 5.05883 85.2122 6.74527 84.7293 8.4317C84.5065 9.24584 85.175 10.3507 85.6207 9.47845C86.3636 8.02463 87.0692 6.51265 87.8121 5.05883C87.5149 4.76806 87.1807 4.4773 86.8835 4.18654C86.5864 5.58221 86.215 6.86157 85.695 8.14094C85.3607 8.95508 86.1778 10.0018 86.5864 9.18769C87.1435 8.08278 87.7007 6.97788 88.2949 5.87298C87.9978 5.52406 87.7007 5.17514 87.4035 4.82622C86.6607 7.55941 85.9179 10.2344 85.175 12.9676C84.9522 13.7818 85.6207 14.8867 86.0664 14.0144C87.4035 11.3975 88.7778 8.72247 90.1149 6.10558C89.8177 5.75667 89.5206 5.40775 89.2235 5.05883C88.2206 7.61756 87.2178 10.2344 86.215 12.7932C85.955 13.4329 86.3636 14.3051 86.8464 14.0725C87.4407 13.7818 87.5149 13.6655 87.9606 13.0839C87.6635 12.7932 87.3292 12.5024 87.0321 12.2116C86.8093 13.2002 86.4378 13.9562 85.8807 14.5959C85.3236 15.2356 85.8064 16.6894 86.4378 16.1079C87.0321 15.5845 87.5892 15.2356 88.2578 15.1193C88.0349 14.7704 87.8121 14.4215 87.5892 14.0725C86.6236 13.3165 86.3264 12.2698 86.6978 10.8741C86.8092 10.1181 86.995 9.4203 87.2178 8.78062C87.515 7.96648 88.0721 5.98928 88.6292 7.73387C89.0378 9.01323 87.3292 16.166 87.1064 11.7464C87.0692 10.5834 87.1435 9.4203 87.3664 8.37354C87.5149 7.5594 87.7378 6.80341 87.9978 6.04743C88.3692 4.88437 88.5549 4.88437 88.5921 6.04743C89.2977 8.37354 88.4435 12.0372 87.7378 14.0725C88.0721 14.1307 88.4063 14.1888 88.7406 14.3052C88.4435 12.6769 88.3321 11.1067 88.5549 9.47845C88.6292 8.83877 89.0006 5.75667 89.4092 6.74527C90.2634 8.66432 88.852 13.0258 88.2578 14.7122C88.5921 14.8867 88.9635 15.003 89.2977 15.1774C89.1863 13.6073 89.1492 12.0953 89.3349 10.5252C89.4463 9.47846 89.8549 6.10559 90.5606 5.98928C91.5634 5.81482 89.632 12.9676 89.1863 14.0144C89.5206 14.0725 89.8549 14.1307 90.1891 14.247C89.8549 11.6301 89.8549 6.04743 92.1205 5.17513C91.8977 5.00067 91.6748 4.76806 91.452 4.5936C91.8605 8.14093 91.2291 11.572 89.6692 14.1888C89.9663 14.3051 90.3006 14.4215 90.5977 14.5959C90.3377 12.9676 90.3006 11.3975 90.5606 9.76922C90.7091 8.89693 91.4891 5.23329 92.2319 5.52405C92.7519 5.69851 92.0834 9.07138 91.9348 9.82737C91.5262 11.6883 90.8948 13.3165 89.9663 14.7122C90.2634 14.8285 90.5977 14.9448 90.8948 15.1193C90.3006 11.223 91.3405 7.32679 93.5319 5.23329C93.2719 5.05883 92.9748 4.88438 92.7148 4.70992C93.569 8.25725 91.3777 12.8513 89.9292 15.2356C90.2263 15.3519 90.5606 15.4682 90.8577 15.6427C90.5977 13.9562 90.5977 12.3279 90.932 10.6415C91.0434 10.1181 92.1576 6.16374 92.6776 6.4545C93.4205 6.86157 92.1576 10.4089 91.9348 10.9323C91.6748 11.6883 91.192 13.0258 90.7091 13.491C90.152 14.0725 90.1891 14.1888 90.152 12.9095C90.1149 11.1649 90.8577 9.18769 91.4891 7.90833C91.8234 7.21049 92.3805 6.10558 92.9005 5.81482C93.4947 5.40775 93.4205 5.29144 93.3462 6.51265C93.0862 10.1181 91.7862 13.3747 90.152 15.8753C90.4491 15.9916 90.7834 16.1079 91.0805 16.2823C90.7463 12.8513 91.4891 9.30399 93.1233 6.91972C93.6062 6.22189 94.1633 5.75666 94.349 7.21049C94.4233 7.79201 93.9776 9.18769 93.829 9.71106C93.309 11.6301 92.5662 13.2584 91.6377 14.7122H92.4176C91.7491 13.491 92.6033 10.816 93.0119 9.65292C93.1976 9.12954 94.7947 5.29144 95.2404 5.64036C95.7604 6.04743 94.609 9.94368 94.4604 10.3507C93.9405 11.9209 93.2719 13.3166 92.4919 14.5959C92.8262 14.8285 93.1233 15.003 93.4576 15.2356C93.4947 10.9904 94.7576 7.38495 97.0603 5.11699C96.7632 4.88437 96.5032 4.59361 96.2061 4.361C96.2432 8.25724 95.3518 11.6883 93.569 14.4215C93.9033 14.6541 94.2004 14.8285 94.5347 15.0611C94.7576 10.816 96.0204 7.15234 98.1003 4.41915C97.8032 4.361 97.506 4.30284 97.2089 4.24469C98.3974 7.03603 95.7975 12.2698 94.7576 14.3633C95.0918 14.5959 95.389 14.7704 95.7232 15.003C95.7604 13.3747 95.9461 11.8627 96.3546 10.3507C96.5775 9.4203 97.506 6.22189 98.1746 5.98928C99.066 5.69851 98.1374 8.37355 97.8403 9.36215C97.3203 11.0486 96.6146 12.5024 95.7975 13.8399C96.0947 14.1307 96.4289 14.4215 96.7261 14.7122C97.0603 11.1067 97.9889 6.3382 100.403 5.00068C100.18 4.70992 99.9202 4.41915 99.6974 4.18654C99.4003 8.14093 98.286 11.5138 96.4289 14.1888C96.7632 14.4214 97.0603 14.5959 97.3946 14.8285C97.506 12.9676 97.766 11.1649 98.286 9.4203C98.6203 8.31539 99.5117 5.40774 100.329 5.17513C100.737 5.05883 100.329 6.04743 100.18 6.68711C99.9574 7.61756 99.6603 8.48985 99.3631 9.30399C98.7689 10.9323 98.026 12.3861 97.1718 13.7236C97.506 13.9562 97.8032 14.1307 98.1375 14.3633C98.286 10.6415 99.4003 7.4431 101.257 5.17513C100.997 4.82622 100.7 4.53545 100.44 4.18654C100.143 6.91972 99.2517 9.07139 98.0632 11.1067C97.3575 12.3279 97.1346 12.0372 97.0603 10.4089C96.9861 8.19909 97.8403 5.98928 99.2517 5.40775C99.0289 5.11699 98.7689 4.82622 98.546 4.5936C98.4346 8.08278 97.766 11.223 96.5775 14.1307C96.9118 14.3051 97.2832 14.4215 97.6175 14.5959C97.7289 12.8513 98.026 11.1649 98.546 9.59476C98.8803 8.54801 99.7345 5.93112 100.477 5.64036C101.554 5.17513 100.477 8.48985 100.217 9.30399C99.6974 10.9323 98.9917 12.3279 98.1746 13.6655C98.5089 13.8981 98.806 14.0725 99.1403 14.3052C98.9917 10.06 100.626 6.33819 103.189 5.05883C102.966 4.76806 102.706 4.4773 102.483 4.24469C102.186 8.37355 100.923 11.8627 98.8803 14.5378C99.2146 14.7704 99.5117 14.9448 99.846 15.1774C100.143 11.1649 101.443 7.73387 103.56 5.40775C103.3 5.23329 103.003 5.05883 102.743 4.88437C103.337 7.90832 101.294 11.8627 100.18 14.0144C100.515 14.247 100.812 14.4215 101.146 14.6541C101.294 11.6883 102.372 6.28004 104.637 5.75666C104.414 5.40774 104.192 5.05883 103.969 4.70992C103.56 8.02463 102.706 10.9904 101.332 13.6073C101.666 13.8399 101.963 14.0144 102.297 14.247C102.409 10.6997 103.3 7.61756 104.86 5.11699C104.563 5.05883 104.266 5.00068 103.969 4.94252C104.823 7.38495 103.077 11.6883 102.297 13.8399L103.3 14.5378C103.672 11.7464 103.969 7.03603 105.64 5.34959C105.417 5.29144 105.194 5.23329 104.972 5.23329C105.9 6.86157 104.117 12.3279 103.709 13.9562C104.08 14.1307 104.414 14.247 104.786 14.4215C105.306 11.4557 105.789 8.54801 106.309 5.58221C105.937 5.52406 105.566 5.40775 105.232 5.34959C105.306 8.14093 105.046 10.7578 104.452 13.4329C104.823 13.491 105.194 13.6073 105.529 13.6655C105.714 11.0486 105.529 6.97788 106.494 4.76806C106.16 4.70991 105.826 4.65176 105.491 4.53546C106.011 7.38495 105.826 10.1181 105.566 13.0839C105.937 13.1421 106.309 13.2584 106.643 13.3165C106.494 10.06 106.346 6.74527 106.197 3.4887C105.863 3.72131 105.566 3.89578 105.232 4.12839C106.643 6.39635 106.086 9.36215 105.454 11.979C105.789 11.9209 106.123 11.8627 106.457 11.7464C106.049 10.5252 105.231 8.48986 105.269 7.03603C104.897 6.10559 105.046 5.64036 105.751 5.69851C106.086 6.62896 106.197 7.61756 106.049 8.60616C106.383 8.37355 106.68 8.19909 107.014 7.96648C106.42 6.86157 106.123 5.81482 105.937 4.4773C105.677 4.82622 105.38 5.11698 105.12 5.4659C105.269 6.10558 105.417 6.80342 105.566 7.4431C105.9 7.50126 106.234 7.5594 106.569 7.67571C106.309 6.51265 106.197 5.4659 106.234 4.24469C106.011 4.53546 105.751 4.82622 105.529 5.05883C106.977 5.98928 105.974 12.0372 105.789 13.6073C105.974 13.3747 106.16 13.2002 106.309 12.9676C103.486 13.0839 100.663 13.2002 97.8403 13.3165C97.1346 13.3747 97.1346 15.003 97.8403 15.0611C100.329 15.1774 102.78 14.5959 105.232 14.0144C105.12 13.4329 105.046 12.9095 104.934 12.3279C102.037 13.5492 99.1403 14.3633 96.1689 14.7122C95.4632 14.7704 95.4632 16.3987 96.1689 16.4568C99.066 16.6313 101.889 15.0611 104.786 15.2356C104.749 14.6541 104.674 14.0725 104.637 13.5492C102.409 14.7122 100.18 15.0611 97.8403 14.6541V16.3987C100.515 15.9916 103.189 15.5845 105.863 15.1774C105.826 14.5959 105.751 14.0144 105.714 13.491C103.932 14.3051 102.186 14.5959 100.329 14.4796V16.2242C102.149 16.2242 103.894 15.8753 105.64 15.1774C106.346 14.8867 106.049 13.2584 105.343 13.491C103.263 14.1888 101.183 14.5378 99.066 14.5378V16.2823C101.592 15.759 104.117 15.1193 106.643 14.3052C107.237 14.1307 107.126 12.5024 106.494 12.6187C104.08 13.0839 101.703 13.0258 99.326 12.4442C98.6203 12.2698 98.3232 13.9562 99.0288 14.1307C101.517 14.7122 104.006 14.8285 106.494 14.3633C106.457 13.7818 106.383 13.2002 106.346 12.6769C103.932 13.4329 101.517 14.1307 99.066 14.5959C98.3603 14.7122 98.3232 16.3405 99.066 16.3405C101.294 16.3405 103.449 15.9916 105.64 15.2356C105.529 14.6541 105.454 14.1307 105.343 13.5492C103.672 14.1888 102.037 14.5378 100.329 14.5378C99.6231 14.5378 99.6231 16.2242 100.329 16.2823C102.26 16.3987 104.117 16.0497 106.011 15.2356C106.606 14.9448 106.494 13.4329 105.863 13.5492C103.189 13.9562 100.515 14.3633 97.8403 14.7704C97.1346 14.8867 97.1346 16.3986 97.8403 16.515C100.292 16.922 102.632 16.515 104.934 15.3519C105.529 15.0611 105.417 13.6655 104.786 13.6655C101.889 13.491 99.066 15.0611 96.1689 14.8867V16.6313C99.2517 16.2823 102.26 15.4682 105.232 14.1888C105.937 13.8981 105.64 12.3279 104.934 12.5024C102.557 13.0839 100.217 13.6073 97.8403 13.491V15.2356C100.663 15.1193 103.486 15.003 106.309 14.8867C106.531 14.8867 106.791 14.5959 106.829 14.247C107.2 10.9904 108.351 5.23329 105.789 3.54686C105.417 3.31425 105.12 3.89577 105.083 4.361C105.009 5.81482 105.12 6.91972 105.454 8.25724C105.603 8.89692 106.234 9.18769 106.457 8.48986C106.977 6.80342 106.68 5.11699 105.603 4.12839C105.157 3.72132 104.674 4.361 104.786 5.11699C105.009 6.80342 105.454 8.08278 106.16 9.4203C106.494 10.06 107.089 9.47846 107.126 8.78062C107.237 6.91973 106.197 1.3952 104.303 3.08163C102.594 4.65176 104.86 10.9904 105.417 12.7932C105.64 13.5492 106.271 13.2002 106.42 12.5606C107.237 9.24585 107.609 5.75666 105.9 3.02348C105.566 2.5001 104.897 2.84902 104.934 3.66316C105.083 6.91973 105.232 10.2344 105.38 13.491C105.417 14.4215 106.383 14.7704 106.457 13.7236C106.754 10.5252 106.977 7.4431 106.383 4.24469C106.234 3.4887 105.64 3.43055 105.38 4.01207C104.229 6.5708 104.452 10.816 104.266 13.7818C104.192 14.8285 105.157 14.8867 105.343 14.0144C105.974 11.223 106.234 8.4317 106.16 5.4659C106.123 4.4773 105.231 4.24469 105.083 5.23329C104.563 8.19909 104.08 11.1067 103.56 14.0725C103.374 15.1774 104.377 15.5845 104.637 14.5378C105.306 11.8627 107.089 6.74527 105.603 4.07023C105.454 3.77947 105.12 3.72132 104.934 3.95393C102.892 6.04743 102.52 10.7578 102.074 14.1888C101.963 15.1193 102.78 15.759 103.077 14.8867C104.08 12.0372 105.863 7.4431 104.749 4.18654C104.563 3.72131 104.117 3.605 103.857 4.01207C102.074 6.91972 101.109 10.3507 100.96 14.3633C100.923 15.0611 101.592 15.5845 101.926 15.003C103.449 12.1535 104.414 8.95507 104.86 5.34959C104.934 4.65176 104.6 4.18653 104.192 4.30284C101.406 4.94252 100.069 11.1067 99.8831 14.8867C99.846 15.6427 100.515 16.0497 100.849 15.5264C102.297 12.7932 104.452 8.48986 103.709 4.70992C103.597 4.18654 103.189 3.83762 102.892 4.18654C100.44 6.86157 98.9546 10.7578 98.6203 15.4101C98.546 16.2242 99.2517 16.4568 99.586 16.0497C101.852 13.0839 103.152 9.07138 103.486 4.53546C103.523 3.95393 103.114 3.54685 102.78 3.72131C99.7345 5.23329 97.7289 9.65291 97.9146 14.6541C97.9517 15.4101 98.5089 15.8171 98.8803 15.2937C99.7345 13.9562 104.192 4.4773 101.406 3.43055C100.255 2.96532 98.9546 5.75666 98.3974 6.91972C97.246 9.30399 96.6518 12.0372 96.4289 15.003C96.3547 15.9334 97.2089 16.1079 97.4689 15.4682C98.806 12.328 99.5117 8.83877 99.6231 5.05883C99.6231 4.4773 99.2517 4.07023 98.9174 4.24469C97.3946 4.88437 96.4661 6.62896 96.0947 9.01323C95.8347 10.5252 95.5747 13.3747 96.6146 14.3633C97.6175 15.3519 98.4346 13.6073 98.9917 12.5606C100.18 10.4089 101.146 8.08278 101.443 5.23329C101.517 4.59361 101.072 3.72132 100.626 4.24469C98.3974 6.91973 97.1346 10.5834 96.9489 14.9448C96.9118 15.7008 97.5803 16.0497 97.9146 15.5845C98.806 14.1888 103.56 5.00068 100.997 3.4887C99.846 2.79087 98.6203 5.69851 98.1003 6.86157C96.9489 9.4203 96.3918 12.2698 96.2061 15.3519C96.1689 16.166 96.8375 16.4568 97.1718 15.9916C99.2517 12.9676 100.477 9.18769 100.775 4.76806C100.812 4.24469 100.403 3.77947 100.069 3.95393C97.246 5.52406 96.0204 10.5834 95.6118 14.8867C95.5375 15.7008 96.1318 16.4568 96.5404 15.759C97.4318 14.3052 101.666 5.17513 99.066 4.01207C97.8775 3.4887 96.5775 6.68711 96.0575 7.96648C95.0918 10.2926 94.6461 12.9676 94.5719 15.7008C94.5347 16.3987 95.2033 16.922 95.5375 16.3405C96.9489 13.6073 99.6974 7.79202 98.1746 4.12839C97.9517 3.60501 97.5803 3.60501 97.2832 3.95393C94.9804 6.97788 93.6433 11.1649 93.3833 15.8753C93.3462 16.6313 94.0147 16.9802 94.349 16.515C96.3175 13.4328 97.3203 9.53661 97.2832 5.23329C97.2832 4.59361 96.8004 4.12838 96.4289 4.4773C93.7919 7.03603 92.3062 11.2812 92.2691 16.1079C92.2691 16.8639 92.9005 17.2709 93.2348 16.7476C94.6461 14.4215 95.7975 11.6301 96.2804 8.48986C96.5032 7.15234 96.6518 4.53545 95.2775 4.65176C93.829 4.76807 92.3062 8.72247 91.7862 10.4671C91.2291 12.4443 90.6348 15.003 91.6377 16.8057C91.8234 17.1546 92.2319 17.0965 92.4176 16.8057C93.9033 14.5378 95.0175 11.6883 95.4261 8.48986C95.6118 7.03603 95.6861 4.5936 94.349 4.5936C92.9376 4.5936 91.4148 7.85017 90.8577 9.5366C89.9663 12.0372 89.7434 14.7704 90.0406 17.5617C90.1149 18.2595 90.7091 18.3758 90.9691 17.9688C92.6405 15.41 93.8662 12.2116 94.3861 8.60616C94.609 7.03603 94.9061 4.361 93.4205 4.41915C90.8577 4.53546 87.3292 14.5959 89.7434 17.2128C89.9292 17.3873 90.152 17.3291 90.3006 17.2128C91.6005 16.2242 96.2061 6.4545 93.3833 5.17513C92.1948 4.5936 90.8577 7.73387 90.412 9.07139C89.5577 11.572 89.372 14.3051 89.7806 16.9802C89.8549 17.6199 90.4491 17.8525 90.7091 17.3872C92.4548 14.4796 94.7947 9.30399 93.7919 5.17513C93.6805 4.65176 93.309 4.361 92.9748 4.65176C90.3377 7.15234 89.112 11.8627 89.8177 16.515C89.9292 17.1546 90.4491 17.3291 90.7463 16.922C92.2319 14.6541 93.049 11.8046 93.4205 8.60616C93.569 7.21049 93.9033 4.65176 92.7519 4.07023C91.5262 3.4887 90.3749 6.74527 89.9663 8.14094C89.2235 10.6415 89.112 13.3747 89.5206 16.1079C89.632 16.7476 90.152 16.9802 90.4491 16.515C92.3062 13.3747 93.049 9.4203 92.5291 5.23329C92.4548 4.76807 92.1205 4.53545 91.8605 4.65176C88.9635 5.75667 88.6663 12.1535 89.1492 15.8753C89.2606 16.6894 89.9292 16.6313 90.152 16.1079C91.1177 13.9562 91.7491 11.572 91.8977 8.89693C91.9719 7.61756 92.1948 4.94252 91.0805 4.4773C89.9663 4.01208 89.2977 6.5708 88.9635 7.79201C88.1835 10.5252 87.9978 13.4329 88.2206 16.3987C88.2949 17.2128 88.9635 17.678 89.2606 16.8639C90.412 13.7236 91.3777 9.01323 90.3377 5.52405C90.2634 5.23329 90.0406 5.05883 89.8549 5.11699C87.1064 5.17514 87.255 13.3747 87.7378 16.1079C87.8492 16.8057 88.5178 16.9802 88.7406 16.3405C89.7806 13.491 90.4491 9.30399 89.5577 6.10558C88.9263 3.83762 87.7749 4.88437 87.0692 6.57081C86.0664 9.01323 85.435 13.6073 86.4378 16.2823C87.2178 18.3759 88.2206 16.8057 88.7778 15.2356C89.4463 13.3165 90.5234 8.60616 89.4092 6.57081C88.4063 4.76807 87.1064 7.26864 86.5493 8.548C85.695 10.5834 84.8779 14.3051 85.955 16.515C86.7721 18.2014 88.2578 17.8525 88.7035 15.9334C88.8892 15.2356 88.4063 14.7704 88.0349 14.8867C87.255 15.0611 86.6235 15.4101 85.955 16.0497C86.1407 16.5731 86.3264 17.0383 86.5121 17.5617C87.2921 16.6313 87.8121 15.5845 88.1835 14.1307C88.4063 13.2584 87.6264 12.7932 87.2549 13.2584C87.0321 13.4329 86.8464 13.6073 86.6235 13.7818C86.8464 14.1888 87.0321 14.6541 87.2549 15.0611C88.2578 12.5024 89.2606 9.88553 90.2634 7.3268C90.5977 6.51266 89.7806 5.4659 89.372 6.28004C88.0349 8.89693 86.6607 11.572 85.3236 14.1888C85.6207 14.5378 85.9179 14.8867 86.215 15.2356C86.9578 12.5024 87.7007 9.82737 88.4435 7.09418C88.6663 6.28004 87.9978 5.17513 87.5521 6.04743C86.995 7.15233 86.4378 8.25725 85.8436 9.36215C86.1407 9.71107 86.4378 10.06 86.735 10.4089C87.2921 9.01323 87.7007 7.61756 88.0349 6.04743C88.1835 5.23329 87.4407 4.4773 87.1064 5.17513C86.3636 6.62896 85.6579 8.14094 84.915 9.59476C85.2122 9.94368 85.5093 10.2926 85.8064 10.6415C86.2893 8.95508 86.735 7.26865 87.2178 5.58221C87.515 4.59361 86.6235 3.72132 86.2521 4.70992C85.8436 5.75667 85.435 6.80342 85.0265 7.85017C84.5436 7.50125 85.5093 8.37355 85.8807 7.38495Z" fill="#E8E8E8"/>
<path d="M106.049 2.4425C106.049 4.4197 106.086 6.45506 106.123 8.43226C106.16 9.88608 106.569 12.9682 105.974 14.0731C105.603 14.7709 106.086 15.9921 106.643 15.4688C106.903 15.178 106.977 15.1198 107.2 14.7709C107.423 14.3057 107.386 13.4916 106.94 13.3171C106.271 13.0845 105.789 13.0845 105.12 13.4334C104.452 13.7823 104.712 15.4688 105.417 15.1198C105.826 15.0617 106.234 15.0617 106.643 15.0035C106.569 14.5383 106.494 14.0149 106.383 13.5497C106.271 13.7242 106.16 13.8405 106.086 14.0149C106.309 14.4802 106.531 14.9454 106.754 15.4106C107.571 13.8986 107.349 12.8519 107.274 10.8165C107.2 8.08334 107.163 5.292 107.163 2.55881C107.163 1.27944 106.049 1.27945 106.049 2.4425Z" fill="#E8E8E8"/>
<path d="M51.1162 53.0938C66.3814 51.7562 81.6837 51.2329 96.9861 51.5236C97.6918 51.5236 97.6918 49.7791 96.9861 49.7791C81.6837 49.4883 66.3814 50.0117 51.1162 51.3492C50.4105 51.4073 50.4105 53.1519 51.1162 53.0938Z" fill="#E8E8E8"/>
<path d="M53.0847 69.0283C64.0415 67.2256 75.0354 66.2951 86.0293 66.2951C86.735 66.2951 86.735 64.5505 86.0293 64.5505C75.0354 64.5505 64.0415 65.4228 53.0847 67.2837C52.379 67.4 52.3419 69.1446 53.0847 69.0283Z" fill="#E8E8E8"/>
<path d="M54.0875 98.7434C68.7213 96.3591 83.3923 95.0216 98.1004 94.8471C98.806 94.8471 98.806 93.1025 98.1004 93.1025C83.3923 93.277 68.7213 94.6145 54.0875 96.9988C53.3818 97.1151 53.3818 98.8597 54.0875 98.7434Z" fill="#E8E8E8"/>
<path d="M114.183 178.297C106.977 173.936 102.706 161.433 103.412 149.57C104.154 137.532 109.874 127.239 116.745 122.412C121.462 119.098 126.662 118.4 131.305 122.296C134.945 125.32 138.065 129.972 140.256 135.439C144.824 146.837 144.49 160.619 139.662 171.784C136.765 178.472 131.305 180.391 126.514 181.554C121.76 182.717 116.745 182.31 112.734 177.716C112.14 177.076 111.583 178.588 112.177 179.228C115.891 183.473 120.46 184.345 124.917 183.647C129.336 182.95 134.573 181.438 138.139 177.018C141.667 172.656 143.785 164.399 144.527 157.653C145.233 151.198 144.453 144.685 142.707 138.753C138.808 125.553 129.819 114.969 120.274 118.632C112.028 121.773 104.749 132.182 102.743 145.266C100.589 159.165 105.232 174.692 113.848 179.926C114.554 180.391 114.851 178.704 114.183 178.297Z" fill="#E8E8E8"/>
<path d="M122.02 118.923C122.465 129.681 122.911 140.439 123.394 151.198C123.431 152.302 124.545 152.302 124.508 151.198C124.062 140.439 123.617 129.681 123.134 118.923C123.097 117.818 121.982 117.818 122.02 118.923Z" fill="#E8E8E8"/>
<path d="M124.434 152.244C130.079 147.417 135.651 142.358 141.148 137.008C141.742 136.426 141.185 134.914 140.59 135.496C135.131 140.846 129.559 145.905 123.877 150.732C123.245 151.314 123.802 152.826 124.434 152.244Z" fill="#E8E8E8"/>
<path d="M124.657 152.535C131.045 152.535 137.359 154.919 143.636 156.606C144.342 156.78 144.639 155.094 143.933 154.919C137.582 153.233 131.156 150.791 124.657 150.791C123.951 150.791 123.951 152.535 124.657 152.535Z" fill="#E8E8E8"/>
<path d="M123.691 151.373C120.125 160.619 116.56 169.807 112.957 179.053C112.586 180.042 113.551 180.914 113.923 179.926C117.488 170.679 121.054 161.491 124.657 152.245C125.028 151.315 124.062 150.384 123.691 151.373Z" fill="#E8E8E8"/>
<path d="M60.4387 233.775C76.5953 231.856 92.7148 229.646 108.797 227.029C109.503 226.913 109.503 225.169 108.797 225.285C92.6777 227.844 76.5582 230.112 60.4387 232.031C59.733 232.147 59.733 233.891 60.4387 233.775Z" fill="#E8E8E8"/>
<path d="M65.9357 190.917C66.53 204.292 67.1614 217.725 67.7556 231.1C67.7928 232.205 68.907 232.205 68.8699 231.1C68.2756 217.725 67.6442 204.292 67.0499 190.917C66.9757 189.812 65.8614 189.812 65.9357 190.917Z" fill="#E8E8E8"/>
<path d="M67.0128 191.091C69.1299 190.509 71.2469 190.335 73.4012 190.509C73.2155 190.218 73.0297 189.927 72.844 189.637C73.4012 203.245 74.2183 216.794 75.2211 230.286C75.2954 231.391 76.4096 231.391 76.3353 230.286C75.2954 216.794 74.5154 203.186 73.9583 189.637C73.9211 189.171 73.7354 188.764 73.4012 188.764C71.1355 188.59 68.9442 188.823 66.7157 189.404C66.01 189.637 66.3442 191.323 67.0128 191.091Z" fill="#E8E8E8"/>
<path d="M78.7124 204.698C79.5666 212.781 80.0866 220.981 80.2723 229.18C80.3095 230.285 81.4237 230.285 81.3866 229.18C81.2009 220.806 80.6809 212.491 79.7895 204.233C79.678 203.128 78.6009 203.593 78.7124 204.698Z" fill="#E8E8E8"/>
<path d="M80.0495 205.571C82.2037 205.571 84.3208 205.396 86.4378 204.931C86.2521 204.64 86.0664 204.35 85.8807 204.059C86.4007 212.142 86.9578 220.167 87.4778 228.25C87.5521 229.355 88.6663 229.355 88.5921 228.25C88.0721 220.167 87.515 212.142 86.995 204.059C86.9578 203.652 86.7721 203.128 86.4378 203.187C84.3208 203.594 82.1666 203.826 80.0495 203.826C79.3438 203.826 79.3438 205.571 80.0495 205.571Z" fill="#E8E8E8"/>
<path d="M91.9348 190.799C92.8262 203.36 93.3833 215.921 93.6062 228.599C93.6433 229.704 94.7576 229.704 94.7204 228.599C94.4604 215.98 93.9033 203.36 93.049 190.799C92.9748 189.694 91.8605 189.694 91.9348 190.799Z" fill="#E8E8E8"/>
<path d="M92.492 191.498C93.6805 191.614 94.9062 191.672 96.0947 191.789C97.7661 191.905 97.8032 191.963 97.8404 194.58C97.9518 198.36 98.0632 202.082 98.2118 205.862C98.5461 213.073 99.0661 220.225 99.9203 227.32C100.069 228.425 101.109 227.96 100.997 226.855C99.9203 217.899 99.4003 208.769 99.1032 199.639C99.0289 197.546 98.9918 195.51 98.9175 193.417C98.8804 192.603 98.9546 191.381 98.5461 190.684C98.1004 189.986 97.3204 190.102 96.7633 190.044C95.3147 189.928 93.9034 189.811 92.4548 189.695C91.7863 189.695 91.7863 191.44 92.492 191.498Z" fill="#E8E8E8"/>
<path d="M106.94 246.161C121.277 244.591 135.576 241.741 149.69 237.612C150.396 237.38 150.099 235.751 149.393 235.926C135.353 240.055 121.165 242.846 106.94 244.416C106.197 244.474 106.197 246.219 106.94 246.161Z" fill="#E8E8E8"/>
<path d="M128.779 235.054C134.871 234.065 140.999 233.077 147.09 232.088C147.796 231.972 147.796 230.227 147.09 230.343C140.999 231.332 134.871 232.321 128.779 233.309C128.074 233.426 128.074 235.17 128.779 235.054Z" fill="#E8E8E8"/>
<path d="M139.179 223.423C141.965 223.249 144.787 223.074 147.573 222.9C148.279 222.842 148.279 221.097 147.573 221.155C144.787 221.33 141.965 221.504 139.179 221.679C138.436 221.737 138.436 223.481 139.179 223.423Z" fill="#E8E8E8"/>
<path d="M109.763 27.8553C110.468 31.0537 110.766 34.3103 110.654 37.6831C110.617 38.7881 111.731 38.7881 111.768 37.6831C111.88 34.1358 111.583 30.763 110.84 27.3901C110.58 26.3433 109.503 26.8085 109.763 27.8553Z" fill="#E8E8E8"/>
<path d="M110.691 28.0299C120.905 26.4016 131.119 25.3548 141.37 24.8315C142.076 24.7733 142.076 23.0287 141.37 23.0869C131.119 23.6102 120.868 24.657 110.691 26.2853C109.986 26.4016 109.986 28.1462 110.691 28.0299Z" fill="#E8E8E8"/>
<path d="M111.768 38.6138C121.945 37.4508 132.085 36.2877 142.262 35.1247C142.967 35.0665 142.967 33.3219 142.262 33.3801C132.085 34.5431 121.945 35.7062 111.768 36.8693C111.063 36.9274 111.063 38.672 111.768 38.6138Z" fill="#E8E8E8"/>
<path d="M141.519 25.1219C141.853 28.7274 142.187 32.2747 142.522 35.8802C142.633 36.9851 143.71 36.5199 143.599 35.415C143.265 31.8095 142.93 28.2622 142.596 24.6567C142.485 23.5518 141.407 24.017 141.519 25.1219Z" fill="#E8E8E8"/>
<path d="M321.136 72.4586C321.173 74.6684 321.247 76.82 321.433 79.0298C321.544 80.1347 322.659 80.1347 322.547 79.0298C322.362 76.8782 322.25 74.6684 322.25 72.4586C322.25 71.3537 321.136 71.3537 321.136 72.4586Z" fill="#E8E8E8"/>
<path d="M321.953 73.3303H394.045C394.751 73.3303 394.751 71.5857 394.045 71.5857C370.014 71.5857 345.984 71.5857 321.953 71.5857C321.247 71.5857 321.247 73.3303 321.953 73.3303Z" fill="#E8E8E8"/>
<path d="M393.376 73.1567V76.9948C393.376 78.0997 394.491 78.0997 394.491 76.9948C394.491 75.7154 394.491 74.4361 394.491 73.1567C394.491 71.9937 393.376 71.9937 393.376 73.1567Z" fill="#E8E8E8"/>
<path d="M322.621 79.6699H393.785C394.49 79.6699 394.49 77.9253 393.785 77.9253C370.051 77.9253 346.318 77.9253 322.621 77.9253C321.879 77.9253 321.879 79.6699 322.621 79.6699Z" fill="#E8E8E8"/>
<path d="M322.51 52.3956C323.439 58.9669 324.219 65.5963 324.85 72.2257C324.961 73.3306 326.039 72.8654 325.927 71.7605C325.259 65.1311 324.479 58.5016 323.587 51.9304C323.401 50.8255 322.362 51.2907 322.51 52.3956Z" fill="#E8E8E8"/>
<path d="M323.179 52.2795C328.044 52.5121 333.133 53.4425 337.998 52.5121C338.704 52.3958 338.704 50.6512 337.998 50.7675C333.133 51.6979 328.044 50.7675 323.179 50.5349C322.473 50.4767 322.473 52.2213 323.179 52.2795Z" fill="#E8E8E8"/>
<path d="M337.441 52.8607C336.921 59.1412 336.438 65.4217 335.918 71.7604C335.844 72.8653 336.958 72.8653 337.033 71.7604C337.553 65.4798 338.035 59.1993 338.555 52.8607C338.63 51.7558 337.515 51.7558 337.441 52.8607Z" fill="#E8E8E8"/>
<path d="M328.713 50.3606C327.97 49.8373 327.078 49.3139 326.521 48.3834C325.556 46.8715 325.63 44.8361 325.481 42.8589C325.258 40.242 324.33 37.9159 324.218 35.2409C323.921 35.4735 323.661 35.7642 323.364 35.9969C326.818 39.486 329.864 44.429 329.753 51.2911C329.715 52.396 330.83 52.396 330.867 51.2911C331.015 43.7894 327.71 38.323 323.921 34.4849C323.587 34.136 323.067 34.6012 323.067 35.2409C323.141 36.811 323.439 38.2067 323.773 39.7186C324.256 41.8122 324.256 43.8475 324.516 45.9992C324.924 49.1976 326.336 50.5933 328.118 51.8726C328.787 52.2797 329.344 50.8259 328.713 50.3606Z" fill="#E8E8E8"/>
<path d="M329.79 42.9173C329.381 38.4976 331.238 34.2525 332.278 30.3562C333.095 27.2741 333.69 24.1339 333.578 20.761C333.207 20.8191 332.835 20.9355 332.501 20.9936C333.875 31.0541 335.584 40.5911 332.65 50.4771C332.353 51.4657 333.318 52.3962 333.615 51.3494C334.952 46.8135 335.658 41.9287 335.51 36.9275C335.324 31.403 334.321 25.9366 333.578 20.5284C333.467 19.5398 332.464 19.7724 332.501 20.761C332.724 28.8442 327.97 35.3574 328.75 43.3825C328.824 44.4874 329.901 44.0222 329.79 42.9173Z" fill="#E8E8E8"/>
<path d="M347.952 9.24632C348.398 30.414 348.546 51.5235 348.286 72.6912C348.286 73.7961 349.401 73.7961 349.401 72.6912C349.623 51.5235 349.512 30.3558 349.066 9.24632C349.066 8.08326 347.952 8.08326 347.952 9.24632Z" fill="#E8E8E8"/>
<path d="M348.806 9.5376C350.403 7.4441 353.115 8.37455 354.898 9.24684C355.566 9.59576 355.863 7.90933 355.195 7.56041C352.929 6.4555 349.958 5.75767 348.026 8.3164C347.469 9.01423 348.249 10.2354 348.806 9.5376Z" fill="#E8E8E8"/>
<path d="M354.452 9.24632C354.526 30.1232 354.6 50.942 354.675 71.8189C354.675 72.9238 355.789 72.9238 355.789 71.8189C355.715 50.942 355.64 30.1232 355.566 9.24632C355.566 8.08326 354.452 8.08326 354.452 9.24632Z" fill="#E8E8E8"/>
<path d="M349.623 23.319C351.109 21.3999 353.3 21.5744 354.675 23.6098C355.195 24.3657 355.975 23.1445 355.455 22.3885C353.598 19.6554 350.775 19.5972 348.843 22.0978C348.286 22.7956 349.066 24.0168 349.623 23.319Z" fill="#E8E8E8"/>
<path d="M349.141 16.6318C350.775 14.422 353.115 14.3639 354.823 16.3992C355.418 17.0971 355.938 15.5269 355.38 14.8872C353.226 12.3867 350.329 12.7356 348.324 15.4106C347.804 16.1666 348.621 17.3878 349.141 16.6318Z" fill="#E8E8E8"/>
<path d="M355.603 24.1915C357.275 24.1915 358.909 24.4823 360.543 25.122C360.395 24.8312 360.283 24.5404 360.135 24.3078C360.357 40.0091 360.246 55.6523 359.726 71.3535C359.689 72.4585 360.803 72.4585 360.84 71.3535C361.36 55.7104 361.472 40.0091 361.249 24.3078C361.249 23.9589 361.063 23.5518 360.84 23.4937C359.095 22.7958 357.386 22.5051 355.603 22.5051C354.861 22.4469 354.861 24.1915 355.603 24.1915Z" fill="#E8E8E8"/>
<path d="M355.863 40.7073C357.349 39.1953 359.132 39.1372 360.654 40.5328C361.286 41.1144 361.843 39.6024 361.212 39.0209C359.355 37.2763 357.089 37.3344 355.306 39.1953C354.712 39.7769 355.269 41.2888 355.863 40.7073Z" fill="#E8E8E8"/>
<path d="M355.678 32.3915C356.978 31.4029 358.463 31.3447 359.8 32.217C360.469 32.6241 361.026 31.1702 360.357 30.705C358.612 29.542 356.829 29.6001 355.12 30.8795C354.489 31.4029 355.046 32.9148 355.678 32.3915Z" fill="#E8E8E8"/>
<path d="M363.7 71.5282C363.7 70.5396 363.292 66.9341 363.663 66.2363C364.183 65.2477 367.043 65.5966 367.786 65.5385C370.349 65.3058 372.948 65.1314 375.511 65.0732C380.674 64.9569 385.837 65.2477 390.962 65.8874C390.776 65.5966 390.591 65.3058 390.405 65.0151C390.628 67.6319 390.739 70.2488 390.702 72.9239C390.702 74.0288 391.816 74.0288 391.816 72.9239C391.816 70.2488 391.742 67.6319 391.519 65.0151C391.482 64.4917 391.296 64.2009 390.962 64.1428C384.611 63.3868 378.185 63.1542 371.834 63.5031C370.349 63.5613 368.9 63.6775 367.414 63.852C366.337 63.9683 364.332 63.6194 363.329 64.3754C361.88 65.4222 362.549 69.6673 362.586 71.5864C362.586 72.6331 363.7 72.6913 363.7 71.5282Z" fill="#E8E8E8"/>
<path d="M367.526 63.5607C367.452 62.921 367.08 61.002 367.154 60.3623C367.414 58.6177 368.491 59.0248 369.309 59.0248C370.646 58.9666 372.02 58.9666 373.357 58.9085C376.18 58.8503 379.003 58.734 381.862 58.6759C384.574 58.6177 387.285 58.5014 389.996 58.4433C391.482 58.3851 392.968 58.3851 394.416 58.327C395.456 58.327 396.051 57.7454 396.385 59.8389C396.533 60.7694 396.422 61.9906 396.385 62.9211C396.348 64.026 397.462 64.026 397.499 62.9211C397.536 61.4091 397.833 58.4433 397.053 57.1639C396.348 56.059 394.899 56.5824 394.045 56.6405C389.848 56.7568 385.688 56.8731 381.491 56.9894C377.443 57.1058 373.357 57.2221 369.309 57.3384C368.491 57.3384 366.746 56.815 366.152 57.9781C365.446 59.3156 366.3 62.6303 366.449 64.0841C366.597 65.1309 367.674 64.6656 367.526 63.5607Z" fill="#E8E8E8"/>
<path d="M390.739 65.8292C392.411 65.8874 394.119 65.9455 395.79 65.7711C396.608 65.6548 397.425 65.1895 397.35 63.6776C397.276 62.5727 396.162 62.5727 396.236 63.6776C396.273 64.3172 391.222 64.1428 390.739 64.0846C390.034 64.0265 390.034 65.7711 390.739 65.8292Z" fill="#E8E8E8"/>
<path d="M370.794 57.688C370.757 56.6994 370.571 55.3619 370.646 54.3733C370.72 53.2102 370.534 53.0358 371.388 52.8613C372.577 52.6287 374.1 53.2684 375.288 53.3847C377.777 53.6754 380.302 53.8499 382.791 53.9081C385.279 53.9662 387.805 53.9662 390.293 53.7918C391.408 53.7336 392.745 53.2684 393.859 53.501C394.379 53.1521 394.788 53.3847 395.048 54.1407C395.456 54.4314 395.605 54.9548 395.568 55.5945C395.679 56.0597 395.716 56.6412 395.828 57.1646C396.088 58.2114 397.165 57.7462 396.905 56.6994C396.57 55.42 396.793 53.501 396.125 52.3961C395.53 51.4075 394.676 51.6401 393.859 51.6982C390.182 51.989 386.468 52.1635 382.791 52.1053C379.225 51.989 375.66 51.6983 372.094 51.1749C371.351 51.0586 370.2 50.5933 369.68 51.7564C369.086 53.1521 369.606 56.1179 369.68 57.6299C369.754 58.7929 370.868 58.7929 370.794 57.688Z" fill="#E8E8E8"/>
<path d="M399.282 115.259V141.137C399.282 142.242 400.396 142.242 400.396 141.137C400.396 132.53 400.396 123.865 400.396 115.259C400.396 114.154 399.282 114.154 399.282 115.259Z" fill="#E8E8E8"/>
<path d="M400.21 115.259H429.181C429.886 115.259 429.886 113.514 429.181 113.514C419.524 113.514 409.867 113.514 400.21 113.514C399.505 113.514 399.505 115.259 400.21 115.259Z" fill="#E8E8E8"/>
<path d="M428.661 114.677V140.555C428.661 141.66 429.775 141.66 429.775 140.555C429.775 131.948 429.775 123.284 429.775 114.677C429.775 113.572 428.661 113.572 428.661 114.677Z" fill="#E8E8E8"/>
<path d="M399.839 142.591H428.809C429.515 142.591 429.515 140.847 428.809 140.847C419.152 140.847 409.496 140.847 399.839 140.847C399.133 140.847 399.133 142.591 399.839 142.591Z" fill="#E8E8E8"/>
<path d="M412.467 113.514C412.467 112.002 412.541 110.607 412.801 109.153C412.913 108.513 413.061 107.525 413.321 107.059C413.433 106.478 413.693 106.303 414.138 106.536C414.733 106.129 415.03 106.42 415.067 107.466C415.513 109.909 415.587 112.7 415.81 115.259C415.921 116.364 416.998 115.899 416.887 114.794C416.664 112.235 416.59 109.502 416.144 107.001C415.921 105.606 415.253 104.152 414.25 104.035C411.761 103.803 411.316 110.897 411.316 113.514C411.39 114.619 412.504 114.619 412.467 113.514Z" fill="#E8E8E8"/>
<path d="M401.102 119.039V138.229C401.102 139.334 402.216 139.334 402.216 138.229C402.216 131.833 402.216 125.436 402.216 119.039C402.216 117.934 401.102 117.934 401.102 119.039Z" fill="#E8E8E8"/>
<path d="M402.253 119.039H427.509C428.215 119.039 428.215 117.294 427.509 117.294C419.078 117.294 410.647 117.294 402.253 117.294C401.547 117.294 401.547 119.039 402.253 119.039Z" fill="#E8E8E8"/>
<path d="M426.804 118.458V138.811C426.804 139.916 427.918 139.916 427.918 138.811C427.918 132.007 427.918 125.262 427.918 118.458C427.918 117.353 426.804 117.353 426.804 118.458Z" fill="#E8E8E8"/>
<path d="M401.882 139.102H426.024C426.729 139.102 426.729 137.357 426.024 137.357C417.964 137.357 409.904 137.357 401.882 137.357C401.176 137.357 401.176 139.102 401.882 139.102Z" fill="#E8E8E8"/>
<path d="M402.922 131.368C403.739 129.507 404.482 129.1 405.113 130.03C405.224 130.146 405.299 130.263 405.41 130.379C405.67 130.553 405.856 130.844 406.116 130.96C406.562 131.193 407.082 131.135 407.527 130.844C407.861 130.612 408.159 130.204 408.27 129.623C408.456 128.692 408.01 128.518 407.973 127.704C407.787 127.355 407.862 127.006 408.196 126.541C408.27 125.203 408.79 124.913 409.681 125.727C409.904 125.727 410.127 125.843 410.313 125.785C410.981 125.61 411.056 125.261 411.539 124.622C413.098 122.645 414.844 123.633 415.253 126.773C415.29 127.181 415.476 129.856 415.178 130.146C414.881 129.565 414.584 129.041 414.287 128.46C415.253 128.692 415.958 129.507 416.367 130.786C416.59 131.368 417.073 131.309 417.333 130.786C418.075 129.565 418.818 129.507 419.561 130.67C419.821 130.263 420.081 129.856 420.341 129.448C420.044 129.041 419.784 128.634 419.487 128.227C418.521 126.948 418.595 125.494 419.747 123.808C421.307 123.924 422.124 126.308 421.455 128.46C420.601 131.077 418.558 131.426 416.887 131.193V132.938C419.301 133.17 421.752 133.403 424.167 133.635C424.872 133.694 424.872 131.949 424.167 131.891C421.752 131.658 419.301 131.426 416.887 131.193C416.181 131.135 416.181 132.821 416.887 132.938C418.818 133.228 420.935 132.647 422.161 129.972C423.127 127.82 423.052 124.564 421.641 122.877C420.564 121.598 418.93 121.83 418.038 123.517C416.701 126.134 418.261 128.983 419.524 130.728C420.044 131.484 420.824 130.321 420.304 129.507C419.115 127.529 417.295 127.878 416.33 129.972H417.295C416.367 127.588 414.621 125.843 412.876 127.297C411.539 128.46 411.056 131.484 412.281 133.228C413.544 135.031 415.364 133.635 416.033 131.6C416.775 129.274 416.627 125.61 415.55 123.517C414.473 121.423 412.578 121.191 411.241 122.761C410.313 123.866 410.87 124.04 409.31 123.866C408.79 123.808 408.344 123.633 407.824 123.866C407.267 124.098 406.747 124.622 406.487 125.494C406.302 126.134 406.227 126.715 406.413 127.413C406.45 127.646 406.859 128.169 406.822 128.344C406.673 129.623 404.519 127.297 404.147 127.181C402.476 126.773 401.362 129.565 401.845 131.833C402.067 132.88 403.144 132.472 402.922 131.368Z" fill="#E8E8E8"/>
<path d="M434.752 82.2286V102.233C434.752 103.338 435.866 103.338 435.866 102.233C435.866 95.5456 435.866 88.9162 435.866 82.2286C435.866 81.1237 434.752 81.1237 434.752 82.2286Z" fill="#E8E8E8"/>
<path d="M435.941 82.1123H456.443C457.148 82.1123 457.148 80.3677 456.443 80.3677C449.609 80.3677 442.775 80.3677 435.941 80.3677C435.198 80.3677 435.198 82.1123 435.941 82.1123Z" fill="#E8E8E8"/>
<path d="M435.606 103.629H456.109C456.814 103.629 456.814 101.884 456.109 101.884C449.275 101.884 442.44 101.884 435.606 101.884C434.901 101.884 434.901 103.629 435.606 103.629Z" fill="#E8E8E8"/>
<path d="M455.886 81.9956V102.524C455.886 103.628 457 103.628 457 102.524C457 95.6615 457 88.8576 457 81.9956C457 80.8325 455.886 80.8325 455.886 81.9956Z" fill="#E8E8E8"/>
<path d="M436.015 82.9844V102C436.015 103.105 437.129 103.105 437.129 102C437.129 95.6617 437.129 89.323 437.129 82.9844C437.129 81.8213 436.015 81.8213 436.015 82.9844Z" fill="#E8E8E8"/>
<path d="M436.423 102.117H455.997C456.703 102.117 456.703 100.372 455.997 100.372C449.46 100.372 442.96 100.372 436.423 100.372C435.681 100.372 435.681 102.117 436.423 102.117Z" fill="#E8E8E8"/>
<path d="M436.721 83.333H455.663C456.368 83.333 456.368 81.5884 455.663 81.5884C449.349 81.5884 443.035 81.5884 436.721 81.5884C436.015 81.5884 436.015 83.333 436.721 83.333Z" fill="#E8E8E8"/>
<path d="M455.403 82.6934V100.953C455.403 102.058 456.517 102.058 456.517 100.953C456.517 94.8474 456.517 88.7413 456.517 82.6934C456.517 81.5885 455.403 81.5885 455.403 82.6934Z" fill="#E8E8E8"/>
<path d="M440.323 97.5226C443.406 95.1965 446.897 94.0916 450.017 96.9411C450.649 97.5226 451.206 96.0106 450.574 95.4291C447.12 92.2307 443.22 93.3937 439.766 96.0106C439.098 96.4758 439.692 97.9878 440.323 97.5226Z" fill="#E8E8E8"/>
<path d="M440.323 95.0799C439.655 93.8005 441.363 93.3934 441.586 92.6956C441.772 92.1722 441.512 90.5439 441.623 90.6021C441.958 90.7184 442.329 90.3695 442.329 89.788C442.292 87.0548 444.186 91.4162 444.112 91.2418C444.335 91.6488 444.557 92.0559 444.929 92.2885C445.449 92.6375 446.563 91.707 446.86 92.0559C447.194 92.5211 447.64 92.2885 447.789 91.6489C448.086 91.4744 448.383 91.2999 448.717 91.1836C448.68 91.9396 449.349 92.3467 449.683 91.8233C450.686 93.0445 450.834 94.0331 450.092 94.7309C449.534 95.4869 450.352 96.7082 450.872 95.9522C451.837 94.6728 452.506 92.463 451.614 90.6602C450.872 89.1483 449.646 89.2646 448.866 90.6021C449.2 90.8347 449.497 91.0092 449.832 91.2418C449.906 89.9624 449.423 88.9157 448.532 88.7994C447.566 88.6831 447.009 89.9624 446.712 91.2418C447.009 91.1255 447.343 91.0092 447.64 90.8347C447.009 90.0206 446.897 90.3695 446.192 90.3113C444.297 90.195 444.855 88.3341 443.629 87.2292C442.403 86.1243 441.215 87.8108 441.215 89.788C441.438 89.4972 441.698 89.2064 441.92 88.9738C441.363 88.7994 440.695 88.7412 440.323 89.4972C439.915 90.3113 440.546 90.951 440.398 91.5325C440.175 92.463 439.098 92.1722 438.838 93.3934C438.578 94.5565 439.098 95.6032 439.543 96.4174C439.989 97.2315 440.769 95.9522 440.323 95.0799Z" fill="#E8E8E8"/>
<path d="M444.78 79.786C444.557 79.0301 444.446 78.2741 444.557 77.4599C444.595 76.9366 444.892 75.2501 445.412 75.4827C445.783 75.6572 446.155 77.1692 446.229 77.6925C446.415 78.623 446.452 79.4953 446.377 80.4839C446.303 81.5888 447.417 81.5888 447.492 80.4839C447.603 78.9137 447.454 77.4018 446.972 76.0061C446.6 74.8431 445.895 73.2729 444.929 73.7381C444.186 74.087 443.703 75.5409 443.517 76.6458C443.295 78.0414 443.406 79.4371 443.815 80.7165C444.149 81.7051 445.077 80.8328 444.78 79.786Z" fill="#E8E8E8"/>
<path d="M436.386 112.177V138.869C436.386 139.974 437.5 139.974 437.5 138.869C437.5 129.972 437.5 121.074 437.5 112.177C437.5 111.014 436.386 111.014 436.386 112.177Z" fill="#E8E8E8"/>
<path d="M436.943 111.537H454.214C454.92 111.537 454.92 109.792 454.214 109.792C448.457 109.792 442.7 109.792 436.943 109.792C436.201 109.792 436.201 111.537 436.943 111.537Z" fill="#E8E8E8"/>
<path d="M453.657 110.665V138.811C453.657 139.916 454.771 139.916 454.771 138.811C454.771 129.448 454.771 120.027 454.771 110.665C454.771 109.56 453.657 109.56 453.657 110.665Z" fill="#E8E8E8"/>
<path d="M437.389 140.847H453.731C454.437 140.847 454.437 139.102 453.731 139.102C448.272 139.102 442.849 139.102 437.389 139.102C436.683 139.102 436.683 140.847 437.389 140.847Z" fill="#E8E8E8"/>
<path d="M442.478 121.074C442.218 124.447 443.592 128.111 445.895 128.518C448.309 128.925 450.092 126.017 450.017 122.354C449.98 121.249 448.866 121.249 448.903 122.354C448.977 125.087 447.64 127.297 445.82 126.715C444.149 126.192 443.443 123.517 443.592 121.074C443.666 119.969 442.552 119.969 442.478 121.074Z" fill="#E8E8E8"/>
<path d="M446.229 128.111C446.154 128.925 446.489 129.565 446.34 130.321C446.117 131.484 445.152 132.589 444.669 133.461C443.852 134.973 443.257 136.485 443.22 138.521C443.183 139.625 444.297 139.625 444.335 138.521C444.409 135.846 445.857 134.275 446.823 132.298C447.12 131.717 447.417 131.077 447.529 130.379C447.64 129.565 447.269 128.925 447.343 128.111C447.417 127.006 446.303 127.006 446.229 128.111Z" fill="#E8E8E8"/>
<path d="M443.666 128.053C442.366 127.937 439.915 126.657 440.509 123.808C440.806 122.296 442.032 122.238 442.552 121.191C443.257 119.854 442.663 119.098 442.106 118.109C441.586 117.179 440.509 116.83 441.958 114.794C442.775 113.631 444.112 115.085 444.78 115.957C445.189 116.539 445.263 117.179 445.82 117.586C446.192 117.876 446.675 117.993 447.083 117.76C447.752 117.295 448.494 114.213 449.2 118.051C449.274 118.516 449.609 118.807 449.869 118.632C449.906 119.854 449.943 121.017 449.943 122.238C449.497 123.11 450.277 124.331 450.723 123.459C451.429 122.063 452.246 120.319 451.726 118.458C451.317 117.062 450.426 116.539 449.534 116.946C449.757 117.12 449.98 117.353 450.203 117.527C449.906 115.957 449.423 114.329 448.272 114.213C447.9 114.155 447.566 114.271 447.269 114.562C447.343 114.503 446.823 115.434 446.823 115.434C446.043 116.074 445.82 114.969 445.375 114.271C444.595 112.933 443.963 112.177 442.7 112.468C441.735 112.701 440.36 113.747 440.026 115.318C439.618 117.179 440.62 117.702 441.066 119.098C441.549 119.388 441.549 119.737 441.029 120.144C440.918 120.493 440.769 120.668 440.583 120.784C440.435 120.958 440.212 121.075 440.063 121.307C439.766 121.831 439.543 122.354 439.395 122.994C438.541 127.239 441.326 129.507 443.555 129.74C444.372 129.856 444.372 128.111 443.666 128.053Z" fill="#E8E8E8"/>
<path d="M444.075 110.491C444.037 109.619 443.852 108.048 444.52 107.525C445.226 107.002 445.115 108.688 445.04 109.27C444.892 110.375 445.969 110.84 446.117 109.735C446.229 108.804 446.303 107.758 446.006 106.885C445.709 106.071 445.152 105.606 444.595 105.722C443.072 106.013 442.886 108.572 442.997 110.491C442.997 111.596 444.112 111.596 444.075 110.491Z" fill="#E8E8E8"/>
<path d="M437.76 112.003V137.649C437.76 138.753 438.875 138.753 438.875 137.649C438.875 129.1 438.875 120.552 438.875 112.003C438.875 110.84 437.76 110.84 437.76 112.003Z" fill="#E8E8E8"/>
<path d="M438.429 138.927H453.248C453.954 138.927 453.954 137.183 453.248 137.183C448.309 137.183 443.369 137.183 438.429 137.183C437.723 137.183 437.723 138.927 438.429 138.927Z" fill="#E8E8E8"/>
<path d="M453.657 138.287C453.657 129.332 453.657 120.318 453.657 111.362C453.657 110.257 452.543 110.257 452.543 111.362V138.287C452.543 139.392 453.657 139.392 453.657 138.287Z" fill="#E8E8E8"/>
<path d="M438.689 112.236H453.36C454.066 112.236 454.066 110.491 453.36 110.491C448.457 110.491 443.592 110.491 438.689 110.491C437.983 110.491 437.983 112.236 438.689 112.236Z" fill="#E8E8E8"/>
<path d="M231.142 426.493C228.653 423.353 225.273 422.713 222.525 424.865C219.293 427.424 217.548 433.413 218.365 439.403C219.033 447.37 219.702 455.395 220.371 463.362C206.814 473.074 200.351 479.412 200.908 482.32C201.577 485.867 212.571 484.355 233.927 477.9C232.999 460.745 232.07 443.648 231.142 426.493Z" fill="#191919"/>
<path d="M222.079 237.728C221.559 249.417 220.705 268.375 219.256 291.869C217.474 321.352 216.731 351.068 214.205 380.436C211.605 410.908 208.745 431.785 215.319 439.054C217.696 441.671 220.556 441.671 222.599 441.264C224.753 440.391 226.908 439.461 229.062 438.589C231.179 440.217 234.039 441.787 236.342 439.926C243.101 434.518 236.713 406.779 237.196 367.002C237.53 340.775 240.761 314.607 245.07 280.238C248.338 254.011 250.827 240.403 246.184 233.716C240.539 225.516 228.022 233.367 222.079 237.728Z" fill="white" stroke="#161616" stroke-width="0.344856" stroke-miterlimit="10"/>
<path opacity="0.14" d="M232.739 232.263C234.15 242.556 235.747 258.141 235.636 277.099C235.45 307.688 230.882 326.994 227.576 349.965C224.568 370.784 221.671 401.139 222.971 440.276C224.939 439.695 226.945 439.055 228.913 438.474C229.359 438.997 231.179 440.916 233.704 440.567C234.076 440.509 236.527 440.102 238.124 437.252C240.093 433.763 239.684 428.588 239.461 426.087C238.607 415.212 238.421 404.221 237.716 393.289C236.973 381.774 237.084 372.819 237.122 367.411C237.159 363.34 237.344 355.722 238.273 343.335C239.907 321.761 241.393 318.097 244.624 286.753C247.075 263.142 245.998 267.446 246.927 262.096C247.781 257.327 249.23 250.407 248.45 241.626C248.078 237.497 247.41 235.171 246.333 233.485C244.104 230.054 240.799 230.112 238.83 230.17C236.193 230.228 234.039 231.391 232.739 232.263Z" fill="#6D6C6C"/>
<path opacity="0.1" d="M243.324 291.579C240.538 301.232 237.604 313.91 235.821 329.204C232.702 356.187 235.784 369.911 233.147 398.755C232.182 409.397 230.362 422.772 226.796 437.892C228.133 438.183 229.47 438.473 230.844 438.822C232.85 439.927 235.376 440.741 237.196 438.822C240.464 435.391 239.35 425.331 238.533 413.526C238.533 413.526 237.53 398.988 237.381 371.365C237.307 356.071 238.199 344.789 239.498 328.332C240.65 313.561 242.061 301.058 243.324 291.579Z" fill="#6D6C6C"/>
<path d="M278.014 422.074C275.526 418.934 272.146 418.294 269.398 420.446C266.166 423.005 264.421 428.994 265.238 434.984C265.906 442.951 266.575 450.976 267.243 458.943C253.687 468.655 247.224 474.993 247.781 477.901C248.45 481.448 259.444 479.936 280.8 473.481C279.834 456.326 278.906 439.229 278.014 422.074Z" fill="#191919"/>
<path d="M264.161 235.926C266.315 263.549 268.618 292.044 271.069 321.644C272.74 341.997 273.149 346.824 274.449 354.733C276.677 368.457 279.686 380.146 282.286 401.372C283.511 411.258 284.143 419.283 281.209 425.331C279.017 429.866 274.746 433.472 273.78 432.076C273.372 431.437 273.632 429.808 274.003 428.354C273.112 429.692 267.466 438.008 262.972 435.1C260.335 433.414 259.258 428.587 258.738 425.97C253.464 400.674 252.609 375.319 252.609 375.319C252.275 365.549 251.458 355.547 249.861 335.484C248.672 320.772 246.444 299.488 241.653 273.61C240.947 272.912 234.039 265.701 233.593 252.384C233.556 251.395 233.296 241.335 237.344 234.531C242.693 225.517 254.132 224.877 264.161 235.926Z" fill="white" stroke="#161616" stroke-width="0.344856" stroke-miterlimit="10"/>
<path d="M234.187 242.905C232.85 248.953 232.479 255.757 234.596 261.514C236.416 266.457 239.35 271.865 242.916 273.61C243.584 273.959 243.881 272.272 243.213 271.924C239.944 270.353 237.196 265.178 235.561 260.642C233.593 255.292 234.039 249.011 235.264 243.37C235.524 242.324 234.447 241.858 234.187 242.905Z" fill="white"/>
<path d="M233.073 253.721C233.407 262.793 237.121 270.353 242.767 272.853C243.473 273.144 243.77 271.458 243.064 271.167C237.939 268.899 234.522 262.037 234.187 253.721C234.15 252.616 233.036 252.616 233.073 253.721Z" fill="white"/>
<path opacity="0.14" d="M249.527 228.367C250.492 232.903 251.978 240.23 253.612 249.302C258.366 275.587 266.575 321.121 267.095 375.901C267.169 385.031 267.392 431.495 270.066 431.728C270.697 431.786 271.737 429.227 273.149 429.809C274.114 430.216 274.152 431.611 275.006 432.135C276.863 433.24 279.946 428.239 281.431 424.575C281.951 423.296 283.14 420.388 283.4 416.259C283.548 414.398 283.437 413.061 283.028 409.106C282.434 403 282.137 399.976 281.914 398.464C280.317 386.659 277.457 375.319 275.117 359.327C274.114 352.582 273.446 346.534 272.629 339.555C272.369 337.346 271.663 330.891 270.883 322.865C269.138 304.489 268.58 291.87 267.429 275.762C266.798 266.98 265.832 254.594 264.346 239.532C263.975 238.253 263.306 236.276 262.118 234.473C261.709 233.891 260.446 232.089 257.029 230.402C255.358 229.472 252.795 228.483 249.527 228.367Z" fill="#6D6C6C"/>
<path opacity="0.2" d="M273.669 350.662C275.712 365.549 277.086 378.284 278.014 388.287C279.5 404.569 279.574 410.501 277.643 416.782C274.746 426.26 268.729 431.901 269.1 432.657C269.249 432.948 270.215 432.366 273.557 428.994C273.669 430.389 273.929 431.959 274.672 432.483C276.566 433.762 280.763 427.365 282.583 421.259C285.071 412.827 283.251 404.162 281.58 395.846C279.5 385.321 276.714 370.317 273.669 350.662Z" fill="#6D6C6C"/>
<path d="M224.27 137.066C220.631 136.31 217.288 143.753 210.788 158.582C206.331 168.701 203.211 177.598 201.168 183.763C196.748 183.414 192.329 183.065 187.909 182.658C183.786 182.309 179.663 181.96 175.541 181.553C173.906 180.68 171.455 179.401 168.447 178.296C163.581 176.435 153.516 173.353 152.884 176.086C152.699 176.959 153.367 178.761 157.676 183.007C157.378 184.17 156.301 189.054 157.676 194.695C157.898 195.568 159.124 200.278 162.021 202.72C165.735 205.803 170.861 204.116 174.612 198.359C177.509 201.092 193.22 215.456 208.002 205.628C212.831 202.43 216.211 197.545 219.219 193.241C224.679 185.391 231.847 175.098 232.033 160.792C232.182 150.441 228.69 137.996 224.27 137.066Z" fill="white" stroke="#161616" stroke-width="0.344856" stroke-miterlimit="10"/>
<path d="M152.587 176.784C154.036 179.052 155.447 181.495 157.081 183.414C158.678 185.275 160.498 186.322 162.355 187.31C162.875 187.601 163.098 186.322 162.578 186.031C160.61 184.984 158.715 183.821 157.081 181.727C155.67 179.925 154.444 177.831 153.181 175.854C152.81 175.273 152.216 176.203 152.587 176.784Z" fill="#161616"/>
<path d="M170.155 182.775C168.744 183.589 167.444 184.869 166.441 186.613C165.735 187.834 164.695 189.753 164.955 191.498C165.215 193.475 166.775 193.475 167.815 193.475C169.487 193.417 171.084 192.661 172.532 191.324C172.978 190.917 172.569 189.753 172.124 190.219C171.195 191.091 170.192 191.731 169.115 192.021C168.187 192.254 165.475 192.777 165.958 190.044C166.441 187.253 168.818 184.985 170.415 184.054C170.861 183.764 170.638 182.484 170.155 182.775Z" fill="#161616"/>
<path d="M157.193 184.054C156.413 187.95 156.413 191.73 159.087 193.591C161.055 194.986 163.915 194.289 164.918 190.974C165.141 190.218 164.435 189.578 164.212 190.334C163.395 193.067 161.055 193.533 159.421 192.37C157.155 190.799 157.378 187.601 158.01 184.403C158.158 183.588 157.378 183.24 157.193 184.054Z" fill="#161616"/>
<path d="M157.007 192.66C157.155 195.975 158.455 199.232 160.684 199.871C162.652 200.453 164.472 198.592 165.178 195.801C165.364 195.045 164.584 194.696 164.361 195.452C163.767 197.778 162.095 199.174 160.498 198.476C158.864 197.72 157.935 195.161 157.824 192.66C157.824 191.846 156.97 191.846 157.007 192.66Z" fill="#161616"/>
<path d="M165.03 196.44C167.927 195.626 166.961 203.709 164.844 203.419C164.324 203.361 164.324 204.64 164.844 204.756C166.627 204.989 167.592 201.558 167.704 199.232C167.815 196.673 166.404 194.812 164.807 195.277C164.287 195.335 164.51 196.557 165.03 196.44Z" fill="#161616"/>
<path d="M164.807 191.73C164.807 191.672 164.844 191.672 164.844 191.614C164.695 191.672 164.584 191.73 164.435 191.788C164.732 191.905 164.77 193.417 164.732 193.707C164.695 194.463 164.51 195.161 164.138 195.743C163.767 196.324 164.361 197.255 164.732 196.673C165.29 195.801 165.587 194.58 165.549 193.3C165.512 192.37 165.327 190.741 164.621 190.509C164.472 190.451 164.324 190.509 164.212 190.683C164.212 190.741 164.175 190.741 164.175 190.8C163.878 191.439 164.435 192.37 164.807 191.73Z" fill="#161616"/>
<path d="M162.801 187.427C163.692 187.485 164.25 188.823 164.027 190.16C163.878 190.975 164.695 191.323 164.844 190.509C165.215 188.358 164.287 186.206 162.838 186.148C162.244 186.09 162.244 187.427 162.801 187.427Z" fill="#161616"/>
<path opacity="0.12" d="M229.767 146.429C228.69 151.372 226.908 158.06 224.085 165.387C221.188 172.889 217.956 181.205 211.679 188.183C209.377 190.742 202.431 198.302 192.143 198.883C182.449 199.407 175.318 193.475 172.495 190.8C170.267 193.417 168.744 193.591 167.741 193.243C166.85 192.894 166.515 192.196 164.955 191.44C163.618 190.8 162.541 190.684 161.947 190.626C159.793 190.393 157.564 190.16 156.97 191.731C156.19 193.882 158.715 198.476 160.684 200.977C161.575 202.082 163.135 204.001 165.327 204.524C170.489 205.804 174.315 198.767 174.538 198.36C175.801 199.581 177.621 201.268 179.923 202.896C183.675 205.629 188.986 209.409 196.043 209.351C204.065 209.351 209.86 204.408 211.048 203.361C212.459 202.082 215.096 198.476 220.333 191.207C225.199 184.461 226.982 181.496 228.616 177.425C229.582 175.041 230.807 171.959 231.513 167.713C233.036 158.642 230.993 150.384 229.767 146.429Z" fill="#6D6C6C"/>
<path opacity="0.15" d="M231.736 153.407C231.03 157.246 229.805 162.654 227.687 168.644C225.719 174.226 220.519 188.59 209.488 197.429C206.22 200.046 200.574 204.466 192.737 204.233C184.046 203.942 177.806 198.127 175.169 195.336C173.684 196.79 171.455 198.65 168.558 199.872C164.695 201.442 161.91 200.918 161.835 201.791C161.761 202.663 164.435 204.524 167.221 204.408C171.121 204.233 173.869 200.221 174.872 198.592C177.435 201.5 187.017 211.735 199.571 209.118C209.265 207.083 215.394 198.534 220.779 190.974C224.79 185.333 229.433 178.646 231.216 167.48C232.144 161.781 231.996 156.78 231.736 153.407Z" fill="#6D6C6C"/>
<path d="M220.333 137.299C219.591 138.636 218.291 141.486 217.176 155.094C215.691 173.586 216.471 188.241 217.176 199.173C217.994 212.142 219.145 227.785 220.816 245.579C227.279 248.72 238.013 252.267 250.901 249.069C256.732 247.615 261.709 245.114 265.721 242.497C264.866 227.959 264.978 216.212 265.238 208.478C266.501 168.527 267.652 157.42 267.652 157.42C268.506 149.453 269.286 144.51 267.392 140.032C265.498 135.438 261.895 133.868 250.418 132.705C232.999 130.844 224.233 130.088 220.333 137.299Z" fill="#EC615B"/>
<path opacity="0.14" d="M245.404 132.822C246.555 139.218 247.521 146.022 248.338 153.233C252.572 191.149 249.601 224.761 245.404 249.825C247.558 249.593 249.824 249.186 252.238 248.546C257.364 247.208 261.858 245.115 265.572 242.963C265.052 231.391 264.903 221.505 264.903 213.654C264.94 191.73 266.166 174.982 266.686 168.295C267.355 160.153 268.06 153.35 268.655 148.407C268.803 147.011 268.952 144.452 268.172 141.777C267.28 138.695 265.609 137.067 264.903 136.427C262.489 134.159 260.038 134.159 258.701 134.159C255.506 133.985 251.272 133.694 245.404 132.822Z" fill="#6D6C6C"/>
<path opacity="0.16" d="M268.358 146.545C261.783 173.237 260.409 192.312 260.558 205.163C260.595 209.99 260.929 221.562 256.992 233.716C254.578 241.102 251.421 246.277 249.007 249.534C251.235 249.069 253.687 248.371 256.324 247.266C259.704 245.87 262.638 244.126 265.126 242.439C264.792 227.436 264.829 211.153 265.46 193.765C266.018 176.785 267.058 161.025 268.358 146.545Z" fill="#6D6C6C"/>
<path d="M263.306 137.474C267.875 134.334 274.077 143.522 278.089 149.395C282.471 155.85 291.348 168.935 291.794 190.335C292.165 208.188 286.483 221.098 283.66 226.506C279.24 234.938 274.226 239.358 271.255 241.509C271.217 243.487 271.032 246.627 270.177 250.058C269.695 251.919 267.243 261.688 262.563 262.096C261.932 262.154 259.778 262.154 257.289 258.49C257.141 258.49 256.398 258.316 255.915 257.269C255.469 256.28 255.432 254.826 255.878 253.663C255.767 253.547 254.801 252.791 254.578 250.988C254.318 249.011 255.172 247.557 255.247 247.499C255.284 246.511 255.432 245.231 256.027 244.592C256.695 243.894 257.401 244.475 258.478 244.359C259.184 244.243 260.186 243.836 261.375 242.207C260.038 241.626 257.029 240.114 257.104 238.427C257.141 236.45 261.486 235.287 262.452 234.996C264.829 234.357 266.872 234.473 268.246 234.647C269.063 232.321 270.252 228.89 271.663 224.761C274.04 217.783 275.229 214.294 275.934 211.793C277.272 207.141 278.757 200.105 279.166 190.277C277.494 187.718 274.932 184.054 271.663 180.042C264.606 171.435 262.229 171.261 260.298 166.376C256.658 157.246 258.404 140.847 263.306 137.474Z" fill="white" stroke="#161616" stroke-width="0.344856" stroke-miterlimit="10"/>
<path d="M254.875 246.801C255.469 251.337 259.926 250.291 261.709 248.662C262.155 248.255 261.746 247.092 261.301 247.557C260.001 248.779 256.138 250.116 255.692 246.511C255.581 245.638 254.764 245.987 254.875 246.801Z" fill="#161616"/>
<path d="M255.321 254.07C257.549 256.57 260.818 255.407 263.158 253.721C263.641 253.372 263.232 252.267 262.749 252.616C260.669 254.07 257.735 255.116 255.767 252.965C255.321 252.441 254.912 253.604 255.321 254.07Z" fill="#161616"/>
<path d="M256.992 259.187C259.295 260.932 261.969 260.699 264.086 258.373C264.532 257.908 264.123 256.745 263.678 257.268C261.821 259.303 259.481 259.652 257.438 258.082C256.955 257.675 256.509 258.78 256.992 259.187Z" fill="#161616"/>
<path opacity="0.18" d="M261.709 139.683C260.966 143.638 269.658 147.418 277.272 160.211C279.909 164.631 285.294 173.645 286.557 187.02C288.154 203.593 282.62 216.852 280.577 221.621C276.64 230.983 271.849 236.508 268.952 239.358C268.952 240.986 268.803 246.917 265.906 251.919C265.312 252.965 262.972 256.978 259.555 257.559C257.587 257.908 255.804 257.036 255.729 257.385C255.692 257.734 257.067 258.199 258.849 260.118C260.001 261.339 260.038 261.863 260.595 262.27C262.898 263.956 266.538 258.839 266.946 258.315C270.735 252.907 271.18 244.882 271.255 241.916C272.109 241.16 273.26 240.114 274.597 238.718C275.972 237.264 280.02 233.077 283.214 227.552C284.068 226.099 288.414 218.364 290.531 205.978C291.274 201.616 293.317 188.997 290.048 175.215C288.6 169.225 286.743 165.329 283.4 158.525C280.429 152.419 278.237 149.395 274.003 143.522C270.957 139.276 269.138 137.299 266.686 137.067C265.015 136.892 262.118 137.532 261.709 139.683Z" fill="#6D6C6C"/>
<path opacity="0.18" d="M287.151 166.317C288.414 171.202 290.234 180.099 289.974 191.439C289.714 203.768 287.151 212.723 286.148 215.805C281.543 230.343 274.263 238.136 270.697 241.393C273.595 239.706 277.792 236.508 281.766 230.518C293.391 212.956 291.682 188.183 291.534 186.438C290.865 177.715 288.86 170.911 287.151 166.317Z" fill="#6D6C6C"/>
<path d="M244.587 92.6957C246.815 104.384 247.633 111.188 250.79 121.889C252.275 126.89 253.687 130.844 254.689 133.461C251.458 135.845 246.221 138.927 239.499 139.334C235.524 139.567 232.107 138.753 229.47 137.822C229.73 134.624 229.879 130.611 229.693 126.076C229.433 120.377 228.653 115.55 227.91 112.003C224.345 111.305 220.742 110.549 217.176 109.851C216.471 107.408 215.765 104.908 215.059 102.465C214.094 102.407 213.091 102.349 212.125 102.291C212.868 98.9181 213.982 93.6262 215.282 87.0549C217.696 74.6683 217.659 72.9237 218.959 70.1324C222.562 62.5144 230.622 57.6295 235.933 61.7584C239.09 64.1427 240.947 73.6797 244.587 92.6957Z" fill="white" stroke="#161616" stroke-width="0.344856" stroke-miterlimit="10"/>
<path d="M212.199 103.221C214.057 103.279 215.876 103.047 217.696 102.639C218.402 102.465 218.105 100.779 217.399 100.953C215.654 101.36 213.945 101.535 212.199 101.476C211.494 101.476 211.494 103.221 212.199 103.221Z" fill="#161616"/>
<path d="M211.494 81.0067C212.534 80.1344 213.908 80.5997 214.577 82.1116C214.985 83.0421 215.951 82.1698 215.542 81.2393C214.502 78.9132 212.534 78.1572 210.937 79.4948C210.305 80.0181 210.862 81.5301 211.494 81.0067Z" fill="#161616"/>
<path d="M220.259 83.0425C221.596 82.4028 223.045 83.1006 223.825 84.9615C224.233 85.892 225.199 85.0197 224.79 84.0892C223.713 81.6468 221.782 80.4838 219.962 81.4142C219.293 81.705 219.553 83.3914 220.259 83.0425Z" fill="#161616"/>
<path d="M220.519 89.5551C220.482 88.9154 220.556 88.2758 220.779 87.6942C220.816 87.5779 220.891 87.4035 220.965 87.2872C220.816 86.9964 220.742 86.9382 220.779 87.229C220.705 87.3453 220.742 87.9268 220.705 88.1013C220.668 88.3921 220.593 88.6828 220.519 88.9736C220.482 89.0899 220.445 89.2062 220.408 89.2644C220.593 89.7877 220.705 89.8459 220.779 89.4388C220.928 89.2062 221.002 88.6828 221.113 88.3921C221.225 88.0431 221.336 87.6942 221.448 87.3453C221.745 86.473 221.039 85.6007 220.556 86.2986C220.296 86.7056 220.148 87.1127 220.036 87.6361C219.851 88.741 220.928 89.2062 221.113 88.1013C221.151 87.8105 221.225 87.6942 221.336 87.5198C221.039 87.1709 220.742 86.8219 220.445 86.473C220.185 87.2872 219.888 88.1013 219.665 88.9736C219.479 89.6133 219.516 90.3693 219.925 90.7763C220.928 91.7649 221.559 89.7296 221.745 88.5084C221.893 87.3453 221.893 84.9029 220.668 85.4263C219.702 85.8915 219.331 88.1013 219.368 89.4388C219.442 90.66 220.556 90.66 220.519 89.5551Z" fill="#161616"/>
<path d="M217.659 73.1566C217.919 70.656 218.551 66.469 220.296 62.1657C220.928 60.6537 222.228 57.4553 224.345 55.3037C228.393 51.1748 234.596 51.5237 239.09 56.583C243.51 61.526 245.701 70.3653 244.735 79.2045C235.747 77.2273 226.685 75.1919 217.659 73.1566Z" fill="#5222D0"/>
<path d="M202.877 73.3305C216.805 76.0637 230.696 78.7969 244.624 81.5301C246.741 81.9372 246.741 76.7034 244.624 76.2963C230.696 73.5631 216.805 70.83 202.877 68.0968C200.723 67.6897 200.76 72.9235 202.877 73.3305Z" fill="#161616"/>
<path d="M235.747 78.6231C233.296 80.0188 231.847 82.6938 230.213 85.7759C226.722 92.4053 227.762 94.8478 225.31 98.9766C221.411 105.548 217.436 101.652 213.945 108.107C210.974 113.573 211.382 120.958 211.494 122.645C211.605 124.273 212.125 130.844 215.579 135.38C218.588 139.277 222.599 140.149 222.859 139.277C222.933 138.986 222.636 138.172 220.408 135.846C221.039 136.543 222.079 137.416 223.379 137.823C224.902 138.23 226.35 137.823 226.35 137.474C226.35 137.183 225.533 137.241 224.902 136.194C224.53 135.555 224.382 134.857 224.27 134.217C225.496 135.438 227.019 136.543 228.467 135.846C232.442 133.985 233.147 120.202 233.37 115.608C234.113 100.838 231.402 92.7543 234.707 87.5205C234.967 87.0553 236.304 84.9618 237.79 85.427C239.647 85.9504 241.058 90.4281 240.464 93.3939C239.944 95.9527 238.087 96.6505 238.199 97.1739C238.384 97.7554 241.504 96.825 244.141 93.5684C245.107 92.4053 245.887 91.4167 246.295 89.6722C247.001 86.5901 246.184 83.1009 245.07 81.0074C242.767 76.8203 238.421 77.1111 235.747 78.6231Z" fill="#161616" stroke="#161616" stroke-width="0.344856" stroke-miterlimit="10"/>
<path opacity="0.22" d="M239.424 97.6971C238.83 97.8134 237.976 97.8134 237.939 97.5227C237.901 97.3482 238.124 97.1156 238.124 97.1156C238.124 97.1156 237.419 98.5113 236.527 98.6857C236.119 98.7439 235.747 98.5694 235.487 98.3368C237.047 103.512 238.644 109.735 240.018 116.946C241.504 124.855 242.358 132.007 242.841 138.172C244.438 138.172 246.704 137.881 249.304 136.601C251.421 135.555 253.092 134.159 254.355 132.938C251.012 124.738 249.304 118.167 248.338 113.689C247.892 111.596 246.927 106.653 246.481 104.21C245.627 99.7906 244.921 96.127 244.475 93.6846C244.253 94.0335 243.844 94.5569 243.361 95.0802C242.655 95.8944 241.281 97.4064 239.424 97.6971Z" fill="#6D6C6C"/>
<path d="M229.433 52.7452C233.036 53.8501 235.747 58.386 236.193 63.6779C236.676 70.0166 233.704 74.378 233.407 74.7269C237.27 75.4829 241.096 76.1808 244.958 76.9368C245.033 75.5411 245.07 73.622 244.81 71.4122C244.067 64.3176 241.393 59.898 240.836 59.0257C239.944 57.63 236.787 52.9196 232.07 52.5125C230.993 52.4544 230.065 52.6288 229.433 52.7452Z" fill="#321693"/>
<path d="M147.684 307.28C147.87 310.421 148.019 313.619 148.204 316.759L337.292 317.283C337.849 314.142 338.407 310.944 338.964 307.804C275.229 307.629 211.457 307.455 147.684 307.28Z" fill="white"/>
<path d="M150.21 307.687H152.216C152.921 307.687 152.921 305.943 152.216 305.943C151.547 305.943 150.879 305.943 150.21 305.943C149.467 305.943 149.467 307.687 150.21 307.687Z" fill="#161616"/>
<path d="M148.167 309.374H222.71C222.71 309.374 272.406 309.374 297.254 309.374H339.521C340.969 309.374 340.969 305.885 339.521 305.885C314.673 305.885 289.825 305.885 264.978 305.885C240.13 305.885 215.282 305.885 190.434 305.885C176.358 305.885 162.244 305.885 148.167 305.885C146.756 305.885 146.756 309.374 148.167 309.374Z" fill="#161616"/>
<path d="M148.687 317.981H295.471H336.995C338.444 317.981 338.444 314.491 336.995 314.491C288.08 314.491 239.127 314.491 190.212 314.491C176.358 314.491 162.541 314.491 148.687 314.491C147.239 314.491 147.239 317.981 148.687 317.981Z" fill="#161616"/>
<path d="M154.593 326.471V472.609V514.363C154.593 516.631 156.821 516.631 156.821 514.363C156.821 465.631 156.821 416.898 156.821 368.224C156.821 354.326 156.821 340.369 156.821 326.471C156.821 324.261 154.593 324.261 154.593 326.471Z" fill="#161616"/>
<path d="M309.771 324.145V456.442V494.009C309.771 496.277 311.999 496.277 311.999 494.009C311.999 449.929 311.999 405.791 311.999 361.711C311.999 349.208 311.999 336.706 311.999 324.145C311.999 321.877 309.771 321.877 309.771 324.145Z" fill="#161616"/>
<path d="M1.08639 473.655H86.0664H171.418H219.293C220.742 473.655 220.742 470.166 219.293 470.166C190.954 470.166 162.652 470.166 134.313 470.166C105.863 470.166 77.4124 470.166 48.962 470.166C32.9911 470.166 17.0573 470.166 1.08639 470.166C-0.362131 470.166 -0.362131 473.655 1.08639 473.655Z" fill="#161616"/>
<path d="M262.006 475.226H337.292H412.207H454.846C456.294 475.226 456.294 471.737 454.846 471.737C429.738 471.737 404.667 471.737 379.56 471.737C354.6 471.737 329.604 471.737 304.645 471.737C290.42 471.737 276.232 471.737 262.006 471.737C260.558 471.737 260.558 475.226 262.006 475.226Z" fill="#161616"/>
<path d="M155.038 326.412V469.352V510.059C155.038 512.327 157.267 512.327 157.267 510.059C157.267 462.432 157.267 414.746 157.267 367.119C157.267 353.569 157.267 340.02 157.267 326.412C157.267 324.144 155.038 324.144 155.038 326.412Z" fill="#161616"/>
<path d="M155.521 327.168V469.526V510.059C155.521 512.327 157.75 512.327 157.75 510.059C157.75 462.606 157.75 415.153 157.75 367.701C157.75 354.209 157.75 340.718 157.75 327.168C157.75 324.958 155.521 324.958 155.521 327.168Z" fill="#161616"/>
<path d="M309.585 323.271V452.778V489.763C309.585 492.031 311.813 492.031 311.813 489.763C311.813 446.614 311.813 403.406 311.813 360.257C311.813 347.928 311.813 335.6 311.813 323.271C311.813 321.062 309.585 321.062 309.585 323.271Z" fill="#161616"/>
<path d="M310.105 324.086V452.488V489.066C310.105 491.334 312.333 491.334 312.333 489.066C312.333 446.265 312.333 403.465 312.333 360.664C312.333 348.452 312.333 336.24 312.333 324.086C312.333 321.818 310.105 321.818 310.105 324.086Z" fill="#161616"/>
<path d="M149.913 318.271C151.844 321.935 153.553 325.773 155.076 329.843C155.818 331.762 157.75 330.018 157.007 328.099C155.373 323.795 153.516 319.725 151.473 315.828C150.544 314.084 148.984 316.526 149.913 318.271Z" fill="#161616"/>
<path d="M157.453 328.622C160.201 325.017 162.913 321.353 165.661 317.748C166.738 316.294 165.178 313.852 164.101 315.305C161.353 318.911 158.641 322.574 155.893 326.18C154.779 327.634 156.376 330.076 157.453 328.622Z" fill="#161616"/>
<path d="M303.382 320.074C305.685 322.342 307.988 324.61 310.29 326.878C311.516 328.099 312.63 325.075 311.405 323.854C309.102 321.586 306.799 319.318 304.496 317.05C303.271 315.887 302.156 318.911 303.382 320.074Z" fill="#161616"/>
<path d="M316.79 315.945C314.859 318.387 313.002 321.004 311.256 323.737C310.253 325.307 311.813 327.808 312.816 326.18C314.562 323.447 316.419 320.83 318.35 318.387C319.464 316.992 317.905 314.549 316.79 315.945Z" fill="#161616"/>
<path d="M305.128 320.247C308.099 320.945 310.996 321.12 313.967 320.655C313.782 319.55 313.596 318.503 313.41 317.398C312.185 318.619 310.922 318.968 309.473 319.201C308.656 319.375 307.839 321.12 308.693 322.167C309.845 323.62 310.996 324.086 312.445 323.504C313.819 322.981 313.262 319.608 311.85 320.131C311.293 320.48 310.736 320.306 310.253 319.666C309.993 320.655 309.733 321.643 309.473 322.632C311.256 322.341 313.002 321.934 314.525 320.306C315.379 319.433 315.156 316.875 313.967 317.049C311.219 317.456 308.433 317.398 305.685 316.758C304.311 316.526 303.716 319.899 305.128 320.247Z" fill="#161616"/>
<path d="M315.899 316.933C314.859 316.584 313.819 316.817 312.928 317.747C312.445 318.271 312.222 319.259 312.519 320.132C312.816 320.888 313.559 321.295 314.042 320.771C314.45 320.306 314.859 320.132 315.267 320.306C315.862 320.481 316.456 320.015 316.642 319.085C316.827 318.213 316.493 317.108 315.899 316.933Z" fill="#161616"/>
<path d="M152.439 319.899C153.107 320.597 155.596 322.4 155.484 323.912L156.598 322.167C156.45 322.167 156.004 319.492 155.893 319.027C155.558 319.899 155.261 320.771 154.927 321.644C157.156 321.469 159.273 320.772 161.315 319.492C160.944 318.504 160.61 317.573 160.238 316.584C158.976 318.62 157.638 320.539 156.19 322.283L157.713 324.668C159.05 321.12 157.156 318.213 155.224 316.701C155.039 317.806 154.853 318.852 154.667 319.957C156.19 319.841 157.713 319.783 159.235 319.899C160.684 320.015 160.647 316.526 159.235 316.41C157.713 316.294 156.19 316.294 154.667 316.468C153.627 316.584 153.07 318.911 154.11 319.725C154.779 320.248 156.413 321.353 155.818 322.923C155.299 324.319 156.413 326.412 157.341 325.307C158.938 323.388 160.461 321.353 161.835 319.085C162.541 317.922 161.835 315.48 160.758 316.177C158.864 317.34 156.97 318.038 154.964 318.213C154.073 318.271 153.664 319.608 153.999 320.83C154.63 323.039 154.593 325.714 156.636 325.656C157.304 325.656 157.676 324.842 157.75 323.912C158.047 320.423 155.113 318.445 153.627 316.933C152.364 315.654 151.25 318.678 152.439 319.899Z" fill="#161616"/>
<path d="M164.621 305.477C164.621 302.627 164.621 299.778 164.621 296.87C164.621 295.765 163.507 295.765 163.507 296.87V305.477C163.507 306.64 164.621 306.64 164.621 305.477Z" fill="#E8E8E8"/>
<path d="M164.064 297.627H194.891C195.597 297.627 195.597 295.882 194.891 295.882C184.603 295.882 174.352 295.882 164.064 295.882C163.358 295.882 163.358 297.627 164.064 297.627Z" fill="#E8E8E8"/>
<path d="M194.334 296.754V304.954C194.334 306.059 195.449 306.059 195.449 304.954C195.449 302.221 195.449 299.488 195.449 296.754C195.449 295.591 194.334 295.591 194.334 296.754Z" fill="#E8E8E8"/>
<path d="M165.475 300.883H189.06C189.766 300.883 189.766 299.138 189.06 299.138C181.186 299.138 173.349 299.138 165.475 299.138C164.77 299.138 164.77 300.883 165.475 300.883Z" fill="#E8E8E8"/>
<path d="M170.712 304.198H188.8C189.506 304.198 189.506 302.453 188.8 302.453C182.783 302.453 176.729 302.453 170.712 302.453C170.007 302.453 170.007 304.198 170.712 304.198Z" fill="#E8E8E8"/>
<path d="M171.975 296.58C171.975 294.603 171.975 292.684 171.975 290.707C171.975 289.602 170.861 289.602 170.861 290.707V296.58C170.861 297.685 171.975 297.685 171.975 296.58Z" fill="#E8E8E8"/>
<path d="M172.124 291.23H198.977C199.683 291.23 199.683 289.485 198.977 289.485C190.026 289.485 181.075 289.485 172.124 289.485C171.418 289.485 171.418 291.23 172.124 291.23Z" fill="#E8E8E8"/>
<path d="M195.226 297.219H198.717C199.423 297.219 199.423 295.475 198.717 295.475C197.566 295.475 196.377 295.475 195.226 295.475C194.52 295.475 194.52 297.219 195.226 297.219Z" fill="#E8E8E8"/>
<path d="M198.42 290.532V296.173C198.42 297.278 199.534 297.278 199.534 296.173C199.534 294.312 199.534 292.393 199.534 290.532C199.534 289.369 198.42 289.369 198.42 290.532Z" fill="#E8E8E8"/>
<path d="M177.509 294.138H183.935C184.64 294.138 184.64 292.393 183.935 292.393C181.78 292.393 179.663 292.393 177.509 292.393C176.766 292.393 176.766 294.138 177.509 294.138Z" fill="#E8E8E8"/>
<path d="M188.577 295.591H194.297C195.003 295.591 195.003 293.847 194.297 293.847C192.403 293.847 190.472 293.847 188.577 293.847C187.872 293.847 187.872 295.591 188.577 295.591Z" fill="#E8E8E8"/>
<path d="M178.215 288.671C177.323 287.334 177.138 285.298 177.212 283.437C177.361 280.355 179.143 280.239 180.629 281.169C181.298 281.576 181.595 279.89 180.926 279.483C179.255 278.436 177.063 278.494 176.321 281.576C175.689 284.193 176.135 287.973 177.435 289.892C177.955 290.706 178.735 289.427 178.215 288.671Z" fill="#E8E8E8"/>
<path d="M180.443 280.298C183.935 277.855 185.383 287.043 182.375 289.369C181.743 289.893 182.3 291.347 182.932 290.881C187.24 287.508 184.715 275.413 179.886 278.786C179.218 279.251 179.812 280.763 180.443 280.298Z" fill="#E8E8E8"/>
<path d="M180.555 279.832C180.369 277.971 179.923 276.285 179.218 274.773C178.809 273.842 177.843 274.714 178.252 275.645C178.883 277.041 179.292 278.552 179.478 280.297C179.589 281.402 180.666 280.937 180.555 279.832Z" fill="#E8E8E8"/>
<path d="M180.035 276.867C180.146 276.401 180.295 275.994 180.48 275.587C180.555 275.413 180.666 275.18 180.778 275.006C180.815 274.889 180.889 274.831 180.963 274.715C180.778 274.133 180.666 274.017 180.592 274.308C180.406 274.599 180.22 275.355 180.109 275.762C179.923 276.285 179.7 276.75 179.478 277.216C179.069 278.146 180.035 279.018 180.443 278.088C180.852 277.216 181.223 276.285 181.52 275.296C181.78 274.482 181.929 273.436 181.26 273.029C180.146 272.389 179.292 275.122 178.995 276.343C178.698 277.448 179.775 277.913 180.035 276.867Z" fill="#E8E8E8"/>
<path d="M362.549 393.928C362.697 396.661 362.846 399.453 362.995 402.186C380.117 401.953 397.239 401.721 414.361 401.488C414.176 398.871 413.99 396.254 413.804 393.696C396.682 393.812 379.634 393.87 362.549 393.928Z" fill="white"/>
<path d="M362.883 403.116H414.213C415.661 403.116 415.661 399.627 414.213 399.627C397.09 399.627 380.005 399.627 362.883 399.627C361.472 399.627 361.434 403.116 362.883 403.116Z" fill="#161616"/>
<path d="M363.217 395.149H413.581C415.03 395.149 415.03 391.66 413.581 391.66C396.793 391.66 380.005 391.66 363.217 391.66C361.769 391.66 361.769 395.149 363.217 395.149Z" fill="#161616"/>
<path d="M361.472 393.928V399.859C361.472 402.127 363.7 402.127 363.7 399.859C363.7 397.882 363.7 395.905 363.7 393.928C363.7 391.66 361.472 391.66 361.472 393.928Z" fill="#161616"/>
<path d="M413.099 393.928V401.837C413.099 404.105 415.327 404.105 415.327 401.837C415.327 399.22 415.327 396.545 415.327 393.928C415.327 391.66 413.099 391.66 413.099 393.928Z" fill="#161616"/>
<path d="M388.065 402.36V502.558C388.065 504.826 390.293 504.826 390.293 502.558C390.293 469.178 390.293 435.798 390.293 402.36C390.293 400.092 388.065 400.092 388.065 402.36Z" fill="#161616"/>
<path d="M387.991 502.034C384.165 505.581 380.34 509.129 376.477 512.676C375.251 513.839 376.365 516.863 377.591 515.7C381.417 512.153 385.242 508.605 389.105 505.058C390.368 503.895 389.216 500.871 387.991 502.034Z" fill="#161616"/>
<path d="M388.622 504.535C392.968 508.315 397.276 512.153 401.622 515.933C402.885 517.038 403.999 514.014 402.736 512.909C398.39 509.129 394.082 505.291 389.736 501.511C388.474 500.406 387.359 503.43 388.622 504.535Z" fill="#161616"/>
<path d="M377.145 516.98C385.391 516.863 393.599 516.456 401.845 515.816C403.256 515.7 403.293 512.211 401.845 512.327C393.636 512.967 385.391 513.374 377.145 513.49C375.697 513.49 375.697 516.98 377.145 516.98Z" fill="#161616"/>
<path d="M378.371 403.639C381.714 411.083 384.759 418.875 387.508 426.9C388.176 428.877 390.108 427.133 389.439 425.156C386.691 417.131 383.645 409.338 380.302 401.894C379.485 400.034 377.554 401.778 378.371 403.639Z" fill="#161616"/>
<path d="M400.693 401.139C395.828 408.408 391.668 416.666 388.288 425.737C387.545 427.656 389.476 429.459 390.219 427.482C393.525 418.643 397.573 410.676 402.29 403.639C403.33 402.069 401.733 399.569 400.693 401.139Z" fill="#161616"/>
<path d="M309.919 469.527C309.622 477.843 309.362 486.159 309.065 494.475C294.877 504.128 288.043 510.467 288.6 513.374C289.231 516.864 300.151 515.642 321.284 509.827C321.433 495.58 321.582 481.332 321.693 467.085C317.793 467.899 313.856 468.713 309.919 469.527Z" fill="#161616"/>
<path d="M353.969 334.787C350.812 339.206 346.318 345.603 341.081 353.512C328.601 372.47 319.427 386.368 313.225 400.732C308.099 412.654 300.485 435.333 299.891 472.435C305.016 474.645 311.479 476.506 318.982 476.389C321.507 476.331 323.922 476.098 326.113 475.691C325.147 467.259 324.367 454.059 326.336 438.59C327.71 427.715 330.013 418.992 332.093 412.654C348.806 401.023 360.097 386.776 367.303 375.901C374.583 364.91 382.865 352.349 380.637 343.452C378.594 335.019 367.711 331.763 353.969 334.787Z" fill="#EC615B"/>
<path opacity="0.18" d="M371.537 334.845C365.929 346.533 359.206 359.211 351.146 372.121C341.044 388.345 331.053 401.43 322.101 411.839C318.982 433.298 315.862 454.756 312.742 476.156C314.079 476.505 315.602 476.796 317.273 476.796C320.653 476.912 323.55 476.156 325.778 475.226C325.073 467.899 324.59 457.838 325.481 446.149C326.596 431.728 329.418 420.388 331.721 412.886C340.115 406.838 346.764 400.674 351.555 395.789C351.555 395.789 366.56 380.553 378.185 357.175C378.445 356.652 379.337 354.849 380.042 352.058C380.6 349.79 381.305 346.999 380.748 344.091C380.228 341.474 378.965 340.02 377.628 338.567C376.588 337.462 374.545 335.543 371.537 334.845Z" fill="#6D6C6C"/>
<path opacity="0.16" d="M331.424 413.177C329.827 417.829 328.267 422.714 326.744 427.831C321.619 445.102 318.053 461.618 315.565 476.621C318.982 476.389 322.361 476.156 325.778 475.982C324.999 468.945 324.404 459.466 325.073 448.475C326.001 432.949 329.01 420.853 331.424 413.177Z" fill="#6D6C6C"/>
<path d="M332.835 477.551C334.544 485.867 336.252 494.183 337.961 502.499C325.333 514.362 319.353 521.515 320.059 523.899C320.913 526.807 331.795 522.504 352.743 510.989C349.846 497.789 346.949 484.588 344.052 471.387C340.301 473.364 336.55 475.458 332.835 477.551Z" fill="#161616"/>
<path d="M394.082 346.068C396.719 367.061 392.745 378.866 390.851 383.402C387.062 392.474 382.011 395.266 367.266 406.722C361.509 411.2 352.743 418.178 342.009 427.424C342.752 434.81 343.941 443.3 345.835 452.546C347.618 461.269 349.698 468.887 351.703 475.284C349.735 478.25 345.761 483.484 339.707 486.508C333.17 489.822 327.561 488.834 324.813 488.078C318.982 470.05 317.496 454.233 317.087 444.579C316.604 432.949 316.047 419.748 320.393 406.722C323.736 396.719 326.967 395.789 340.487 379.622C360.803 355.373 362.846 346.301 373.32 342.928C381.899 340.195 389.513 343.393 394.082 346.068Z" fill="#EC615B"/>
<path opacity="0.22" d="M380.191 342.172C380.377 348.917 380.042 359.501 376.588 370.318C373.691 379.448 369.829 385.961 357.089 399.452C345.761 411.432 336.735 420.678 330.904 426.61C334.618 446.091 338.332 465.572 342.047 485.053C343.161 484.472 344.498 483.599 345.872 482.378C348.398 480.11 350.181 477.377 351.332 475.284C349.698 469.817 348.064 463.711 346.615 457.024C344.238 446.323 342.752 436.321 341.824 427.656C351.035 419.631 357.497 414.398 361.286 411.432C366.931 407.012 369.717 404.802 372.577 402.651C373.543 401.953 375.697 400.383 378.52 398.057C381.677 395.498 383.237 394.277 384.648 392.765C385.799 391.543 388.696 388.345 391.036 383.053C394.379 375.493 394.676 367.584 394.899 361.827C395.048 358.106 395.011 352.697 394.119 346.359C392.188 345.079 389.588 343.684 386.468 342.869C384.054 342.172 381.937 342.055 380.191 342.172Z" fill="#6D6C6C"/>
<path opacity="0.11" d="M394.862 357.698C394.268 360.781 393.191 365.258 391.296 370.085C385.465 384.74 376.551 390.555 370.311 395.44C362.92 401.255 352.966 410.85 341.898 427.424C345.018 424.691 348.843 421.434 353.3 417.712C361.174 411.141 365.074 407.884 369.123 404.861C372.28 402.534 375.883 400.034 381.268 395.556C385.131 392.358 387.248 390.38 389.254 386.717C391.519 382.588 392.522 378.459 393.191 375.668C394.008 372.179 395.159 365.956 394.862 357.698Z" fill="#6D6C6C"/>
<path opacity="0.17" d="M341.749 428.006C341.787 432.89 342.009 438.124 342.418 443.649C343.458 457.78 345.649 469.934 347.989 479.762C348.658 479.18 349.438 478.366 350.255 477.261C350.775 476.563 351.221 475.865 351.555 475.226C349.995 470.166 348.472 464.526 347.024 458.42C344.461 447.371 342.827 437.077 341.749 428.006Z" fill="#6D6C6C"/>
<path d="M369.606 232.204C364.963 234.647 364.146 243.312 361.026 253.198C361.026 253.198 356.123 268.899 345.389 281.809C341.489 286.519 333.058 294.835 318.982 296.289C317.607 295.417 315.49 294.254 312.816 293.556C308.991 292.567 303.642 291.113 300.039 295.94C298.405 298.15 296.585 302.337 297.402 304.896C298.405 308.036 302.862 306.815 310.179 306.291C320.319 305.593 319.836 307.338 326.893 306.64C333.207 306 343.161 305.07 353.523 295.591C363.44 286.577 368.566 274.54 369.791 271.458C372.168 265.642 373.246 260.932 375.437 251.453C378.334 239.008 377.851 236.217 377.034 234.589C375.623 231.565 372.206 230.809 369.606 232.204Z" fill="white" stroke="#161616" stroke-width="0.344856" stroke-miterlimit="10"/>
<path d="M314.562 298.092C312.222 298.79 308.842 298.964 307.133 301.988C306.168 303.733 306.316 306.815 308.099 306.815C308.619 306.815 308.656 305.477 308.099 305.477C307.208 304.023 307.282 302.86 308.396 302.046C308.768 301.639 309.176 301.348 309.622 301.058C310.105 300.767 310.588 300.592 311.07 300.418C312.296 300.011 313.522 299.662 314.785 299.313C315.305 299.197 315.082 297.975 314.562 298.092Z" fill="#161616"/>
<path d="M297.031 303.5C299.222 307.803 302.639 302.802 305.276 303.907C305.796 304.14 306.019 302.86 305.499 302.628C304.348 302.162 303.345 302.395 302.193 302.977C300.671 303.733 298.814 305.012 297.588 302.569C297.291 301.93 296.697 302.86 297.031 303.5Z" fill="#161616"/>
<path d="M298.368 298.208C298.442 299.953 299.185 300.651 300.262 300.651C302.676 300.651 304.794 299.139 307.208 300.36C307.728 300.593 307.951 299.371 307.431 299.081C306.205 298.441 305.016 298.383 303.754 298.557C302.862 298.674 299.297 300.244 299.222 298.15C299.148 297.394 298.331 297.394 298.368 298.208Z" fill="#161616"/>
<path d="M302.008 294.602C302.379 295.998 303.011 296.638 303.976 296.87C305.871 297.277 307.505 297.394 309.251 298.615C309.733 298.964 310.179 297.801 309.659 297.51C308.693 296.87 307.728 296.289 306.688 295.998C305.499 295.649 303.308 296.23 302.788 294.253C302.602 293.497 301.785 293.846 302.008 294.602Z" fill="#161616"/>
<path opacity="0.16" d="M374.1 232.379C371.983 233.194 372.614 242.091 371.5 250.349C369.643 263.666 363.589 271.982 356.903 281.17C352.372 287.392 347.061 294.719 338.964 297.976C336.178 299.081 331.573 300.302 326.633 300.709C319.947 301.233 316.642 301.523 316.419 301.465C315.305 301.291 312.593 300.825 309.696 302.803C309.102 303.21 307.468 304.315 307.579 305.129C307.728 306.35 311.59 306.001 320.282 305.885C326.707 305.827 326.039 306.001 328.007 305.885C331.721 305.652 338.184 305.303 345.464 301.174C355.826 295.359 362.214 285.066 365.149 280.297C367.971 275.645 369.531 272.04 370.014 270.935C372.317 265.527 373.394 260.7 375.511 251.221C377.963 240.172 377.963 237.264 376.997 234.996C376.328 233.659 375.103 231.972 374.1 232.379Z" fill="#6D6C6C"/>
<path opacity="0.13" d="M298.034 305.361C298.294 304.314 299.408 300.011 302.379 297.743C306.836 294.428 311.182 298.906 311.368 299.08C310.402 299.895 309.585 300.476 308.991 300.825C308.062 301.465 307.691 301.581 307.356 302.163C306.799 303.267 306.948 304.896 307.096 305.884C305.908 306.291 304.348 306.582 302.491 306.466C300.708 306.408 299.185 305.884 298.034 305.361Z" fill="#6D6C6C"/>
<path opacity="0.14" d="M376.96 241.916C375.4 250.058 371.983 263.782 364.48 277.041C354.266 295.126 342.269 302.163 336.81 304.78C341.007 303.616 356.606 298.441 367.6 276.11C374.1 262.851 376.18 249.36 376.96 241.916Z" fill="#6D6C6C"/>
<path d="M368.343 232.669C366.003 236.682 364.332 241.974 363.254 261.513C361.657 290.066 364.183 296.638 361.36 310.769C360.06 317.224 357.386 326.586 351.183 336.647C355.566 341.066 362.66 347.114 372.168 350.604C381.565 354.035 389.551 353.511 394.751 352.581C401.436 320.422 400.879 294.428 399.505 278.436C398.205 263.2 395.271 228.133 383.608 223.714C378.074 221.562 371.797 226.796 368.343 232.669Z" fill="white" stroke="#161616" stroke-width="0.344856" stroke-miterlimit="10"/>
<path opacity="0.12" d="M380.637 223.831C380.451 226.215 380.191 229.762 379.931 234.008C378.185 262.444 380.228 267.62 378.891 284.368C378.148 293.905 376.588 311.758 368.566 328.39C365.223 335.31 361.695 340.137 359.169 343.102C363.217 346.301 369.383 350.313 377.257 352.174C384.314 353.803 390.294 353.163 394.528 352.174C395.716 346.824 397.128 339.555 398.242 330.832C400.322 314.666 400.47 300.883 400.21 291.346C399.728 272.912 398.65 233.368 385.725 225.285C383.72 224.063 381.9 223.831 380.637 223.831Z" fill="#6D6C6C"/>
<path opacity="0.24" d="M399.95 307.338C399.505 307.222 398.465 314.433 396.942 320.946C395.011 329.378 391.371 340.718 383.831 352.988C387.471 352.698 391.148 352.465 394.788 352.174C396.013 346.01 397.573 336.822 398.836 325.482C399.653 317.864 400.507 307.513 399.95 307.338Z" fill="#6D6C6C"/>
<path d="M390.405 231.914C394.602 233.193 396.385 243.603 397.87 252.733C399.356 261.921 402.216 280.646 398.205 305.303C396.533 315.48 395.048 324.959 389.885 334.554C383.162 347.115 374.583 352 370.571 353.803C366.114 358.629 363.812 361.072 362.512 362.351C361.583 363.282 361.026 363.805 360.023 364.91C358.575 366.538 358.315 367.061 357.609 367.527C356.866 367.992 355.678 368.341 353.895 367.469C353.746 367.527 352.595 367.759 351.741 366.422C351.221 365.608 351.109 364.677 351.109 364.27C350.998 364.27 350.292 364.154 349.809 363.223C349.364 362.351 349.326 361.13 349.661 360.083C349.512 359.618 349.364 358.978 349.364 358.164C349.178 354.093 352.261 350.837 353.969 348.976C355.789 346.999 359.392 343.858 364.963 343.044C367.971 340.544 372.466 336.066 376.44 328.564C377.703 326.238 386.134 309.839 385.465 287.799C385.205 278.553 383.088 261.339 381.9 245.289C381.825 244.126 381.602 240.986 382.68 237.962C384.239 233.833 387.805 231.158 390.405 231.914Z" fill="white" stroke="#161616" stroke-width="0.344856" stroke-miterlimit="10"/>
<path d="M349.772 360.49C350.292 360.49 350.329 359.152 349.772 359.152C349.252 359.152 349.252 360.49 349.772 360.49Z" fill="#161616"/>
<path d="M349.364 359.792V360.199C349.401 360.897 349.883 361.072 350.143 360.548C351.629 357.466 353.635 355.198 355.975 354.035C356.495 353.802 356.272 352.523 355.752 352.756C353.189 354.035 351.035 356.477 349.401 359.85C349.661 359.967 349.921 360.083 350.181 360.199C350.181 360.083 350.181 359.967 350.181 359.792C350.181 358.978 349.326 358.978 349.364 359.792Z" fill="#161616"/>
<path d="M351.443 364.503C353.338 361.13 355.678 358.571 358.352 356.885C358.835 356.594 358.649 355.314 358.129 355.605C355.306 357.35 352.855 359.967 350.849 363.514C350.515 364.212 351.109 365.142 351.443 364.503Z" fill="#161616"/>
<path d="M354.229 367.643C356.16 364.212 358.389 361.363 360.915 359.036C361.36 358.629 360.952 357.466 360.506 357.932C357.943 360.316 355.64 363.223 353.672 366.771C353.3 367.352 353.895 368.283 354.229 367.643Z" fill="#161616"/>
<path opacity="0.13" d="M388.771 234.124C387.359 237.322 389.662 242.963 390.962 247.15C392.856 253.314 393.153 260.002 393.748 273.377C394.825 297.627 387.619 318.387 387.099 319.841C380.525 338.159 370.311 349.15 367.117 352.523C361.695 358.222 354.006 364.444 354.638 366.829C354.86 367.701 356.086 367.817 356.606 367.759C358.389 367.643 359.132 365.491 361.62 362.758C362.92 361.304 362.883 361.769 365.112 359.676C366.412 358.455 368.269 356.594 370.46 353.977C375.437 351.883 379.114 348.685 381.417 346.359C384.759 342.986 391.185 335.252 395.122 321.76C396.459 317.166 396.979 313.502 398.019 306.233C399.096 298.615 400.805 286.112 399.839 270.178C399.393 262.967 398.613 258.141 397.536 251.802C395.865 241.625 394.342 232.844 391.445 232.263C390.479 232.03 389.328 232.902 388.771 234.124Z" fill="#6D6C6C"/>
<path opacity="0.16" d="M399.356 265.933C399.022 265.933 399.096 272.039 397.499 288.264C396.051 302.802 395.308 310.246 393.265 317.05C390.294 326.936 386.245 333.158 384.277 336.124C378.668 344.614 375.288 345.196 366.709 355.082C362.215 360.257 358.872 364.968 356.903 367.875C361.36 363.223 365.78 358.571 370.237 353.977C374.323 352.116 382.717 347.231 389.476 334.728C394.119 326.121 395.939 317.689 397.35 311.118C402.179 287.682 399.95 265.933 399.356 265.933Z" fill="#6D6C6C"/>
<path d="M373.728 206.56C372.057 208.362 371.76 211.851 371.5 215.69C371.24 219.586 371.203 226.39 373.468 234.822C374.88 234.822 376.625 234.647 378.557 234.066C380.08 233.601 381.417 232.961 382.531 232.321C382.382 224.587 382.271 216.853 382.122 209.118C379.002 205.513 375.734 204.408 373.728 206.56Z" fill="white" stroke="#161616" stroke-width="0.344856" stroke-miterlimit="10"/>
<path d="M364.889 167.771C362.289 170.097 361.174 173.994 358.983 181.553C356.532 190.16 354.823 197.604 354.155 203.07C354.043 203.884 354.303 204.698 354.786 205.047C355.417 205.512 356.532 205.687 357.126 205.919C357.126 208.187 357.312 212.084 358.612 216.271C360.989 223.889 365.371 226.971 366.671 227.785C370.794 226.68 373.84 224.47 375.66 222.784C377.331 221.33 379.485 219.353 381.602 215.515C383.497 212.026 384.499 208.536 385.019 206.21C385.799 206.21 386.988 206.094 388.213 205.047C390.739 202.896 392.893 197.255 391.556 193.824C390.553 191.323 387.805 190.276 384.982 191.905C385.019 190.044 384.982 187.485 384.574 184.461C384.462 183.705 383.682 178.181 381.899 174.284C378.482 166.783 370.163 163.061 364.889 167.771Z" fill="white" stroke="#161616" stroke-width="0.344856" stroke-miterlimit="10"/>
<path d="M355.529 194.114C354.6 191.846 352.558 186.147 352.855 178.587C352.966 176.029 353.189 171.144 355.455 166.55C358.203 160.967 362.029 159.513 363.143 159.164C363.663 157.827 364.554 155.85 366.04 154.221C366.634 153.582 368.269 152.012 372.28 151.663C374.397 151.488 377.628 151.604 381.491 153.349C384.499 154.745 386.505 156.722 387.731 158.292C392.448 164.107 392.076 168.701 398.056 178.122C399.43 180.274 400.396 181.03 402.476 184.228C404.667 187.543 406.413 190.741 407.379 192.66C409.57 197.022 413.693 205.28 414.473 216.445C414.733 220.225 415.476 230.867 411.241 239.008C405.484 250.116 392.485 250.988 384.574 242.149C383.088 240.52 376.923 233.542 377.257 222.318C377.554 212.2 382.94 206.152 383.682 205.28C384.314 205.687 385.614 206.326 386.877 205.629C389.514 204.117 390.628 197.778 389.254 194.579C388.696 193.3 387.805 192.777 387.545 192.66C385.391 191.497 383.385 193.998 383.237 194.172C380.34 190.858 378.148 187.659 376.625 185.159C374.546 181.844 373.506 179.634 373.134 178.82C371.983 176.261 371.128 173.935 370.571 172.191C368.863 172.83 366.634 174.052 364.294 176.436C363.737 176.959 361.88 178.936 359.949 182.367C359.726 182.774 358.649 184.693 357.498 187.601C356.643 190.102 355.975 192.312 355.529 194.114Z" fill="#5222D0"/>
<path d="M363.106 199.29C363.106 199.232 363.106 199.232 363.106 199.29C363.106 199.348 363.143 199.465 363.143 199.581V199.639C363.106 199.756 363.069 199.814 363.032 199.93C363.106 199.814 363.032 199.872 362.883 200.046C362.809 199.988 362.734 199.988 362.66 199.93C362.623 199.872 362.586 199.872 362.586 199.814C362.549 199.697 362.549 199.581 362.512 199.465V199.407C362.549 199.29 362.586 199.232 362.623 199.116C362.697 199.116 362.772 199.058 362.846 199.058L363.143 199.523V199.697C362.957 199.756 362.772 199.872 362.586 199.93L362.549 199.872C362.512 199.756 362.474 199.697 362.437 199.581C362.474 199.407 362.549 199.232 362.586 199.116C362.66 199.058 362.734 199.058 362.809 199H362.772C362.549 199.058 362.363 199.29 362.363 199.639C362.363 199.988 362.549 200.337 362.772 200.279C362.994 200.221 363.217 200.046 363.254 199.639C363.329 199.29 363.217 198.883 362.994 198.709C362.772 198.534 362.549 198.651 362.437 198.941C362.214 199.407 362.363 200.163 362.734 200.221C363.069 200.279 363.366 199.872 363.366 199.348C363.366 198.825 363.032 198.476 362.697 198.592C362.363 198.767 362.214 199.29 362.363 199.814C362.474 200.163 362.772 200.221 362.92 200.046C363.18 199.988 363.18 199.581 363.106 199.29Z" fill="#161616"/>
<path d="M366.374 197.895C366.449 198.476 366.3 198.418 365.966 197.72C366.04 197.662 366.077 197.604 366.151 197.546C366.3 197.546 366.411 197.662 366.486 197.953C366.523 197.604 366.263 197.313 366.077 197.313C365.817 197.313 365.669 197.604 365.669 197.953C365.632 198.476 365.966 198.883 366.263 198.825C366.634 198.825 366.857 198.244 366.746 197.72C366.634 197.197 366.263 196.906 365.929 197.197C365.594 197.488 365.557 198.011 365.706 198.535C365.78 198.883 366.114 198.942 366.263 198.767C366.449 198.593 366.486 198.244 366.374 197.895Z" fill="#161616"/>
<path d="M365.334 201.733C365.557 201.733 365.594 201.849 365.446 202.14C365.446 202.372 365.409 202.489 365.297 202.489C365.26 202.256 365.26 201.965 365.223 201.733C365.334 201.675 365.409 201.675 365.52 201.791C365.149 201.151 364.554 202.082 364.926 202.721C365.186 203.187 365.669 203.07 365.854 202.547C366.04 202.024 365.854 201.384 365.52 201.209C365.149 201.035 364.777 201.442 364.74 202.024C364.74 202.663 365.149 203.128 365.52 203.012C366.077 202.78 365.854 201.5 365.334 201.733Z" fill="#161616"/>
<path d="M358.463 214.411C360.766 213.771 362.772 211.677 364.072 208.595C364.369 207.897 363.663 207.258 363.366 207.956C362.177 210.747 360.395 212.55 358.278 213.189C357.72 213.306 357.943 214.527 358.463 214.411Z" fill="#161616"/>
<path opacity="0.1" d="M371.091 174.11C371.76 176.203 372.614 178.995 373.58 182.309C376.551 192.428 376.885 195.219 376.997 197.662C377.145 201.325 376.737 204.117 376.403 206.094C374.694 216.91 369.68 224.121 367.191 227.262C368.417 227.029 369.903 226.622 371.537 225.75C374.063 224.412 376.031 222.609 377.368 221.097C377.257 222.9 377.257 225.692 377.925 228.832C378.668 232.554 380.005 234.88 381.12 237.089C381.974 238.776 383.497 241.451 385.911 243.603C388.251 245.754 390.442 246.51 391.779 246.859C394.899 247.964 397.499 247.848 399.245 247.615C401.659 247.266 405.484 246.743 409.05 242.44C409.941 241.335 411.984 238.834 413.21 234.414C413.507 233.368 413.953 231.391 414.176 226.157C414.436 219.993 414.621 215.689 413.693 210.223C412.727 204.582 410.981 200.221 409.273 197.022C406.302 209.525 399.133 216.736 392.671 215.224C387.619 214.003 384.574 207.78 383.682 205.861C385.651 206.559 387.656 205.629 388.808 203.361C390.182 200.802 390.591 196.208 388.808 193.766C387.396 191.847 385.057 191.788 383.311 193.94C381.194 191.556 378.78 188.415 376.328 184.345C374.137 180.797 372.428 177.25 371.091 174.11Z" fill="#6D6C6C"/>
<path d="M362.512 193.01C362.289 192.428 362.252 191.556 362.623 191.091C362.512 191.149 362.437 191.207 362.326 191.265H362.437C362.326 191.207 362.252 191.149 362.14 191.091C362.512 191.556 362.214 193.359 362.066 193.882C362.14 193.766 362.215 193.708 362.326 193.591C362.289 193.591 362.252 193.65 362.252 193.65C362.363 193.65 362.474 193.708 362.586 193.708C362.363 193.533 362.4 192.603 362.437 192.37C362.474 191.847 362.549 191.382 362.697 190.975C362.512 191.033 362.326 191.149 362.14 191.207C362.326 191.44 362.363 191.905 362.326 192.254C362.326 192.428 362.289 192.603 362.252 192.719C362.214 193.01 362.14 193.01 362.326 193.068C362.4 193.184 362.474 193.242 362.586 193.359C362.586 193.301 362.549 193.301 362.549 193.242C362.214 192.603 361.509 193.242 361.843 193.882C362.029 194.231 362.289 194.464 362.586 194.289C362.92 194.115 363.032 193.591 363.106 193.126C363.292 191.963 363.292 190.8 362.623 190.044C362.437 189.811 362.14 189.986 362.066 190.277C361.694 191.44 361.472 193.242 361.955 194.406C362.14 194.871 362.549 195.103 362.846 194.754C363.18 194.347 363.217 193.301 363.254 192.719C363.329 191.847 363.217 189.346 362.252 190.102C361.472 190.742 361.546 192.719 361.917 193.708C362.066 194.406 362.809 193.708 362.512 193.01Z" fill="#161616"/>
<path d="M360.803 187.078C362.772 186.554 364.443 188.241 365.966 190.043C366.412 190.567 366.82 189.404 366.374 188.939C364.666 186.903 362.809 185.333 360.58 185.856C360.06 185.915 360.283 187.194 360.803 187.078Z" fill="#161616"/>
<path d="M363.032 208.013C363.44 208.42 363.812 208.943 364.146 209.525C364.517 210.165 365.111 209.234 364.74 208.595C364.369 207.955 363.923 207.373 363.44 206.85C362.994 206.385 362.586 207.548 363.032 208.013Z" fill="#161616"/>
</svg>
