<svg width="150" height="150" viewBox="0 0 150 150" fill="none" xmlns="http://www.w3.org/2000/svg">
<path d="M143.617 0H6.38298C2.85776 0 0 2.27652 0 5.08475V144.915C0 147.723 2.85776 150 6.38298 150H143.617C147.142 150 150 147.723 150 144.915V5.08475C150 2.27652 147.142 0 143.617 0Z" fill="#0A3586"/>
<path fill-rule="evenodd" clip-rule="evenodd" d="M12.7659 17.7966H137.234V63.5593H12.7659V17.7966Z" fill="#FFAF40"/>
<path fill-rule="evenodd" clip-rule="evenodd" d="M115.966 23.0087C116.579 23.2222 116.885 23.6036 116.885 24.1527C116.885 24.9765 116.406 25.5714 115.449 25.9375C114.836 26.1816 113.974 26.3036 112.864 26.3036C111.868 26.3036 110.853 26.1739 109.819 25.9146C108.785 25.6553 108.211 25.4188 108.096 25.2053C107.445 23.7409 107.77 22.6883 109.072 22.0477C109.379 21.8951 109.972 21.8188 110.853 21.8188C113.266 21.8188 114.97 22.2155 115.966 23.0087ZM124.066 39.8036C124.066 42.0307 122.572 44.7612 119.585 47.9951C116.713 50.9239 113.955 52.3883 111.313 52.3883C108.709 52.3883 106.066 51.7477 103.385 50.4663C101.087 49.1239 99.9766 47.8883 100.053 46.7595C100.13 46.1188 101.106 45.7985 102.983 45.7985C104.553 45.7985 106.009 46.0121 107.349 46.4392C107.809 46.7443 108.555 47.1256 109.589 47.5833C110.24 47.6138 111.169 47.0189 112.376 45.7985C113.582 44.5782 114.185 43.6324 114.185 42.9612C114.185 42.5646 113.86 42.3663 113.209 42.3663C112.864 42.3663 111.409 42.4578 108.843 42.6409C106.277 42.8239 104.343 42.9155 103.04 42.9155C100.13 42.9155 98.3107 42.229 97.583 40.8561C97.5447 40.8256 97.5255 40.6731 97.5255 40.3985C97.5255 38.8121 99.2489 36.4019 102.696 33.168C106.487 29.7205 109.762 27.9968 112.519 27.9968C114.472 27.9968 116.445 28.5917 118.436 29.7816C120.543 30.8494 121.519 31.6731 121.366 32.2527C120.906 34.2053 119.355 35.1816 116.713 35.1816C116.292 35.1816 115.832 35.1282 115.334 35.0214C114.836 34.9146 114.319 34.579 113.783 34.0146C113.247 33.4502 112.672 33.168 112.06 33.168C111.37 33.168 110.135 33.9383 108.354 35.479C106.573 37.0197 105.683 38.1256 105.683 38.7968C105.683 38.8883 105.836 38.9341 106.143 38.9341C106.717 38.9341 108.613 38.6595 111.83 38.1104C115.047 37.5612 117.555 37.2866 119.355 37.2866C122.496 37.2866 124.066 38.1256 124.066 39.8036ZM116.023 56.6443C116.023 57.9256 114.932 58.8561 112.749 59.4358C112.174 59.5578 111.15 59.3977 109.676 58.9553C108.201 58.5129 107.445 58.1087 107.406 57.7426C107.215 56.4612 107.54 55.5917 108.383 55.1341C108.843 54.8595 109.589 54.7222 110.623 54.7222C111.887 54.7222 113.055 54.8595 114.128 55.1341C115.2 55.4087 115.784 55.6909 115.88 55.9807C115.976 56.2705 116.023 56.4917 116.023 56.6443Z" fill="white"/>
<path fill-rule="evenodd" clip-rule="evenodd" d="M12.7659 78.8135H47.8723V106.78H12.7659V78.8135Z" fill="#22BA8E"/>
<path fill-rule="evenodd" clip-rule="evenodd" d="M57.4468 78.8135H92.5532V106.78H57.4468V78.8135Z" fill="#22BA8E"/>
<path fill-rule="evenodd" clip-rule="evenodd" d="M102.128 78.8135H137.234V142.533H102.128V78.8135Z" fill="#22BA8E"/>
<path fill-rule="evenodd" clip-rule="evenodd" d="M12.7659 114.407H47.8723V142.373H12.7659V114.407Z" fill="#22BA8E"/>
<path fill-rule="evenodd" clip-rule="evenodd" d="M57.4468 114.407H92.5532V142.373H57.4468V114.407Z" fill="#22BA8E"/>
<path fill-rule="evenodd" clip-rule="evenodd" d="M124.468 48.3051H130.851V53.3898H124.468V48.3051Z" fill="white"/>
</svg>
