<svg width="232" height="150" viewBox="0 0 232 150" fill="none" xmlns="http://www.w3.org/2000/svg">
<path d="M26.1751 123.889H4.61289C1.43467 123.889 -0.60632 120.319 0.847227 117.344L12.2271 94.3888C12.5928 93.6178 13.1857 92.9772 13.9262 92.5531C14.6667 92.129 15.5192 91.9417 16.3693 92.0164L26.16 92.9955L26.1751 123.889Z" fill="white"/>
<path d="M26.1751 124.265H4.61289C3.83597 124.262 3.07294 124.059 2.39748 123.675C1.72203 123.291 1.15696 122.74 0.75685 122.074C0.303644 121.345 0.0448921 120.513 0.00533461 119.656C-0.0342229 118.798 0.146735 117.946 0.530908 117.178L11.9107 94.2229C12.3109 93.3831 12.9582 92.6856 13.7658 92.2239C14.5734 91.7623 15.5028 91.5584 16.4295 91.6396L26.2203 92.6187C26.3135 92.6281 26.3999 92.6719 26.4625 92.7415C26.5252 92.8111 26.5597 92.9016 26.5592 92.9953V123.874C26.5612 123.925 26.5528 123.976 26.5343 124.024C26.5158 124.072 26.4877 124.116 26.4518 124.153C26.4158 124.189 26.3727 124.218 26.3251 124.238C26.2775 124.257 26.2265 124.266 26.1751 124.265ZM15.9852 92.3702C15.2703 92.3793 14.5724 92.5897 13.9716 92.9774C13.3708 93.365 12.8915 93.9142 12.5886 94.5618L1.20873 117.51C0.880157 118.162 0.724892 118.887 0.757867 119.617C0.790842 120.346 1.01095 121.055 1.39701 121.675C1.72927 122.232 2.19995 122.694 2.7634 123.016C3.32685 123.338 3.96394 123.509 4.61289 123.512H25.7985V93.3342L16.3542 92.3928C16.2318 92.3777 16.1086 92.3701 15.9852 92.3702Z" fill="#231F20"/>
<path d="M205.677 123.889H227.239C230.417 123.889 232.458 120.319 231.005 117.344L219.625 94.3888C219.259 93.6178 218.666 92.9772 217.926 92.5531C217.185 92.129 216.333 91.9417 215.483 92.0164L205.692 92.9955L205.677 123.889Z" fill="white"/>
<path d="M227.239 124.265H205.677C205.577 124.265 205.481 124.226 205.411 124.155C205.34 124.085 205.3 123.989 205.3 123.889V93.0104C205.3 92.9167 205.334 92.8262 205.397 92.7566C205.46 92.687 205.546 92.6432 205.639 92.6339L215.43 91.6548C216.358 91.5669 217.29 91.768 218.099 92.2304C218.907 92.6929 219.554 93.3941 219.949 94.238L231.329 117.194C231.713 117.961 231.894 118.814 231.854 119.671C231.815 120.528 231.556 121.36 231.103 122.089C230.7 122.753 230.133 123.302 229.456 123.684C228.779 124.065 228.016 124.265 227.239 124.265ZM206.053 123.512H227.239C227.888 123.509 228.525 123.338 229.088 123.016C229.652 122.694 230.123 122.232 230.455 121.675C230.841 121.055 231.061 120.346 231.094 119.617C231.127 118.887 230.972 118.162 230.643 117.51L219.263 94.5619C218.937 93.8555 218.399 93.2678 217.725 92.8794C217.051 92.4909 216.273 92.321 215.498 92.3928L206.053 93.3343V123.512Z" fill="#231F20"/>
<path d="M218.352 149.624H13.4998C9.07142 149.624 6.14173 144.457 8.01703 139.953L31.9817 82.414C32.4015 81.2892 33.1476 80.3155 34.1245 79.6178C35.1014 78.92 36.2645 78.53 37.4645 78.4977H194.38C195.58 78.53 196.743 78.92 197.72 79.6178C198.697 80.3155 199.443 81.2892 199.863 82.414L223.827 139.953C225.703 144.457 222.773 149.624 218.352 149.624Z" fill="white"/>
<path d="M218.352 150H13.4998C12.4685 149.988 11.4565 149.718 10.5566 149.214C9.65664 148.71 8.89743 147.989 8.34841 147.116C7.64937 146.044 7.22229 144.817 7.10418 143.543C6.98607 142.269 7.18049 140.985 7.67059 139.803L31.6353 82.2709C32.0876 81.0802 32.8828 80.0504 33.9204 79.3118C34.9581 78.5731 36.1914 78.1587 37.4645 78.1211H194.38C195.653 78.1587 196.886 78.5731 197.924 79.3118C198.962 80.0504 199.757 81.0802 200.209 82.2709L224.174 139.803C224.664 140.985 224.858 142.269 224.74 143.543C224.622 144.817 224.195 146.044 223.496 147.116C222.948 147.988 222.19 148.709 221.291 149.212C220.393 149.716 219.382 149.987 218.352 150ZM37.4721 78.8742C36.3468 78.9116 35.2579 79.2813 34.3424 79.9367C33.427 80.5921 32.7261 81.5039 32.3282 82.557L8.36347 140.096C7.9219 141.163 7.74669 142.321 7.85298 143.471C7.95926 144.62 8.34385 145.726 8.97351 146.694C9.45441 147.464 10.1207 148.101 10.9114 148.547C11.7021 148.993 12.5921 149.234 13.4998 149.247H218.352C219.259 149.232 220.147 148.991 220.936 148.545C221.726 148.099 222.391 147.463 222.871 146.694C223.501 145.726 223.885 144.62 223.991 143.471C224.098 142.321 223.922 141.163 223.481 140.096L199.524 82.557C199.126 81.505 198.427 80.5941 197.513 79.9387C196.599 79.2834 195.511 78.9131 194.387 78.8742H37.4721Z" fill="#231F20"/>
<path d="M212.048 145.881H19.8036C18.7977 145.88 17.8085 145.624 16.9286 145.136C16.0486 144.649 15.3069 143.946 14.7727 143.094C14.1679 142.163 13.8057 141.097 13.7188 139.99C13.632 138.884 13.8234 137.773 14.2756 136.76L36.7717 85.9839C37.2341 84.8979 38.0019 83.9696 38.982 83.3118C39.962 82.654 41.112 82.295 42.2922 82.2784H189.56C190.74 82.295 191.89 82.654 192.87 83.3118C193.85 83.9696 194.618 84.8979 195.08 85.9839L217.599 136.76C218.051 137.773 218.243 138.884 218.156 139.99C218.069 141.097 217.707 142.163 217.102 143.094C216.566 143.95 215.82 144.654 214.936 145.142C214.052 145.629 213.058 145.884 212.048 145.881ZM42.2922 83.0692C41.2736 83.087 40.282 83.3994 39.4373 83.9688C38.5926 84.5382 37.931 85.3401 37.5324 86.2776L15.0061 137.091C14.6095 137.98 14.4417 138.953 14.518 139.922C14.5943 140.892 14.9123 141.827 15.443 142.642C15.9019 143.377 16.5399 143.984 17.2973 144.406C18.0547 144.827 18.9067 145.05 19.7735 145.052H212.048C212.915 145.05 213.767 144.827 214.525 144.406C215.282 143.984 215.92 143.377 216.379 142.642C216.91 141.827 217.228 140.892 217.304 139.922C217.38 138.953 217.212 137.98 216.816 137.091L194.32 86.2776C193.921 85.3401 193.259 84.5382 192.415 83.9688C191.57 83.3994 190.578 83.087 189.56 83.0692H42.2922Z" fill="#D1D3D4"/>
<path d="M61.8661 81.6458L58.0929 29.0695L64.6376 26.2302L74.3079 76.2834L61.8661 81.6458Z" fill="white"/>
<path d="M61.8585 82.0221C61.7911 82.0217 61.7254 82.0007 61.6702 81.9619C61.6185 81.9314 61.575 81.8886 61.5435 81.8374C61.512 81.7863 61.4934 81.7281 61.4895 81.6682L57.7238 29.0995C57.7206 29.0215 57.7402 28.9443 57.7804 28.8773C57.8205 28.8104 57.8794 28.7567 57.9498 28.7229L64.4945 25.8836C64.5456 25.8614 64.6007 25.85 64.6564 25.85C64.7121 25.85 64.7672 25.8614 64.8183 25.8836C64.8675 25.9115 64.9103 25.9494 64.944 25.9948C64.9778 26.0401 65.0016 26.0921 65.0142 26.1472L74.6769 76.1929C74.6926 76.2765 74.6795 76.3629 74.6399 76.4381C74.6002 76.5133 74.5363 76.5729 74.4585 76.6071L62.0092 81.9694C61.9622 81.9951 61.9113 82.0129 61.8585 82.0221ZM58.4845 29.3028L62.1974 81.0807L73.8785 76.0498L64.3514 26.7572L58.4845 29.3028Z" fill="#231F20"/>
<path d="M79.7078 79.2732C79.7078 78.7008 101.323 26.938 101.323 26.938L107.679 29.0694L93.6935 78.7008L79.7078 79.2732Z" fill="white"/>
<path d="M79.7078 79.65C79.6603 79.6501 79.6132 79.6409 79.5692 79.6228C79.5253 79.6047 79.4854 79.5781 79.4517 79.5446C79.4136 79.5105 79.3831 79.4687 79.3624 79.4219C79.3416 79.3752 79.331 79.3246 79.3312 79.2734C79.3312 78.7161 92.8876 46.1356 100.976 26.7951C101.012 26.7064 101.08 26.6348 101.167 26.5955C101.254 26.5561 101.353 26.5521 101.443 26.5842L107.8 28.7457C107.891 28.7768 107.967 28.8418 108.012 28.9273C108.057 29.0128 108.067 29.1123 108.041 29.2052L94.0851 78.8065C94.0652 78.8835 94.0205 78.9518 93.9579 79.0008C93.8952 79.0498 93.8182 79.0768 93.7386 79.0776L79.753 79.65H79.7078ZM101.549 27.4052C94.5671 44.1172 81.8693 74.6417 80.25 78.8743L93.4148 78.3396L107.227 29.3181L101.549 27.4052Z" fill="#231F20"/>
<path d="M66.7689 84.6733L80.137 24.0913L87.5328 25.6578L76.409 85.5319L66.7689 84.6733Z" fill="white"/>
<path d="M76.409 85.9084L66.7689 85.0498C66.7152 85.0475 66.6626 85.0327 66.6156 85.0065C66.5685 84.9804 66.5282 84.9436 66.4978 84.8992C66.465 84.8571 66.4419 84.8082 66.4301 84.7561C66.4184 84.704 66.4184 84.65 66.43 84.5979L79.7756 24.0159C79.7973 23.919 79.8557 23.8343 79.9385 23.7795C80.0214 23.7247 80.1222 23.7042 80.2199 23.7222L87.6157 25.2887C87.712 25.3087 87.7966 25.3656 87.8515 25.4472C87.9064 25.5289 87.9272 25.6288 87.9094 25.7255L76.763 85.5996C76.7491 85.6842 76.7061 85.7612 76.6415 85.8176C76.5769 85.8739 76.4947 85.906 76.409 85.9084ZM67.2284 84.3419L76.1003 85.095L87.096 25.9213L80.4233 24.513L67.2284 84.3419Z" fill="#231F20"/>
<path d="M72.8844 84.6733L66.784 23.5264L75.4902 21.8168L83.835 80.8398L72.8844 84.6733Z" fill="white"/>
<path d="M72.8844 85.0574C72.8122 85.0572 72.7416 85.0363 72.681 84.9971C72.6332 84.9648 72.5929 84.9224 72.563 84.873C72.5331 84.8236 72.5143 84.7683 72.5078 84.7109L66.4074 23.5641C66.3982 23.471 66.4239 23.3777 66.4795 23.3025C66.5352 23.2274 66.6169 23.1756 66.7087 23.1574L75.4149 21.4477C75.5179 21.4326 75.6227 21.4568 75.7086 21.5155C75.749 21.5449 75.783 21.582 75.8089 21.6247C75.8347 21.6673 75.8519 21.7147 75.8593 21.7641L84.204 80.7871C84.2173 80.8733 84.1997 80.9615 84.1542 81.0359C84.1087 81.1104 84.0383 81.1663 83.9554 81.1938L72.9974 85.0348C72.9613 85.0487 72.9231 85.0563 72.8844 85.0574ZM67.1907 23.8276L73.2158 84.1611L83.4282 80.5838L75.1438 22.2687L67.1907 23.8276Z" fill="#231F20"/>
<path d="M60.6761 81.6455C60.7966 81.5476 65.3455 31.7731 65.3455 31.7731H72.8769L68.7497 81.6455H60.6761Z" fill="white"/>
<path d="M68.7572 82.0221H60.6761C60.5981 82.0204 60.5224 81.995 60.4592 81.9493C60.3959 81.9035 60.3481 81.8396 60.3221 81.766C60.2957 81.693 60.2957 81.6131 60.3221 81.5401C60.5029 80.4405 63.4476 48.5303 64.9765 31.7429C64.9857 31.649 65.0292 31.5618 65.0987 31.4979C65.1681 31.434 65.2587 31.3979 65.3531 31.3965H72.8844C72.9365 31.397 72.988 31.4079 73.0359 31.4286C73.0837 31.4493 73.127 31.4794 73.163 31.517C73.232 31.5958 73.2671 31.6986 73.261 31.8032L69.1338 81.6756C69.1262 81.7702 69.0832 81.8584 69.0134 81.9227C68.9436 81.9869 68.8521 82.0224 68.7572 82.0221ZM61.0677 81.269H68.4108L72.4777 32.1496H65.6995C62.1899 70.4238 61.3464 79.2054 61.0677 81.269Z" fill="#231F20"/>
<path d="M70.128 80.6965L75.4903 35.614L82.6978 36.322L79.143 83.2572L70.128 80.6965Z" fill="white"/>
<path d="M79.1429 83.6339H79.0375L69.9999 81.0733C69.9137 81.0488 69.8391 80.9944 69.7894 80.9199C69.7397 80.8453 69.7182 80.7555 69.7288 80.6666L75.0911 35.584C75.1025 35.4867 75.1513 35.3977 75.2272 35.3359C75.3031 35.274 75.4002 35.2441 75.4978 35.2526L82.7128 35.9681C82.7613 35.9719 82.8086 35.9853 82.8519 36.0074C82.8953 36.0296 82.9338 36.0601 82.9653 36.0972C82.9968 36.1343 83.0206 36.1772 83.0355 36.2236C83.0503 36.27 83.0558 36.3188 83.0517 36.3673L79.4969 83.295C79.4929 83.3522 79.4759 83.4077 79.4472 83.4573C79.4184 83.5069 79.3788 83.5492 79.3312 83.5812C79.2746 83.6161 79.2094 83.6344 79.1429 83.6339ZM70.5346 80.418L78.8191 82.7678L82.3061 36.661L75.8291 36.0284L70.5346 80.418Z" fill="#231F20"/>
<path d="M81.9822 87.8063C82.4115 87.6632 88.2408 29.0619 88.2408 29.0619H96.3445L92.3604 82.3912L81.9822 87.8063Z" fill="white"/>
<path d="M81.9822 88.1827C81.9081 88.1814 81.836 88.1586 81.7745 88.1172C81.713 88.0758 81.6649 88.0175 81.6358 87.9493C81.61 87.8992 81.5966 87.8437 81.5966 87.7873C81.5966 87.731 81.61 87.6755 81.6358 87.6254C82.1253 85.8405 86.2751 44.7947 87.8491 29.0317C87.8584 28.9397 87.9011 28.8544 87.9691 28.7919C88.0372 28.7294 88.1258 28.6941 88.2182 28.6927H96.3445C96.3959 28.6936 96.4467 28.705 96.4935 28.7262C96.5404 28.7475 96.5825 28.7781 96.617 28.8162C96.6516 28.8543 96.678 28.8991 96.6946 28.9478C96.7112 28.9965 96.7177 29.0481 96.7135 29.0994L92.737 82.4288C92.7299 82.4927 92.7078 82.554 92.6724 82.6076C92.6371 82.6613 92.5895 82.7058 92.5336 82.7376L82.1555 88.1375C82.1359 88.1439 82.1148 88.1439 82.0952 88.1375C82.0609 88.1599 82.0225 88.1753 81.9822 88.1827ZM88.5872 29.4383C88.3537 31.6977 87.0132 45.1412 85.65 58.4189C83.5714 78.6029 82.8333 85.0346 82.4718 87.1208L92.0064 82.1577L95.9453 29.4383H88.5872Z" fill="#231F20"/>
<path d="M100.758 69.4598C101.187 68.6088 114.555 39.3345 114.555 39.3345L106.587 35.614L85.9663 75.5752L100.758 69.4598Z" fill="white"/>
<path d="M85.9663 75.9519C85.9142 75.9513 85.8627 75.9404 85.8148 75.9197C85.767 75.899 85.7238 75.869 85.6877 75.8314C85.6358 75.7739 85.603 75.7019 85.5935 75.6251C85.5841 75.5482 85.5986 75.4704 85.635 75.4021L106.256 35.4408C106.277 35.3975 106.306 35.3587 106.342 35.3268C106.378 35.2949 106.42 35.2705 106.466 35.255C106.511 35.2396 106.559 35.2334 106.607 35.2369C106.656 35.2403 106.702 35.2534 106.745 35.2752L114.713 38.973C114.803 39.0155 114.872 39.0915 114.906 39.1845C114.94 39.2775 114.935 39.3801 114.894 39.4701C114.352 40.6676 101.519 68.7821 101.097 69.5954C101.056 69.6775 100.986 69.7418 100.901 69.7762L86.1094 75.8916C86.0676 75.9236 86.0184 75.9443 85.9663 75.9519ZM106.76 36.1036L86.7722 74.8372L100.479 69.1661C101.466 67.08 112.597 42.6785 114.036 39.4927L106.76 36.1036Z" fill="#231F20"/>
<path d="M83.8349 73.3009C83.8349 73.3009 97.7679 41.7295 97.911 42.0157C98.0541 42.3019 105.164 44.5764 105.164 44.5764L91.5169 77.7142L83.8349 73.3009Z" fill="white"/>
<path d="M91.5169 78.0834C91.4513 78.0846 91.3865 78.0691 91.3286 78.0382L83.6467 73.6248C83.5668 73.5788 83.5066 73.5051 83.4775 73.4176C83.4483 73.3302 83.4522 73.2351 83.4885 73.1503C97.3989 41.6468 97.5721 41.6392 97.9035 41.6317C97.9557 41.6318 98.0073 41.6425 98.0552 41.6633C98.1031 41.684 98.1463 41.7142 98.1822 41.7522C98.619 42.0158 102.136 43.2058 105.284 44.215C105.333 44.2308 105.378 44.2563 105.417 44.29C105.456 44.3236 105.487 44.3647 105.51 44.4108C105.531 44.4597 105.541 44.5121 105.541 44.5652C105.541 44.6182 105.531 44.6707 105.51 44.7196L91.8558 77.8574C91.8349 77.9072 91.8041 77.9522 91.7653 77.9898C91.7264 78.0273 91.6804 78.0566 91.6299 78.0758L91.5169 78.0834ZM84.2944 73.1805L91.306 77.2097L104.636 44.825C100.366 43.4543 98.7018 42.8367 98.0315 42.5656C96.8566 44.8702 89.3931 61.6425 84.2944 73.1805Z" fill="#231F20"/>
<path d="M54.5833 75.5754C54.5833 75.5754 38.6093 35.6141 39.0386 35.6141C39.4679 35.6141 46.8034 32.5112 46.8034 32.5112L62.6192 70.3336L54.5833 75.5754Z" fill="white"/>
<path d="M54.5833 75.9519H54.4703C54.4182 75.9339 54.3705 75.9052 54.3303 75.8676C54.29 75.83 54.2582 75.7843 54.2368 75.7335C38.3532 35.9605 38.5717 35.6291 38.7223 35.4032C38.7581 35.3525 38.8055 35.311 38.8605 35.2822C38.9155 35.2534 38.9765 35.2381 39.0386 35.2375C39.4604 35.1622 43.9415 33.2944 46.6603 32.1421C46.7053 32.1218 46.754 32.1112 46.8034 32.1112C46.8528 32.1112 46.9015 32.1218 46.9465 32.1421C47.04 32.1807 47.1154 32.2534 47.1574 32.3455L62.9732 70.1754C63.0089 70.2555 63.0149 70.3458 62.99 70.43C62.9652 70.5143 62.9111 70.5868 62.8376 70.6348L54.7791 75.9067C54.7183 75.937 54.6512 75.9525 54.5833 75.9519ZM39.4754 35.8777C40.3415 38.6944 48.8745 60.2792 54.764 75.0406L62.1748 70.1979L46.6377 32.9781C44.2277 34.0174 40.7331 35.4559 39.4754 35.8777Z" fill="#231F20"/>
<path d="M54.5833 72.7285L47.8503 27.7891L55.5322 25.6577L61.3615 75.5754L54.5833 72.7285Z" fill="white"/>
<path d="M61.3615 75.952C61.3144 75.9627 61.2655 75.9627 61.2184 75.952L54.4402 73.1051C54.3801 73.0824 54.3274 73.0438 54.2876 72.9934C54.2477 72.943 54.2224 72.8827 54.2143 72.819L47.4813 27.8795C47.4684 27.7884 47.4887 27.6957 47.5385 27.6183C47.5883 27.5409 47.6642 27.4839 47.7524 27.4578L55.4343 25.3264C55.4863 25.3103 55.5414 25.3067 55.595 25.3159C55.6487 25.325 55.6994 25.3467 55.7431 25.3791C55.7876 25.409 55.8253 25.448 55.8539 25.4934C55.8824 25.5388 55.9011 25.5896 55.9088 25.6427L61.7381 75.5604C61.7465 75.6263 61.737 75.6933 61.7104 75.7543C61.6839 75.8153 61.6414 75.868 61.5874 75.9068C61.5197 75.9478 61.4398 75.9638 61.3615 75.952ZM54.9222 72.465L60.9096 74.9804L55.2009 26.1398L48.272 28.0678L54.9222 72.465Z" fill="#231F20"/>
<path d="M44.4386 64.4817L38.4662 43.0099L45.7189 39.312L59.6594 76.8557L44.4386 64.4817Z" fill="white"/>
<path d="M59.6594 77.2322C59.5723 77.2311 59.4878 77.2021 59.4184 77.1493L44.2051 64.7754C44.145 64.7264 44.1006 64.6609 44.0771 64.5871L38.1047 43.1077C38.0816 43.0235 38.0886 42.9339 38.1243 42.8542C38.16 42.7745 38.2223 42.7097 38.3005 42.6709L45.5532 38.973C45.6008 38.9527 45.6521 38.9423 45.7038 38.9423C45.7556 38.9423 45.8068 38.9527 45.8545 38.973C45.9045 38.9915 45.9499 39.0206 45.9876 39.0583C46.0253 39.096 46.0544 39.1414 46.0729 39.1914L60.0134 76.7426C60.0406 76.8204 60.0421 76.9048 60.0177 76.9834C59.9933 77.0621 59.9442 77.1308 59.8778 77.1795C59.8117 77.218 59.7358 77.2363 59.6594 77.2322ZM44.7699 64.2632L58.8234 75.6958L45.5156 39.8391L38.9106 43.2056L44.7699 64.2632Z" fill="#231F20"/>
<path d="M54.5833 71.3052L45.7189 44.7121L52.6854 43.01L65.3455 75.5755L54.5833 71.3052Z" fill="white"/>
<path d="M65.3455 75.9519H65.21L54.4477 71.6741C54.3964 71.6536 54.3502 71.6221 54.3125 71.5817C54.2747 71.5414 54.2463 71.4932 54.2293 71.4406L45.3649 44.8475C45.3488 44.7986 45.343 44.7469 45.3477 44.6956C45.3524 44.6444 45.3676 44.5946 45.3923 44.5494C45.417 44.5043 45.4507 44.4646 45.4913 44.433C45.532 44.4014 45.5786 44.3784 45.6285 44.3655L52.6025 42.6559C52.6913 42.6337 52.7852 42.6453 52.8659 42.6885C52.9466 42.7316 53.0084 42.8032 53.0393 42.8894L65.6995 75.4398C65.7242 75.5092 65.7289 75.5842 65.7129 75.6561C65.6969 75.7281 65.6609 75.7941 65.6091 75.8465C65.5384 75.9147 65.4438 75.9525 65.3455 75.9519ZM54.9222 71.0264L64.7129 74.9051L52.4895 43.4542L46.2385 44.9605L54.9222 71.0264Z" fill="#231F20"/>
<path d="M61.5046 83.9653L55.9615 40.3061L62.2201 39.312L67.7631 77.7067L61.5046 83.9653Z" fill="white"/>
<path d="M61.5046 84.342C61.4647 84.3492 61.4239 84.3492 61.3841 84.342C61.3176 84.3195 61.2588 84.2785 61.2148 84.2238C61.1708 84.1691 61.1433 84.103 61.1355 84.0332L55.5849 40.3515C55.5741 40.255 55.6009 40.158 55.6599 40.0808C55.7188 40.0037 55.8053 39.9522 55.9013 39.9373L62.1598 38.9432C62.2084 38.9334 62.2585 38.9344 62.3067 38.9461C62.3548 38.9578 62.3998 38.98 62.4385 39.0109C62.4794 39.0397 62.5139 39.0766 62.5398 39.1194C62.5658 39.1622 62.5825 39.2099 62.5891 39.2595L68.1397 77.6693C68.1478 77.7283 68.1418 77.7885 68.1222 77.8448C68.1026 77.9011 68.0698 77.9519 68.0267 77.9931L61.7757 84.2441C61.7015 84.3107 61.6042 84.3458 61.5046 84.342ZM56.3833 40.6603L61.7832 83.1973L67.364 77.6165L61.8962 39.7791L56.3833 40.6603Z" fill="#231F20"/>
<path d="M65.3456 75.5754L64.6376 44.004H71.461L72.8844 77.7067L65.3456 75.5754Z" fill="white"/>
<path d="M72.8844 78.0835C72.8496 78.0908 72.8137 78.0908 72.779 78.0835L65.2476 75.9521C65.1692 75.931 65.0997 75.8852 65.0495 75.8214C64.9993 75.7576 64.9711 75.6793 64.969 75.5981L64.261 44.0268C64.2597 43.9769 64.2684 43.9272 64.2865 43.8806C64.3046 43.8341 64.3318 43.7916 64.3665 43.7556C64.4012 43.7189 64.4433 43.6898 64.49 43.6704C64.5367 43.6509 64.587 43.6415 64.6376 43.6427H71.4911C71.5884 43.6426 71.682 43.6802 71.7522 43.7476C71.8224 43.815 71.8638 43.9069 71.8677 44.0042L73.261 77.6994C73.2649 77.7598 73.2539 77.8202 73.2289 77.8754C73.204 77.9306 73.1658 77.9787 73.1179 78.0157C73.0497 78.0635 72.9676 78.0873 72.8844 78.0835ZM65.7146 75.2893L72.4928 77.2023L71.107 44.3808H65.0292L65.7146 75.2893Z" fill="#231F20"/>
<path d="M73.5923 74.4381C73.5923 74.4381 69.6158 50.9705 70.1806 50.8274C70.7455 50.6843 76.0099 49.6902 76.0099 49.6902L80.845 75.5754L73.5923 74.4381Z" fill="white"/>
<path d="M80.845 75.9519H80.7923L73.5396 74.8146C73.4611 74.8031 73.3882 74.767 73.3314 74.7115C73.2746 74.6561 73.2368 74.5841 73.2233 74.5059C69.1865 50.6993 69.6685 50.5788 70.0903 50.4734C70.6627 50.3303 75.7237 49.3738 75.9421 49.3286C76.0417 49.3139 76.1432 49.3353 76.2283 49.3889C76.3087 49.4472 76.3649 49.5329 76.3865 49.6299L81.2216 75.5151C81.2307 75.5747 81.226 75.6356 81.2077 75.6931C81.1894 75.7506 81.1581 75.803 81.1161 75.8464C81.0807 75.8818 81.0383 75.9095 80.9917 75.9276C80.945 75.9458 80.895 75.954 80.845 75.9519ZM73.9237 74.1067L80.3781 75.1234L75.7087 50.1345C74.6241 50.3378 71.4459 50.9479 70.497 51.1437C70.4668 52.9662 72.4777 65.5812 73.9237 74.1067Z" fill="#231F20"/>
<path d="M81.9823 73.3008L80.1371 47.5587H86.3956L87.5329 73.3008H81.9823Z" fill="white"/>
<path d="M87.5329 73.6775H81.9823C81.8869 73.6776 81.7953 73.6408 81.7265 73.5748C81.6577 73.5088 81.6171 73.4188 81.6132 73.3236L79.7756 47.5739C79.7714 47.522 79.7781 47.4698 79.7951 47.4206C79.8122 47.3713 79.8392 47.3262 79.8746 47.288C79.91 47.2497 79.953 47.2193 80.0007 47.1985C80.0485 47.1777 80.1001 47.1671 80.1522 47.1672H86.4107C86.508 47.1672 86.6016 47.2048 86.6718 47.2722C86.742 47.3395 86.7834 47.4315 86.7873 47.5287L87.9245 73.2708C87.9255 73.3714 87.8877 73.4685 87.819 73.542C87.784 73.584 87.7403 73.6179 87.6909 73.6413C87.6415 73.6647 87.5875 73.6771 87.5329 73.6775ZM82.3362 72.9244H87.1412L86.0341 47.9354H80.5287L82.3362 72.9244Z" fill="#231F20"/>
<path d="M60.0811 74.3403L54.5833 52.3488L60.0811 50.8275L66.7689 76.2834L60.0811 74.3403Z" fill="white"/>
<path d="M66.769 76.66C66.7342 76.6673 66.6983 76.6673 66.6635 76.66L59.9757 74.6868C59.9134 74.6697 59.8567 74.6363 59.8117 74.5899C59.7667 74.5436 59.7349 74.486 59.7197 74.4232L54.2218 52.4241C54.2093 52.3772 54.2062 52.3282 54.2127 52.28C54.2192 52.2318 54.2352 52.1854 54.2597 52.1434C54.2842 52.1014 54.3167 52.0647 54.3555 52.0353C54.3942 52.006 54.4383 51.9845 54.4854 51.9723L59.9833 50.466C60.0749 50.4283 60.1778 50.4283 60.2694 50.466C60.3573 50.5179 60.422 50.6014 60.4502 50.6995L67.1305 76.1554C67.1487 76.2188 67.1493 76.2861 67.132 76.3498C67.1147 76.4135 67.0804 76.4713 67.0326 76.5169C67.0002 76.5569 66.9603 76.5901 66.915 76.6146C66.8698 76.6392 66.8202 76.6546 66.769 76.66ZM60.3975 74.0391L66.2192 75.7411L59.8025 51.2944L55.0276 52.6124L60.3975 74.0391Z" fill="#231F20"/>
<path d="M52.6628 109.805L40.9064 53.486C40.9064 53.486 56.451 69.2264 74.2777 70.552C92.1044 71.8775 107.649 53.486 107.649 53.486L98.6039 109.805C98.6039 109.805 77.5162 101.046 52.6628 109.805Z" fill="#68E1FD"/>
<path d="M52.6628 110.174C52.5973 110.175 52.5327 110.159 52.4745 110.129C52.428 110.104 52.3876 110.068 52.3564 110.025C52.3252 109.982 52.3038 109.933 52.2937 109.881L40.5675 53.599C40.5485 53.5199 40.5568 53.4367 40.591 53.3629C40.6251 53.2891 40.6832 53.229 40.7557 53.1923C40.8269 53.1531 40.9091 53.1384 40.9894 53.1507C41.0698 53.163 41.1438 53.2014 41.2001 53.2601C41.3582 53.4182 56.8577 68.9102 74.3379 70.2131C91.8182 71.516 107.242 53.4634 107.4 53.2826C107.452 53.2179 107.524 53.1728 107.605 53.155C107.686 53.1372 107.771 53.1477 107.845 53.1847C107.919 53.2185 107.98 53.2761 108.018 53.3483C108.057 53.4206 108.07 53.5034 108.056 53.5839L98.9503 109.858C98.9416 109.915 98.9201 109.968 98.8875 110.015C98.8549 110.062 98.812 110.101 98.7621 110.129C98.7106 110.155 98.6539 110.168 98.5964 110.168C98.5388 110.168 98.4821 110.155 98.4307 110.129C98.2273 110.039 77.2224 101.566 52.8134 110.129C52.7675 110.156 52.7159 110.172 52.6628 110.174ZM41.5164 54.5931L52.9716 109.331C75.5204 101.566 95.147 108.133 98.2801 109.331L107.107 54.7287C103.575 58.4943 89.7094 72.1185 74.2777 70.9737C58.846 69.829 45.1314 57.8918 41.5465 54.5931H41.5164Z" fill="#231F20"/>
<path d="M125.641 39.8768C125.641 40.7429 130.16 104.684 130.16 104.684C130.16 107.696 139.476 110.137 150.977 110.137C162.477 110.137 171.801 107.696 171.801 104.684L175.958 39.8768C175.958 39.8768 125.641 39.0032 125.641 39.8768Z" fill="#68E1FD"/>
<path d="M150.962 110.513C140.546 110.513 129.769 108.329 129.769 104.684C129.58 102.101 125.25 40.7505 125.25 39.8769C125.251 39.7672 125.294 39.6621 125.37 39.5831C126.236 38.7321 161.016 39.2442 175.936 39.5003C176.038 39.5034 176.136 39.5466 176.207 39.6208C176.241 39.6583 176.267 39.7022 176.284 39.7501C176.301 39.798 176.308 39.8488 176.305 39.8995L172.147 104.707C172.162 108.329 161.385 110.513 150.962 110.513ZM126.025 40.1254C126.289 44.599 130.476 104.036 130.544 104.654C130.544 107.132 138.753 109.76 150.984 109.76C163.215 109.76 171.432 107.132 171.432 104.684L175.567 40.2459C156.738 39.9221 128.895 39.6434 126.025 40.1254Z" fill="#231F20"/>
<path d="M123.548 29.7399V36.6461C123.548 40.6076 135.824 43.8235 150.962 43.8235C166.1 43.8235 178.376 40.6076 178.376 36.6461V29.7399H123.548Z" fill="white"/>
<path d="M150.962 44.1999C137.3 44.1999 123.171 41.3756 123.171 36.6685V29.7397C123.171 29.6399 123.211 29.5441 123.281 29.4735C123.352 29.4028 123.448 29.3632 123.548 29.3632H178.376C178.476 29.3632 178.571 29.4028 178.642 29.4735C178.713 29.5441 178.752 29.6399 178.752 29.7397V36.646C178.752 41.3756 164.624 44.1999 150.962 44.1999ZM123.924 30.1163V36.646C123.924 39.9296 134.792 43.4242 150.962 43.4242C167.131 43.4242 177.999 39.907 177.999 36.646V30.1163H123.924Z" fill="#231F20"/>
<path d="M150.962 36.9171C166.102 36.9171 178.376 33.7037 178.376 29.7397C178.376 25.7758 166.102 22.5624 150.962 22.5624C135.821 22.5624 123.548 25.7758 123.548 29.7397C123.548 33.7037 135.821 36.9171 150.962 36.9171Z" fill="white"/>
<path d="M150.962 37.2936C137.3 37.2936 123.171 34.4694 123.171 29.7623C123.171 25.0552 137.3 22.231 150.962 22.231C164.624 22.231 178.752 25.0627 178.752 29.7623C178.752 34.4618 164.624 37.2936 150.962 37.2936ZM150.962 22.9314C134.792 22.9314 123.924 26.4485 123.924 29.7096C123.924 32.9706 134.792 36.4878 150.962 36.4878C167.131 36.4878 177.999 32.9706 177.999 29.7096C177.999 26.4485 167.139 22.9314 150.962 22.9314Z" fill="#231F20"/>
<path d="M139.04 25.733V28.7456C139.04 30.4702 144.379 31.8635 150.962 31.8635C157.544 31.8635 162.891 30.4702 162.891 28.7456V25.733H139.04Z" fill="white"/>
<path d="M150.962 32.2401C145.004 32.2401 138.663 31.0125 138.663 28.7455V25.733C138.663 25.6331 138.703 25.5374 138.773 25.4667C138.844 25.3961 138.94 25.3564 139.04 25.3564H162.891C162.991 25.3564 163.087 25.3961 163.158 25.4667C163.228 25.5374 163.268 25.6331 163.268 25.733V28.7455C163.268 31.0049 156.927 32.2401 150.962 32.2401ZM139.416 26.1171V28.7455C139.416 29.8903 143.807 31.4869 150.962 31.4869C158.116 31.4869 162.515 29.8903 162.515 28.7455V26.1171H139.416Z" fill="#231F20"/>
<path d="M150.962 28.866C157.546 28.866 162.884 27.4667 162.884 25.7405C162.884 24.0143 157.546 22.615 150.962 22.615C144.377 22.615 139.04 24.0143 139.04 25.7405C139.04 27.4667 144.377 28.866 150.962 28.866Z" fill="white"/>
<path d="M150.962 29.235C145.004 29.235 138.663 28.0074 138.663 25.7405C138.663 23.4735 145.004 22.2384 150.962 22.2384C156.919 22.2384 163.268 23.4735 163.268 25.7329C163.268 27.9923 156.927 29.235 150.962 29.235ZM150.962 22.9915C143.807 22.9915 139.416 24.5882 139.416 25.7405C139.416 26.8928 143.807 28.4819 150.962 28.4819C158.116 28.4819 162.515 26.8852 162.515 25.7405C162.515 24.5957 158.101 22.9915 150.962 22.9915Z" fill="#231F20"/>
<path d="M168.495 0.382591L154.336 1.02275C154.011 1.03771 153.701 1.16666 153.461 1.38699C153.222 1.60733 153.067 1.90499 153.025 2.22777L150.788 25.7331H153.583L155.578 3.74156L168.645 3.13906C169.014 3.12148 169.36 2.95863 169.608 2.68617C169.857 2.41372 169.987 2.05388 169.971 1.68551C169.963 1.5017 169.919 1.32131 169.84 1.15521C169.761 0.989098 169.649 0.840708 169.511 0.718974C169.373 0.597239 169.212 0.504679 169.037 0.446868C168.862 0.389058 168.678 0.367194 168.495 0.382591Z" fill="white"/>
<path d="M153.583 26.1171H150.773C150.721 26.1165 150.668 26.1048 150.62 26.0828C150.572 26.0607 150.53 26.0288 150.495 25.9891C150.46 25.9503 150.434 25.905 150.417 25.8558C150.4 25.8067 150.393 25.7547 150.397 25.7029L152.604 2.19011C152.658 1.77783 152.855 1.39756 153.16 1.11547C153.466 0.833379 153.86 0.667317 154.276 0.646182L168.457 0.00602024C168.683 -0.0131742 168.91 0.0136432 169.125 0.084846C169.34 0.156049 169.538 0.270153 169.707 0.420243C169.888 0.581289 170.034 0.776923 170.138 0.995553C170.241 1.21418 170.3 1.45136 170.31 1.69304C170.328 2.15708 170.165 2.60998 169.854 2.95482C169.542 3.29967 169.109 3.50907 168.645 3.53821L155.947 4.1106L153.982 25.7707C153.972 25.8686 153.926 25.959 153.851 26.0235C153.777 26.0879 153.681 26.1215 153.583 26.1171ZM151.188 25.364H153.236L155.202 3.71897C155.211 3.62753 155.252 3.54231 155.318 3.47875C155.385 3.41518 155.472 3.3775 155.563 3.37253L168.593 2.78508C168.726 2.77955 168.856 2.74736 168.976 2.69044C169.097 2.63352 169.204 2.55301 169.293 2.4537C169.386 2.35268 169.457 2.23379 169.502 2.10429C169.548 1.9748 169.566 1.83743 169.557 1.70057C169.552 1.5583 169.519 1.4184 169.459 1.28907C169.4 1.15975 169.315 1.0436 169.21 0.947437C169.115 0.863921 169.004 0.800786 168.883 0.761926C168.763 0.723066 168.636 0.709307 168.51 0.721497L154.336 1.39932C154.098 1.41104 153.871 1.50547 153.695 1.66632C153.519 1.82717 153.405 2.04437 153.372 2.28048L151.188 25.364Z" fill="#231F20"/>
<path d="M169.248 114.603C169.248 114.603 169.248 119.453 171.01 121.215C172.772 122.977 182.172 126.208 190.833 125.734C199.494 125.259 204.645 122.947 206.114 121.215C207.582 119.483 207.191 114.603 207.191 114.603H169.248Z" fill="#231F20"/>
<path d="M189.213 126.224C181.034 126.224 172.509 123.294 170.724 121.509C168.939 119.724 168.849 114.821 168.849 114.618C168.849 114.512 168.891 114.411 168.966 114.336C169.04 114.261 169.142 114.219 169.248 114.219H207.191C207.29 114.22 207.386 114.259 207.458 114.327C207.53 114.396 207.575 114.489 207.582 114.588C207.582 114.791 207.974 119.619 206.415 121.486C204.728 123.512 199.26 125.749 190.855 126.178C190.313 126.209 189.733 126.224 189.213 126.224ZM169.632 115.017C169.677 116.184 169.926 119.604 171.266 120.944C172.772 122.45 182.006 125.825 190.795 125.388C198.914 124.973 204.253 122.812 205.782 120.974C206.904 119.626 206.844 116.154 206.791 115.017H169.632Z" fill="#231F20"/>
<path d="M209.194 56.747V116.245C209.194 116.245 202.732 121.238 189.801 121.238C182.098 121.255 174.466 119.756 167.342 116.824C167.342 116.824 167.342 111.553 167.342 104.194C167.342 93.5225 167.388 78.4147 167.342 68.27C167.342 62.3277 167.342 58.1027 167.29 57.4926C167.184 55.1052 170.152 52.0927 170.152 52.0927V48.199H205.692V52.8232C205.692 52.8232 209.194 54.9847 209.194 56.747Z" fill="#68E1FD"/>
<path d="M189.801 121.607C182.052 121.607 174.378 120.098 167.207 117.163C167.14 117.134 167.083 117.086 167.044 117.024C167.005 116.962 166.985 116.89 166.988 116.817C166.988 116.817 166.988 111.545 166.988 104.187C166.988 92.4756 167.026 77.6991 166.988 68.2624C166.988 60.0683 166.988 57.8917 166.936 57.5076C166.785 55.2482 169.195 52.4993 169.722 51.9043V48.1387C169.722 48.0388 169.762 47.943 169.833 47.8724C169.903 47.8018 169.999 47.7621 170.099 47.7621H205.639C205.739 47.7621 205.835 47.8018 205.905 47.8724C205.976 47.943 206.016 48.0388 206.016 48.1387V52.5595C206.769 53.0792 209.54 54.9846 209.54 56.7244V116.222C209.54 116.279 209.527 116.336 209.502 116.388C209.477 116.44 209.441 116.486 209.397 116.523C209.156 116.742 202.709 121.607 189.801 121.607ZM167.719 116.576C174.741 119.391 182.235 120.843 189.801 120.854C201.391 120.854 207.793 116.757 208.817 116.041V56.747C208.817 55.4742 206.4 53.6892 205.473 53.1093C205.418 53.0755 205.372 53.028 205.34 52.9712C205.309 52.9145 205.292 52.8505 205.293 52.7855V48.5378H170.506V52.0926C170.506 52.1401 170.496 52.1872 170.478 52.2311C170.46 52.2751 170.434 52.315 170.4 52.3487C170.4 52.3487 167.576 55.3612 167.711 57.5001C167.757 58.0649 167.772 61.7026 167.772 68.3V104.224C167.734 110.641 167.719 115.454 167.719 116.576Z" fill="#231F20"/>
<path d="M187.895 52.7855C197.712 52.7855 205.669 50.7151 205.669 48.1612C205.669 45.6073 197.712 43.537 187.895 43.537C178.079 43.537 170.121 45.6073 170.121 48.1612C170.121 50.7151 178.079 52.7855 187.895 52.7855Z" fill="white"/>
<path d="M187.895 53.162C179.099 53.162 169.752 51.4072 169.752 48.1612C169.752 44.9152 179.099 43.1528 187.895 43.1528C196.692 43.1528 206.046 44.9076 206.046 48.1612C206.046 51.4147 196.699 53.162 187.895 53.162ZM187.895 43.906C177.645 43.906 170.506 46.1654 170.506 48.1612C170.506 50.157 177.645 52.4088 187.895 52.4088C198.145 52.4088 205.293 50.1494 205.293 48.1612C205.293 46.1729 198.153 43.906 187.895 43.906Z" fill="#231F20"/>
<path d="M180.951 48.8767C180.43 48.9244 179.906 48.817 179.445 48.5679C179.378 48.5127 179.326 48.4419 179.294 48.3618C179.261 48.2817 179.248 48.1947 179.257 48.1085C179.332 47.3554 181.403 46.1278 183.135 45.209C183.196 45.1714 183.268 45.1555 183.339 45.1638C184.092 45.2165 186.517 45.4575 186.909 46.3763C186.97 46.524 186.986 46.6863 186.955 46.843C186.924 46.9997 186.848 47.1438 186.735 47.2575C185.658 48.5604 183.422 48.6508 183.324 48.6583C182.539 48.7896 181.747 48.8626 180.951 48.8767ZM180.093 48.0633C181.144 48.1613 182.204 48.1106 183.241 47.9127C183.301 47.9127 185.282 47.8148 186.141 46.7755C186.201 46.7077 186.201 46.67 186.201 46.67C186.133 46.4215 184.89 46.0449 183.376 45.9169C182.208 46.5115 181.107 47.2312 180.093 48.0633Z" fill="#D1D3D4"/>
<path d="M189.673 49.5321C187.059 49.5321 185.086 48.5907 185.086 47.348C185.086 46.1054 187.059 45.1639 189.673 45.1639C192.286 45.1639 194.259 46.1054 194.259 47.348C194.259 48.5907 192.286 49.5321 189.673 49.5321ZM189.673 45.9171C187.481 45.9171 185.839 46.6702 185.839 47.348C185.839 48.0258 187.481 48.779 189.673 48.779C191.864 48.779 193.506 48.0258 193.506 47.348C193.506 46.6702 191.864 45.9171 189.673 45.9171Z" fill="#D1D3D4"/>
<path d="M209.194 68.398V104.383C203.387 105.821 195.638 107.32 188.671 107.32C181.396 107.32 173.239 105.678 167.365 104.187C167.365 93.515 167.41 78.4072 167.365 68.2625C174.38 69.6007 181.5 70.3139 188.641 70.3938C195.537 70.3244 202.414 69.6566 209.194 68.398Z" fill="white"/>
<path d="M188.671 107.696C181.253 107.696 172.938 105.987 167.275 104.556C167.193 104.534 167.121 104.486 167.069 104.42C167.017 104.353 166.989 104.271 166.988 104.187C166.988 92.4755 167.026 77.6991 166.988 68.2623C166.99 68.2079 167.003 68.1544 167.027 68.1052C167.05 68.056 167.083 68.0121 167.124 67.9761C167.214 67.9079 167.328 67.8781 167.44 67.8933C174.431 69.2253 181.525 69.9361 188.641 70.0171C195.504 69.9408 202.347 69.2756 209.096 68.0289C209.15 68.0175 209.207 68.019 209.26 68.0334C209.314 68.0478 209.363 68.0746 209.405 68.1117C209.446 68.147 209.48 68.1908 209.503 68.2402C209.527 68.2895 209.539 68.3433 209.54 68.3979V104.383C209.54 104.467 209.512 104.549 209.46 104.616C209.408 104.682 209.336 104.73 209.254 104.752C203.839 106.092 195.848 107.696 188.671 107.696ZM167.741 103.893C173.36 105.301 181.449 106.943 188.671 106.943C195.653 106.943 203.425 105.437 208.817 104.089V68.8498C202.168 70.0543 195.428 70.6967 188.671 70.7703C181.658 70.6912 174.665 70.0033 167.772 68.7142C167.779 78.0907 167.772 92.4153 167.741 103.893Z" fill="#231F20"/>
<path d="M83.7069 105.324C83.7069 105.324 82.4341 107.267 82.2458 111.906C82.0575 116.546 84.219 117.705 86.3805 119.867C88.542 122.028 107.649 126.013 120.964 125.35C134.28 124.687 149.817 122.654 155.511 116.862C158.772 113.563 157.89 101.581 154.23 101.249C150.57 100.918 83.7069 105.324 83.7069 105.324Z" fill="white"/>
<path d="M117.997 125.794C105.314 125.794 88.3086 122.322 86.117 120.131C85.8006 119.815 85.4768 119.513 85.168 119.227C83.3831 117.57 81.7036 116.004 81.8693 111.892C82.0651 107.207 83.3379 105.204 83.3756 105.113C83.4087 105.065 83.4524 105.025 83.5033 104.997C83.5542 104.968 83.6109 104.951 83.6693 104.948C86.4032 104.767 150.623 100.527 154.253 100.851C155.39 100.956 156.339 101.965 157.002 103.78C158.455 107.742 158.162 114.671 155.759 117.111C151.03 121.908 139.318 124.8 120.972 125.719C120.023 125.772 119.029 125.794 117.997 125.794ZM83.9404 105.693C83.6542 106.228 82.7806 108.186 82.6224 111.922C82.4643 115.657 83.8877 117.005 85.6801 118.7C85.9965 118.994 86.3203 119.295 86.6517 119.619C88.7153 121.69 107.521 125.644 120.949 124.996C138.851 124.1 150.706 121.23 155.24 116.606C157.424 114.4 157.657 107.749 156.309 104.067C155.759 102.56 155.014 101.709 154.2 101.634C150.698 101.295 88.0073 105.422 83.9404 105.693Z" fill="#231F20"/>
<path d="M85.4693 98.4632C84.0308 98.4632 82.9387 100.549 82.163 101.544C80.8292 103.238 79.2855 104.757 77.5689 106.062C78.8324 106.547 79.9484 107.351 80.8074 108.397C81.5605 109.512 81.5605 111.259 80.4609 112.02C82.2528 111.388 84.1948 111.32 86.0266 111.824C87.7965 112.426 88.6701 113.827 90.4927 114.241C92.7837 114.643 95.017 115.323 97.1428 116.267C97.4692 115.02 98.2062 113.918 99.2351 113.141C100.264 112.363 101.525 111.955 102.814 111.982C103.52 111.414 104.354 111.025 105.243 110.849C106.132 110.674 107.051 110.716 107.92 110.973C107.765 110.402 107.739 109.803 107.845 109.221C107.95 108.638 108.184 108.087 108.53 107.606C109.23 106.652 110.071 105.809 111.023 105.106L90.3948 97.4013C88.9563 96.8591 87.2467 96.3469 85.9663 97.198L86.599 97.5444" fill="#68E1FD"/>
<path d="M97.1428 116.666C97.0855 116.666 97.0291 116.653 96.9771 116.629C95.0673 115.765 93.0591 115.138 90.9972 114.761L90.4098 114.633C89.4824 114.38 88.618 113.936 87.8717 113.33C87.2796 112.855 86.6162 112.476 85.9061 112.208C84.1493 111.714 82.2822 111.783 80.5663 112.404C80.4811 112.427 80.3905 112.419 80.3104 112.382C80.2303 112.345 80.1658 112.28 80.1281 112.201C80.0904 112.121 80.082 112.03 80.1043 111.945C80.1266 111.859 80.1781 111.785 80.25 111.733C81.1689 111.101 81.1387 109.572 80.4986 108.63C79.6748 107.64 78.6083 106.879 77.4032 106.424C77.3457 106.395 77.2962 106.353 77.2594 106.3C77.2225 106.247 77.1995 106.186 77.1923 106.122C77.1852 106.058 77.1946 105.994 77.2197 105.934C77.2447 105.875 77.2846 105.823 77.3354 105.784C79.0261 104.494 80.5447 102.993 81.8542 101.317C82.0048 101.122 82.1705 100.888 82.3437 100.64C83.0969 99.51 84.1061 98.1092 85.4542 98.0866C85.5039 98.0845 85.5535 98.0926 85.6 98.1102C85.6466 98.1278 85.689 98.1547 85.7249 98.1892C85.7608 98.2236 85.7893 98.265 85.8088 98.3108C85.8283 98.3566 85.8383 98.4058 85.8383 98.4556C85.8365 98.5543 85.7976 98.6488 85.7291 98.72C85.6607 98.7913 85.5679 98.834 85.4692 98.8397C84.5052 98.8397 83.6467 100.082 82.9613 101.099C82.7806 101.363 82.6073 101.604 82.4492 101.807C81.2255 103.376 79.8227 104.796 78.2693 106.04C79.3884 106.521 80.3676 107.278 81.1161 108.239C81.4285 108.702 81.6233 109.234 81.6837 109.789C81.7441 110.344 81.6682 110.905 81.4626 111.425C83.0007 111.024 84.6195 111.058 86.1395 111.522C86.9191 111.818 87.6483 112.232 88.301 112.75C88.9647 113.294 89.7341 113.694 90.5604 113.925L91.1479 114.061C93.1166 114.43 95.0403 115.008 96.8867 115.785C97.3006 114.58 98.0803 113.533 99.1172 112.792C100.154 112.051 101.396 111.652 102.671 111.65C103.337 111.143 104.101 110.779 104.916 110.583C105.73 110.388 106.576 110.364 107.4 110.513C107.294 109.428 107.58 108.341 108.206 107.448C108.784 106.63 109.476 105.899 110.262 105.279L90.2441 97.7476C89.0316 97.2958 87.7964 96.9343 86.7872 97.2204C86.8675 97.2718 86.9253 97.3516 86.949 97.4438C86.9728 97.536 86.9607 97.6338 86.9153 97.7175C86.8917 97.7612 86.8596 97.7997 86.8208 97.8308C86.7821 97.8618 86.7374 97.8846 86.6896 97.898C86.6418 97.9114 86.5918 97.9149 86.5426 97.9085C86.4933 97.9021 86.4459 97.8858 86.4031 97.8606L85.7705 97.5217C85.7146 97.4888 85.6676 97.4429 85.6335 97.3877C85.5994 97.3326 85.5792 97.27 85.5747 97.2054C85.5736 97.1401 85.5889 97.0756 85.6192 97.0177C85.6494 96.9598 85.6937 96.9104 85.7479 96.874C87.1186 95.9627 88.8433 96.4146 90.5077 97.0397L111.151 104.812C111.214 104.834 111.27 104.872 111.312 104.923C111.355 104.974 111.384 105.035 111.394 105.101C111.405 105.166 111.398 105.234 111.374 105.295C111.35 105.357 111.309 105.411 111.257 105.452C110.34 106.137 109.529 106.952 108.846 107.87C108.537 108.299 108.325 108.792 108.226 109.312C108.127 109.833 108.143 110.369 108.274 110.882C108.297 110.948 108.301 111.019 108.285 111.086C108.27 111.154 108.237 111.216 108.188 111.266C108.14 111.316 108.079 111.352 108.012 111.369C107.944 111.386 107.874 111.385 107.807 111.364C106.998 111.129 106.144 111.091 105.317 111.253C104.491 111.416 103.715 111.774 103.055 112.298C102.982 112.357 102.892 112.389 102.799 112.389C101.601 112.37 100.431 112.753 99.4756 113.477C98.5203 114.2 97.8343 115.222 97.5269 116.38C97.5122 116.435 97.4857 116.487 97.4493 116.531C97.4129 116.575 97.3675 116.611 97.316 116.636C97.2612 116.659 97.202 116.669 97.1428 116.666Z" fill="#231F20"/>
<path d="M126.47 104.948C120.55 104.948 114.555 104.948 108.658 105.354C106.467 105.505 105.842 106.672 104.945 108.668C104.486 109.692 103.07 112.584 104.252 113.579C104.659 113.917 106.406 113.579 106.979 113.646C107.885 113.775 108.77 114.029 109.607 114.399C110.225 114.671 113.463 117.645 113.531 117.63C117.137 117.106 120.818 117.529 124.21 118.858C124.406 117.885 124.81 116.967 125.395 116.166C125.981 115.365 126.733 114.701 127.601 114.219C128.468 113.738 129.43 113.451 130.419 113.378C131.409 113.305 132.402 113.448 133.331 113.797C133.565 111.922 134.508 110.208 135.967 109.007C133.594 108.6 132.088 106.16 129.829 105.332C128.74 105.008 127.603 104.878 126.47 104.948Z" fill="#68E1FD"/>
<path d="M124.21 119.234C124.163 119.245 124.114 119.245 124.067 119.234C120.723 117.901 117.084 117.48 113.523 118.014C113.32 118.014 113.328 118.014 112.243 117.096C111.336 116.259 110.381 115.477 109.381 114.753C108.58 114.403 107.733 114.168 106.866 114.053C106.575 114.033 106.283 114.033 105.992 114.053C104.983 114.136 104.298 114.158 103.944 113.865C102.603 112.742 103.853 110.009 104.456 108.691L104.531 108.517C105.472 106.431 106.173 105.143 108.568 104.978C113.554 104.631 118.667 104.609 123.63 104.586H126.417C127.607 104.512 128.8 104.649 129.942 104.993C130.982 105.441 131.941 106.056 132.781 106.815C133.686 107.695 134.801 108.327 136.02 108.653C136.089 108.668 136.153 108.702 136.204 108.751C136.255 108.8 136.292 108.863 136.31 108.931C136.328 109 136.326 109.072 136.305 109.14C136.285 109.208 136.246 109.269 136.193 109.316C134.812 110.447 133.918 112.064 133.692 113.835C133.686 113.892 133.666 113.947 133.634 113.995C133.603 114.043 133.561 114.084 133.512 114.113C133.46 114.139 133.403 114.152 133.346 114.152C133.288 114.152 133.232 114.139 133.18 114.113C132.303 113.783 131.364 113.647 130.429 113.715C129.494 113.784 128.585 114.055 127.765 114.51C126.946 114.965 126.235 115.593 125.682 116.35C125.129 117.108 124.748 117.976 124.564 118.896C124.553 118.949 124.53 119 124.498 119.044C124.465 119.088 124.424 119.125 124.376 119.152C124.328 119.192 124.271 119.22 124.21 119.234ZM116.521 116.975C119.054 116.974 121.567 117.428 123.939 118.316C124.188 117.378 124.623 116.499 125.218 115.733C125.814 114.967 126.558 114.329 127.406 113.857C128.254 113.386 129.188 113.09 130.153 112.987C131.118 112.885 132.094 112.979 133.022 113.262C133.311 111.707 134.068 110.278 135.191 109.165C134.141 108.727 133.173 108.113 132.329 107.35C131.553 106.641 130.665 106.066 129.701 105.648C128.641 105.335 127.534 105.213 126.432 105.286H123.646C118.713 105.286 113.614 105.332 108.651 105.671C106.677 105.814 106.128 106.83 105.247 108.773L105.171 108.947C104.727 109.918 103.56 112.479 104.456 113.232C104.955 113.31 105.463 113.31 105.962 113.232C106.3 113.2 106.641 113.2 106.979 113.232C107.922 113.349 108.843 113.603 109.713 113.985C110.792 114.728 111.812 115.554 112.763 116.455L113.591 117.171C114.57 117.049 115.557 116.997 116.544 117.013L116.521 116.975Z" fill="#231F20"/>
<path d="M148.522 102.447C145.592 103.652 142.805 104.059 140.531 106.16C139.868 106.77 132.585 111.184 132.028 110.137C132.57 111.161 134.076 110.988 135.123 111.492C135.809 111.816 136.268 112.517 136.969 112.803C137.481 113.006 138.03 112.803 138.52 112.999C139.009 113.194 142.082 114.972 141.661 115.62C142.144 114.969 142.798 114.464 143.55 114.161C144.302 113.858 145.124 113.769 145.923 113.902C147.521 114.202 149.006 114.934 150.216 116.019C150.435 114.061 150.698 111.989 151.941 110.461C152.619 109.708 153.403 109.059 154.268 108.533L160.037 104.624C159.051 103.893 158.391 102.804 158.199 101.591C158.007 100.378 158.3 99.1387 159.013 98.1393L148.522 102.447Z" fill="#68E1FD"/>
<path d="M150.216 116.395C150.129 116.395 150.044 116.366 149.975 116.312C148.824 115.265 147.402 114.56 145.871 114.279C145.142 114.151 144.393 114.228 143.705 114.5C143.018 114.773 142.42 115.231 141.977 115.823C141.923 115.907 141.838 115.966 141.74 115.987C141.643 116.008 141.541 115.99 141.457 115.936C141.382 115.888 141.327 115.814 141.302 115.728C141.277 115.642 141.284 115.55 141.322 115.469C141.156 114.964 138.934 113.556 138.392 113.353C138.19 113.302 137.982 113.279 137.774 113.285C137.452 113.303 137.13 113.257 136.825 113.149C136.428 112.959 136.064 112.705 135.748 112.396C135.525 112.169 135.272 111.974 134.995 111.816C134.63 111.661 134.249 111.547 133.858 111.477C133.438 111.454 133.029 111.337 132.662 111.133C132.294 110.93 131.977 110.646 131.734 110.302C131.688 110.214 131.678 110.111 131.706 110.016C131.734 109.92 131.798 109.839 131.885 109.79C131.929 109.767 131.977 109.752 132.027 109.747C132.076 109.742 132.126 109.748 132.174 109.762C132.222 109.777 132.266 109.801 132.304 109.833C132.342 109.865 132.374 109.904 132.397 109.948C133.15 110.227 139.409 106.702 140.312 105.866C141.992 104.315 143.92 103.667 145.961 102.974C146.759 102.703 147.588 102.425 148.416 102.086L148.559 102.432L148.416 102.086L158.855 97.7928C158.932 97.761 159.017 97.7555 159.097 97.7773C159.178 97.7991 159.249 97.8469 159.299 97.9134C159.348 97.9797 159.375 98.0603 159.375 98.1431C159.375 98.2259 159.348 98.3064 159.299 98.3728C158.65 99.2891 158.385 100.423 158.561 101.532C158.737 102.641 159.34 103.637 160.24 104.307C160.291 104.343 160.333 104.39 160.362 104.445C160.391 104.5 160.406 104.562 160.406 104.624C160.406 104.685 160.391 104.745 160.362 104.799C160.333 104.853 160.291 104.899 160.24 104.933L154.471 108.841C153.632 109.349 152.871 109.975 152.212 110.702C150.999 112.208 150.758 114.339 150.563 116.064C150.554 116.131 150.529 116.196 150.488 116.25C150.447 116.304 150.392 116.346 150.329 116.373C150.293 116.385 150.255 116.393 150.216 116.395ZM145.298 113.481C145.55 113.478 145.802 113.495 146.051 113.533C147.496 113.774 148.854 114.387 149.99 115.311C150.194 113.624 150.532 111.688 151.722 110.227C152.423 109.442 153.235 108.765 154.132 108.216L159.472 104.601C158.622 103.829 158.068 102.785 157.906 101.649C157.748 100.725 157.852 99.7752 158.207 98.9075L148.74 102.801C147.889 103.148 147.053 103.426 146.247 103.705C144.281 104.368 142.421 104.993 140.862 106.439C140.373 106.891 135.59 109.888 133.218 110.543C133.492 110.633 133.771 110.706 134.054 110.762C134.505 110.837 134.946 110.968 135.364 111.153C135.714 111.336 136.035 111.567 136.321 111.839C136.574 112.089 136.866 112.295 137.187 112.449C137.403 112.52 137.631 112.548 137.857 112.532C138.15 112.522 138.443 112.561 138.723 112.645C139.889 113.199 140.955 113.942 141.879 114.844C142.795 113.957 144.023 113.467 145.298 113.481Z" fill="#231F20"/>
<path d="M89.86 83.1972C85.4918 84.7034 80.4308 88.9737 80.5287 93.8992C80.4631 95.0932 80.6988 96.2845 81.214 97.3636C81.3647 97.6347 81.5605 97.9284 81.4701 98.2222C81.4095 98.3811 81.3082 98.5213 81.1764 98.6288C78.2542 101.513 81.8768 106.1 84.6333 107.779C87.819 109.715 91.6148 110.355 95.3353 110.626C107.22 111.485 119.338 112.223 131.275 111.794C137.669 111.568 144.379 110.415 150.163 107.569C152.962 106.299 155.398 104.349 157.25 101.897C158.99 99.4196 160.135 95.5561 158.365 92.7619C157.966 92.1368 157.258 91.7301 156.972 91.0448C156.809 90.3665 156.809 89.6595 156.972 88.9812C157.326 84.6206 152.25 81.1336 148.574 80.0942C146.47 79.5791 144.316 79.2962 142.15 79.2507C135.929 78.9043 129.671 78.5579 123.48 79.3035C116.129 80.1922 108.944 82.6172 101.534 82.5946C97.5947 82.5871 93.5579 81.9093 89.86 83.1972Z" fill="#231F20"/>
<path d="M124.007 112.343C114.254 112.343 104.546 111.711 95.3052 111.048C92.0818 110.815 87.932 110.295 84.4299 108.141C82.3664 106.883 80.0166 104.21 79.7304 101.717C79.643 101.105 79.7034 100.482 79.9065 99.899C80.1096 99.3159 80.4495 98.7899 80.8978 98.3652C80.975 98.2983 81.0411 98.2195 81.0936 98.1318C81.0936 98.0263 81.0032 97.8154 80.9053 97.6498L80.8676 97.5895C80.3176 96.4505 80.0589 95.1929 80.1145 93.9293C80.0166 88.936 84.9873 84.485 89.7169 82.8432C92.5412 81.8566 95.5838 81.9921 98.5135 82.09C99.4926 82.1352 100.509 82.1804 101.488 82.1879H101.616C106.09 82.1879 110.571 81.2691 114.909 80.388C117.688 79.8231 120.565 79.2357 123.427 78.8817C129.663 78.1286 136.02 78.49 142.165 78.8365C144.362 78.8777 146.546 79.1631 148.68 79.6875C152.506 80.772 157.717 84.3796 157.356 88.9963C157.356 89.1469 157.356 89.305 157.311 89.4557C157.209 89.9246 157.227 90.4115 157.363 90.8716C157.529 91.2006 157.76 91.4927 158.041 91.7301C158.299 91.9698 158.529 92.2376 158.727 92.5285C160.557 95.413 159.48 99.4196 157.597 102.108C156.008 104.368 153.635 106.281 150.359 107.9C145.163 110.468 138.753 111.899 131.312 112.17C128.865 112.283 126.47 112.343 124.007 112.343ZM89.9956 83.5737C85.5295 85.1252 80.8375 89.2674 80.958 93.8916C80.8926 95.0193 81.1101 96.1455 81.5906 97.1678C81.7172 97.3317 81.8086 97.52 81.8592 97.7208C81.9097 97.9217 81.9183 98.1308 81.8844 98.3351C81.8042 98.5578 81.6664 98.7553 81.4852 98.9075C81.1247 99.249 80.8516 99.6723 80.689 100.142C80.5265 100.611 80.4793 101.112 80.5513 101.604C80.8149 103.863 82.9689 106.281 84.8743 107.433C88.2333 109.481 92.2625 110.001 95.4182 110.227C106.934 111.056 119.187 111.839 131.312 111.394C138.64 111.131 144.944 109.722 150.035 107.207C152.783 105.982 155.173 104.077 156.979 101.671C158.704 99.2012 159.721 95.556 158.086 92.9728C157.914 92.7364 157.72 92.517 157.506 92.3176C157.152 92.0055 156.863 91.6268 156.655 91.2029C156.464 90.6173 156.427 89.9918 156.55 89.3879C156.55 89.2373 156.55 89.0942 156.595 88.9511C156.927 84.8314 151.956 81.4574 148.491 80.4783C146.415 79.9696 144.288 79.6918 142.15 79.6499C136.042 79.311 129.723 78.957 123.548 79.6951C120.723 80.0415 117.862 80.6214 115.098 81.2013C110.654 82.075 106.135 82.9712 101.616 82.9712H101.526C100.524 82.9712 99.5077 82.926 98.5135 82.8808C95.6592 82.7453 92.6993 82.6172 90.0182 83.5511L89.9956 83.5737Z" fill="#231F20"/>
<path d="M116.348 103.833C104.914 103.768 93.5318 102.299 82.4567 99.4572C82.355 99.4291 82.2685 99.3618 82.2163 99.27C82.1641 99.1783 82.1504 99.0696 82.1781 98.9677C82.2095 98.8665 82.2786 98.7811 82.3711 98.7293C82.4636 98.6775 82.5724 98.6631 82.6751 98.689C83.112 98.8171 127.246 111.101 153.989 93.8087C154.078 93.7521 154.186 93.733 154.289 93.7556C154.392 93.7782 154.482 93.8406 154.539 93.9292C154.568 93.973 154.588 94.0221 154.598 94.0737C154.607 94.1253 154.607 94.1784 154.595 94.2297C154.584 94.281 154.563 94.3295 154.532 94.3723C154.502 94.4151 154.463 94.4514 154.419 94.479C143.28 101.702 129.136 103.833 116.348 103.833Z" fill="white"/>
<path d="M91.7428 91.8054C91.7428 91.8054 91.7428 103.471 92.993 104.97C94.2432 106.469 96.7587 104.842 96.8566 102.711C96.9545 100.579 95.6139 97.0999 96.8566 97.3485C98.0993 97.597 98.3629 101.476 100.622 98.6665C102.882 95.8573 102.181 98.0338 104.742 96.5953C107.303 95.1569 110.481 91.7904 110.481 91.7904C110.481 91.7904 95.3654 89.3728 91.7428 91.8054Z" fill="#68E1FD"/>
<path d="M94.2056 105.927C93.9166 105.93 93.6307 105.867 93.3697 105.743C93.1086 105.619 92.8793 105.437 92.6993 105.211C91.3964 103.652 91.3663 93.0179 91.3663 91.8054C91.3661 91.7442 91.3812 91.684 91.4101 91.6301C91.439 91.5762 91.4809 91.5303 91.532 91.4966C95.2223 89.0038 109.886 91.3385 110.511 91.4364C110.579 91.4474 110.642 91.4768 110.694 91.5213C110.747 91.5658 110.786 91.6238 110.808 91.689C110.829 91.7541 110.833 91.8239 110.818 91.8909C110.803 91.9579 110.769 92.0195 110.722 92.069C110.594 92.2046 107.476 95.4958 104.893 96.9418C104.251 97.3885 103.472 97.5939 102.693 97.5217C102.287 97.4765 102.046 97.4614 100.886 98.915C100.231 99.7434 99.6658 100.105 99.1085 100.075C98.3553 100.022 97.9637 99.3217 97.6022 98.689C97.3461 98.2673 97.06 97.7853 96.7964 97.7326C96.6081 97.9133 96.7964 99.0882 96.947 99.8564C97.149 100.807 97.2474 101.777 97.2407 102.748C97.1967 103.421 96.9603 104.067 96.5598 104.609C96.1592 105.151 95.6113 105.567 94.9813 105.806C94.7313 105.889 94.4691 105.93 94.2056 105.927ZM92.1269 92.0087C92.1269 96.5275 92.4508 103.72 93.2868 104.722C93.4514 104.928 93.6786 105.074 93.9341 105.14C94.1896 105.205 94.4594 105.185 94.7027 105.083C95.1962 104.896 95.6262 104.572 95.9423 104.149C96.2584 103.726 96.4475 103.222 96.4876 102.696C96.4838 101.782 96.3853 100.871 96.1939 99.9769C95.9604 98.5987 95.7872 97.6045 96.239 97.1602C96.3312 97.0762 96.4427 97.0164 96.5636 96.9862C96.6846 96.956 96.8111 96.9562 96.9319 96.987C97.5269 97.1075 97.8884 97.7401 98.2424 98.2974C98.521 98.7644 98.8374 99.2915 99.1612 99.3141C99.3194 99.3141 99.6809 99.2238 100.306 98.4405C101.594 96.8213 102.031 96.6932 102.769 96.761C103.395 96.8183 104.021 96.6471 104.531 96.279C106.406 95.0812 108.133 93.6655 109.675 92.0615C106.693 91.6322 95.3729 90.141 92.1269 92.0087Z" fill="#231F20"/>
<path d="M150.081 81.5251C146.081 79.5142 141.088 80.3276 137.526 82.8883C133.963 85.4489 132.066 87.8891 132.028 92.4757C132.028 94.351 132.352 97.3334 134.137 98.3426C134.89 98.7794 135.974 98.4028 136.72 99.0957C137.466 99.7886 137.081 100.466 137.556 101.25C138.03 102.033 139.062 101.468 139.597 100.873C140.132 100.278 140.9 99.5325 141.608 99.9166C141.898 100.102 142.104 100.394 142.18 100.73C142.489 101.762 142.18 102.876 142.18 103.953C142.18 105.03 142.722 106.303 143.792 106.469C144.256 106.484 144.713 106.344 145.089 106.072C145.465 105.799 145.74 105.409 145.871 104.963C146.119 104.073 146.243 103.153 146.24 102.229C146.308 101.077 146.639 99.9553 147.207 98.9503C147.775 97.9453 148.564 97.0832 149.516 96.4296C149.945 96.2185 150.339 95.9415 150.683 95.6087C151.813 94.2907 150.397 92.197 150.962 90.5552C151.29 89.8862 151.72 89.2716 152.235 88.7326C152.735 88.0768 153.055 87.3008 153.161 86.4824C153.266 85.664 153.155 84.8323 152.837 84.0707C152.22 82.9447 151.252 82.0509 150.081 81.5251Z" fill="#68E1FD"/>
<path d="M144.048 106.891H143.762C142.459 106.687 141.856 105.256 141.834 104.014C141.834 103.63 141.834 103.261 141.894 102.884C141.987 102.22 141.962 101.544 141.819 100.888C141.77 100.651 141.632 100.441 141.435 100.301C140.975 100.06 140.365 100.64 139.876 101.174C139.649 101.433 139.37 101.641 139.057 101.785C138.744 101.929 138.405 102.006 138.061 102.01C137.891 101.998 137.728 101.945 137.584 101.856C137.439 101.767 137.319 101.644 137.232 101.498C137.039 101.158 136.921 100.781 136.886 100.391C136.872 100.026 136.721 99.6793 136.464 99.4196C136.107 99.1368 135.661 98.99 135.206 99.0053C134.771 98.9914 134.345 98.8835 133.956 98.689C131.832 97.4991 131.636 93.9594 131.651 92.4983C131.697 87.6104 133.851 85.0874 137.307 82.6021C141.239 79.7779 146.345 79.2356 150.246 81.2088C151.517 81.7727 152.56 82.7493 153.206 83.9803C153.557 84.8025 153.683 85.7033 153.571 86.5902C153.458 87.4771 153.111 88.318 152.566 89.0263L152.144 89.546C151.807 89.8957 151.536 90.3041 151.346 90.751C151.193 91.4573 151.206 92.1894 151.383 92.8899C151.564 93.9518 151.745 95.0514 150.999 95.9024C150.716 96.2113 150.379 96.4665 150.005 96.6556L149.742 96.8137C148.837 97.4333 148.087 98.2528 147.55 99.2089C147.014 100.165 146.704 101.232 146.646 102.327C146.646 102.553 146.646 102.779 146.601 103.004C146.598 103.736 146.481 104.463 146.255 105.158C146.097 105.632 145.804 106.048 145.411 106.356C145.019 106.664 144.545 106.85 144.048 106.891ZM141.209 99.4648C141.411 99.4657 141.611 99.5175 141.789 99.6154C141.976 99.729 142.139 99.8787 142.269 100.056C142.398 100.233 142.491 100.434 142.542 100.647C142.715 101.388 142.748 102.154 142.64 102.907C142.64 103.276 142.587 103.622 142.587 103.969C142.587 104.933 143.046 105.979 143.875 106.115C144.251 106.117 144.618 105.996 144.92 105.77C145.222 105.544 145.442 105.227 145.547 104.865C145.745 104.241 145.847 103.591 145.848 102.937C145.848 102.696 145.848 102.462 145.901 102.229C145.966 101.017 146.311 99.8364 146.91 98.7805C147.508 97.7246 148.344 96.822 149.35 96.1435L149.629 95.9778C149.927 95.83 150.197 95.6312 150.427 95.3903C150.947 94.7878 150.804 93.9518 150.638 92.9803C150.431 92.1546 150.431 91.2905 150.638 90.4648C150.854 89.9319 151.169 89.444 151.564 89.0263C151.7 88.8606 151.835 88.7025 151.963 88.5368C152.424 87.9357 152.718 87.2237 152.816 86.4727C152.914 85.7217 152.812 84.9581 152.521 84.259C151.945 83.1848 151.025 82.3358 149.907 81.849C146.285 80.0264 141.397 80.5536 137.752 83.1745C134.393 85.5845 132.48 87.8816 132.405 92.4682C132.405 93.5075 132.502 96.987 134.325 97.9962C134.625 98.1354 134.951 98.2099 135.281 98.2146C135.905 98.2118 136.51 98.4337 136.984 98.8397C137.364 99.2114 137.594 99.7099 137.631 100.24C137.654 100.531 137.738 100.814 137.88 101.069C137.906 101.114 137.943 101.153 137.988 101.18C138.033 101.208 138.083 101.224 138.136 101.227C138.592 101.19 139.016 100.977 139.318 100.632C139.777 100.016 140.453 99.5988 141.209 99.4648Z" fill="#231F20"/>
<path d="M99.9746 80.1621C99.9746 80.1621 83.7898 88.68 82.5923 90.9244C81.3948 93.1687 83.6391 92.9202 84.5128 92.7997C85.3864 92.6792 113.825 95.1645 124.926 105.023C124.926 105.023 149.026 86.1947 152.829 84.5604C156.633 82.9261 101.104 80.373 99.9746 80.1621Z" fill="#68E1FD"/>
<path d="M124.964 105.399C124.87 105.397 124.779 105.362 124.707 105.301C113.795 95.6087 86.0491 93.0179 84.5956 93.1685C83.7671 93.289 82.5923 93.3719 82.1103 92.6714C81.7864 92.2196 81.8542 91.5869 82.2985 90.7509C83.5186 88.4915 98.1746 80.7042 99.839 79.8305C99.9156 79.7915 100.003 79.7783 100.088 79.7929C100.351 79.838 103.537 80.0113 107.574 80.2372C146.104 82.3761 153.244 83.2497 153.432 84.3192C153.432 84.4623 153.432 84.7259 153.018 84.9066C149.29 86.5033 125.43 105.128 125.189 105.317C125.125 105.368 125.046 105.397 124.964 105.399ZM84.6709 92.4154C87.2843 92.4154 113.953 95.0513 124.971 104.533C127.577 102.5 147.723 86.8271 152.317 84.4096C148.145 83.2422 118.893 81.623 107.536 80.9903C102.98 80.7343 100.698 80.6062 100.088 80.5535C93.6181 83.9577 83.7973 89.5384 82.9613 91.0974C82.6751 91.6321 82.5922 92.0463 82.7278 92.2346C82.8634 92.4229 83.1948 92.6036 84.4977 92.4154H84.6709Z" fill="#231F20"/>
<path d="M95.7269 91.8582C103.609 91.8582 109.999 88.4795 109.999 84.3118C109.999 80.144 103.609 76.7654 95.7269 76.7654C87.8448 76.7654 81.4551 80.144 81.4551 84.3118C81.4551 88.4795 87.8448 91.8582 95.7269 91.8582Z" fill="#68E1FD"/>
<path d="M95.7269 92.2346C87.6458 92.2346 81.0785 88.6798 81.0785 84.3116C81.0785 79.9434 87.6458 76.3811 95.7269 76.3811C103.808 76.3811 110.375 79.9434 110.375 84.3116C110.375 88.6798 103.801 92.2346 95.7269 92.2346ZM95.7269 77.1342C88.06 77.1342 81.8316 80.3576 81.8316 84.3116C81.8316 88.2655 88.06 91.4814 95.7269 91.4814C103.394 91.4814 109.622 88.2655 109.622 84.3116C109.622 80.3576 103.386 77.1342 95.7269 77.1342Z" fill="#231F20"/>
<path d="M142.436 90.4724C150.318 90.4724 156.708 87.0938 156.708 82.926C156.708 78.7583 150.318 75.3796 142.436 75.3796C134.554 75.3796 128.164 78.7583 128.164 82.926C128.164 87.0938 134.554 90.4724 142.436 90.4724Z" fill="#68E1FD"/>
<path d="M142.436 90.8491C134.363 90.8491 127.788 87.2943 127.788 82.9261C127.788 78.558 134.363 75.0032 142.436 75.0032C150.51 75.0032 157.085 78.558 157.085 82.9261C157.085 87.2943 150.517 90.8491 142.436 90.8491ZM142.436 75.7864C134.777 75.7864 128.541 79.0023 128.541 82.9563C128.541 86.9102 134.777 90.1261 142.436 90.1261C150.096 90.1261 156.332 86.9102 156.332 82.9563C156.332 79.0023 150.103 75.7563 142.436 75.7563V75.7864Z" fill="#231F20"/>
<path d="M121.025 94.14C126.827 94.14 131.531 91.4762 131.531 88.1902C131.531 84.9043 126.827 82.2405 121.025 82.2405C115.222 82.2405 110.518 84.9043 110.518 88.1902C110.518 91.4762 115.222 94.14 121.025 94.14Z" fill="#68E1FD"/>
<path d="M121.025 94.5242C115 94.5242 110.142 91.6849 110.142 88.1903C110.142 84.6958 115.022 81.864 121.025 81.864C127.027 81.864 131.915 84.7033 131.915 88.1903C131.915 91.6773 127.027 94.5242 121.025 94.5242ZM121.025 82.6171C115.436 82.6171 110.895 85.1175 110.895 88.1903C110.895 91.2631 115.414 93.771 121.025 93.771C126.636 93.771 131.162 91.2631 131.162 88.1903C131.162 85.1175 126.613 82.6171 121.025 82.6171Z" fill="#231F20"/>
<path d="M120.964 91.8507C126.767 91.8507 131.471 89.1869 131.471 85.9009C131.471 82.615 126.767 79.9512 120.964 79.9512C115.162 79.9512 110.458 82.615 110.458 85.9009C110.458 89.1869 115.162 91.8507 120.964 91.8507Z" fill="white"/>
<path d="M120.964 92.2346C114.939 92.2346 110.082 89.3953 110.082 85.9008C110.082 82.4062 114.962 79.5745 120.964 79.5745C126.967 79.5745 131.855 82.4138 131.855 85.9008C131.855 89.3878 126.967 92.2346 120.964 92.2346ZM120.964 80.3276C115.376 80.3276 110.835 82.828 110.835 85.9008C110.835 88.9736 115.354 91.4815 120.964 91.4815C126.575 91.4815 131.102 88.9811 131.102 85.9008C131.102 82.8205 126.553 80.3276 120.964 80.3276Z" fill="#231F20"/>
<path d="M96.8642 89.0943C104.746 89.0943 111.136 85.7156 111.136 81.5479C111.136 77.3801 104.746 74.0015 96.8642 74.0015C88.982 74.0015 82.5923 77.3801 82.5923 81.5479C82.5923 85.7156 88.982 89.0943 96.8642 89.0943Z" fill="white"/>
<path d="M96.8641 89.4708C88.7905 89.4708 82.2157 85.916 82.2157 81.5478C82.2157 77.1796 88.7905 73.6173 96.8641 73.6173C104.938 73.6173 111.513 77.1721 111.513 81.5478C111.513 85.9235 104.945 89.4708 96.8641 89.4708ZM96.8641 74.4081C89.2048 74.4081 82.9688 77.6315 82.9688 81.5855C82.9688 85.5394 89.2048 88.7553 96.8641 88.7553C104.523 88.7553 110.759 85.5394 110.759 81.5855C110.759 77.6315 104.523 74.3704 96.8641 74.3704V74.4081Z" fill="#231F20"/>
<path d="M141.239 87.7083C149.121 87.7083 155.511 84.3296 155.511 80.1619C155.511 75.9941 149.121 72.6155 141.239 72.6155C133.357 72.6155 126.967 75.9941 126.967 80.1619C126.967 84.3296 133.357 87.7083 141.239 87.7083Z" fill="white"/>
<path d="M141.239 88.0848C133.158 88.0848 126.59 84.53 126.59 80.1619C126.59 75.7937 133.158 72.2389 141.239 72.2389C149.32 72.2389 155.887 75.7937 155.887 80.1619C155.887 84.53 149.312 88.0848 141.239 88.0848ZM141.239 73.0221C133.572 73.0221 127.343 76.238 127.343 80.192C127.343 84.1459 133.572 87.3618 141.239 87.3618C148.906 87.3618 155.134 84.1459 155.134 80.192C155.134 76.238 148.898 72.992 141.239 72.992V73.0221Z" fill="#231F20"/>
<path d="M156.648 74.9578C156.648 84.1234 139.65 86.187 118.69 86.187C97.7303 86.187 80.7245 84.1234 80.7245 74.9578C80.7245 65.7921 97.7227 53.0115 118.69 53.0115C139.657 53.0115 156.648 65.7997 156.648 74.9578Z" fill="white"/>
<path d="M118.69 86.5638C92.1721 86.5638 80.3479 82.9864 80.3479 74.958C80.3479 70.2811 84.6784 64.6326 91.6449 60.2343C99.7906 55.2647 109.148 52.6356 118.69 52.6356C128.232 52.6356 137.589 55.2647 145.735 60.2343C152.701 64.6326 157.032 70.2811 157.032 74.958C157.024 82.9713 145.2 86.5638 118.69 86.5638ZM118.69 53.3883C97.2407 53.3883 81.1011 66.4777 81.1011 74.958C81.1011 84.5755 101.187 85.8107 118.69 85.8107C136.193 85.8107 156.271 84.5755 156.271 74.958C156.271 66.4777 140.132 53.3883 118.69 53.3883Z" fill="#231F20"/>
<path d="M104.343 74.9652C104.266 74.9632 104.191 74.9385 104.128 74.8943C104.065 74.8501 104.017 74.7883 103.989 74.7167C103.955 74.6228 103.96 74.5193 104.002 74.4289C104.044 74.3386 104.121 74.2687 104.215 74.2347L107.98 72.864C108.026 72.846 108.075 72.8374 108.125 72.8386C108.174 72.8399 108.223 72.851 108.268 72.8714C108.312 72.8918 108.353 72.9209 108.386 72.9572C108.42 72.9934 108.446 73.036 108.462 73.0824C108.495 73.1774 108.489 73.2812 108.447 73.3722C108.405 73.4633 108.33 73.5348 108.236 73.572L104.471 74.9427C104.43 74.958 104.386 74.9657 104.343 74.9652Z" fill="#D1D3D4"/>
<path d="M118.69 71.7194C118.641 71.7201 118.593 71.7111 118.548 71.693C118.502 71.6749 118.461 71.648 118.426 71.6139L114.435 67.7503C114.399 67.7153 114.371 67.6737 114.352 67.6278C114.333 67.5819 114.323 67.5327 114.323 67.483C114.323 67.4333 114.333 67.3841 114.352 67.3382C114.371 67.2923 114.399 67.2506 114.435 67.2156C114.469 67.1806 114.51 67.1527 114.555 67.1337C114.601 67.1147 114.649 67.1049 114.698 67.1049C114.747 67.1049 114.796 67.1147 114.841 67.1337C114.887 67.1527 114.928 67.1806 114.962 67.2156L118.938 71.0717C118.993 71.1239 119.03 71.1912 119.046 71.2648C119.061 71.3384 119.054 71.415 119.026 71.4848C118.998 71.5545 118.949 71.6141 118.886 71.6559C118.824 71.6977 118.75 71.7198 118.675 71.7194H118.69Z" fill="#D1D3D4"/>
<path d="M100.6 69.7913C100.56 69.7985 100.519 69.7985 100.479 69.7913L96.7135 68.4808C96.6665 68.4645 96.6232 68.4391 96.5861 68.406C96.5489 68.373 96.5186 68.3329 96.497 68.2882C96.4753 68.2434 96.4626 68.1948 96.4597 68.1452C96.4568 68.0955 96.4637 68.0458 96.48 67.9988C96.4964 67.9518 96.5218 67.9085 96.5548 67.8714C96.5879 67.8342 96.6279 67.8039 96.6727 67.7823C96.7174 67.7606 96.766 67.7479 96.8157 67.745C96.8653 67.7421 96.9151 67.749 96.9621 67.7653L100.728 69.0758C100.819 69.1015 100.898 69.16 100.948 69.2402C100.999 69.3203 101.018 69.4164 101.003 69.51C100.987 69.6035 100.937 69.6879 100.862 69.7467C100.788 69.8056 100.694 69.8349 100.6 69.8289V69.7913Z" fill="#D1D3D4"/>
<path d="M116.679 80.3503C116.579 80.3517 116.483 80.3159 116.408 80.2497C116.334 80.1835 116.287 80.0919 116.276 79.9927C116.266 79.8936 116.293 79.7942 116.352 79.714C116.411 79.6338 116.498 79.5787 116.596 79.5595L121.582 78.475C121.636 78.4468 121.696 78.4315 121.758 78.4303C121.819 78.429 121.88 78.4419 121.935 78.4679C121.99 78.4938 122.039 78.5322 122.077 78.58C122.116 78.6278 122.142 78.6838 122.156 78.7436C122.169 78.8034 122.168 78.8654 122.153 78.9248C122.139 78.9843 122.111 79.0395 122.071 79.0864C122.032 79.1332 121.982 79.1704 121.926 79.1949C121.87 79.2195 121.809 79.2309 121.748 79.2281L116.762 80.3126L116.679 80.3503Z" fill="white"/>
<path d="M131.478 69.9721C131.431 69.98 131.382 69.98 131.335 69.9721L126.154 67.8482C126.108 67.8275 126.067 67.798 126.033 67.7614C125.999 67.7248 125.972 67.6818 125.955 67.6349C125.937 67.5881 125.929 67.5382 125.931 67.4883C125.933 67.4383 125.944 67.3891 125.965 67.3436C125.986 67.2982 126.016 67.2572 126.052 67.2231C126.089 67.189 126.132 67.1625 126.179 67.145C126.225 67.1275 126.275 67.1194 126.325 67.1212C126.375 67.123 126.424 67.1346 126.47 67.1554L131.644 69.2717C131.69 69.2899 131.732 69.3171 131.767 69.3516C131.803 69.3861 131.831 69.4272 131.851 69.4727C131.87 69.5182 131.881 69.5671 131.882 69.6166C131.882 69.6661 131.873 69.7152 131.855 69.7612C131.822 69.8314 131.768 69.8896 131.701 69.9274C131.633 69.9653 131.555 69.9809 131.478 69.9721Z" fill="#D1D3D4"/>
<path d="M140.102 77.1342H132.028C131.928 77.1342 131.832 77.0946 131.762 77.0239C131.691 76.9533 131.651 76.8575 131.651 76.7577C131.651 76.6578 131.691 76.562 131.762 76.4914C131.832 76.4208 131.928 76.3811 132.028 76.3811H140.102C140.201 76.383 140.295 76.4233 140.366 76.4935C140.436 76.5637 140.476 76.6584 140.478 76.7577C140.478 76.8575 140.438 76.9533 140.368 77.0239C140.297 77.0946 140.201 77.1342 140.102 77.1342Z" fill="#D1D3D4"/>
<path d="M136.938 64.0298C136.899 64.037 136.858 64.037 136.818 64.0298L130.333 61.8834C130.239 61.8524 130.16 61.785 130.115 61.696C130.07 61.6071 130.062 61.5038 130.092 61.4089C130.127 61.3147 130.196 61.2372 130.285 61.1923C130.375 61.1475 130.478 61.1388 130.574 61.1679L137.059 63.3369C137.154 63.368 137.232 63.4354 137.278 63.5243C137.323 63.6133 137.331 63.7165 137.3 63.8114C137.268 63.8792 137.216 63.936 137.152 63.9748C137.088 64.0136 137.013 64.0327 136.938 64.0298Z" fill="#D1D3D4"/>
<path d="M110.458 60.8667C110.379 60.8677 110.301 60.8434 110.236 60.7974C110.171 60.7514 110.122 60.686 110.097 60.6106C110.066 60.5157 110.074 60.4125 110.119 60.3235C110.164 60.2345 110.243 60.1671 110.338 60.1361L116.581 58.1403C116.676 58.1094 116.779 58.1175 116.868 58.1627C116.957 58.2078 117.025 58.2865 117.056 58.3813C117.084 58.4772 117.074 58.5804 117.028 58.669C116.981 58.7576 116.902 58.8246 116.807 58.8558L110.571 60.8516C110.535 60.864 110.497 60.8691 110.458 60.8667Z" fill="#D1D3D4"/>
<path d="M94.296 77.1796C94.235 77.1791 94.175 77.1638 94.1212 77.1349C94.0674 77.106 94.0214 77.0645 93.9872 77.014L91.4416 73.4366C91.4127 73.3961 91.3921 73.3503 91.381 73.3018C91.3699 73.2534 91.3686 73.2032 91.377 73.1541C91.3854 73.1051 91.4034 73.0583 91.43 73.0163C91.4566 72.9742 91.4913 72.9379 91.532 72.9094C91.5719 72.8807 91.6171 72.8602 91.665 72.8492C91.7128 72.8382 91.7624 72.8369 91.8108 72.8453C91.8592 72.8537 91.9055 72.8717 91.9468 72.8982C91.9882 72.9248 92.0238 72.9593 92.0517 72.9998L94.5973 76.5847C94.654 76.665 94.6772 76.7643 94.6617 76.8614C94.6462 76.9585 94.5934 77.0457 94.5144 77.1043C94.4524 77.1537 94.3753 77.1803 94.296 77.1796Z" fill="#D1D3D4"/>
<path d="M113.576 81.3295C113.527 81.333 113.477 81.3267 113.43 81.311C113.383 81.2952 113.34 81.2704 113.302 81.2379C113.227 81.1722 113.18 81.0792 113.173 80.9793C113.166 80.8794 113.199 80.7809 113.265 80.7053C113.331 80.6298 113.424 80.5834 113.523 80.5764L120.912 79.5747C121.011 79.5618 121.112 79.5884 121.192 79.649C121.273 79.7095 121.326 79.7991 121.341 79.8986C121.354 79.9974 121.327 80.0973 121.266 80.1764C121.206 80.2554 121.116 80.3072 121.017 80.3203L113.621 81.322L113.576 81.3295Z" fill="#D1D3D4"/>
<path d="M146.051 71.0113C146.011 71.0182 145.971 71.0182 145.931 71.0113L139.996 69.1285C139.905 69.0948 139.83 69.027 139.787 68.9393C139.745 68.8517 139.738 68.7509 139.768 68.6583C139.798 68.5657 139.863 68.4884 139.949 68.4426C140.035 68.3969 140.136 68.3863 140.23 68.413L146.164 70.2958C146.264 70.3108 146.354 70.3649 146.414 70.4461C146.474 70.5273 146.499 70.629 146.484 70.7289C146.469 70.8288 146.415 70.9186 146.334 70.9786C146.253 71.0387 146.151 71.064 146.051 71.049V71.0113Z" fill="#D1D3D4"/>
<path d="M108.086 66.357C108.034 66.3678 107.98 66.3678 107.928 66.357C107.37 66.0934 104.554 64.7604 104.019 63.8792C103.967 63.7933 103.951 63.6903 103.975 63.5928C103.999 63.4954 104.061 63.4115 104.147 63.3595C104.233 63.3076 104.336 63.2919 104.433 63.3159C104.531 63.3399 104.615 63.4017 104.667 63.4876C104.983 64.0223 107.031 65.1068 108.244 65.6716C108.32 65.7086 108.382 65.7701 108.419 65.8464C108.456 65.9226 108.466 66.0091 108.448 66.0919C108.429 66.1746 108.384 66.2488 108.318 66.3024C108.252 66.3559 108.171 66.3858 108.086 66.3871V66.357Z" fill="#D1D3D4"/>
<path d="M71.1447 95.7744C71.1447 95.7744 90.568 111.168 94.8307 113.631C99.0935 116.094 124.203 131.337 124.203 131.337C124.203 131.337 94.3337 135.977 78.0509 134.478C61.7682 132.979 29.7826 133.024 23.1325 128.995C16.4823 124.966 27.3877 112.622 33.6763 108.307C39.965 103.991 50.4034 91.1502 71.1447 95.7744Z" fill="white"/>
<path d="M85.4015 135.156C82.7429 135.156 80.2275 135.065 77.9831 134.862C73.0652 134.41 66.7389 134.109 60.0435 133.77C44.1072 133.017 27.6588 132.181 22.9065 129.327C22.2225 128.945 21.6525 128.388 21.2554 127.713C20.8583 127.038 20.6483 126.269 20.6471 125.486C20.4814 119.807 28.7508 111.221 33.4504 108.005C34.4671 107.305 35.5893 106.386 36.8847 105.324C43.5875 99.8188 53.7172 91.5042 71.2577 95.413C71.3126 95.4273 71.3639 95.453 71.4083 95.4883C71.6041 95.6389 90.8617 110.89 95.0491 113.315C99.2365 115.74 124.15 130.871 124.421 131.029C124.487 131.069 124.538 131.127 124.569 131.197C124.6 131.267 124.609 131.345 124.595 131.42C124.581 131.497 124.544 131.567 124.489 131.621C124.433 131.675 124.362 131.71 124.286 131.722C123.977 131.759 101.857 135.156 85.4015 135.156ZM62.4912 95.1645C50.4411 95.1645 42.744 101.468 37.329 105.904C36.0261 106.981 34.8889 107.907 33.8495 108.63C28.5776 112.268 21.2571 120.44 21.4002 125.463C21.3973 126.119 21.5713 126.765 21.9039 127.33C22.2366 127.896 22.7156 128.362 23.2906 128.679C27.8546 131.443 44.9733 132.279 60.0812 133.017C66.784 133.348 73.1179 133.657 78.0509 134.109C92.4132 135.427 117.696 131.917 123.088 131.096C118.569 128.363 98.393 116.109 94.6424 113.933C90.4927 111.53 72.4401 97.2582 70.979 96.0983C68.1918 95.4811 65.3459 95.168 62.4912 95.1645Z" fill="#231F20"/>
<path d="M25.8663 126.57C25.8663 126.57 29.8956 118.368 34.2336 113.563C38.5716 108.758 49.6276 100.12 55.7506 97.7476C61.8736 95.3752 71.1446 95.7744 71.1446 95.7744C71.1446 95.7744 73.8333 92.935 71.1446 89.9451C70.3684 89.0756 69.3874 88.4136 68.2906 88.019C67.1937 87.6245 66.0158 87.5099 64.8635 87.6857C64.8635 87.6857 50.3732 87.2338 38.5641 95.9024C26.755 104.571 18.5383 116.937 16.4446 124.951C14.3509 132.964 25.8663 126.57 25.8663 126.57Z" fill="white"/>
<path d="M18.6513 129.379C17.9614 129.419 17.2779 129.228 16.7082 128.837C15.7969 128.129 15.5861 126.796 16.0831 124.883C18.817 114.399 29.3533 102.229 38.3457 95.6314C49.8009 87.2189 63.9523 87.347 64.8334 87.347C66.042 87.1579 67.2787 87.2753 68.4301 87.6885C69.5815 88.1017 70.6107 88.7974 71.4233 89.7118C74.3154 92.9201 71.4233 96.0155 71.4233 96.0456C71.3868 96.0868 71.3413 96.119 71.2904 96.1399C71.2395 96.1607 71.1845 96.1697 71.1296 96.1661C71.0392 96.1661 61.8736 95.7519 55.8937 98.0866C49.6503 100.527 38.5943 109.331 34.5123 113.85C30.2646 118.534 26.2278 126.653 26.2278 126.766C26.1913 126.833 26.1364 126.888 26.0697 126.924C25.4898 127.203 21.4906 129.379 18.6513 129.379ZM64.5924 88.085C62.4987 88.085 49.462 88.4164 38.8127 96.2339C27.0563 104.85 18.8471 117.269 16.8137 125.079C16.3994 126.668 16.5124 127.737 17.1676 128.235C18.8321 129.522 23.7048 127.323 25.5801 126.291C26.0697 125.305 29.9031 117.781 33.955 113.315C38.0068 108.849 49.2436 99.864 55.6151 97.3712C61.3464 95.1118 69.6083 95.3452 70.979 95.3979C71.6294 94.6836 71.9803 93.7467 71.9593 92.7808C71.9383 91.815 71.5469 90.8942 70.866 90.2089C70.1366 89.3868 69.2121 88.7614 68.1777 88.3903C67.1432 88.0192 66.032 87.9142 64.9464 88.085H64.5698H64.5924Z" fill="#231F20"/>
<path d="M21.0839 132.994C20.6396 132.836 13.1609 128.475 17.3182 123.58C21.4755 118.685 25.5349 122.827 25.8362 126.593C25.8362 126.593 56.6167 128.528 58.1155 129.726C59.6142 130.923 59.0117 134.659 61.7004 133.017C64.3891 131.375 63.041 129.876 65.2853 129.575C67.5296 129.274 86.5086 129.575 87.5479 130.177C88.5872 130.78 88.7454 134.809 90.8391 132.716C92.9328 130.622 93.6784 128.679 95.3579 129.876C97.0374 131.074 98.9428 130.328 100.442 130.027C101.94 129.726 124.21 131.345 124.21 131.345L120.196 135.382C120.196 135.382 36.3273 138.372 21.0839 132.994Z" fill="#231F20"/>
<path d="M72.5982 136.624C50.8176 136.624 28.2537 135.946 20.9483 133.371C20.5567 133.228 16.6931 131.013 15.8421 127.88C15.6427 127.087 15.6479 126.257 15.8574 125.466C16.0668 124.676 16.4736 123.952 17.0396 123.362C19.2161 120.801 21.1893 120.748 22.4546 121.155C24.3374 121.765 25.9115 123.904 26.2203 126.231C32.0721 126.6 56.9029 128.242 58.3941 129.432C58.9754 130.019 59.3867 130.753 59.5841 131.556C59.8175 132.241 60.0359 132.881 60.405 133.017C60.603 133.039 60.8034 133.022 60.9947 132.966C61.1861 132.911 61.3645 132.818 61.5196 132.693C62.3333 132.252 62.9673 131.541 63.3121 130.682C63.4351 130.256 63.6905 129.881 64.0412 129.61C64.3919 129.339 64.8197 129.187 65.2627 129.176C67.1982 128.92 86.5688 129.131 87.7814 129.823C88.2833 130.249 88.6455 130.816 88.8207 131.45C89.0768 132.06 89.4006 132.828 89.7546 132.904C89.9504 132.941 90.2441 132.768 90.5906 132.429C91.1102 131.91 91.547 131.39 91.9387 130.923C93.0759 129.59 94.0625 128.43 95.5838 129.537C96.8265 130.441 98.3102 130.095 99.6206 129.786C99.8692 129.726 100.118 129.665 100.374 129.62C101.88 129.319 121.943 130.787 124.225 130.961C124.302 130.966 124.375 130.993 124.436 131.038C124.498 131.083 124.545 131.145 124.572 131.217C124.597 131.289 124.602 131.366 124.586 131.44C124.57 131.515 124.534 131.583 124.482 131.638L120.445 135.69C120.374 135.765 120.276 135.808 120.174 135.811C118.404 135.841 95.9453 136.624 72.5982 136.624ZM21.2195 132.618C35.9131 137.799 115.888 135.133 119.985 134.99L123.277 131.684C114.367 131.028 101.534 130.177 100.509 130.396L99.8014 130.554C98.4005 130.885 96.6533 131.307 95.1169 130.177C94.2357 129.53 93.7914 129.967 92.5412 131.435C92.142 131.902 91.6901 132.429 91.1479 132.941C90.9696 133.179 90.7335 133.368 90.462 133.489C90.1905 133.61 89.8926 133.66 89.5964 133.634C88.8433 133.484 88.4516 132.58 88.0901 131.706C87.9519 131.247 87.7125 130.825 87.3897 130.471C86.245 129.944 67.6125 129.62 65.3757 129.921C65.0713 129.915 64.7739 130.013 64.5319 130.197C64.2898 130.382 64.1174 130.643 64.0426 130.938C63.6339 131.944 62.8921 132.779 61.9414 133.303C61.6897 133.499 61.3974 133.635 61.0859 133.703C60.7744 133.771 60.4516 133.768 60.1414 133.695C59.3883 133.431 59.1322 132.618 58.8385 131.751C58.6854 131.091 58.3636 130.481 57.9046 129.982C56.7448 129.161 37.6227 127.677 25.8437 126.931C25.7488 126.926 25.659 126.887 25.5911 126.82C25.5232 126.754 25.4818 126.665 25.4747 126.57C25.3014 124.416 23.9006 122.39 22.2211 121.848C20.7149 121.366 19.1483 122.044 17.6571 123.806C17.1803 124.295 16.8339 124.896 16.6497 125.554C16.4655 126.212 16.4493 126.906 16.6028 127.572C17.2655 130.358 20.8278 132.459 21.2195 132.618Z" fill="#231F20"/>
<path d="M49.6277 123.317C54.7646 123.317 58.9289 121.364 58.9289 118.956C58.9289 116.548 54.7646 114.595 49.6277 114.595C44.4908 114.595 40.3265 116.548 40.3265 118.956C40.3265 121.364 44.4908 123.317 49.6277 123.317Z" fill="#68E1FD"/>
<path d="M67.3338 112.554C71.9758 112.554 75.7388 110.244 75.7388 107.395C75.7388 104.546 71.9758 102.236 67.3338 102.236C62.6919 102.236 58.9289 104.546 58.9289 107.395C58.9289 110.244 62.6919 112.554 67.3338 112.554Z" fill="#68E1FD"/>
<path d="M70.8345 126.235C75.3533 125.492 78.7062 123.003 78.3235 120.676C77.9407 118.348 73.9672 117.064 69.4484 117.808C64.9296 118.551 61.5766 121.04 61.9594 123.367C62.3421 125.694 66.3156 126.978 70.8345 126.235Z" fill="#68E1FD"/>
<path d="M99.3621 121.412C99.9116 118.561 96.7614 115.557 92.3259 114.702C87.8904 113.847 83.8492 115.465 83.2997 118.316C82.7502 121.167 85.9005 124.171 90.336 125.026C94.7715 125.881 98.8126 124.263 99.3621 121.412Z" fill="#68E1FD"/>
<path d="M51.7892 105.497C51.715 105.496 51.6429 105.473 51.5814 105.432C51.52 105.39 51.4718 105.332 51.4427 105.264C51.4244 105.218 51.4153 105.169 51.416 105.119C51.4166 105.07 51.4271 105.021 51.4466 104.975C51.4662 104.93 51.4946 104.889 51.5301 104.854C51.5656 104.82 51.6076 104.793 51.6536 104.774L58.7858 101.89C58.8788 101.855 58.9818 101.857 59.0731 101.896C59.1644 101.936 59.2369 102.009 59.2753 102.101C59.2949 102.146 59.3052 102.195 59.3055 102.244C59.3059 102.294 59.2963 102.343 59.2773 102.388C59.2583 102.434 59.2304 102.476 59.1951 102.51C59.1598 102.545 59.118 102.572 59.072 102.59L51.9097 105.475C51.8708 105.488 51.8302 105.495 51.7892 105.497Z" fill="#D1D3D4"/>
<path d="M76.8986 115.16C76.823 115.161 76.7488 115.139 76.6856 115.098C76.6225 115.056 76.5734 114.996 76.5446 114.926C76.5096 114.833 76.512 114.73 76.5513 114.639C76.5907 114.548 76.6638 114.475 76.7555 114.437L82.3588 112.177C82.4055 112.151 82.4573 112.135 82.5106 112.131C82.564 112.126 82.6177 112.133 82.6682 112.15C82.7188 112.168 82.7649 112.197 82.8036 112.234C82.8423 112.271 82.8727 112.316 82.8927 112.365C82.9126 112.415 82.9218 112.468 82.9195 112.522C82.9172 112.575 82.9035 112.628 82.8794 112.676C82.8552 112.723 82.8212 112.765 82.7795 112.799C82.7377 112.833 82.6893 112.857 82.6375 112.87L77.0342 115.13L76.8986 115.16Z" fill="#D1D3D4"/>
<path d="M107.159 127.466C107.093 127.468 107.027 127.449 106.971 127.413L102.264 124.725C102.218 124.702 102.177 124.67 102.144 124.631C102.111 124.593 102.086 124.547 102.071 124.498C102.056 124.449 102.051 124.398 102.056 124.347C102.062 124.296 102.077 124.247 102.103 124.202C102.128 124.158 102.162 124.119 102.202 124.088C102.243 124.057 102.29 124.034 102.339 124.022C102.389 124.009 102.441 124.007 102.491 124.015C102.542 124.024 102.59 124.042 102.633 124.07L107.348 126.766C107.418 126.808 107.473 126.872 107.504 126.948C107.535 127.024 107.541 127.108 107.519 127.187C107.498 127.267 107.451 127.337 107.386 127.387C107.321 127.438 107.242 127.465 107.159 127.466Z" fill="#D1D3D4"/>
<path d="M79.7003 106.845C79.5985 106.845 79.501 106.805 79.4291 106.732L76.6275 103.946C76.5585 103.875 76.5198 103.781 76.5198 103.682C76.5198 103.584 76.5585 103.489 76.6275 103.419C76.6625 103.383 76.7041 103.355 76.75 103.336C76.7959 103.317 76.8451 103.307 76.8948 103.307C76.9446 103.307 76.9938 103.317 77.0397 103.336C77.0855 103.355 77.1272 103.383 77.1622 103.419L79.9639 106.198C79.9992 106.233 80.0272 106.274 80.0463 106.32C80.0654 106.366 80.0752 106.415 80.0752 106.465C80.0752 106.515 80.0654 106.564 80.0463 106.61C80.0272 106.656 79.9992 106.697 79.9639 106.732C79.9297 106.768 79.8887 106.796 79.8435 106.816C79.7982 106.835 79.7495 106.845 79.7003 106.845Z" fill="#D1D3D4"/>
<path d="M61.2786 114.045C61.2268 114.059 61.1723 114.059 61.1205 114.045L56.79 112.004C56.7447 111.983 56.7041 111.954 56.6705 111.917C56.6369 111.88 56.6109 111.837 56.5941 111.79C56.5773 111.743 56.57 111.693 56.5726 111.643C56.5752 111.594 56.5876 111.545 56.6092 111.5C56.6294 111.455 56.6585 111.414 56.6946 111.381C56.7308 111.347 56.7732 111.321 56.8196 111.305C56.8659 111.288 56.9152 111.28 56.9644 111.283C57.0136 111.285 57.0619 111.298 57.1063 111.319L61.4443 113.368C61.4889 113.389 61.5287 113.42 61.5616 113.457C61.5944 113.494 61.6196 113.537 61.6357 113.584C61.6518 113.631 61.6585 113.68 61.6554 113.73C61.6522 113.779 61.6394 113.828 61.6175 113.872C61.5827 113.93 61.5326 113.976 61.4727 114.007C61.4129 114.038 61.3456 114.051 61.2786 114.045Z" fill="#D1D3D4"/>
<path d="M40.3265 123.693H34.2337C34.1338 123.693 34.038 123.653 33.9674 123.583C33.8968 123.512 33.8571 123.416 33.8571 123.316C33.8571 123.217 33.8968 123.121 33.9674 123.05C34.038 122.979 34.1338 122.94 34.2337 122.94H40.3265C40.4264 122.94 40.5222 122.979 40.5928 123.05C40.6634 123.121 40.7031 123.217 40.7031 123.316C40.7011 123.416 40.6608 123.51 40.5906 123.581C40.5204 123.651 40.4258 123.691 40.3265 123.693Z" fill="#D1D3D4"/>
<path d="M40.3265 113.021C40.254 113.021 40.183 113.001 40.1217 112.962C40.0604 112.923 40.0113 112.868 39.98 112.803C39.9393 112.712 39.9362 112.609 39.9715 112.515C40.0068 112.422 40.0776 112.347 40.1683 112.306L45.1315 110.084C45.1769 110.06 45.2268 110.046 45.2781 110.042C45.3293 110.038 45.3809 110.044 45.4295 110.061C45.4781 110.078 45.5228 110.104 45.5608 110.139C45.5987 110.174 45.6292 110.216 45.6503 110.263C45.6715 110.309 45.6828 110.36 45.6835 110.411C45.6843 110.463 45.6746 110.514 45.6549 110.561C45.6352 110.609 45.606 110.652 45.5691 110.688C45.5322 110.723 45.4883 110.751 45.4402 110.769L40.4696 113.029C40.4219 113.037 40.3731 113.034 40.3265 113.021Z" fill="#D1D3D4"/>
<path d="M59.7874 126.118H56.0217C55.9219 126.118 55.8261 126.078 55.7555 126.008C55.6848 125.937 55.6452 125.841 55.6452 125.742C55.6452 125.642 55.6848 125.546 55.7555 125.475C55.8261 125.405 55.9219 125.365 56.0217 125.365H59.7874C59.8867 125.367 59.9813 125.407 60.0515 125.477C60.1218 125.548 60.162 125.642 60.164 125.742C60.164 125.841 60.1243 125.937 60.0537 126.008C59.9831 126.078 59.8873 126.118 59.7874 126.118Z" fill="#D1D3D4"/>
<path d="M85.1906 126.118H85.1002L79.6099 124.77C79.5132 124.747 79.4296 124.686 79.3774 124.601C79.3252 124.517 79.3086 124.415 79.3312 124.318C79.3562 124.221 79.4182 124.137 79.5041 124.085C79.59 124.033 79.6928 124.017 79.7907 124.039L85.281 125.387C85.3777 125.411 85.4613 125.471 85.5135 125.556C85.5657 125.641 85.5823 125.742 85.5596 125.839C85.5379 125.92 85.4898 125.992 85.4229 126.042C85.3561 126.092 85.2744 126.119 85.1906 126.118Z" fill="#D1D3D4"/>
</svg>
