<svg width="257" height="150" viewBox="0 0 257 150" fill="none" xmlns="http://www.w3.org/2000/svg">
<path d="M228.062 56.098C222.515 56.098 217.092 54.4529 212.479 51.3709C207.867 48.2888 204.272 43.9082 202.149 38.7829C200.026 33.6576 199.47 28.0179 200.552 22.5769C201.635 17.1359 204.306 12.1381 208.229 8.21537C212.152 4.29265 217.149 1.62124 222.59 0.538966C228.031 -0.54331 233.671 0.0121531 238.796 2.13511C243.922 4.25808 248.302 7.85319 251.384 12.4658C254.466 17.0785 256.111 22.5014 256.111 28.049C256.103 35.4855 253.145 42.615 247.887 47.8733C242.628 53.1317 235.499 56.0896 228.062 56.098ZM228.062 0.438277C222.602 0.438277 217.263 2.05762 212.723 5.09152C208.182 8.12543 204.643 12.4376 202.553 17.4828C200.464 22.528 199.917 28.0796 200.982 33.4356C202.048 38.7915 204.677 43.7113 208.539 47.5727C212.4 51.4342 217.32 54.0638 222.676 55.1292C228.032 56.1946 233.583 55.6478 238.629 53.558C243.674 51.4682 247.986 47.9293 251.02 43.3887C254.054 38.8481 255.673 33.5099 255.673 28.049C255.665 20.7287 252.753 13.7106 247.577 8.53442C242.401 3.3582 235.383 0.446559 228.062 0.438277Z" fill="#3F3D56"/>
<path d="M228.156 42.2139C235.935 42.2139 242.241 35.9081 242.241 28.1296C242.241 20.351 235.935 14.0453 228.156 14.0453C220.378 14.0453 214.072 20.351 214.072 28.1296C214.072 35.9081 220.378 42.2139 228.156 42.2139Z" fill="#F2F2F2"/>
<path d="M14.0779 28.162H229.086V136.178H14.0779V28.162Z" fill="#3F3D56"/>
<path opacity="0.1" d="M74.4849 59.3896H155.113V114.677H74.4849V59.3896Z" fill="black"/>
<path d="M247.433 14.0124C250.57 14.0124 253.113 11.4697 253.113 8.33321C253.113 5.1967 250.57 2.65405 247.433 2.65405C244.297 2.65405 241.754 5.1967 241.754 8.33321C241.754 11.4697 244.297 14.0124 247.433 14.0124Z" fill="#6C63FF"/>
<path d="M20.4769 34.8171C21.8906 34.8171 23.0366 33.6711 23.0366 32.2575C23.0366 30.8439 21.8906 29.6979 20.4769 29.6979C19.0633 29.6979 17.9173 30.8439 17.9173 32.2575C17.9173 33.6711 19.0633 34.8171 20.4769 34.8171Z" fill="#6C63FF"/>
<path d="M28.4118 34.8171C29.8254 34.8171 30.9714 33.6711 30.9714 32.2575C30.9714 30.8439 29.8254 29.6979 28.4118 29.6979C26.9981 29.6979 25.8521 30.8439 25.8521 32.2575C25.8521 33.6711 26.9981 34.8171 28.4118 34.8171Z" fill="#6C63FF"/>
<path d="M36.3466 34.8171C37.7602 34.8171 38.9062 33.6711 38.9062 32.2575C38.9062 30.8439 37.7602 29.6979 36.3466 29.6979C34.9329 29.6979 33.787 30.8439 33.787 32.2575C33.787 33.6711 34.9329 34.8171 36.3466 34.8171Z" fill="#6C63FF"/>
<path d="M38.9062 68.348H44.0254V73.4673H38.9062V68.348Z" fill="#6C63FF"/>
<path d="M194.787 112.886H199.906V118.005H194.787V112.886Z" fill="white"/>
<path d="M177.877 80.5106L181.857 77.2906L185.077 81.2703L181.097 84.4903L177.877 80.5106Z" fill="#6C63FF"/>
<path d="M163.816 146.928H3.07156V60.4133H3.58346V146.417H163.816V146.928Z" fill="#3F3D56"/>
<path d="M166.887 150C166.229 150 165.586 149.805 165.038 149.439C164.491 149.074 164.065 148.554 163.813 147.946C163.561 147.338 163.495 146.669 163.624 146.023C163.752 145.378 164.069 144.785 164.534 144.32C165 143.854 165.592 143.537 166.238 143.409C166.883 143.281 167.552 143.347 168.16 143.598C168.769 143.85 169.288 144.277 169.654 144.824C170.019 145.371 170.215 146.014 170.215 146.673C170.214 147.555 169.863 148.401 169.239 149.024C168.615 149.648 167.769 149.999 166.887 150ZM166.887 143.857C166.33 143.857 165.786 144.022 165.323 144.332C164.86 144.641 164.499 145.081 164.286 145.595C164.073 146.11 164.017 146.676 164.126 147.222C164.234 147.768 164.502 148.27 164.896 148.664C165.29 149.057 165.792 149.325 166.338 149.434C166.884 149.543 167.45 149.487 167.965 149.274C168.479 149.061 168.919 148.7 169.228 148.237C169.538 147.774 169.703 147.229 169.703 146.673C169.702 145.926 169.405 145.21 168.877 144.683C168.349 144.155 167.634 143.858 166.887 143.857Z" fill="#3F3D56"/>
<path d="M3.32751 60.6693C2.66939 60.6693 2.02605 60.4741 1.47884 60.1085C0.931638 59.7429 0.505144 59.2232 0.253293 58.6152C0.00144179 58.0072 -0.064454 57.3381 0.0639386 56.6926C0.192331 56.0472 0.509245 55.4543 0.974605 54.9889C1.43997 54.5235 2.03287 54.2066 2.67834 54.0782C3.32382 53.9498 3.99287 54.0157 4.60089 54.2676C5.20891 54.5194 5.72859 54.9459 6.09423 55.4931C6.45986 56.0403 6.65501 56.6837 6.65501 57.3418C6.65404 58.224 6.30315 59.0698 5.67933 59.6936C5.05551 60.3174 4.20972 60.6683 3.32751 60.6693ZM3.32751 54.5262C2.77064 54.5262 2.22627 54.6913 1.76325 55.0007C1.30023 55.3101 0.939354 55.7498 0.72625 56.2643C0.513145 56.7788 0.457387 57.3449 0.566027 57.8911C0.674667 58.4373 0.942825 58.9389 1.33659 59.3327C1.73036 59.7265 2.23204 59.9946 2.77821 60.1033C3.32438 60.2119 3.8905 60.1561 4.40498 59.943C4.91946 59.7299 5.3592 59.3691 5.66858 58.906C5.97796 58.443 6.14309 57.8987 6.14309 57.3418C6.14224 56.5953 5.84533 55.8797 5.31749 55.3518C4.78965 54.824 4.07399 54.5271 3.32751 54.5262Z" fill="#3F3D56"/>
<path d="M51.4483 129.779L49.1626 136.178H44.0254V129.651C44.4042 121.463 48.9988 117.613 49.1421 117.495C45.6892 120.825 46.0731 132.338 46.0731 132.338C48.3768 122.356 50.4245 122.1 50.4245 122.1C49.1856 123.961 48.5457 132.425 48.5073 132.953C48.6609 131.174 51.4483 129.779 51.4483 129.779Z" fill="#F2F2F2"/>
<path d="M210.401 130.649V136.178H206.451L204.513 130.749C204.513 130.749 206.722 131.855 206.845 133.265C206.815 132.83 206.308 126.134 205.325 124.66C205.325 124.66 206.95 124.862 208.778 132.779C208.778 132.779 209.08 123.649 206.344 121.007C206.459 121.102 210.101 124.153 210.401 130.649Z" fill="#F2F2F2"/>
<path d="M141.278 114.676H135.053L135.011 114.166L134.557 108.475V108.473L134.086 102.556L136.959 90.3524L139.4 92.7936V104.423C139.4 104.423 140.836 106.577 140.548 107.151C140.261 107.725 139.974 107.725 140.261 108.155C140.548 108.586 140.836 108.874 140.548 109.161C140.409 109.347 140.333 109.574 140.333 109.807C140.333 110.04 140.409 110.267 140.548 110.453C140.836 110.741 141.41 111.17 140.978 111.602C140.548 112.031 139.974 111.744 140.548 113.324C140.654 113.616 140.786 113.898 140.943 114.166C141.045 114.342 141.157 114.512 141.278 114.676Z" fill="#D0CDE1"/>
<path d="M122.098 75.3481L121.237 83.9627L129.995 85.2549L130.641 80.3016L131.287 75.3481H122.098Z" fill="#FFB9B9"/>
<path opacity="0.1" d="M122.098 75.3481L121.237 83.9627L129.995 85.2549L130.641 80.3016L131.287 75.3481H122.098Z" fill="black"/>
<path d="M126.908 78.1479C130.714 78.1479 133.8 75.0624 133.8 71.2563C133.8 67.4501 130.714 64.3646 126.908 64.3646C123.102 64.3646 120.016 67.4501 120.016 71.2563C120.016 75.0624 123.102 78.1479 126.908 78.1479Z" fill="#FFB9B9"/>
<path d="M109.493 114.676C109.469 114.626 109.443 114.573 109.416 114.516C109.366 114.409 109.311 114.293 109.252 114.166C108.871 113.315 108.404 112.106 108.673 111.744C109.105 111.17 109.248 110.596 108.96 110.309C108.673 110.022 107.812 110.596 108.673 109.877C109.535 109.161 109.822 109.59 109.535 108.729C109.248 107.868 108.673 108.299 109.248 107.868C109.822 107.438 110.253 107.581 109.966 107.151C109.679 106.72 109.105 106.72 109.679 106.432C110.253 106.145 110.685 106.432 110.54 105.714C110.396 104.997 110.253 105.284 110.54 104.997C110.615 104.923 110.876 104.199 111.224 103.167C112.199 100.251 113.843 94.871 113.843 94.6585C113.843 94.3714 111.546 85.3278 111.546 85.3278L110.54 84.7515C110.54 84.7515 106.09 87.7667 104.655 94.516C103.217 101.263 102.213 102.988 102.213 102.988C102.213 102.988 100.778 103.275 101.782 104.278C102.788 105.284 102.788 105.14 101.926 105.714C101.065 106.288 100.491 105.14 101.065 106.288C101.639 107.438 102.356 107.151 101.782 107.868C101.208 108.587 100.204 108.587 100.778 109.161C101.352 109.735 100.204 111.028 100.921 111.602C101.639 112.176 101.926 112.318 101.926 113.324C101.927 113.606 101.949 113.887 101.994 114.166C102.019 114.338 102.054 114.508 102.099 114.676C102.132 114.81 102.165 114.911 102.187 114.974L109.493 114.676Z" fill="#D0CDE1"/>
<path d="M109.493 114.676H110.078L110.109 114.472L109.416 114.516L106.898 114.676L102.187 114.974L109.493 114.676Z" fill="#3F3D56"/>
<path d="M112.55 108.587L111.259 104.136L111.224 103.168L110.54 84.7516L119.012 81.7385L120.447 80.5881C120.447 80.5881 120.734 77.2858 121.166 76.9987C121.322 76.8957 121.572 77.0162 121.902 77.2967C122.483 77.7898 123.316 78.7737 124.324 79.8715C125.904 81.5939 129.206 81.3068 130.21 80.7327C130.339 80.6575 130.473 80.5909 130.611 80.5333C131.332 80.2353 131.645 80.4457 131.645 80.4457C132.364 81.0198 130.641 82.8868 130.641 82.8868C130.641 82.8868 131.216 84.1775 134.947 85.4704C138.681 86.7632 139.4 92.7938 139.4 92.7938C139.4 92.7938 134.947 104.853 135.092 105.714C135.215 106.452 134.706 108.034 134.557 108.473V108.475C134.533 108.545 134.518 108.587 134.518 108.587L134.844 114.166L134.875 114.676H113.157C113.092 114.499 113.011 114.328 112.914 114.166C112.89 114.126 112.863 114.085 112.837 114.043C111.546 112.031 112.55 108.587 112.55 108.587Z" fill="#D0CDE1"/>
<path d="M119.969 72.139C119.969 72.139 119.253 71.0655 119.528 69.9094C119.693 69.2531 119.758 68.5757 119.721 67.9001C119.721 67.9001 120.299 66.0283 120.877 64.9824C121.455 63.9364 121.18 63.496 122.996 63.1657C124.813 62.8354 124.07 60.4682 128.859 63.0281C129.021 63.2537 129.246 63.4264 129.505 63.5243C129.765 63.6223 130.048 63.6412 130.318 63.5786C131.309 63.3859 131.667 64.7622 131.667 64.7622C131.667 64.7622 132.328 64.3768 132.575 64.9273C132.823 65.4778 134.589 64.5969 134.589 68.3128C134.589 72.0288 132.579 75.3481 132.579 75.3481C132.579 75.3481 132.727 69.0974 129.451 68.4643C126.176 67.8313 122.652 65.987 121.799 68.3542C121.339 69.6828 120.724 70.953 119.969 72.139Z" fill="#2F2E41"/>
<path d="M132.651 73.6253C133.008 73.6253 133.297 73.2396 133.297 72.7638C133.297 72.288 133.008 71.9023 132.651 71.9023C132.294 71.9023 132.005 72.288 132.005 72.7638C132.005 73.2396 132.294 73.6253 132.651 73.6253Z" fill="#FFB9B9"/>
<path d="M74.4843 55.2935V114.676H168.679V55.2935H74.4843ZM168.168 114.166H74.9971V55.8062H168.168V114.166Z" fill="white"/>
</svg>
