<svg width="123" height="150" viewBox="0 0 123 150" fill="none" xmlns="http://www.w3.org/2000/svg">
<path d="M86.3813 27.6787H28.0662C23.5993 27.6787 19.9781 31.2998 19.9781 35.7667V141.11C19.9781 145.577 23.5993 149.198 28.0662 149.198H86.3813C90.8483 149.198 94.4694 145.577 94.4694 141.11V35.7667C94.4694 31.2998 90.8483 27.6787 86.3813 27.6787Z" fill="#68E1FD"/>
<path d="M86.3813 150H28.0662C25.7154 149.992 23.4636 149.052 21.8035 147.388C20.1434 145.723 19.2103 143.469 19.2082 141.118V35.7667C19.2103 33.4118 20.1467 31.1539 21.8119 29.4887C23.4771 27.8235 25.735 26.887 28.09 26.8849H86.4052C88.7608 26.887 91.0196 27.8232 92.686 29.4882C94.3525 31.1532 95.2907 33.4111 95.2949 35.7667V141.118C95.2928 142.287 95.0606 143.443 94.6115 144.522C94.1625 145.601 93.5053 146.58 92.6776 147.405C91.8499 148.23 90.8679 148.884 89.7875 149.329C88.7072 149.774 87.5498 150.002 86.3813 150ZM28.0662 28.4724C26.137 28.4829 24.2902 29.2555 22.9283 30.6219C21.5664 31.9882 20.7998 33.8376 20.7956 35.7667V141.118C20.7998 143.051 21.5697 144.904 22.9367 146.271C24.3038 147.638 26.1567 148.408 28.09 148.413H86.4052C88.3398 148.41 90.1948 147.642 91.5635 146.274C92.9323 144.907 93.7032 143.053 93.7074 141.118V35.7667C93.7032 33.8321 92.9323 31.978 91.5635 30.6107C90.1948 29.2434 88.3398 28.4745 86.4052 28.4724H28.0662Z" fill="#093F68"/>
<path d="M19.9781 37.8146H94.4694V130.831H19.9781V37.8146Z" fill="white"/>
<path d="M94.4774 131.625H20.0019C19.7914 131.625 19.5895 131.542 19.4407 131.393C19.2918 131.244 19.2082 131.042 19.2082 130.831V37.8146C19.2082 37.6041 19.2918 37.4022 19.4407 37.2533C19.5895 37.1045 19.7914 37.0208 20.0019 37.0208H94.5012C94.7117 37.0208 94.9136 37.1045 95.0624 37.2533C95.2113 37.4022 95.2949 37.6041 95.2949 37.8146V130.831C95.2949 130.938 95.2737 131.043 95.2323 131.141C95.1909 131.239 95.1303 131.327 95.0541 131.401C94.9778 131.475 94.8875 131.533 94.7884 131.572C94.6894 131.61 94.5836 131.628 94.4774 131.625ZM20.7718 130.038H93.6836V38.6083H20.7956L20.7718 130.038Z" fill="#093F68"/>
<path d="M65.0539 33.7269H53.0845C52.874 33.7269 52.6721 33.6432 52.5232 33.4944C52.3744 33.3455 52.2907 33.1437 52.2907 32.9331C52.2907 32.7226 52.3744 32.5207 52.5232 32.3719C52.6721 32.223 52.874 32.1394 53.0845 32.1394H65.0539C65.2644 32.1394 65.4663 32.223 65.6151 32.3719C65.764 32.5207 65.8476 32.7226 65.8476 32.9331C65.8476 33.1437 65.764 33.3455 65.6151 33.4944C65.4663 33.6432 65.2644 33.7269 65.0539 33.7269Z" fill="#093F68"/>
<path d="M49.3698 33.7269C49.2654 33.7275 49.1618 33.7075 49.0651 33.668C48.9684 33.6285 48.8805 33.5703 48.8063 33.4967C48.6948 33.386 48.6187 33.2446 48.5876 33.0906C48.5566 32.9366 48.5719 32.7768 48.6317 32.6315C48.6718 32.5334 48.7312 32.4444 48.8063 32.3696C48.8794 32.2982 48.9657 32.2416 49.0603 32.2029C49.2056 32.1417 49.3659 32.1251 49.5207 32.1553C49.5732 32.1626 49.6242 32.1787 49.6715 32.2029C49.7202 32.2188 49.7659 32.2429 49.8064 32.2743C49.8526 32.2969 49.8933 32.3295 49.9255 32.3696C50.004 32.4415 50.0639 32.5314 50.1001 32.6315C50.1495 32.7518 50.1686 32.8823 50.1557 33.0117C50.1429 33.141 50.0984 33.2653 50.0263 33.3734C49.9542 33.4816 49.8566 33.5704 49.7422 33.632C49.6277 33.6937 49.4998 33.7262 49.3698 33.7269Z" fill="#093F68"/>
<path d="M57.2277 143.491C59.3406 143.491 61.0535 141.779 61.0535 139.666C61.0535 137.553 59.3406 135.84 57.2277 135.84C55.1148 135.84 53.402 137.553 53.402 139.666C53.402 141.779 55.1148 143.491 57.2277 143.491Z" fill="#093F68"/>
<path d="M30.7251 95.0741H3.43681C1.97706 95.0741 0.793701 96.2574 0.793701 97.7172V117.156C0.793701 118.615 1.97706 119.799 3.43681 119.799H30.7251C32.1849 119.799 33.3683 118.615 33.3683 117.156V97.7172C33.3683 96.2574 32.1849 95.0741 30.7251 95.0741Z" fill="#F56132"/>
<path d="M30.7252 120.592H3.43684C2.52598 120.59 1.65302 120.228 1.00894 119.583C0.364861 118.939 0.00209635 118.066 0 117.156V97.7172C0.00209635 96.8063 0.364861 95.9334 1.00894 95.2893C1.65302 94.6452 2.52598 94.2824 3.43684 94.2803H30.7252C31.636 94.2824 32.509 94.6452 33.1531 95.2893C33.7971 95.9334 34.1599 96.8063 34.162 97.7172V117.156C34.162 118.067 33.7999 118.941 33.1554 119.586C32.5109 120.23 31.6367 120.592 30.7252 120.592ZM3.43684 95.8678C2.947 95.8699 2.47781 96.0654 2.13143 96.4118C1.78506 96.7581 1.58954 97.2273 1.58745 97.7172V117.156C1.58745 117.398 1.63529 117.639 1.72823 117.863C1.82117 118.088 1.9574 118.292 2.12913 118.463C2.30086 118.635 2.50473 118.771 2.7291 118.864C2.95348 118.957 3.19398 119.005 3.43684 119.005H30.7252C30.968 119.005 31.2085 118.957 31.4329 118.864C31.6573 118.771 31.8612 118.635 32.0329 118.463C32.2046 118.292 32.3409 118.088 32.4338 117.863C32.5267 117.639 32.5746 117.398 32.5746 117.156V97.7172C32.5746 97.4743 32.5267 97.2338 32.4338 97.0094C32.3409 96.7851 32.2046 96.5812 32.0329 96.4095C31.8612 96.2377 31.6573 96.1015 31.4329 96.0086C31.2085 95.9156 30.968 95.8678 30.7252 95.8678H3.43684Z" fill="#093F68"/>
<path d="M24.0182 107.44L12.4139 114.568V100.305L24.0182 107.44Z" fill="white"/>
<path d="M12.4139 115.362C12.2034 115.362 12.0015 115.278 11.8527 115.129C11.7038 114.98 11.6202 114.779 11.6202 114.568V100.281C11.617 100.135 11.654 99.9918 11.7269 99.8658C11.7999 99.7398 11.9061 99.6364 12.034 99.5667C12.1618 99.4971 12.3063 99.4639 12.4517 99.4709C12.5971 99.4779 12.7378 99.5247 12.8584 99.6062L24.4627 106.75C24.5771 106.821 24.6714 106.921 24.7366 107.039C24.8019 107.157 24.836 107.29 24.8357 107.424C24.836 107.559 24.8019 107.692 24.7366 107.81C24.6714 107.928 24.5771 108.028 24.4627 108.099L12.8584 115.243C12.7235 115.321 12.5701 115.363 12.4139 115.362ZM13.2076 101.725V113.155L22.5022 107.44L13.2076 101.725Z" fill="#093F68"/>
<path d="M105.907 105.956H87.2862C86.7788 105.956 86.2923 106.158 85.9336 106.516C85.5748 106.875 85.3733 107.362 85.3733 107.869V120.505C85.3733 121.012 85.5748 121.499 85.9336 121.858C86.2923 122.216 86.7788 122.418 87.2862 122.418H89.7626V126.649L93.0963 122.418H105.907C106.158 122.418 106.407 122.368 106.639 122.272C106.871 122.176 107.082 122.035 107.26 121.858C107.437 121.68 107.578 121.469 107.674 121.237C107.77 121.005 107.82 120.756 107.82 120.505V107.901C107.824 107.647 107.778 107.395 107.684 107.159C107.589 106.923 107.449 106.709 107.271 106.528C107.093 106.346 106.881 106.203 106.646 106.105C106.412 106.007 106.161 105.956 105.907 105.956Z" fill="white"/>
<path d="M89.7626 127.474C89.6732 127.473 89.5847 127.457 89.5007 127.426C89.3458 127.372 89.2115 127.271 89.1162 127.138C89.021 127.004 88.9695 126.844 88.9689 126.68V123.243H87.2862C86.5683 123.243 85.8799 122.958 85.3723 122.451C84.8647 121.943 84.5796 121.255 84.5796 120.537V107.901C84.5796 107.183 84.8647 106.494 85.3723 105.987C85.8799 105.479 86.5683 105.194 87.2862 105.194H105.907C106.262 105.194 106.614 105.264 106.943 105.4C107.271 105.536 107.57 105.736 107.821 105.987C108.072 106.238 108.272 106.537 108.408 106.865C108.544 107.193 108.614 107.545 108.614 107.901V120.537C108.614 120.892 108.544 121.244 108.408 121.573C108.272 121.901 108.072 122.199 107.821 122.451C107.57 122.702 107.271 122.901 106.943 123.037C106.614 123.173 106.262 123.243 105.907 123.243H93.4852L90.3896 127.172C90.3149 127.267 90.2196 127.343 90.1109 127.396C90.0023 127.448 89.8832 127.475 89.7626 127.474ZM87.2862 106.75C86.9894 106.75 86.7047 106.868 86.4948 107.078C86.2849 107.287 86.167 107.572 86.167 107.869V120.505C86.167 120.802 86.2849 121.087 86.4948 121.296C86.7047 121.506 86.9894 121.624 87.2862 121.624H89.7626C89.9731 121.624 90.175 121.708 90.3238 121.857C90.4727 122.006 90.5563 122.207 90.5563 122.418V124.355L92.4771 121.926C92.5511 121.832 92.6451 121.757 92.7523 121.704C92.8595 121.652 92.977 121.625 93.0963 121.624H105.907C106.054 121.624 106.2 121.595 106.335 121.539C106.471 121.483 106.594 121.4 106.698 121.296C106.802 121.193 106.885 121.069 106.941 120.933C106.997 120.798 107.026 120.652 107.026 120.505V107.901C107.026 107.754 106.997 107.608 106.941 107.472C106.885 107.337 106.802 107.213 106.698 107.109C106.594 107.005 106.471 106.923 106.335 106.867C106.2 106.81 106.054 106.782 105.907 106.782L87.2862 106.75Z" fill="#093F68"/>
<path d="M103.121 112.306H90.0801C89.8696 112.306 89.6677 112.222 89.5189 112.073C89.37 111.925 89.2864 111.723 89.2864 111.512C89.2864 111.302 89.37 111.1 89.5189 110.951C89.6677 110.802 89.8696 110.718 90.0801 110.718H103.121C103.332 110.718 103.533 110.802 103.682 110.951C103.831 111.1 103.915 111.302 103.915 111.512C103.915 111.723 103.831 111.925 103.682 112.073C103.533 112.222 103.332 112.306 103.121 112.306Z" fill="#DFEAEF"/>
<path d="M99.589 116.989H90.0642C89.8537 116.989 89.6518 116.905 89.503 116.756C89.3541 116.608 89.2705 116.406 89.2705 116.195C89.2705 115.985 89.3541 115.783 89.503 115.634C89.6518 115.485 89.8537 115.401 90.0642 115.401H99.589C99.7995 115.401 100.001 115.485 100.15 115.634C100.299 115.783 100.383 115.985 100.383 116.195C100.383 116.406 100.299 116.608 100.15 116.756C100.001 116.905 99.7995 116.989 99.589 116.989Z" fill="#DFEAEF"/>
<path d="M114.479 72.8656H92.0168C90.5308 72.8656 89.3261 74.0702 89.3261 75.5563V91.9309C89.3261 93.4169 90.5308 94.6216 92.0168 94.6216H114.479C115.965 94.6216 117.17 93.4169 117.17 91.9309V75.5563C117.17 74.0702 115.965 72.8656 114.479 72.8656Z" fill="#FFBC0E"/>
<path d="M114.455 95.4154H91.993C91.0702 95.4154 90.1851 95.0493 89.5319 94.3976C88.8787 93.7458 88.5106 92.8616 88.5085 91.9388V75.5563C88.5106 74.6328 88.8784 73.7477 89.5314 73.0947C90.1844 72.4417 91.0695 72.0739 91.993 72.0718H114.455C115.379 72.0739 116.264 72.4417 116.917 73.0947C117.57 73.7477 117.938 74.6328 117.94 75.5563V91.9388C117.938 92.8616 117.57 93.7458 116.917 94.3976C116.263 95.0493 115.378 95.4154 114.455 95.4154ZM91.993 73.6593C91.4899 73.6593 91.0073 73.8592 90.6516 74.2149C90.2958 74.5707 90.096 75.0532 90.096 75.5563V91.9388C90.0981 92.4406 90.2989 92.9211 90.6544 93.2751C91.0099 93.6291 91.4912 93.8279 91.993 93.8279H114.455C114.957 93.8279 115.439 93.6291 115.794 93.2751C116.15 92.9211 116.35 92.4406 116.352 91.9388V75.5563C116.352 75.0532 116.153 74.5707 115.797 74.2149C115.441 73.8592 114.959 73.6593 114.455 73.6593H91.993Z" fill="#093F68"/>
<path d="M107.217 85.1604V80.779C107.217 80.3901 107.026 80.2393 106.645 80.3504C106.129 80.5012 105.621 80.66 105.105 80.8267L102.915 81.5093C102.335 81.6918 101.756 81.8585 101.192 82.0569C101.027 82.1198 100.877 82.2141 100.748 82.3347C100.673 82.407 100.615 82.4951 100.578 82.5925C100.54 82.6899 100.525 82.7944 100.534 82.8983V88.0972C100.558 88.5472 100.457 88.9951 100.243 89.3915C100.029 89.7879 99.7089 90.1173 99.3191 90.3434C98.9203 90.608 98.4668 90.779 97.9926 90.8436C97.5185 90.9082 97.0358 90.8647 96.5807 90.7165C96.3386 90.6534 96.1139 90.5363 95.9234 90.374C95.7329 90.2117 95.5816 90.0084 95.4808 89.7794C95.3801 89.5503 95.3324 89.3014 95.3414 89.0514C95.3505 88.8013 95.416 88.5565 95.533 88.3353C95.8454 87.6982 96.3785 87.1962 97.0332 86.9225C97.5135 86.703 98.0371 86.5944 98.5651 86.605C98.8632 86.6036 99.1581 86.6659 99.4302 86.7876V86.6288C99.4302 84.5651 99.4302 82.5014 99.4302 80.4377C99.4325 80.0123 99.5697 79.5986 99.8222 79.2563C100.075 78.9139 100.429 78.6606 100.835 78.5328C102.137 78.1439 103.439 77.7391 104.732 77.3422L106.852 76.6993C107.11 76.6172 107.387 76.6172 107.645 76.6993C107.82 76.7435 107.978 76.8388 108.098 76.9732C108.218 77.1075 108.295 77.2747 108.32 77.4533V77.7708C108.32 80.7235 108.32 83.6788 108.32 86.6367C108.326 86.9708 108.258 87.3021 108.121 87.6068C107.984 87.9115 107.78 88.182 107.526 88.3988C107.178 88.7001 106.771 88.9261 106.331 89.0627C105.891 89.1993 105.428 89.2435 104.97 89.1925C104.466 89.1662 103.985 88.9704 103.605 88.6369C103.397 88.4601 103.239 88.2308 103.148 87.9727C103.057 87.7146 103.037 87.4371 103.089 87.1685C103.14 86.8697 103.25 86.584 103.412 86.3279C103.574 86.0718 103.786 85.8503 104.034 85.6763C104.377 85.4057 104.771 85.2053 105.191 85.0869C105.612 84.9684 106.052 84.934 106.486 84.9858C106.715 85.0236 106.94 85.0766 107.161 85.1445L107.217 85.1604Z" fill="white"/>
<path d="M70.4512 72.3973C63.9268 69.008 45.1472 87.367 43.9963 92.9548C43.3375 96.1297 41.5278 115.441 41.7818 130.689H72.634L70.0702 108.266C70.0702 108.266 82.6032 97.1536 84.651 91.1848C86.6988 85.216 76.9677 75.7944 70.4512 72.3973Z" fill="#FFC9B0"/>
<path d="M72.634 131.482H41.7818C41.5713 131.482 41.3694 131.399 41.2205 131.25C41.0717 131.101 40.9881 130.899 40.9881 130.689C40.7341 115.449 42.5358 96.0741 43.2184 92.7802C44.3058 87.4781 56.7118 75.8341 63.6807 72.5163C66.7128 71.0717 69.1178 70.786 70.8243 71.675C76.9836 74.8499 87.7148 84.7556 85.413 91.4308C83.4763 97.0346 72.9118 106.766 70.9116 108.567L73.4356 130.585C73.4481 130.697 73.4369 130.81 73.4027 130.916C73.3685 131.023 73.3121 131.121 73.2372 131.205C73.1627 131.292 73.0702 131.362 72.966 131.41C72.8619 131.458 72.7486 131.482 72.634 131.482ZM42.5596 129.895H71.745L69.2844 108.337C69.2692 108.211 69.2843 108.084 69.3285 107.965C69.3727 107.846 69.4447 107.74 69.5384 107.655C69.6654 107.544 81.9444 96.5821 83.9049 90.9149C85.6828 85.7636 76.7614 76.5485 70.0861 73.0878C68.8638 72.4528 66.9112 72.7465 64.3633 73.953C56.2038 77.8264 45.552 89.3116 44.7741 93.1056C44.1153 96.3123 42.385 114.893 42.5596 129.895Z" fill="#093F68"/>
<path d="M84.4764 99.8444L74.7691 106.004L48.0602 77.0406L57.7754 70.8812L84.4764 99.8444Z" fill="#093F68"/>
<path d="M74.7691 106.797C74.6589 106.798 74.5498 106.776 74.4487 106.732C74.3476 106.688 74.2567 106.624 74.1818 106.543L47.4808 77.5724C47.4023 77.4879 47.3432 77.3873 47.3076 77.2776C47.2719 77.168 47.2606 77.0519 47.2744 76.9374C47.2893 76.8211 47.3297 76.7095 47.3929 76.6107C47.456 76.5119 47.5402 76.4283 47.6395 76.3659L57.3468 70.2383C57.5032 70.1383 57.6896 70.0962 57.8738 70.1194C58.058 70.1426 58.2282 70.2296 58.3548 70.3653L85.0876 99.3126C85.166 99.3971 85.2251 99.4976 85.2608 99.6073C85.2964 99.717 85.3077 99.8331 85.2939 99.9475C85.2791 100.064 85.2386 100.175 85.1755 100.274C85.1124 100.373 85.0281 100.457 84.9288 100.519L75.2215 106.67C75.0884 106.76 74.9297 106.805 74.7691 106.797ZM49.2905 77.1993L74.8961 104.98L83.2461 99.6856L57.6405 71.9052L49.2905 77.1993Z" fill="#093F68"/>
<path d="M98.7238 37.0208L80.4681 51.808L70.6894 36.362L91.8501 26.1706C93.2799 25.4862 94.9112 25.3506 96.4344 25.7896C97.9576 26.2285 99.2665 27.2114 100.113 28.5518C100.956 29.8892 101.281 31.4894 101.025 33.0498C100.769 34.6103 99.9504 36.0229 98.7238 37.0208Z" fill="#093F68"/>
<path d="M80.476 52.6017H80.349C80.239 52.5834 80.1341 52.5422 80.0411 52.4806C79.9481 52.4191 79.8691 52.3386 79.8093 52.2445L70.0068 36.7827C69.9464 36.6883 69.9067 36.5823 69.8903 36.4715C69.8739 36.3606 69.8811 36.2476 69.9115 36.1398C69.9431 36.0328 69.9969 35.9337 70.0694 35.8489C70.1419 35.7641 70.2314 35.6955 70.3322 35.6477L91.493 25.4562C93.096 24.6814 94.928 24.5231 96.6402 25.0115C98.3524 25.4999 99.8252 26.6009 100.778 28.1049C101.731 29.6089 102.098 31.4108 101.808 33.1676C101.519 34.9244 100.593 36.5134 99.208 37.632L80.9523 52.4191C80.8179 52.5307 80.6505 52.5949 80.476 52.6017ZM71.8403 36.7272L80.6745 50.665L98.2238 36.4414C99.3195 35.5722 100.055 34.3286 100.289 32.9497C100.523 31.5708 100.239 30.1541 99.4913 28.9721C98.7437 27.7901 97.5854 26.9263 96.2393 26.5468C94.8932 26.1674 93.4543 26.2991 92.1994 26.9167L71.8403 36.7272Z" fill="#093F68"/>
<path d="M108.217 59.5389L72.761 67.3015L53.3861 36.7272L75.5311 7.97836L108.217 59.5389Z" fill="white"/>
<path d="M72.7689 68.0953C72.634 68.0955 72.5013 68.0614 72.3832 67.9961C72.2652 67.9309 72.1657 67.8366 72.0942 67.7222L52.7194 37.1478C52.6329 37.011 52.5904 36.8509 52.5975 36.6892C52.6046 36.5275 52.6609 36.3718 52.759 36.243L74.904 7.53387C74.982 7.43234 75.0833 7.35116 75.1994 7.29726C75.3155 7.24335 75.4429 7.21833 75.5708 7.22432C75.6989 7.23057 75.8236 7.26777 75.9341 7.33274C76.0447 7.39771 76.1379 7.48851 76.2058 7.59737L108.899 59.1261C108.967 59.2338 109.008 59.3563 109.019 59.4832C109.03 59.6101 109.01 59.7377 108.961 59.8553C108.912 59.9728 108.835 60.0768 108.737 60.1585C108.64 60.2402 108.524 60.2972 108.399 60.3247L72.9515 68.0794L72.7689 68.0953ZM54.3544 36.7668L73.1817 66.4046L106.979 59.0071L75.4676 9.35944L54.3544 36.7668Z" fill="#093F68"/>
<path d="M26.936 53.3505L53.3225 36.6245L72.8234 67.3887L46.4369 84.1147C42.3582 86.7001 37.4195 87.5594 32.7073 86.5035C27.9951 85.4476 23.8953 82.563 21.3099 78.4843C18.7245 74.4056 17.8652 69.4669 18.9211 64.7547C19.977 60.0424 22.8616 55.9427 26.9403 53.3572L26.936 53.3505Z" fill="#68E1FD"/>
<path d="M36.7178 87.74C32.5992 87.7474 28.5897 86.4165 25.2931 83.9475C21.9965 81.4786 19.5913 78.0055 18.4397 74.0511C17.2881 70.0967 17.4525 65.8753 18.9082 62.0224C20.3638 58.1696 23.0319 54.894 26.5105 52.689L26.9391 53.3558L26.5105 52.689L52.9019 35.9572C52.99 35.9015 53.0882 35.8636 53.1909 35.8458C53.2936 35.8279 53.3989 35.8305 53.5006 35.8534C53.6023 35.8762 53.6985 35.9189 53.7837 35.9789C53.869 36.039 53.9415 36.1152 53.9973 36.2033L73.4992 66.9682C73.6107 67.1452 73.6478 67.3592 73.6024 67.5635C73.58 67.6657 73.5376 67.7626 73.4777 67.8484C73.4177 67.9342 73.3414 68.0073 73.2531 68.0635L46.8617 84.7873C43.8306 86.7175 40.3113 87.7419 36.7178 87.74ZM53.0845 37.7352L27.3598 54.0384C23.4591 56.5118 20.7007 60.4336 19.6915 64.9408C18.6822 69.4481 19.5048 74.1717 21.9783 78.0724C24.4518 81.9731 28.3736 84.7315 32.8808 85.7408C37.3881 86.75 42.1117 85.9274 46.0124 83.4539L71.7292 67.1587L53.0845 37.7352Z" fill="#093F68"/>
<path d="M48.3301 86.3669C48.3301 86.3669 55.0688 76.3897 60.5852 80.2869C66.1016 84.1841 76.8646 94.3756 72.38 95.8202C65.3476 98.0981 59.0216 89.1767 59.0216 89.1767C59.0216 89.1767 63.7839 98.7014 57.95 103.035" fill="#FFC9B0"/>
<path d="M57.95 103.837C57.8261 103.836 57.7042 103.806 57.5939 103.749C57.4836 103.693 57.3881 103.611 57.315 103.511C57.2525 103.428 57.207 103.333 57.1811 103.232C57.1553 103.131 57.1495 103.026 57.1643 102.923C57.179 102.82 57.2139 102.72 57.267 102.631C57.3201 102.541 57.3904 102.463 57.4738 102.4C62.6806 98.5268 58.3548 89.6212 58.2675 89.5338C58.1945 89.3567 58.188 89.1592 58.2493 88.9777C58.3105 88.7961 58.4353 88.6429 58.6007 88.5462C58.766 88.4495 58.9608 88.4158 59.149 88.4515C59.3372 88.4871 59.5062 88.5896 59.6248 88.7401C59.6883 88.8274 65.7047 97.1536 72.0942 95.0899C72.5546 94.9391 72.5864 94.7328 72.6022 94.6137C72.9673 92.2325 65.292 84.6365 60.0931 80.9616C59.6488 80.638 59.1421 80.4102 58.6051 80.2927C58.0681 80.1752 57.5126 80.1705 56.9737 80.279C52.9257 81.0171 48.9888 86.7717 48.9492 86.8352C48.8908 86.9217 48.8159 86.9959 48.7289 87.0534C48.6419 87.111 48.5443 87.1509 48.4419 87.1708C48.3394 87.1907 48.2341 87.1902 48.1318 87.1694C48.0296 87.1486 47.9324 87.1078 47.8459 87.0495C47.7594 86.9911 47.6852 86.9163 47.6276 86.8292C47.57 86.7422 47.5301 86.6447 47.5102 86.5422C47.4903 86.4398 47.4908 86.3344 47.5116 86.2321C47.5324 86.1299 47.5732 86.0327 47.6316 85.9462C47.8062 85.6843 51.9812 79.5964 56.688 78.7153C57.4344 78.5667 58.2036 78.5747 58.9468 78.7386C59.6901 78.9025 60.3912 79.219 61.0059 79.6678C64.5856 82.1998 74.785 90.8514 74.1738 94.8598C74.1077 95.2728 73.9222 95.6575 73.6401 95.9664C73.358 96.2752 72.9917 96.4948 72.5863 96.598C67.9589 98.0982 63.7204 95.2566 61.0932 92.7643C61.9345 96.1297 62.2044 100.86 58.3786 103.702C58.2517 103.787 58.1029 103.834 57.95 103.837Z" fill="#093F68"/>
<path d="M37.1544 83.7952C36.9825 83.7965 36.8149 83.742 36.6767 83.6398C36.5385 83.5377 36.4372 83.3935 36.388 83.2288C36.3387 83.0642 36.3443 82.888 36.4038 82.7268C36.4632 82.5655 36.5734 82.428 36.7178 82.3347L47.9014 75.0563C47.9882 74.9897 48.0877 74.9419 48.1938 74.9156C48.2999 74.8894 48.4103 74.8853 48.5181 74.9037C48.6258 74.9221 48.7286 74.9626 48.82 75.0226C48.9113 75.0825 48.9893 75.1608 49.0491 75.2523C49.1088 75.3438 49.149 75.4467 49.1671 75.5545C49.1853 75.6623 49.1809 75.7727 49.1544 75.8787C49.1279 75.9847 49.0798 76.0842 49.013 76.1707C48.9463 76.2573 48.8624 76.3292 48.7666 76.3818L37.583 83.6682C37.4552 83.7507 37.3064 83.7948 37.1544 83.7952Z" fill="#093F68"/>
<path d="M33.5588 78.6201C33.426 78.6199 33.2954 78.5863 33.1789 78.5225C33.0624 78.4588 32.9638 78.3668 32.8921 78.255C32.7779 78.079 32.7381 77.8651 32.7812 77.6598C32.8243 77.4546 32.9469 77.2748 33.1222 77.1596L44.2979 69.8732C44.3858 69.8158 44.4842 69.7765 44.5875 69.7574C44.6907 69.7383 44.7966 69.7398 44.8993 69.762C45.0019 69.7841 45.0991 69.8264 45.1852 69.8864C45.2714 69.9463 45.3448 70.0228 45.4012 70.1113C45.5153 70.2873 45.5552 70.5012 45.512 70.7065C45.4689 70.9117 45.3463 71.0915 45.171 71.2067L33.9874 78.4931C33.8596 78.5756 33.7109 78.6197 33.5588 78.6201Z" fill="#093F68"/>
<path d="M31.5427 21.0907H8.89768C7.39409 21.0907 6.1752 22.3096 6.1752 23.8132V38.6956C6.1752 40.1992 7.39409 41.4181 8.89768 41.4181H31.5427C33.0463 41.4181 34.2652 40.1992 34.2652 38.6956V23.8132C34.2652 22.3096 33.0463 21.0907 31.5427 21.0907Z" fill="#70CC40"/>
<path d="M31.5427 42.2118H8.88974C8.42799 42.2118 7.97076 42.1209 7.54415 41.9442C7.11754 41.7675 6.72992 41.5085 6.40341 41.1819C6.0769 40.8554 5.81789 40.4678 5.64118 40.0412C5.46448 39.6146 5.37354 39.1574 5.37354 38.6956V23.8212C5.37353 22.8879 5.74373 21.9927 6.40292 21.332C7.06212 20.6713 7.95645 20.2991 8.88974 20.297H31.5348C31.9996 20.2939 32.4604 20.3827 32.8907 20.5584C33.3211 20.7341 33.7124 20.9932 34.0421 21.3207C34.3719 21.6483 34.6336 22.0379 34.8122 22.467C34.9908 22.8961 35.0828 23.3563 35.0827 23.8212V38.6956C35.0828 39.1594 34.991 39.6186 34.8128 40.0467C34.6346 40.4749 34.3735 40.8636 34.0445 41.1904C33.7154 41.5172 33.325 41.7757 32.8956 41.951C32.4663 42.1263 32.0065 42.215 31.5427 42.2118ZM8.88974 21.8845C8.63578 21.8845 8.38433 21.9346 8.1498 22.032C7.91527 22.1295 7.70229 22.2722 7.52309 22.4522C7.34388 22.6321 7.20198 22.8457 7.10551 23.0806C7.00905 23.3155 6.95994 23.5672 6.96099 23.8212V38.6956C6.96099 39.2071 7.16419 39.6977 7.5259 40.0594C7.88761 40.4212 8.3782 40.6244 8.88974 40.6244H31.5348C31.7907 40.6286 32.045 40.5818 32.2826 40.4868C32.5203 40.3917 32.7367 40.2503 32.9192 40.0708C33.1017 39.8913 33.2466 39.6772 33.3455 39.4411C33.4444 39.205 33.4953 38.9516 33.4953 38.6956V23.8212C33.4963 23.5672 33.4472 23.3155 33.3508 23.0806C33.2543 22.8457 33.1124 22.6321 32.9332 22.4522C32.754 22.2722 32.541 22.1295 32.3065 22.032C32.072 21.9346 31.8205 21.8845 31.5665 21.8845H8.88974Z" fill="#093F68"/>
<path d="M6.17517 37.5288C6.06247 37.5287 5.9511 37.5045 5.84846 37.458C5.74581 37.4115 5.65426 37.3436 5.57988 37.259C5.44113 37.101 5.37073 36.8944 5.38412 36.6846C5.39751 36.4748 5.4936 36.2788 5.65131 36.1398L16.3507 26.7659C16.498 26.6275 16.6924 26.5504 16.8945 26.5504C17.0965 26.5504 17.291 26.6275 17.4382 26.7659L26.7883 36.1398C26.9377 36.2893 27.0217 36.492 27.0217 36.7033C27.0217 36.9147 26.9377 37.1174 26.7883 37.2669C26.6388 37.4164 26.4361 37.5003 26.2247 37.5003C26.0134 37.5003 25.8106 37.4164 25.6612 37.2669L16.827 28.4486L6.69903 37.3304C6.55433 37.458 6.3681 37.5285 6.17517 37.5288Z" fill="#093F68"/>
<path d="M34.289 35.1C34.0808 35.0991 33.8813 35.0165 33.7334 34.8698L28.8123 30.0519L24.2563 34.5206C24.1058 34.668 23.9029 34.7495 23.6923 34.7473C23.4817 34.745 23.2806 34.6592 23.1332 34.5087C22.9858 34.3582 22.9043 34.1553 22.9065 33.9447C22.9088 33.734 22.9946 33.5329 23.1451 33.3856L28.2329 28.401C28.3813 28.2555 28.5807 28.1741 28.7885 28.1741C28.9963 28.1741 29.1957 28.2555 29.3441 28.401L34.8208 33.7745C34.9687 33.9232 35.0516 34.1244 35.0516 34.3341C35.0516 34.5438 34.9687 34.7449 34.8208 34.8937C34.6753 35.026 34.4857 35.0995 34.289 35.1Z" fill="#093F68"/>
<path d="M23.7007 27.8533C24.801 27.8533 25.6929 26.9613 25.6929 25.861C25.6929 24.7607 24.801 23.8688 23.7007 23.8688C22.6004 23.8688 21.7084 24.7607 21.7084 25.861C21.7084 26.9613 22.6004 27.8533 23.7007 27.8533Z" fill="#70CC40"/>
<path d="M23.7007 28.647C23.1497 28.647 22.611 28.4836 22.1529 28.1775C21.6947 27.8714 21.3376 27.4363 21.1268 26.9272C20.9159 26.4181 20.8607 25.8579 20.9682 25.3175C21.0757 24.7771 21.3411 24.2807 21.7307 23.891C22.1203 23.5014 22.6167 23.2361 23.1572 23.1286C23.6976 23.0211 24.2578 23.0763 24.7668 23.2871C25.2759 23.498 25.711 23.8551 26.0172 24.3132C26.3233 24.7714 26.4867 25.31 26.4867 25.861C26.4867 26.5999 26.1931 27.3085 25.6707 27.831C25.1482 28.3535 24.4396 28.647 23.7007 28.647ZM23.7007 24.6784C23.4636 24.6784 23.2319 24.7487 23.0348 24.8804C22.8377 25.0121 22.6841 25.1993 22.5934 25.4183C22.5027 25.6373 22.4789 25.8782 22.5252 26.1107C22.5714 26.3432 22.6856 26.5568 22.8532 26.7244C23.0208 26.892 23.2344 27.0062 23.4669 27.0524C23.6994 27.0987 23.9403 27.0749 24.1594 26.9842C24.3784 26.8935 24.5655 26.7399 24.6972 26.5428C24.8289 26.3457 24.8992 26.114 24.8992 25.8769C24.9003 25.7185 24.8701 25.5614 24.8104 25.4146C24.7508 25.2678 24.6628 25.1342 24.5515 25.0215C24.4402 24.9087 24.3078 24.819 24.1618 24.7574C24.0158 24.6958 23.8591 24.6635 23.7007 24.6625V24.6784Z" fill="#093F68"/>
<path d="M92.0565 11.9708C91.9205 11.9718 91.7866 11.9378 91.6675 11.8721C91.5485 11.8064 91.4483 11.7112 91.3766 11.5957C91.3049 11.4801 91.264 11.3481 91.258 11.2123C91.252 11.0764 91.281 10.9413 91.3422 10.8199L96.5411 0.437949C96.6358 0.249543 96.8015 0.106483 97.0017 0.0402439C97.2019 -0.0259955 97.4202 -0.00998838 97.6086 0.0847409C97.797 0.17947 97.9401 0.345164 98.0063 0.545371C98.0726 0.745578 98.0566 0.963896 97.9618 1.1523L92.7629 11.5025C92.7015 11.6393 92.6025 11.756 92.4775 11.8388C92.3524 11.9217 92.2065 11.9675 92.0565 11.9708Z" fill="#DFEAEF"/>
<path d="M121.758 46.6567H121.694L110.225 45.7518C110.014 45.735 109.819 45.6352 109.682 45.4745C109.545 45.3137 109.478 45.1051 109.495 44.8946C109.512 44.6841 109.611 44.4889 109.772 44.352C109.933 44.215 110.141 44.1475 110.352 44.1644L121.821 45.0772C122.031 45.0953 122.224 45.1958 122.36 45.3565C122.495 45.5172 122.561 45.725 122.544 45.9344C122.526 46.1309 122.435 46.3138 122.29 46.4473C122.145 46.5809 121.955 46.6555 121.758 46.6567Z" fill="#DFEAEF"/>
<path d="M106.463 25.5356C106.287 25.5368 106.116 25.4797 105.976 25.3732C105.836 25.2666 105.736 25.1167 105.69 24.9469C105.645 24.7771 105.657 24.5971 105.725 24.435C105.793 24.2729 105.913 24.138 106.066 24.0513L113.352 19.8605C113.535 19.7552 113.753 19.727 113.957 19.7821C114.161 19.8372 114.334 19.971 114.44 20.1541C114.545 20.3373 114.573 20.5547 114.518 20.7587C114.463 20.9626 114.329 21.1363 114.146 21.2415L106.867 25.4245C106.745 25.4972 106.605 25.5356 106.463 25.5356Z" fill="#DFEAEF"/>
</svg>
