<svg width="175" height="150" viewBox="0 0 175 150" fill="none" xmlns="http://www.w3.org/2000/svg">
<path d="M134.95 98.7014H122.917L114.145 79.1161H115.437L120.666 90.7919L120.965 91.4586C121.03 91.6022 121.134 91.7241 121.266 91.8096C121.398 91.8952 121.552 91.9407 121.71 91.9407H122.98C123.116 91.9407 123.25 91.9066 123.37 91.8416C123.489 91.7766 123.59 91.6827 123.664 91.5685C123.738 91.4543 123.782 91.3234 123.793 91.1878C123.803 91.0521 123.779 90.916 123.723 90.7919L118.494 79.1161H126.18L134.95 98.7014Z" fill="white"/>
<path d="M134.95 99.0153H122.917C122.857 99.0152 122.798 98.9977 122.747 98.9647C122.696 98.9317 122.656 98.8848 122.631 98.8295L113.859 79.2416C113.838 79.1938 113.829 79.1415 113.833 79.0893C113.837 79.0372 113.854 78.9868 113.882 78.9429C113.911 78.899 113.95 78.8629 113.996 78.8379C114.042 78.8129 114.093 78.7997 114.145 78.7997H115.437C115.498 78.7997 115.557 78.8173 115.608 78.8503C115.659 78.8833 115.699 78.9302 115.724 78.9855L121.248 91.3293C121.287 91.4176 121.352 91.4925 121.433 91.5451C121.514 91.5977 121.609 91.6256 121.706 91.6256H122.976C123.06 91.6253 123.142 91.6042 123.216 91.5641C123.289 91.524 123.351 91.4663 123.397 91.3961C123.442 91.3259 123.469 91.2454 123.475 91.1621C123.482 91.0787 123.467 90.9951 123.433 90.9188L118.199 79.2416C118.178 79.1938 118.169 79.1415 118.173 79.0893C118.177 79.0372 118.194 78.9868 118.222 78.9429C118.251 78.899 118.29 78.8629 118.336 78.8379C118.382 78.8129 118.433 78.7997 118.486 78.7997H126.172C126.232 78.7997 126.291 78.8173 126.342 78.8503C126.393 78.8833 126.433 78.9302 126.458 78.9855L135.23 98.5709C135.251 98.6183 135.261 98.6703 135.258 98.7223C135.254 98.7743 135.238 98.8247 135.21 98.8688C135.182 98.9129 135.144 98.9494 135.098 98.9749C135.053 99.0005 135.002 99.0144 134.95 99.0153ZM123.121 98.3876H134.465L125.974 79.4299H118.976L124.007 90.6664C124.084 90.8383 124.117 91.0266 124.102 91.2143C124.087 91.402 124.026 91.5831 123.924 91.7411C123.822 91.8991 123.682 92.0291 123.516 92.1192C123.351 92.2093 123.166 92.2567 122.978 92.2571H121.707C121.489 92.257 121.276 92.1939 121.093 92.0754C120.91 91.9569 120.765 91.788 120.676 91.5892L115.231 79.4312H114.63L123.121 98.3876Z" fill="#262424"/>
<path d="M131.854 98.7014H119.82L111.049 79.1161H115.435L115.575 79.4299H118.632L118.492 79.1161H123.082L131.854 98.7014Z" fill="white"/>
<path d="M132.135 98.5759L123.363 78.9905C123.339 78.9351 123.298 78.8881 123.248 78.8551C123.197 78.8221 123.137 78.8046 123.077 78.8047H111.043C110.991 78.8048 110.939 78.8179 110.893 78.8429C110.847 78.8679 110.808 78.904 110.78 78.9479C110.752 78.9919 110.735 79.0422 110.731 79.0943C110.726 79.1465 110.736 79.1989 110.757 79.2466L119.528 98.832C119.552 98.8874 119.592 98.9344 119.643 98.9674C119.694 99.0004 119.753 99.0179 119.814 99.0178H131.848C131.9 99.018 131.952 99.005 131.998 98.9801C132.044 98.9551 132.083 98.919 132.112 98.8751C132.14 98.8311 132.157 98.7807 132.161 98.7285C132.166 98.6762 132.156 98.6237 132.135 98.5759ZM120.019 98.3901L111.529 79.4324H122.873L131.364 98.3901H120.019Z" fill="#262424"/>
<path d="M137.94 97.9896H99.5242C98.507 97.9896 97.6824 98.8139 97.6824 99.8307C97.6824 100.848 98.507 101.672 99.5242 101.672H137.94C138.958 101.672 139.782 100.848 139.782 99.8307C139.782 98.8139 138.958 97.9896 137.94 97.9896Z" fill="white"/>
<path d="M137.942 101.987H99.5242C98.9616 101.973 98.4267 101.74 98.0336 101.338C97.6406 100.935 97.4205 100.395 97.4205 99.832C97.4205 99.2693 97.6406 98.7289 98.0336 98.3262C98.4267 97.9235 98.9616 97.6905 99.5242 97.677H137.942C138.504 97.6905 139.039 97.9235 139.432 98.3262C139.825 98.7289 140.045 99.2693 140.045 99.832C140.045 100.395 139.825 100.935 139.432 101.338C139.039 101.74 138.504 101.973 137.942 101.987ZM99.5242 98.3047C99.1267 98.3161 98.7493 98.482 98.4722 98.7672C98.1951 99.0523 98.0401 99.4343 98.0401 99.832C98.0401 100.23 98.1951 100.612 98.4722 100.897C98.7493 101.182 99.1267 101.348 99.5242 101.359H137.942C138.339 101.348 138.716 101.182 138.994 100.897C139.271 100.612 139.426 100.23 139.426 99.832C139.426 99.4343 139.271 99.0523 138.994 98.7672C138.716 98.482 138.339 98.3161 137.942 98.3047H99.5242Z" fill="#262424"/>
<path d="M137.94 97.9896H119.59C118.573 97.9896 117.749 98.8139 117.749 99.8307C117.749 100.848 118.573 101.672 119.59 101.672H137.94C138.958 101.672 139.782 100.848 139.782 99.8307C139.782 98.8139 138.958 97.9896 137.94 97.9896Z" fill="white"/>
<path d="M137.942 101.987H119.59C119.028 101.973 118.493 101.74 118.1 101.338C117.707 100.935 117.487 100.395 117.487 99.832C117.487 99.2693 117.707 98.7289 118.1 98.3262C118.493 97.9235 119.028 97.6905 119.59 97.677H137.942C138.504 97.6905 139.039 97.9235 139.432 98.3262C139.825 98.7289 140.045 99.2693 140.045 99.832C140.045 100.395 139.825 100.935 139.432 101.338C139.039 101.74 138.504 101.973 137.942 101.987ZM119.59 98.3047C119.193 98.3161 118.816 98.482 118.538 98.7672C118.261 99.0523 118.106 99.4343 118.106 99.832C118.106 100.23 118.261 100.612 118.538 100.897C118.816 101.182 119.193 101.348 119.59 101.359H137.942C138.339 101.348 138.716 101.182 138.994 100.897C139.271 100.612 139.426 100.23 139.426 99.832C139.426 99.4343 139.271 99.0523 138.994 98.7672C138.716 98.482 138.339 98.3161 137.942 98.3047H119.59Z" fill="#262424"/>
<path d="M162.941 13.9094H72.9684C71.4492 13.9094 70.2177 15.1409 70.2177 16.6601V77.0671C70.2177 78.5863 71.4492 79.8179 72.9684 79.8179H162.941C164.46 79.8179 165.691 78.5863 165.691 77.0671V16.6601C165.691 15.1409 164.46 13.9094 162.941 13.9094Z" fill="white"/>
<path d="M162.941 80.1318H72.9684C72.156 80.1308 71.377 79.8076 70.8025 79.233C70.228 78.6585 69.9048 77.8796 69.9038 77.0671V16.6601C69.9048 15.8476 70.228 15.0687 70.8025 14.4942C71.377 13.9197 72.156 13.5965 72.9684 13.5955H162.941C163.753 13.5965 164.532 13.9197 165.106 14.4942C165.681 15.0687 166.004 15.8476 166.005 16.6601V77.0671C166.004 77.8796 165.681 78.6585 165.106 79.233C164.532 79.8076 163.753 80.1308 162.941 80.1318ZM72.9684 14.2195C72.3223 14.2201 71.7029 14.4771 71.2461 14.934C70.7892 15.3908 70.5322 16.0103 70.5316 16.6563V77.0671C70.5326 77.7131 70.7896 78.3324 71.2464 78.7892C71.7032 79.246 72.3224 79.503 72.9684 79.504H162.941C163.587 79.503 164.206 79.246 164.663 78.7892C165.119 78.3324 165.376 77.7131 165.377 77.0671V16.6601C165.376 16.0141 165.119 15.3949 164.663 14.9381C164.206 14.4813 163.587 14.2242 162.941 14.2232H72.9684V14.2195Z" fill="#262424"/>
<path d="M160.222 13.9094H70.2503C68.7312 13.9094 67.4996 15.1409 67.4996 16.6601V77.0671C67.4996 78.5863 68.7312 79.8179 70.2503 79.8179H160.222C161.742 79.8179 162.973 78.5863 162.973 77.0671V16.6601C162.973 15.1409 161.742 13.9094 160.222 13.9094Z" fill="white"/>
<path d="M160.222 80.1318H70.2503C69.4379 80.1308 68.659 79.8076 68.0844 79.233C67.5099 78.6585 67.1867 77.8796 67.1857 77.0671V16.6601C67.1867 15.8476 67.5099 15.0687 68.0844 14.4942C68.659 13.9197 69.4379 13.5965 70.2503 13.5955H160.222C161.035 13.5965 161.814 13.9197 162.388 14.4942C162.963 15.0687 163.286 15.8476 163.287 16.6601V77.0671C163.286 77.8796 162.963 78.6585 162.388 79.233C161.814 79.8076 161.035 80.1308 160.222 80.1318ZM70.2503 14.2195C69.6043 14.2201 68.9848 14.4771 68.528 14.934C68.0711 15.3908 67.8141 16.0103 67.8135 16.6563V77.0671C67.8145 77.7131 68.0715 78.3324 68.5283 78.7892C68.9851 79.246 69.6044 79.503 70.2503 79.504H160.222C160.868 79.503 161.488 79.246 161.944 78.7892C162.401 78.3324 162.658 77.7131 162.659 77.0671V16.6601C162.658 16.0141 162.401 15.3949 161.944 14.9381C161.488 14.4813 160.868 14.2242 160.222 14.2232H70.2503V14.2195Z" fill="#262424"/>
<path d="M159.093 17.048H71.3803C70.9705 17.048 70.6383 17.3802 70.6383 17.79V75.9372C70.6383 76.347 70.9705 76.6792 71.3803 76.6792H159.093C159.502 76.6792 159.835 76.347 159.835 75.9372V17.79C159.835 17.3802 159.502 17.048 159.093 17.048Z" fill="white"/>
<path d="M159.093 76.9931H71.3803C71.1003 76.9927 70.832 76.8814 70.634 76.6834C70.4361 76.4855 70.3247 76.2171 70.3244 75.9372V17.79C70.3247 17.5101 70.4361 17.2417 70.634 17.0438C70.832 16.8459 71.1003 16.7345 71.3803 16.7342H159.093C159.372 16.7345 159.641 16.8459 159.839 17.0438C160.037 17.2417 160.148 17.5101 160.148 17.79V75.9372C160.148 76.2171 160.037 76.4855 159.839 76.6834C159.641 76.8814 159.372 76.9927 159.093 76.9931ZM71.3803 17.3582C71.2667 17.3582 71.1578 17.4033 71.0775 17.4835C70.9973 17.5638 70.9522 17.6727 70.9522 17.7863V75.9372C70.9522 76.0507 70.9973 76.1596 71.0775 76.2399C71.1578 76.3202 71.2667 76.3653 71.3803 76.3653H159.093C159.206 76.3653 159.315 76.3202 159.395 76.2399C159.476 76.1596 159.521 76.0507 159.521 75.9372V17.79C159.521 17.6765 159.476 17.5676 159.395 17.4873C159.315 17.407 159.206 17.3619 159.093 17.3619H71.3803V17.3582Z" fill="#262424"/>
<path d="M159.835 67.9424V75.9372C159.834 76.1339 159.756 76.3224 159.617 76.4615C159.478 76.6006 159.289 76.6789 159.093 76.6792H71.3803C71.1836 76.6789 70.9951 76.6006 70.856 76.4615C70.7169 76.3224 70.6386 76.1339 70.6383 75.9372V67.9424H159.835Z" fill="white"/>
<path d="M159.093 76.9931H71.3803C71.1003 76.9927 70.832 76.8814 70.634 76.6834C70.4361 76.4855 70.3247 76.2171 70.3244 75.9372V67.9424C70.3244 67.8591 70.3575 67.7793 70.4163 67.7204C70.4752 67.6616 70.555 67.6285 70.6383 67.6285H159.835C159.918 67.6285 159.998 67.6616 160.056 67.7204C160.115 67.7793 160.148 67.8591 160.148 67.9424V75.9372C160.148 76.2171 160.037 76.4855 159.839 76.6834C159.641 76.8814 159.372 76.9927 159.093 76.9931ZM70.9584 68.2562V75.9372C70.9584 76.0507 71.0035 76.1596 71.0838 76.2399C71.1641 76.3202 71.273 76.3653 71.3865 76.3653H159.099C159.212 76.3653 159.321 76.3202 159.402 76.2399C159.482 76.1596 159.527 76.0507 159.527 75.9372V68.2562H70.9522H70.9584Z" fill="#262424"/>
<path d="M159.835 17.79V20.9877H70.6383V17.79C70.6383 17.5932 70.7165 17.4045 70.8556 17.2654C70.9948 17.1262 71.1835 17.048 71.3803 17.048H159.093C159.289 17.048 159.478 17.1262 159.617 17.2654C159.756 17.4045 159.835 17.5932 159.835 17.79Z" fill="white"/>
<path d="M159.835 21.3016H70.6383C70.555 21.3016 70.4752 21.2685 70.4163 21.2097C70.3575 21.1508 70.3244 21.071 70.3244 20.9877V17.79C70.3247 17.5101 70.4361 17.2417 70.634 17.0438C70.832 16.8459 71.1003 16.7345 71.3803 16.7342H159.093C159.372 16.7345 159.641 16.8459 159.839 17.0438C160.037 17.2417 160.148 17.5101 160.148 17.79V20.9877C160.148 21.071 160.115 21.1508 160.056 21.2097C159.998 21.2685 159.918 21.3016 159.835 21.3016ZM70.9471 20.6739H159.516V17.7863C159.516 17.6727 159.471 17.5638 159.39 17.4835C159.31 17.4033 159.201 17.3582 159.088 17.3582H71.3803C71.2667 17.3582 71.1578 17.4033 71.0775 17.4835C70.9973 17.5638 70.9522 17.6727 70.9522 17.7863V20.6739H70.9471Z" fill="#262424"/>
<path d="M159.835 20.9877V75.9372C159.834 76.1339 159.756 76.3224 159.617 76.4615C159.478 76.6006 159.289 76.6789 159.093 76.6792H133.973V20.9877H159.836H159.835Z" fill="white"/>
<path d="M159.093 76.9931H133.973C133.89 76.9931 133.81 76.96 133.751 76.9011C133.692 76.8423 133.659 76.7624 133.659 76.6792V20.9877C133.659 20.9045 133.692 20.8246 133.751 20.7658C133.81 20.7069 133.89 20.6739 133.973 20.6739H159.836C159.919 20.6739 159.999 20.7069 160.058 20.7658C160.117 20.8246 160.15 20.9045 160.15 20.9877V75.9372C160.149 76.2174 160.038 76.4859 159.84 76.6839C159.641 76.8819 159.373 76.9931 159.093 76.9931ZM134.287 76.3653H159.093C159.206 76.3653 159.315 76.3202 159.395 76.2399C159.476 76.1596 159.521 76.0508 159.521 75.9372V21.3016H134.286V76.3653H134.287Z" fill="#262424"/>
<path d="M154.73 24.085H139.078C138.454 24.085 137.948 24.5909 137.948 25.2149V54.7599C137.948 55.384 138.454 55.8898 139.078 55.8898H154.73C155.354 55.8898 155.86 55.384 155.86 54.7599V25.2149C155.86 24.5909 155.354 24.085 154.73 24.085Z" fill="#DE9244"/>
<path d="M154.73 63.4955H139.078C138.454 63.4955 137.948 64.0014 137.948 64.6254C137.948 65.2494 138.454 65.7553 139.078 65.7553H154.73C155.354 65.7553 155.86 65.2494 155.86 64.6254C155.86 64.0014 155.354 63.4955 154.73 63.4955Z" fill="#88C0C2"/>
<path d="M154.73 67.6184H139.078C138.454 67.6184 137.948 68.1243 137.948 68.7484C137.948 69.3724 138.454 69.8783 139.078 69.8783H154.73C155.354 69.8783 155.86 69.3724 155.86 68.7484C155.86 68.1243 155.354 67.6184 154.73 67.6184Z" fill="#88C0C2"/>
<path d="M70.6383 66.6869H133.973V69.1978H70.6383V66.6869Z" fill="white"/>
<path d="M133.973 69.5117H70.6383C70.555 69.5117 70.4752 69.4786 70.4163 69.4198C70.3575 69.3609 70.3244 69.2811 70.3244 69.1978V66.6869C70.3244 66.6036 70.3575 66.5238 70.4163 66.465C70.4752 66.4061 70.555 66.373 70.6383 66.373H133.973C134.056 66.373 134.136 66.4061 134.195 66.465C134.254 66.5238 134.287 66.6036 134.287 66.6869V69.1978C134.287 69.2811 134.254 69.3609 134.195 69.4198C134.136 69.4786 134.056 69.5117 133.973 69.5117ZM70.9484 68.884H133.655V67.0008H70.9522V68.884H70.9484Z" fill="#262424"/>
<path d="M96.4269 66.1219H108.186C108.282 66.1219 108.374 66.16 108.441 66.2278C108.509 66.2956 108.547 66.3876 108.547 66.4835V69.4025C108.547 69.4982 108.509 69.5899 108.442 69.6577C108.374 69.7255 108.283 69.7637 108.187 69.7641H96.4269C96.3314 69.7641 96.2397 69.7261 96.1721 69.6585C96.1046 69.5909 96.0666 69.4993 96.0666 69.4037V66.4835C96.0666 66.3878 96.1045 66.296 96.1721 66.2283C96.2396 66.1605 96.3313 66.1223 96.4269 66.1219Z" fill="#88C0C2"/>
<path d="M120.4 58.6519H110.856L106.672 51.7995H97.9385L93.754 58.6519H84.2099L97.533 36.8355L102.305 29.0227L107.077 36.8355L102.305 44.6496H111.849L116.216 51.7995L120.4 58.6519Z" fill="#88C0C2"/>
<path d="M31.4939 133.024L26.3942 141.264L24.1017 137.396L27.9422 130.171L31.4939 133.024Z" fill="white"/>
<path d="M26.3942 141.578C26.3401 141.578 26.287 141.563 26.2402 141.536C26.1933 141.509 26.1543 141.47 26.1268 141.424L23.8343 137.555C23.8067 137.508 23.7916 137.456 23.7903 137.402C23.7889 137.348 23.8015 137.295 23.8268 137.247L27.6673 130.022C27.6889 129.981 27.7193 129.945 27.7562 129.918C27.7931 129.89 27.8357 129.871 27.8809 129.861C27.9261 129.852 27.9728 129.853 28.0177 129.864C28.0626 129.874 28.1045 129.895 28.1406 129.924L31.6936 132.776C31.7531 132.824 31.7931 132.892 31.8061 132.968C31.819 133.043 31.804 133.12 31.7639 133.185L26.6641 141.426C26.6361 141.473 26.5965 141.511 26.5492 141.538C26.5019 141.565 26.4485 141.578 26.3942 141.578ZM24.462 137.388L26.4005 140.659L31.0821 133.095L28.0414 130.653L24.462 137.388Z" fill="#262424"/>
<path d="M39.4875 145.085C39.0104 144.65 37.8692 143.876 37.4386 143.405C35.0509 140.798 32.9045 137.979 31.0256 134.985L23.8155 135.457C23.5907 140.258 23.6899 144.762 23.7816 147.37C23.8343 148.822 23.8895 149.686 23.8895 149.686H40.925V148.031C40.925 146.956 40.4053 145.921 39.4875 145.085Z" fill="#88C0C2"/>
<path d="M25.8292 144.131C26.447 144.131 26.9479 143.226 26.9479 142.109C26.9479 140.993 26.447 140.088 25.8292 140.088C25.2114 140.088 24.7106 140.993 24.7106 142.109C24.7106 143.226 25.2114 144.131 25.8292 144.131Z" fill="white"/>
<path d="M40.925 148.031V149.686H23.8895C23.8895 149.686 23.8343 148.822 23.7803 147.37H38.3928C38.3928 147.37 38.4693 145.495 38.0161 143.915C38.5183 144.327 39.1661 144.786 39.4938 145.085C40.4053 145.921 40.925 146.955 40.925 148.031Z" fill="white"/>
<path d="M40.925 150H23.8895C23.8097 150 23.7327 149.97 23.6744 149.915C23.6161 149.861 23.5808 149.786 23.5757 149.706C23.5757 149.697 23.5192 148.827 23.4665 147.381C23.4649 147.339 23.4719 147.297 23.487 147.258C23.5021 147.218 23.525 147.182 23.5543 147.152C23.5836 147.121 23.6187 147.097 23.6575 147.081C23.6964 147.064 23.7381 147.056 23.7803 147.056H38.0839C38.0839 146.473 38.0425 145.148 37.7073 144.003C37.6876 143.938 37.6895 143.869 37.7124 143.805C37.7354 143.741 37.7783 143.687 37.8347 143.65C37.8912 143.612 37.9582 143.594 38.0257 143.598C38.0932 143.602 38.1577 143.628 38.2095 143.671C38.4116 143.836 38.6376 144.009 38.856 144.173C39.185 144.424 39.4963 144.664 39.701 144.851C40.694 145.757 41.2414 146.885 41.2414 148.03V149.685C41.2416 149.726 41.2335 149.768 41.2177 149.806C41.2018 149.844 41.1785 149.879 41.1491 149.909C41.1196 149.938 41.0847 149.961 41.0462 149.977C41.0078 149.992 40.9666 150 40.925 150ZM24.1858 149.372H40.6112V148.031C40.6112 147.065 40.1366 146.102 39.2766 145.317C39.0996 145.155 38.8171 144.94 38.5158 144.707C38.6672 145.591 38.7316 146.487 38.7079 147.384C38.7046 147.465 38.6701 147.541 38.6116 147.597C38.5531 147.654 38.4751 147.685 38.394 147.685H24.1067C24.1369 148.465 24.1645 149.046 24.1858 149.372Z" fill="#262424"/>
<path d="M47.1396 120.454C47.0233 120.588 46.9007 120.718 46.7718 120.845L32.5611 134.985L25.2103 131.553L34.669 114.813C34.669 114.813 22.6165 97.7385 21.9461 94.3914C21.2756 91.0443 20.1055 74.3867 28.3075 74.3867C36.5095 74.3867 37.8906 85.352 37.8906 85.352L48.1264 110.955L48.5859 112.105C49.1402 113.494 49.2985 115.01 49.0432 116.484C48.7879 117.958 48.1289 119.332 47.1396 120.454Z" fill="#88C0C2"/>
<path d="M30.9855 87.0569V92.0474C30.9855 92.3156 30.9152 92.5791 30.7818 92.8117C30.6483 93.0443 30.4562 93.2379 30.2247 93.3732L27.2818 95.0945L24.339 93.3732C24.1075 93.2379 23.9154 93.0443 23.7819 92.8117C23.6484 92.5791 23.5782 92.3156 23.5782 92.0474V87.0569H30.9855Z" fill="white"/>
<path d="M32.3012 130.653C32.2429 130.653 32.1858 130.637 32.1362 130.606C32.0866 130.576 32.0465 130.532 32.0205 130.48C31.9944 130.428 31.9834 130.369 31.9886 130.311C31.9938 130.253 32.0151 130.198 32.0501 130.151L43.1861 115.198L34.1053 91.9721C34.075 91.8945 34.0768 91.8081 34.1102 91.7318C34.1436 91.6555 34.206 91.5956 34.2836 91.5653C34.3612 91.535 34.4476 91.5368 34.5239 91.5702C34.6002 91.6037 34.6601 91.666 34.6904 91.7436L43.834 115.131C43.8533 115.18 43.8598 115.234 43.8528 115.286C43.8458 115.339 43.8255 115.389 43.7938 115.432L32.5536 130.525C32.5245 130.565 32.4865 130.597 32.4426 130.619C32.3988 130.641 32.3504 130.653 32.3012 130.653Z" fill="#262424"/>
<path d="M32.9314 133.457C32.885 133.457 32.8391 133.446 32.7971 133.427L26.6629 130.529C26.596 130.489 26.5462 130.426 26.5233 130.352C26.5003 130.277 26.5058 130.197 26.5386 130.127C26.5715 130.056 26.6293 130 26.701 129.97C26.7727 129.94 26.8531 129.937 26.9265 129.963L33.0608 132.86C33.1242 132.891 33.1754 132.942 33.2063 133.005C33.2371 133.069 33.2458 133.141 33.2309 133.209C33.2159 133.278 33.1783 133.34 33.124 133.385C33.0697 133.43 33.0019 133.455 32.9314 133.457Z" fill="#262424"/>
<path d="M42.5371 115.56H42.5182L35.5755 115.148C35.4922 115.143 35.4143 115.106 35.3589 115.043C35.3034 114.981 35.275 114.899 35.2798 114.816C35.2846 114.733 35.3223 114.655 35.3846 114.599C35.4469 114.544 35.5286 114.516 35.6119 114.52L42.5546 114.927C42.6385 114.929 42.7181 114.965 42.7758 115.026C42.8335 115.087 42.8646 115.168 42.8622 115.252C42.8599 115.336 42.8243 115.416 42.7634 115.473C42.7024 115.531 42.621 115.562 42.5371 115.56Z" fill="#262424"/>
<path d="M47.1396 120.454C45.8477 119.575 44.9727 117.886 44.9727 115.943C44.9727 113.541 46.311 111.522 48.1201 110.955L48.5797 112.105C49.1348 113.494 49.2941 115.009 49.0399 116.483C48.7857 117.957 48.1279 119.331 47.1396 120.454Z" fill="white"/>
<path d="M91.5858 129.649L98.2788 136.658L93.9687 137.914L87.9425 132.379L91.5858 129.649Z" fill="white"/>
<path d="M93.9687 138.227C93.8901 138.227 93.8144 138.198 93.7566 138.145L87.7303 132.61C87.6964 132.579 87.6697 132.541 87.6522 132.498C87.6348 132.456 87.6269 132.41 87.6291 132.364C87.6314 132.318 87.6438 132.273 87.6654 132.232C87.687 132.191 87.7173 132.156 87.7541 132.128L91.395 129.398C91.4564 129.352 91.5326 129.329 91.6092 129.336C91.6858 129.342 91.7575 129.376 91.8106 129.432L98.5035 136.441C98.5408 136.48 98.5675 136.528 98.5808 136.58C98.5942 136.632 98.5939 136.687 98.5799 136.739C98.5659 136.792 98.5387 136.839 98.5009 136.878C98.4631 136.916 98.416 136.944 98.3641 136.959L94.0541 138.215C94.0264 138.223 93.9976 138.227 93.9687 138.227ZM88.4333 132.403L94.0503 137.562L97.6912 136.5L91.5482 130.066L88.4333 132.403Z" fill="#262424"/>
<path d="M106.453 145.085C105.976 144.65 104.835 143.876 104.404 143.405C101.07 139.764 98.3604 135.593 97.4225 134.093L90.7798 135.457C90.5551 140.258 90.6543 144.762 90.7459 147.37C90.7987 148.822 90.8539 149.686 90.8539 149.686H107.891V148.031C107.891 146.955 107.37 145.921 106.453 145.085Z" fill="#88C0C2"/>
<path d="M92.7936 144.131C93.4114 144.131 93.9122 143.226 93.9122 142.109C93.9122 140.993 93.4114 140.088 92.7936 140.088C92.1758 140.088 91.675 140.993 91.675 142.109C91.675 143.226 92.1758 144.131 92.7936 144.131Z" fill="white"/>
<path d="M107.891 148.031V149.686H90.8539C90.8539 149.686 90.8539 149.632 90.8451 149.528C90.8363 149.402 90.825 149.191 90.8125 148.915C90.8125 148.86 90.8125 148.802 90.8037 148.741C90.7949 148.679 90.8037 148.615 90.7949 148.551C90.7798 148.221 90.7622 147.824 90.7459 147.37H105.358C105.358 147.37 105.435 145.497 104.982 143.916C105.004 143.935 105.027 143.954 105.051 143.971L105.078 143.993C105.283 144.157 105.504 144.325 105.715 144.486L105.789 144.542L105.93 144.652C106.138 144.814 106.325 144.963 106.459 145.085C106.628 145.238 106.786 145.401 106.933 145.574C107.325 146.028 107.612 146.561 107.776 147.138C107.785 147.17 107.794 147.202 107.802 147.235C107.817 147.301 107.83 147.366 107.843 147.431C107.877 147.629 107.893 147.83 107.891 148.031Z" fill="white"/>
<path d="M107.891 150H90.8539C90.7746 150 90.6984 149.97 90.6404 149.916C90.5824 149.862 90.547 149.788 90.5413 149.709C90.5413 149.709 90.5413 149.652 90.5325 149.543C90.5237 149.434 90.5124 149.209 90.4998 148.929V148.901C90.4998 148.856 90.4998 148.809 90.4923 148.76V148.721C90.4923 148.672 90.4923 148.62 90.4848 148.569C90.4697 148.234 90.4521 147.836 90.4358 147.38C90.4343 147.338 90.4413 147.296 90.4564 147.256C90.4715 147.217 90.4944 147.181 90.5237 147.151C90.553 147.12 90.5881 147.096 90.6269 147.08C90.6657 147.063 90.7075 147.055 90.7497 147.055H105.048C105.048 146.472 105.007 145.148 104.672 144.003C104.653 143.938 104.655 143.869 104.679 143.806C104.702 143.743 104.745 143.689 104.801 143.652C104.857 143.615 104.924 143.598 104.991 143.602C105.058 143.605 105.122 143.631 105.174 143.674L105.229 143.718C105.239 143.725 105.258 143.739 105.274 143.753C105.466 143.907 105.682 144.072 105.892 144.231L105.969 144.289L106.11 144.399C106.375 144.605 106.54 144.74 106.662 144.85C106.84 145.012 107.008 145.186 107.164 145.37C107.585 145.858 107.895 146.433 108.07 147.053V147.068C108.079 147.101 108.088 147.133 108.095 147.166C108.11 147.233 108.125 147.302 108.138 147.371C108.178 147.589 108.197 147.809 108.197 148.03V149.685C108.197 149.767 108.165 149.846 108.108 149.905C108.051 149.964 107.973 149.998 107.891 150ZM91.1502 149.372H107.577V148.031C107.577 147.849 107.561 147.667 107.528 147.488C107.517 147.429 107.504 147.362 107.489 147.306C107.489 147.279 107.476 147.257 107.471 147.234V147.219C107.318 146.688 107.05 146.198 106.687 145.782C106.549 145.619 106.4 145.465 106.242 145.321C106.104 145.195 105.897 145.032 105.731 144.904L105.589 144.794L105.515 144.737L105.481 144.711C105.633 145.594 105.697 146.491 105.673 147.387C105.67 147.468 105.636 147.545 105.577 147.601C105.519 147.657 105.441 147.689 105.36 147.689H91.0723C91.0849 148.008 91.0975 148.294 91.1088 148.542C91.1088 148.594 91.1088 148.649 91.1163 148.701V148.732C91.1163 148.78 91.1163 148.83 91.1238 148.878V148.905C91.1351 149.092 91.1426 149.25 91.1502 149.372Z" fill="#262424"/>
<path d="M92.5877 129.209L86.9795 134.147C86.9795 134.147 70.9095 124.857 68.7337 123.183C66.558 121.51 62.4564 115.985 62.4564 115.985C62.4564 115.985 39.3557 100.167 35.4223 96.0649C33.2315 93.7812 32.6502 89.3004 32.5648 85.7776C32.4154 79.6157 37.3231 74.4783 43.4875 74.3892H43.7925C53.6693 74.3892 54.3385 87.6143 54.3385 87.6143L70.7224 105.432L77.5547 112.862L92.5877 129.209Z" fill="#88C0C2"/>
<path d="M44.1466 103.347C44.0797 103.347 44.0145 103.325 43.9608 103.285C39.3155 99.8602 36.3652 97.51 35.1963 96.2859C32.9616 93.957 32.3665 89.4486 32.2598 86.0764C32.2585 86.0352 32.2653 85.9941 32.2798 85.9555C32.2944 85.9169 32.3164 85.8816 32.3446 85.8515C32.3728 85.8214 32.4067 85.7972 32.4442 85.7802C32.4818 85.7632 32.5224 85.7538 32.5636 85.7525C32.6048 85.7512 32.6459 85.758 32.6845 85.7725C32.7231 85.7871 32.7584 85.8091 32.7885 85.8373C32.8186 85.8655 32.8428 85.8994 32.8598 85.937C32.8768 85.9745 32.8862 86.0151 32.8875 86.0563C32.9905 89.3205 33.5529 93.6657 35.6495 95.849C36.7945 97.0429 39.716 99.3744 44.3336 102.777C44.3884 102.815 44.4293 102.871 44.4503 102.934C44.4714 102.998 44.4714 103.067 44.4505 103.131C44.4296 103.194 44.3888 103.25 44.3341 103.289C44.2794 103.328 44.2137 103.348 44.1466 103.347Z" fill="#262424"/>
<path d="M77.5534 112.859C77.522 112.893 77.4894 112.926 77.4568 112.959C76.0155 114.361 73.266 113.875 71.315 111.871C69.364 109.868 68.9497 107.107 70.3897 105.703C70.4925 105.603 70.6034 105.512 70.7212 105.43L77.5534 112.859Z" fill="white"/>
<path d="M87.1892 129.963C87.1228 129.963 87.0582 129.942 87.0046 129.902L76.7826 122.456C73.8799 120.343 71.3562 117.754 69.3188 114.798L68.6609 113.845L47.5903 93.3606C47.5602 93.3315 47.5363 93.2965 47.5199 93.2579C47.5035 93.2193 47.495 93.1778 47.4949 93.1359V88.0299C47.4949 87.9467 47.528 87.8668 47.5868 87.808C47.6457 87.7491 47.7255 87.716 47.8088 87.716C47.892 87.716 47.9719 87.7491 48.0307 87.808C48.0896 87.8668 48.1227 87.9467 48.1227 88.0299V93.0028L69.1192 113.417C69.1336 113.431 69.1466 113.447 69.1581 113.463L69.8335 114.441C71.8294 117.339 74.3016 119.877 77.1454 121.949L87.3674 129.395C87.4205 129.434 87.4601 129.488 87.4807 129.551C87.5013 129.613 87.5017 129.68 87.4821 129.743C87.4624 129.806 87.4235 129.861 87.371 129.9C87.3184 129.939 87.2548 129.961 87.1892 129.963Z" fill="#262424"/>
<path d="M86.122 132.693C86.0584 132.694 85.9962 132.674 85.9437 132.639C85.8912 132.603 85.8508 132.552 85.8279 132.492C85.8051 132.433 85.8008 132.368 85.8156 132.306C85.8305 132.244 85.8638 132.188 85.9111 132.146L90.4308 128.066C90.4612 128.037 90.497 128.015 90.5362 128C90.5753 127.985 90.617 127.978 90.6588 127.98C90.7006 127.982 90.7417 127.992 90.7796 128.009C90.8175 128.027 90.8514 128.052 90.8794 128.083C90.9075 128.114 90.929 128.151 90.9428 128.19C90.9566 128.23 90.9624 128.272 90.9597 128.313C90.9571 128.355 90.9462 128.396 90.9276 128.433C90.909 128.471 90.8831 128.504 90.8514 128.531L86.3317 132.612C86.2743 132.664 86.1996 132.693 86.122 132.693Z" fill="#262424"/>
<path d="M44.6287 87.0569V92.0474C44.6287 92.3156 44.5585 92.5791 44.425 92.8117C44.2915 93.0443 44.0994 93.2379 43.8679 93.3732L40.925 95.0919L37.9822 93.3707C37.751 93.2356 37.5592 93.0424 37.4257 92.8103C37.2923 92.5782 37.2218 92.3152 37.2214 92.0474V87.0569H44.6287Z" fill="white"/>
<path d="M3.76307 71.7402L0.593002 78.4883L8.06306 80.7796L8.31415 72.8701L3.76307 71.7402Z" fill="white"/>
<path d="M8.06306 81.0934C8.032 81.0934 8.00111 81.0888 7.97142 81.0796L0.501358 78.7884C0.458532 78.7751 0.419061 78.7527 0.385601 78.7228C0.352141 78.693 0.325471 78.6563 0.307388 78.6152C0.289305 78.5742 0.280228 78.5297 0.280769 78.4849C0.281311 78.44 0.291458 78.3958 0.310527 78.3552L3.48059 71.6071C3.51157 71.5413 3.56444 71.4883 3.63016 71.4571C3.69588 71.426 3.77037 71.4186 3.84091 71.4363L8.392 72.5663C8.46185 72.5835 8.52367 72.6242 8.5671 72.6816C8.61052 72.7389 8.63292 72.8095 8.63054 72.8814L8.37944 80.7909C8.3765 80.8726 8.3418 80.9499 8.28271 81.0064C8.22362 81.0629 8.14482 81.0941 8.06306 81.0934ZM1.03242 78.295L7.76426 80.3602L7.99401 73.1149L3.93884 72.1105L1.03242 78.295Z" fill="#262424"/>
<path d="M5.96015 75.9535L3.50822 75.2002C3.16527 75.0942 2.79603 75.1115 2.46448 75.249C2.13292 75.3866 1.85993 75.6358 1.6928 75.9535L0.492573 78.2297C0.391646 78.4216 0.332424 78.6326 0.318793 78.849C0.305162 79.0653 0.337429 79.2821 0.413479 79.4852C0.494145 79.6995 0.621674 79.8932 0.786753 80.052C0.951832 80.2107 1.15029 80.3306 1.36764 80.4029L4.45359 81.4261C4.74424 81.5228 5.05713 81.5304 5.35216 81.4481C5.64719 81.3658 5.91092 81.1973 6.10955 80.9641L6.47239 80.5385C6.6774 80.2977 6.80322 79.9996 6.83271 79.6848L7.03107 77.5668C7.06448 77.2159 6.97633 76.8641 6.78138 76.5705C6.58643 76.2768 6.29651 76.059 5.96015 75.9535Z" fill="white"/>
<path d="M4.94698 81.8191C4.74728 81.819 4.54889 81.7868 4.35942 81.7237L1.26845 80.6967C1.01324 80.612 0.779547 80.4727 0.583604 80.2885C0.387661 80.1044 0.234174 79.8798 0.133814 79.6303C0.0334528 79.3808 -0.0113742 79.1125 0.00244841 78.844C0.016271 78.5754 0.0884122 78.3131 0.213856 78.0753L1.41409 75.7991C1.61579 75.4171 1.94462 75.1176 2.34372 74.9523C2.74283 74.787 3.18714 74.7664 3.59986 74.8939L6.0518 75.6472C6.457 75.7744 6.80647 76.0365 7.04217 76.3898C7.27786 76.7431 7.38558 77.1664 7.34745 77.5894L7.14908 79.7074C7.1138 80.0863 6.96205 80.4451 6.71469 80.7344L6.35186 81.16C6.17964 81.3653 5.96474 81.5306 5.72212 81.6445C5.4795 81.7583 5.21498 81.8179 4.94698 81.8191ZM3.05373 75.4388C2.83084 75.4388 2.61216 75.4995 2.42124 75.6146C2.23032 75.7296 2.0744 75.8945 1.97026 76.0916L0.77003 78.3628C0.68715 78.52 0.639487 78.6933 0.630353 78.8708C0.621219 79.0482 0.650834 79.2256 0.717139 79.3904C0.783444 79.5553 0.88485 79.7038 1.01431 79.8255C1.14377 79.9472 1.29818 80.0393 1.46682 80.0953L4.55779 81.1248C4.7891 81.2025 5.03839 81.2089 5.2734 81.1433C5.50842 81.0777 5.71835 80.9431 5.87603 80.757L6.23886 80.3313C6.40215 80.1399 6.50215 79.9027 6.52511 79.6521L6.72348 77.5342C6.74897 77.2545 6.67791 76.9745 6.52212 76.7408C6.36634 76.5071 6.13522 76.3338 5.86724 76.2498L3.41531 75.4965C3.29837 75.4592 3.17648 75.4397 3.05373 75.4388Z" fill="#262424"/>
<path d="M7.77431 76.644C8.00256 76.6962 8.20766 76.8212 8.3587 77.0001C8.50974 77.179 8.59854 77.4021 8.61171 77.6359L8.72219 79.686C8.74126 79.9992 8.69157 80.3127 8.57662 80.6047C8.46168 80.8966 8.28425 81.1598 8.05679 81.3759L7.58222 81.8241C7.43864 81.9596 7.26067 82.0531 7.06765 82.0945C6.87463 82.1359 6.67396 82.1236 6.48745 82.0589L6.36191 82.015C6.22479 81.9679 6.09855 81.8938 5.9907 81.7969C5.88285 81.7001 5.79561 81.5825 5.73417 81.4512L5.59356 81.1512C5.46271 80.8682 5.39494 80.5602 5.39494 80.2485C5.39494 79.9368 5.46271 79.6288 5.59356 79.3458L6.55525 77.2504C6.65793 77.0248 6.83515 76.8413 7.05715 76.7309C7.27914 76.6204 7.53238 76.5898 7.77431 76.644Z" fill="white"/>
<path d="M6.83898 82.4305C6.68295 82.4303 6.52806 82.404 6.38073 82.3527L6.25518 82.3087C6.0789 82.2473 5.91667 82.1512 5.77804 82.0261C5.63941 81.9011 5.52717 81.7496 5.44791 81.5806L5.3073 81.2805C5.1561 80.9568 5.07722 80.604 5.07614 80.2467C5.07505 79.8894 5.15179 79.5361 5.30102 79.2115L6.26271 77.1161C6.39696 76.8248 6.62728 76.5884 6.91505 76.4467C7.20283 76.305 7.53058 76.2665 7.84335 76.3377C8.13728 76.4061 8.40126 76.5676 8.59603 76.7981C8.7908 77.0286 8.90594 77.3158 8.92431 77.617L9.04107 79.6672C9.06188 80.0259 9.00388 80.3847 8.87113 80.7185C8.73839 81.0523 8.53413 81.353 8.27272 81.5994L7.79816 82.0476C7.53949 82.2937 7.19602 82.4308 6.83898 82.4305ZM7.53074 76.9315C7.38387 76.9317 7.2401 76.9738 7.11641 77.053C6.99272 77.1322 6.89427 77.2452 6.8327 77.3785L5.87101 79.4739C5.75904 79.7154 5.70103 79.9785 5.70103 80.2447C5.70103 80.511 5.75904 80.774 5.87101 81.0156L6.01162 81.3169C6.05513 81.4098 6.11674 81.4931 6.19284 81.5618C6.26894 81.6306 6.358 81.6835 6.4548 81.7174L6.58035 81.7613C6.71273 81.8076 6.85528 81.8165 6.99237 81.787C7.12945 81.7575 7.25578 81.6909 7.35749 81.5944L7.83205 81.1462C8.02692 80.9626 8.17917 80.7385 8.27808 80.4897C8.377 80.2409 8.42016 79.9734 8.40455 79.7061L8.28779 77.656C8.27776 77.4904 8.21454 77.3326 8.10754 77.2059C8.00053 77.0792 7.85547 76.9905 7.69395 76.9529C7.64176 76.9397 7.58831 76.9321 7.53451 76.9303L7.53074 76.9315Z" fill="#262424"/>
<path d="M8.31417 72.8701L9.365 77.6409C9.41302 77.8592 9.40231 78.0864 9.33394 78.2992C9.26557 78.512 9.14199 78.7029 8.9758 78.8524C8.80783 79.0022 8.60291 79.1045 8.3822 79.1486C8.16149 79.1928 7.933 79.1772 7.72033 79.1035L4.68334 78.0665C4.47533 77.9956 4.30185 77.8486 4.19775 77.6551C4.09365 77.4616 4.06664 77.2358 4.12215 77.0232C4.17136 76.8345 4.28251 76.6679 4.43778 76.5499C4.59305 76.432 4.78343 76.3696 4.97838 76.3729L6.28783 76.3929L5.409 74.8173C5.33129 74.6774 5.29369 74.5187 5.30034 74.3588C5.30698 74.1989 5.35762 74.0439 5.44667 73.9109L6.48494 72.3591L8.31417 72.8701Z" fill="white"/>
<path d="M8.1296 79.4927C7.95623 79.4929 7.78401 79.4645 7.61988 79.4086L4.57913 78.3716C4.29864 78.2721 4.06565 78.0711 3.92618 77.8082C3.78671 77.5453 3.75091 77.2396 3.82585 76.9516C3.89136 76.6941 4.04223 76.4664 4.25382 76.3056C4.46542 76.1449 4.72526 76.0606 4.99092 76.0665L5.75802 76.0791L5.14284 74.973C5.03682 74.7828 4.98552 74.5669 4.9946 74.3493C5.00369 74.1317 5.07281 73.9209 5.19431 73.7401L6.23258 72.1884C6.26957 72.1341 6.32266 72.0927 6.38438 72.0702C6.44609 72.0477 6.51332 72.0451 6.57658 72.0628L8.39702 72.565C8.4521 72.5801 8.50203 72.6099 8.54141 72.6513C8.58079 72.6927 8.60813 72.744 8.62049 72.7998L9.67132 77.5706C9.72314 77.8015 9.72231 78.0411 9.6689 78.2717C9.61549 78.5023 9.51087 78.7178 9.36279 78.9025C9.21471 79.0871 9.02696 79.236 8.81349 79.3382C8.60001 79.4404 8.36627 79.4932 8.1296 79.4927ZM4.96581 76.6943C4.83361 76.6936 4.70551 76.7401 4.60447 76.8254C4.50343 76.9106 4.43606 77.0291 4.41445 77.1595C4.39284 77.2899 4.41839 77.4238 4.48653 77.5371C4.55467 77.6504 4.66094 77.7357 4.78628 77.7777L7.82327 78.8147C7.98282 78.8692 8.15401 78.8803 8.31925 78.8468C8.4845 78.8133 8.63786 78.7365 8.7636 78.6241C8.88934 78.5118 8.98294 78.3681 9.03479 78.2076C9.08664 78.0472 9.09487 77.8759 9.05865 77.7112L8.05427 73.1224L6.63434 72.7307L5.71659 74.0942C5.65969 74.1791 5.62736 74.2781 5.62315 74.3802C5.61894 74.4823 5.64302 74.5836 5.69273 74.6729L6.57156 76.2486C6.59822 76.2967 6.61174 76.3511 6.61075 76.4061C6.60976 76.4612 6.59431 76.515 6.56594 76.5622C6.53758 76.6094 6.49729 76.6483 6.44914 76.675C6.40098 76.7017 6.34665 76.7153 6.29159 76.7143L4.98213 76.6943H4.97335H4.96581Z" fill="#262424"/>
<path d="M36.3426 51.5371C36.1756 58.903 17.3435 62.7535 17.3435 62.7535C17.3435 62.7535 11.8194 69.1978 8.55521 73.3823L3.114 72.211C3.114 72.211 5.05872 65.1364 7.25706 58.6217C7.79565 57.026 8.34806 55.4642 8.88917 54.0481C8.88917 54.0481 10.4899 53.001 13.0473 51.6212C17.3084 49.3212 24.221 46.0972 30.8185 45.2598C30.8185 45.2598 36.5095 44.1725 36.3426 51.5371Z" fill="#DE9244"/>
<path d="M4.80763 71.6259C5.13144 71.6259 5.39394 71.3634 5.39394 71.0396C5.39394 70.7158 5.13144 70.4533 4.80763 70.4533C4.48383 70.4533 4.22133 70.7158 4.22133 71.0396C4.22133 71.3634 4.48383 71.6259 4.80763 71.6259Z" fill="white"/>
<path d="M4.80763 71.9398C4.62959 71.9398 4.45555 71.887 4.30752 71.7881C4.15949 71.6892 4.04411 71.5486 3.97598 71.3841C3.90785 71.2196 3.89002 71.0386 3.92475 70.864C3.95949 70.6894 4.04522 70.529 4.17111 70.4031C4.297 70.2772 4.4574 70.1915 4.63201 70.1567C4.80663 70.122 4.98763 70.1398 5.15211 70.2079C5.3166 70.2761 5.45718 70.3915 5.5561 70.5395C5.65501 70.6875 5.7078 70.8616 5.7078 71.0396C5.70747 71.2782 5.61252 71.507 5.44378 71.6758C5.27504 71.8445 5.04627 71.9394 4.80763 71.9398ZM4.80763 70.7672C4.75375 70.7672 4.70107 70.7831 4.65627 70.8131C4.61147 70.843 4.57655 70.8856 4.55593 70.9353C4.53531 70.9851 4.52991 71.0399 4.54043 71.0927C4.55094 71.1456 4.57688 71.1941 4.61499 71.2322C4.65309 71.2703 4.70163 71.2963 4.75448 71.3068C4.80733 71.3173 4.8621 71.3119 4.91189 71.2913C4.96167 71.2707 5.00422 71.2358 5.03415 71.191C5.06409 71.1462 5.08007 71.0935 5.08007 71.0396C5.08007 70.9673 5.05136 70.898 5.00027 70.847C4.94918 70.7959 4.87988 70.7672 4.80763 70.7672Z" fill="#262424"/>
<path d="M11.7655 57.0034C10.4146 58.3543 8.65691 58.9306 7.25455 58.6217C7.79314 57.026 8.34555 55.4642 8.88666 54.0481C8.88666 54.0481 10.4874 53.001 13.0448 51.6212C13.9111 53.0952 13.4164 55.3525 11.7655 57.0034Z" fill="white"/>
<path d="M16.7886 62.7008C16.7128 62.7006 16.6396 62.673 16.5827 62.6229L11.8433 58.4799C11.7844 58.4241 11.7494 58.3477 11.7455 58.2667C11.7417 58.1856 11.7694 58.1063 11.8229 58.0452C11.8763 57.9842 11.9512 57.9462 12.0321 57.9392C12.1129 57.9323 12.1933 57.9568 12.2563 58.0078L16.9957 62.1509C17.0438 62.193 17.0778 62.2487 17.0933 62.3106C17.1088 62.3726 17.1051 62.4378 17.0826 62.4975C17.0601 62.5573 17.0199 62.6088 16.9673 62.6451C16.9148 62.6814 16.8525 62.7008 16.7886 62.7008Z" fill="#262424"/>
<path d="M9.39261 70.9342C9.36724 70.9343 9.34195 70.9313 9.31729 70.9254L4.37951 69.7113C4.2986 69.6915 4.22887 69.6404 4.18567 69.5691C4.14247 69.4979 4.12932 69.4125 4.14913 69.3315C4.16895 69.2506 4.22009 69.1809 4.29131 69.1377C4.36253 69.0945 4.448 69.0813 4.52891 69.1012L9.46668 70.3152C9.54137 70.3333 9.60684 70.3781 9.65069 70.4412C9.69453 70.5043 9.71371 70.5813 9.70458 70.6576C9.69545 70.7339 9.65865 70.8042 9.60115 70.8551C9.54365 70.9061 9.46945 70.9342 9.39261 70.9342Z" fill="#262424"/>
<path d="M42.7455 39.0879C42.7455 39.0879 44.419 41.4946 46.8885 41.4946C49.358 41.4946 51.1986 31.3466 46.8044 30.4879C42.4103 29.6291 39.6068 34.6309 42.7455 39.0879Z" fill="white"/>
<path d="M46.8885 41.8072C44.2884 41.8072 42.5647 39.3766 42.4944 39.2661C40.8434 36.9222 40.6325 34.2091 41.9445 32.1853C43.0141 30.5356 44.8559 29.7848 46.8722 30.1765C49.3831 30.6662 49.9895 33.7672 49.7246 36.5054C49.4698 39.0766 48.3951 41.8072 46.8885 41.8072ZM42.9966 38.9083C43.0129 38.9309 44.6111 41.1807 46.8823 41.1807C47.8126 41.1807 48.8433 38.9698 49.0869 36.4489C49.3254 33.9844 48.8358 31.206 46.7379 30.7992C44.9802 30.4565 43.3832 31.1043 42.458 32.5318C41.5327 33.9593 41.2025 36.3635 42.9953 38.9108L42.9966 38.9083Z" fill="#262424"/>
<path d="M40.3287 44.6534L41.1134 39.6315L44.4755 40.548L44.3776 44.6534H40.3287Z" fill="white"/>
<path d="M44.3776 44.9672H40.3287C40.2833 44.9672 40.2385 44.9574 40.1973 44.9384C40.1561 44.9195 40.1195 44.8918 40.09 44.8573C40.0605 44.8228 40.0389 44.7823 40.0266 44.7387C40.0142 44.695 40.0115 44.6492 40.0186 44.6044L40.8033 39.5825C40.8105 39.5391 40.8267 39.4978 40.8509 39.4611C40.8752 39.4244 40.9068 39.3932 40.9439 39.3695C40.9809 39.3459 41.0225 39.3302 41.066 39.3237C41.1095 39.3171 41.1538 39.3197 41.1962 39.3314L44.5584 40.2479C44.626 40.2664 44.6854 40.307 44.7273 40.3632C44.7692 40.4194 44.791 40.488 44.7894 40.558L44.6914 44.6634C44.6888 44.7449 44.6546 44.8222 44.596 44.8789C44.5375 44.9356 44.4591 44.9673 44.3776 44.9672ZM40.6953 44.3395H44.0712L44.1566 40.7865L41.3644 40.0269L40.6953 44.3395Z" fill="#262424"/>
<path d="M47.977 36.3673C47.977 36.3673 47.5163 34.3372 46.0938 34.8393C44.6714 35.3415 44.7542 37.6227 45.78 38.2705L44.4755 40.548H40.9702C40.9702 40.548 38.1417 36.764 37.8077 34.3786C37.4738 31.9932 39.775 31.8049 39.775 31.8049C39.775 31.8049 40.1931 29.7547 41.8666 29.3994C43.5402 29.0441 48.144 30.0058 48.144 30.0058C48.144 30.0058 49.0392 28.5833 49.7924 28.5984C50.5457 28.6135 50.5294 30.1841 50.5294 30.1841C50.5294 30.1841 51.5187 28.8972 52.1301 29.2902C52.7415 29.6831 51.707 34.9712 48.6148 33.9982C48.6148 33.9982 49.0329 36.1639 47.977 36.3673Z" fill="#262424"/>
<path d="M37.3156 44.8731C37.3156 44.8731 38.2885 42.3621 42.055 42.3621C45.8214 42.3621 47.1396 45.5322 47.1396 45.5322H37.3156V44.8731Z" fill="white"/>
<path d="M47.1396 45.8461H37.3156C37.2323 45.8461 37.1525 45.813 37.0936 45.7541C37.0348 45.6953 37.0017 45.6154 37.0017 45.5322V44.8731C37.0018 44.8344 37.009 44.7961 37.023 44.7601C37.0657 44.6496 38.1191 42.0483 42.055 42.0483C45.9909 42.0483 47.4158 45.3778 47.4296 45.4117C47.4495 45.4594 47.4572 45.5112 47.4522 45.5627C47.4472 45.6141 47.4296 45.6635 47.4009 45.7065C47.3722 45.7494 47.3333 45.7847 47.2877 45.809C47.2422 45.8334 47.1913 45.8461 47.1396 45.8461ZM37.6294 45.2183H46.6224C46.1202 44.3897 44.7693 42.676 42.055 42.676C38.8121 42.676 37.7864 44.5918 37.6294 44.9358V45.2183Z" fill="#262424"/>
<path d="M56.2631 87.6947C54.6913 88.2388 53.0827 88.6705 51.4497 88.9866V83.9835C51.4398 83.6869 51.3151 83.4057 51.1018 83.1994C50.8885 82.993 50.6033 82.8777 50.3066 82.8777C50.0098 82.8777 49.7246 82.993 49.5113 83.1994C49.298 83.4057 49.1733 83.6869 49.1634 83.9835V89.3657C34.6226 91.3607 19.7302 85.6859 19.7302 85.6859C23.371 59.7404 30.8185 45.2597 30.8185 45.2597C37.8868 43.5937 56.7653 45.2597 56.7653 45.2597C57.0993 61.9161 56.2631 87.6947 56.2631 87.6947Z" fill="#DE9244"/>
<path d="M25.6108 59.2357C25.5616 59.2357 25.5131 59.2242 25.4692 59.202C25.4253 59.1799 25.3872 59.1477 25.358 59.1081C25.3288 59.0685 25.3093 59.0226 25.3011 58.9741C25.2929 58.9256 25.2962 58.8759 25.3107 58.8289C27.3446 52.2778 29.1839 47.9954 30.1004 46.0231C30.1372 45.9504 30.2008 45.8949 30.2778 45.8683C30.3547 45.8416 30.4391 45.846 30.5129 45.8804C30.5867 45.9148 30.6443 45.9765 30.6735 46.0526C30.7026 46.1286 30.701 46.2131 30.6691 46.288C29.9371 47.8623 28.0075 52.254 25.9096 59.0122C25.8903 59.0765 25.8508 59.1329 25.797 59.1731C25.7432 59.2134 25.678 59.2353 25.6108 59.2357Z" fill="#262424"/>
<path d="M33.4136 84.7443H33.4023C33.3192 84.7414 33.2407 84.7056 33.184 84.6449C33.1273 84.5842 33.097 84.5035 33.0997 84.4204C33.8467 63.0197 39.9746 47.2283 40.0374 47.0701C40.0698 46.9954 40.1299 46.9362 40.2051 46.905C40.2803 46.8738 40.3646 46.873 40.4404 46.9028C40.5161 46.9326 40.5773 46.9907 40.6111 47.0648C40.6448 47.1389 40.6484 47.2232 40.6212 47.2999C40.5597 47.4556 34.4694 63.1552 33.7274 84.4418C33.7245 84.523 33.6901 84.6 33.6316 84.6564C33.573 84.7129 33.4949 84.7444 33.4136 84.7443Z" fill="#262424"/>
<path d="M52.223 86.8334C52.1398 86.8393 52.0576 86.8118 51.9946 86.757C51.9317 86.7023 51.893 86.6248 51.8872 86.5415C51.8814 86.4583 51.9088 86.3762 51.9636 86.3132C52.0183 86.2502 52.0958 86.2115 52.1791 86.2057C53.1094 86.0726 54.056 85.9207 54.9926 85.7512C55.0742 85.7371 55.1581 85.7558 55.226 85.8033C55.2938 85.8508 55.3402 85.9231 55.3549 86.0046C55.3697 86.0861 55.3516 86.1702 55.3047 86.2384C55.2577 86.3066 55.1857 86.3535 55.1043 86.3689C54.159 86.5397 53.2048 86.6941 52.267 86.8272L52.223 86.8334Z" fill="#262424"/>
<path d="M42.227 87.5579C36.4669 87.5579 31.8492 86.8209 28.708 86.0977C24.1733 85.0544 21.7126 83.8492 21.6096 83.799C21.5356 83.7617 21.4794 83.6966 21.4532 83.618C21.4269 83.5394 21.4329 83.4536 21.4697 83.3793C21.5065 83.3051 21.5711 83.2484 21.6496 83.2217C21.728 83.1949 21.8138 83.2002 21.8883 83.2365C21.9862 83.2855 31.9321 88.0889 48.2093 86.6665C48.2505 86.6628 48.292 86.6674 48.3315 86.6798C48.371 86.6922 48.4076 86.7123 48.4393 86.7389C48.471 86.7654 48.4972 86.798 48.5163 86.8347C48.5354 86.8714 48.5471 86.9115 48.5508 86.9527C48.5544 86.9939 48.5499 87.0355 48.5374 87.0749C48.525 87.1144 48.505 87.151 48.4784 87.1827C48.4518 87.2145 48.4192 87.2406 48.3825 87.2597C48.3458 87.2789 48.3057 87.2906 48.2645 87.2942C46.1352 87.4775 44.119 87.5579 42.227 87.5579Z" fill="#262424"/>
<path d="M164.526 51.3074H166.158C166.394 51.3074 166.62 51.401 166.787 51.5677C166.954 51.7344 167.047 51.9605 167.047 52.1962V53.055C167.047 53.2907 166.954 53.5168 166.787 53.6835C166.62 53.8502 166.394 53.9439 166.158 53.9439H164.526V51.3074Z" fill="white"/>
<path d="M166.158 54.2577H164.526C164.443 54.2577 164.363 54.2246 164.304 54.1658C164.245 54.1069 164.212 54.0271 164.212 53.9438V51.3074C164.212 51.2241 164.245 51.1443 164.304 51.0854C164.363 51.0266 164.443 50.9935 164.526 50.9935H166.158C166.477 50.9938 166.783 51.1206 167.008 51.3461C167.234 51.5716 167.361 51.8773 167.361 52.1962V53.055C167.361 53.3739 167.234 53.6796 167.008 53.9051C166.783 54.1306 166.477 54.2574 166.158 54.2577ZM164.84 53.63H166.158C166.311 53.63 166.457 53.5694 166.565 53.4616C166.673 53.3537 166.733 53.2075 166.733 53.055V52.1962C166.733 52.0437 166.673 51.8975 166.565 51.7896C166.457 51.6818 166.311 51.6212 166.158 51.6212H164.84V53.63Z" fill="#262424"/>
<path d="M174.54 61.321V67.8746C174.539 77.8292 170.585 87.376 163.546 94.4152C158.625 99.3366 152.782 103.241 146.352 105.904C139.922 108.567 133.031 109.938 126.071 109.938C123.723 109.938 121.407 109.394 119.303 108.35C117.2 107.305 115.367 105.788 113.948 103.917C112.529 102.046 111.563 99.8721 111.124 97.5652C110.685 95.2583 110.787 92.8812 111.42 90.6199L126.896 35.3415C128.249 30.509 128.935 25.514 128.935 20.4956C128.935 9.54033 120.021 0.627736 109.067 0.627736C98.113 0.627736 89.1979 9.54033 89.1979 20.4956V23.7811H88.5702V20.4956C88.5702 9.19633 97.7653 0 109.066 0C120.366 0 129.561 9.19507 129.561 20.4956C129.561 25.5713 128.867 30.6232 127.499 35.511L112.022 90.7919C111.416 92.9598 111.32 95.2386 111.741 97.4499C112.162 99.6612 113.089 101.745 114.45 103.538C115.81 105.332 117.568 106.786 119.584 107.787C121.6 108.789 123.82 109.31 126.071 109.31C140.06 109.31 153.211 103.863 163.108 93.9708C166.546 90.5519 169.271 86.485 171.127 82.0056C172.982 77.5261 173.931 72.7231 173.917 67.8746V61.321C173.909 59.3584 173.235 57.4565 172.007 55.9257C170.779 54.3949 169.068 53.3254 167.154 52.8918C167.073 52.8739 167.002 52.8245 166.957 52.7544C166.912 52.6842 166.896 52.599 166.914 52.5176C166.932 52.4362 166.981 52.3652 167.052 52.3202C167.122 52.2753 167.207 52.26 167.288 52.2778C169.345 52.7356 171.185 53.8811 172.503 55.5251C173.822 57.1692 174.54 59.2136 174.54 61.321Z" fill="#262424"/>
<path d="M89.6788 24.095H88.0893V24.3536C87.0881 24.6871 86.2174 25.3275 85.6008 26.1839C84.9842 27.0403 84.6531 28.0692 84.6544 29.1244V37.3427C84.6531 38.398 84.9842 39.4269 85.6008 40.2833C86.2174 41.1397 87.0881 41.7801 88.0893 42.1135V42.3722H89.6788C91.0107 42.3722 92.288 41.8431 93.2298 40.9013C94.1716 39.9595 94.7007 38.6822 94.7007 37.3503V29.1194C94.701 28.4597 94.5713 27.8064 94.3191 27.1968C94.0669 26.5873 93.697 26.0334 93.2307 25.5668C92.7643 25.1002 92.2106 24.7301 91.6011 24.4775C90.9917 24.225 90.3385 24.095 89.6788 24.095Z" fill="white"/>
<path d="M89.6788 42.676H88.0893C88.0061 42.676 87.9263 42.6429 87.8674 42.5841C87.8085 42.5252 87.7755 42.4454 87.7755 42.3621V42.3307C86.7644 41.946 85.8944 41.2629 85.2808 40.3719C84.6673 39.481 84.3393 38.4245 84.3405 37.3427V29.1194C84.3383 28.0368 84.6658 26.9792 85.2794 26.0873C85.893 25.1954 86.7636 24.5114 87.7755 24.1264V24.0887C87.7755 24.0055 87.8085 23.9257 87.8674 23.8668C87.9263 23.8079 88.0061 23.7749 88.0893 23.7749H89.6788C91.0941 23.7765 92.4509 24.3395 93.4517 25.3402C94.4524 26.341 95.0154 27.6978 95.017 29.1131V37.3315C95.017 38.7478 94.4548 40.1063 93.4539 41.1084C92.4529 42.1105 91.0951 42.6743 89.6788 42.676ZM88.3982 42.0483H89.6788C90.9277 42.0469 92.125 41.5502 93.0081 40.6671C93.8913 39.784 94.388 38.5866 94.3893 37.3377V29.1194C94.388 27.8705 93.8913 26.6731 93.0081 25.79C92.125 24.9069 90.9277 24.4102 89.6788 24.4089H88.3982C88.3882 24.4644 88.3635 24.5162 88.3266 24.5588C88.2897 24.6014 88.242 24.6334 88.1885 24.6512C87.2503 24.9631 86.4342 25.5627 85.8561 26.3648C85.278 27.1669 84.9674 28.1307 84.9682 29.1194V37.3377C84.9677 38.3271 85.2791 39.2914 85.8581 40.0935C86.4372 40.8957 87.2544 41.4949 88.1935 41.806C88.2461 41.8245 88.2928 41.8568 88.3287 41.8994C88.3647 41.9419 88.3887 41.9933 88.3982 42.0483Z" fill="#262424"/>
<path d="M88.2613 23.7811H87.9161C85.1412 23.7811 82.8917 26.0306 82.8917 28.8055V37.6516C82.8917 40.4265 85.1412 42.676 87.9161 42.676H88.2613C91.0362 42.676 93.2857 40.4265 93.2857 37.6516V28.8055C93.2857 26.0306 91.0362 23.7811 88.2613 23.7811Z" fill="#DE9244"/>
<path d="M84.4585 41.5147L83.203 38.1789C82.8 37.2321 82.6516 36.1964 82.7724 35.1746L83.0235 32.9988C83.032 32.9258 83.0557 32.8553 83.0931 32.792C83.1304 32.7287 83.1807 32.6739 83.2405 32.6312C83.3004 32.5885 83.3685 32.5588 83.4406 32.5441C83.5126 32.5293 83.587 32.5298 83.6588 32.5456C83.7553 32.5666 83.8439 32.6144 83.9145 32.6835C83.9851 32.7525 84.0348 32.8401 84.058 32.936L84.6858 35.5637L85.3951 32.5506L86.643 29.1232C86.7018 28.9626 86.8196 28.8306 86.9725 28.754C87.1253 28.6775 87.3016 28.6622 87.4654 28.7114C87.6218 28.7584 87.7557 28.8608 87.8419 28.9995C87.9281 29.1382 87.9607 29.3036 87.9337 29.4647L87.3373 33.1457C87.3231 33.2337 87.3405 33.3238 87.3865 33.4001C87.4325 33.4764 87.504 33.534 87.5884 33.5625C87.68 33.5907 87.779 33.5829 87.8651 33.5407C87.9512 33.4985 88.0179 33.425 88.0517 33.3353L89.1527 30.336C89.1946 30.2217 89.2646 30.1197 89.3561 30.0394C89.4476 29.9591 89.5577 29.903 89.6765 29.8763C89.7953 29.8496 89.9188 29.8531 90.0359 29.8864C90.153 29.9198 90.2598 29.982 90.3467 30.0673L92.1169 31.8061C92.3047 31.9908 92.4425 32.2202 92.5172 32.4728C92.5918 32.7254 92.601 32.9928 92.5438 33.2499L91.7365 36.7175C91.5972 37.3148 91.3628 37.8858 91.0422 38.4086L87.6524 44.0005L84.4585 41.5147Z" fill="white"/>
<path d="M87.6612 44.3131C87.5917 44.3132 87.5242 44.2903 87.4691 44.2478L84.2664 41.7633C84.2204 41.7276 84.1852 41.6797 84.1647 41.6252L82.9206 38.2957C82.4977 37.3022 82.3406 36.2157 82.4648 35.1432L82.7159 32.9674C82.7387 32.7715 82.8298 32.5898 82.9731 32.4542C83.1164 32.3187 83.3029 32.2379 83.4998 32.2261C83.6968 32.2143 83.8916 32.2721 84.0501 32.3895C84.2086 32.507 84.3208 32.6764 84.3669 32.8683L84.6908 34.2129L85.0976 32.4841C85.1002 32.4722 85.1036 32.4604 85.1076 32.4489L86.3555 29.0215C86.4401 28.7924 86.6068 28.603 86.8233 28.4899C87.0398 28.3769 87.2905 28.3484 87.5268 28.4099C87.7631 28.4714 87.9681 28.6185 88.102 28.8227C88.2359 29.027 88.2891 29.2736 88.2513 29.5149L87.655 33.1959C87.6533 33.2104 87.6569 33.2249 87.6651 33.2369C87.6733 33.2489 87.6855 33.2576 87.6996 33.2612C87.7137 33.2649 87.7286 33.2634 87.7416 33.2569C87.7546 33.2504 87.7649 33.2395 87.7705 33.2261L88.8715 30.2267C88.9316 30.0634 89.0317 29.9178 89.1625 29.803C89.2934 29.6883 89.4509 29.6082 89.6207 29.57C89.7905 29.5318 89.9671 29.5367 90.1345 29.5843C90.3019 29.632 90.4547 29.7207 90.5789 29.8426L92.3492 31.5814C92.5758 31.8027 92.742 32.0783 92.8319 32.382C92.9218 32.6858 92.9324 33.0075 92.8627 33.3165L92.0541 36.7866C91.9075 37.4167 91.6603 38.0191 91.3222 38.5706L87.9324 44.1612C87.9043 44.2079 87.8645 44.2465 87.8169 44.2731C87.7694 44.2997 87.7157 44.3135 87.6612 44.3131ZM84.7209 41.3264L87.5759 43.541L90.7836 38.2505C91.087 37.756 91.3087 37.216 91.4402 36.651L92.2475 33.1834C92.2933 32.9787 92.286 32.7656 92.2262 32.5646C92.1665 32.3635 92.0562 32.181 91.906 32.0346L90.1358 30.2958C90.0863 30.2473 90.0255 30.2119 89.9589 30.193C89.8923 30.174 89.822 30.1721 89.7544 30.1873C89.6869 30.2026 89.6242 30.2345 89.5722 30.2802C89.5201 30.3259 89.4804 30.3839 89.4566 30.449L88.3568 33.442C88.2973 33.6019 88.1806 33.7339 88.0293 33.8126C87.878 33.8913 87.7028 33.9109 87.5378 33.8678C87.3728 33.8246 87.2297 33.7217 87.1363 33.579C87.0429 33.4363 87.0058 33.264 87.0322 33.0955L87.6286 29.4144C87.6522 29.3229 87.6385 29.2257 87.5905 29.1442C87.5425 29.0627 87.464 29.0037 87.3725 28.9801C87.2809 28.9564 87.1837 28.9701 87.1022 29.0181C87.0208 29.0662 86.9617 29.1446 86.9381 29.2362L85.6964 32.6473L84.9921 35.6416C84.976 35.7104 84.9371 35.7718 84.8817 35.8158C84.8263 35.8598 84.7577 35.8838 84.687 35.8839C84.6165 35.8838 84.548 35.86 84.4927 35.8163C84.4373 35.7726 84.3983 35.7115 84.3819 35.6428L83.7542 33.0151C83.7464 32.9813 83.7303 32.9498 83.7074 32.9236C83.6846 32.8974 83.6557 32.8772 83.6232 32.8648C83.5907 32.8524 83.5556 32.8482 83.5211 32.8525C83.4866 32.8568 83.4537 32.8696 83.4253 32.8896C83.401 32.9067 83.3806 32.9287 83.3654 32.9542C83.3503 32.9798 83.3407 33.0082 83.3374 33.0377L83.0863 35.2135C82.9743 36.1798 83.1162 37.1586 83.4981 38.0533V38.0659L84.7209 41.3264Z" fill="#262424"/>
<path d="M51.2927 50.4574C52.0284 48.2302 53.8752 45.708 56.7892 45.261C61.3089 45.8812 72.2315 47.7155 72.2315 47.7155C72.2315 47.7155 79.3977 43.1656 83.7416 40.1173L88.6028 43.3728C88.6028 43.3728 84.6757 49.0224 80.6733 54.613C79.6915 55.9815 78.7072 57.3135 77.7731 58.505C77.7731 58.505 75.9364 59.0386 73.0877 59.6111C68.3408 60.5652 60.7841 61.6273 54.233 60.5024C54.2318 60.51 48.9814 57.4516 51.2927 50.4574Z" fill="#DE9244"/>
<path d="M54.2318 60.8238C54.1762 60.8239 54.1216 60.8092 54.0736 60.7812C53.0813 60.1375 52.246 59.2794 51.6292 58.2702C50.66 56.7185 49.7623 54.0857 50.9952 50.3607C51.756 48.0569 53.3504 46.1938 55.2638 45.3765C55.3404 45.3432 55.427 45.3417 55.5047 45.3723C55.5824 45.4029 55.6448 45.4631 55.6781 45.5397C55.7114 45.6163 55.7129 45.703 55.6823 45.7807C55.6517 45.8584 55.5915 45.9207 55.5149 45.954C53.7685 46.7073 52.3059 48.4223 51.6003 50.5578C49.3945 57.2332 54.3485 60.2112 54.3988 60.2401C54.4584 60.2754 54.5047 60.3296 54.5304 60.394C54.556 60.4585 54.5596 60.5297 54.5405 60.5964C54.5214 60.6631 54.4808 60.7216 54.4249 60.7627C54.3691 60.8039 54.3011 60.8254 54.2318 60.8238Z" fill="#262424"/>
<path d="M87.2041 44.1747C87.2988 43.865 87.1244 43.5372 86.8147 43.4426C86.5051 43.348 86.1773 43.5223 86.0827 43.832C85.9881 44.1417 86.1624 44.4694 86.4721 44.5641C86.7818 44.6587 87.1095 44.4843 87.2041 44.1747Z" fill="white"/>
<path d="M86.6405 44.9007C86.5511 44.9004 86.4623 44.8869 86.3769 44.8605C86.2632 44.826 86.1574 44.7693 86.0658 44.6937C85.9741 44.6181 85.8983 44.5251 85.8427 44.42C85.7872 44.315 85.7529 44.2 85.7421 44.0817C85.7312 43.9633 85.7438 43.844 85.7793 43.7306C85.8291 43.572 85.922 43.4303 86.0474 43.3212C86.1729 43.2121 86.3262 43.1399 86.4902 43.1126C86.6542 43.0853 86.8226 43.1039 86.9766 43.1665C87.1307 43.229 87.2644 43.333 87.363 43.4669C87.4615 43.6008 87.5211 43.7594 87.535 43.9251C87.549 44.0908 87.5167 44.2571 87.4419 44.4056C87.3671 44.5541 87.2526 44.6789 87.1111 44.7663C86.9697 44.8537 86.8068 44.9002 86.6405 44.9007ZM86.3781 43.9202C86.3596 43.9804 86.3625 44.0452 86.3864 44.1035C86.4102 44.1619 86.4536 44.2101 86.5091 44.24C86.5645 44.27 86.6286 44.2798 86.6905 44.2678C86.7524 44.2557 86.8081 44.2226 86.8483 44.1741C86.8885 44.1256 86.9107 44.0646 86.9109 44.0016C86.9112 43.9385 86.8897 43.8774 86.8499 43.8285C86.8101 43.7796 86.7547 43.746 86.6929 43.7334C86.6311 43.7208 86.5669 43.73 86.5112 43.7595C86.4795 43.7761 86.4514 43.7989 86.4286 43.8265C86.4058 43.8541 86.3886 43.8859 86.3781 43.9202Z" fill="#262424"/>
<path d="M75.8899 54.8453C77.576 53.9476 79.4253 53.9099 80.677 54.6155C79.6953 55.984 78.711 57.316 77.7769 58.5075C77.7769 58.5075 75.9401 59.0411 73.0915 59.6136C72.691 57.9551 73.8234 55.9413 75.8899 54.8453Z" fill="white"/>
<path d="M75.9766 53.8899C75.923 53.89 75.8704 53.8765 75.8236 53.8506C75.7768 53.8246 75.7374 53.7872 75.7091 53.7417L72.3872 48.3947C72.3432 48.3239 72.3292 48.2386 72.3481 48.1575C72.3671 48.0764 72.4175 48.0061 72.4882 47.9622C72.559 47.9182 72.6443 47.9042 72.7254 47.9231C72.8065 47.9421 72.8768 47.9925 72.9207 48.0632L76.2427 53.4103C76.2722 53.4578 76.2885 53.5123 76.2899 53.5682C76.2913 53.6241 76.2777 53.6794 76.2506 53.7283C76.2235 53.7772 76.1837 53.818 76.1356 53.8464C76.0874 53.8748 76.0325 53.8898 75.9766 53.8899Z" fill="#262424"/>
<path d="M86.5012 45.9779C86.4354 45.978 86.3712 45.9573 86.3179 45.9189L81.9501 42.7702C81.9166 42.7461 81.8882 42.7157 81.8665 42.6806C81.8448 42.6456 81.8302 42.6066 81.8236 42.5659C81.8169 42.5252 81.8183 42.4836 81.8278 42.4435C81.8372 42.4033 81.8545 42.3655 81.8785 42.332C81.9026 42.2985 81.933 42.2701 81.9681 42.2484C82.0031 42.2267 82.0421 42.2121 82.0828 42.2055C82.1235 42.1988 82.1651 42.2003 82.2052 42.2097C82.2453 42.2191 82.2832 42.2364 82.3167 42.2604L86.687 45.4104C86.7406 45.4495 86.7804 45.5045 86.8008 45.5676C86.8211 45.6307 86.821 45.6987 86.8003 45.7617C86.7797 45.8247 86.7396 45.8796 86.6859 45.9184C86.6322 45.9572 86.5675 45.9781 86.5012 45.9779Z" fill="#262424"/>
<path d="M47.8088 93.4498C47.7362 93.4496 47.666 93.4243 47.61 93.3782C47.554 93.332 47.5157 93.2679 47.5016 93.1967C47.4876 93.1255 47.4986 93.0517 47.5329 92.9877C47.5671 92.9238 47.6225 92.8736 47.6895 92.8459C48.2136 92.6326 48.6621 92.2677 48.9777 91.7981C49.2933 91.3284 49.4615 90.7752 49.461 90.2094V87.716C49.461 87.6328 49.4941 87.553 49.5529 87.4941C49.6118 87.4352 49.6916 87.4022 49.7749 87.4022C49.8581 87.4022 49.9379 87.4352 49.9968 87.4941C50.0557 87.553 50.0887 87.6328 50.0887 87.716V90.2044C50.091 90.8959 49.8865 91.5724 49.5015 92.1469C49.1165 92.7213 48.5686 93.1676 47.9281 93.4284C47.8901 93.4432 47.8496 93.4505 47.8088 93.4498Z" fill="#262424"/>
<path d="M21.4728 25.8376C21.3895 25.8376 21.3097 25.8045 21.2508 25.7457C21.192 25.6868 21.1589 25.607 21.1589 25.5237V23.4045C21.1589 23.3213 21.192 23.2414 21.2508 23.1826C21.3097 23.1237 21.3895 23.0906 21.4728 23.0906C21.556 23.0906 21.6358 23.1237 21.6947 23.1826C21.7536 23.2414 21.7866 23.3213 21.7866 23.4045V25.5237C21.7866 25.607 21.7536 25.6868 21.6947 25.7457C21.6358 25.8045 21.556 25.8376 21.4728 25.8376Z" fill="#262424"/>
<path d="M24.6667 26.9148H22.55C22.4667 26.9148 22.3869 26.8817 22.328 26.8229C22.2692 26.764 22.2361 26.6842 22.2361 26.6009C22.2361 26.5177 22.2692 26.4379 22.328 26.379C22.3869 26.3201 22.4667 26.2871 22.55 26.2871H24.6667C24.7499 26.2871 24.8298 26.3201 24.8886 26.379C24.9475 26.4379 24.9806 26.5177 24.9806 26.6009C24.9806 26.6842 24.9475 26.764 24.8886 26.8229C24.8298 26.8817 24.7499 26.9148 24.6667 26.9148Z" fill="#262424"/>
<path d="M21.4728 30.1112C21.3895 30.1112 21.3097 30.0782 21.2508 30.0193C21.192 29.9604 21.1589 29.8806 21.1589 29.7974V27.6781C21.1589 27.5949 21.192 27.5151 21.2508 27.4562C21.3097 27.3973 21.3895 27.3643 21.4728 27.3643C21.556 27.3643 21.6358 27.3973 21.6947 27.4562C21.7536 27.5151 21.7866 27.5949 21.7866 27.6781V29.7974C21.7866 29.8806 21.7536 29.9604 21.6947 30.0193C21.6358 30.0782 21.556 30.1112 21.4728 30.1112Z" fill="#262424"/>
<path d="M20.3981 26.9148H18.2763C18.1931 26.9148 18.1133 26.8817 18.0544 26.8229C17.9955 26.764 17.9625 26.6842 17.9625 26.6009C17.9625 26.5177 17.9955 26.4379 18.0544 26.379C18.1133 26.3201 18.1931 26.2871 18.2763 26.2871H20.3981C20.4813 26.2871 20.5612 26.3201 20.62 26.379C20.6789 26.4379 20.7119 26.5177 20.7119 26.6009C20.7119 26.6842 20.6789 26.764 20.62 26.8229C20.5612 26.8817 20.4813 26.9148 20.3981 26.9148Z" fill="#262424"/>
<path d="M101.291 118.873C101.207 118.873 101.128 118.84 101.069 118.781C101.01 118.722 100.977 118.642 100.977 118.559V116.44C100.977 116.357 101.01 116.277 101.069 116.218C101.128 116.159 101.207 116.126 101.291 116.126C101.374 116.126 101.454 116.159 101.513 116.218C101.571 116.277 101.604 116.357 101.604 116.44V118.559C101.604 118.642 101.571 118.722 101.513 118.781C101.454 118.84 101.374 118.873 101.291 118.873Z" fill="#262424"/>
<path d="M104.487 119.95H102.368C102.285 119.95 102.205 119.917 102.146 119.858C102.087 119.8 102.054 119.72 102.054 119.636C102.054 119.553 102.087 119.473 102.146 119.414C102.205 119.356 102.285 119.323 102.368 119.323H104.487C104.57 119.323 104.65 119.356 104.709 119.414C104.768 119.473 104.801 119.553 104.801 119.636C104.801 119.72 104.768 119.8 104.709 119.858C104.65 119.917 104.57 119.95 104.487 119.95Z" fill="#262424"/>
<path d="M101.291 123.147C101.207 123.147 101.128 123.114 101.069 123.055C101.01 122.996 100.977 122.916 100.977 122.833V120.714C100.977 120.63 101.01 120.551 101.069 120.492C101.128 120.433 101.207 120.4 101.291 120.4C101.374 120.4 101.454 120.433 101.513 120.492C101.571 120.551 101.604 120.63 101.604 120.714V122.833C101.604 122.916 101.571 122.996 101.513 123.055C101.454 123.114 101.374 123.147 101.291 123.147Z" fill="#262424"/>
<path d="M100.213 119.95H98.0942C98.011 119.95 97.9311 119.917 97.8723 119.858C97.8134 119.8 97.7803 119.72 97.7803 119.636C97.7803 119.553 97.8134 119.473 97.8723 119.414C97.9311 119.356 98.011 119.323 98.0942 119.323H100.213C100.297 119.323 100.377 119.356 100.435 119.414C100.494 119.473 100.527 119.553 100.527 119.636C100.527 119.72 100.494 119.8 100.435 119.858C100.377 119.917 100.297 119.95 100.213 119.95Z" fill="#262424"/>
<path d="M151.9 127.012C153.038 127.012 153.96 126.09 153.96 124.952C153.96 123.814 153.038 122.892 151.9 122.892C150.762 122.892 149.84 123.814 149.84 124.952C149.84 126.09 150.762 127.012 151.9 127.012Z" fill="#DD9144"/>
<path d="M18.0014 122.041C18.9478 122.041 19.7151 121.273 19.7151 120.327C19.7151 119.38 18.9478 118.613 18.0014 118.613C17.0549 118.613 16.2877 119.38 16.2877 120.327C16.2877 121.273 17.0549 122.041 18.0014 122.041Z" fill="#DD9144"/>
</svg>
