<svg width="214" height="137" viewBox="0 0 214 137" fill="none" xmlns="http://www.w3.org/2000/svg">
<path opacity="0.5" d="M200.342 116.418C199.959 114.835 198.699 113.642 197.772 112.303C196.657 110.651 196.006 108.731 195.886 106.742C195.765 104.753 196.18 102.768 197.088 100.994C197.979 99.2977 199.377 97.5433 198.871 95.6909C198.532 94.4448 197.406 93.591 196.301 92.9223C192.1 90.3928 187.252 89.1461 182.353 89.3356C176.348 89.5808 170.362 91.9794 164.473 90.7912C158.737 89.6298 153.878 86.7542 147.877 86.4132C143.394 86.159 138.96 86.4444 134.468 85.954C123.37 84.75 112.19 84.4831 101.047 85.1559C89.9042 84.4832 78.7249 84.7501 67.6272 85.954C63.1466 86.4444 58.7106 86.159 54.2188 86.4132C48.2001 86.752 43.3517 89.6321 37.6139 90.7912C31.7222 91.9816 25.7392 89.5808 19.7338 89.3356C14.8343 89.1461 9.98628 90.3928 5.786 92.9223C4.67142 93.591 3.55684 94.4448 3.21578 95.6909C2.71199 97.5411 4.10744 99.2954 4.9991 100.994C5.9069 102.768 6.32265 104.752 6.20307 106.741C6.0835 108.73 5.43297 110.65 4.31921 112.303C3.39188 113.64 2.13241 114.835 1.749 116.418C0.977709 119.601 4.07178 122.405 7.09897 123.669C15.358 127.122 25.4026 125.452 32.9572 130.261C36.3432 132.418 39.3058 135.883 43.3183 136.012C46.0312 136.099 48.4988 134.592 50.8684 133.266C54.4144 131.28 58.1212 129.597 61.9495 128.234C65.2933 127.044 68.8354 126.09 72.3642 126.484C77.752 127.08 101.042 138.332 111.542 131.683C118.733 127.124 124.341 127.086 129.743 126.482C133.271 126.088 136.811 127.042 140.157 128.232C143.986 129.595 147.692 131.278 151.238 133.263C153.606 134.59 156.076 136.097 158.788 136.01C162.801 135.88 165.763 132.416 169.15 130.258C176.7 125.448 186.742 127.12 195.008 123.667C198.019 122.398 201.116 119.603 200.342 116.418Z" fill="url(#paint0_linear_8_237)"/>
<path d="M199.25 116.353C198.871 114.793 197.625 113.607 196.709 112.282C195.609 110.648 194.967 108.749 194.849 106.782C194.731 104.815 195.143 102.853 196.04 101.099C196.932 99.4203 198.305 97.686 197.805 95.8559C197.469 94.6231 196.356 93.7783 195.264 93.1185C191.11 90.6163 186.316 89.3828 181.47 89.5696C175.532 89.8104 169.613 92.1844 163.786 91.0074C158.111 89.8617 153.309 87.0128 147.364 86.6762C142.93 86.4265 138.537 86.7074 134.105 86.2304C123.129 85.0397 112.072 84.7758 101.051 85.4413C90.0305 84.7758 78.9735 85.0397 67.9972 86.2304C63.5657 86.7163 59.172 86.4332 54.7382 86.6762C48.7953 87.0106 43.9915 89.8594 38.316 91.0074C32.4913 92.1844 26.5706 89.8104 20.6322 89.5696C15.7865 89.3828 10.992 90.6163 6.83815 93.1185C5.74586 93.7872 4.63351 94.6231 4.29691 95.8559C3.79758 97.686 5.18857 99.4225 6.0624 101.099C6.95974 102.853 7.37097 104.815 7.25336 106.782C7.13576 108.749 6.49362 110.648 5.39366 112.282C4.47524 113.607 3.23137 114.786 2.85242 116.353C2.06999 119.5 5.13062 122.274 8.11991 123.513C16.2898 126.926 26.2229 125.274 33.6883 130.031C37.032 132.164 39.9678 135.593 43.9424 135.72C46.6174 135.807 49.0695 134.315 51.4101 133.002C54.9175 131.038 58.584 129.373 62.3708 128.025C65.6811 126.846 69.1809 125.903 72.6718 126.293C78.0217 126.89 101.049 138.011 111.423 131.435C118.537 126.928 124.083 126.89 129.424 126.293C132.915 125.903 136.417 126.846 139.725 128.025C143.512 129.373 147.178 131.038 150.685 133.002C153.028 134.313 155.469 135.805 158.153 135.72C162.121 135.593 165.052 132.167 168.407 130.031C175.875 125.274 185.808 126.926 193.976 123.513C196.954 122.274 200.014 119.5 199.25 116.353Z" fill="#6C63FF"/>
<path opacity="0.6" d="M8.7775 48.8675C9.41504 48.6446 10.0927 48.4328 10.7592 48.5488C11.8738 48.7427 12.6562 49.7993 12.9884 50.8849C13.3205 51.9705 13.3094 53.1141 13.5211 54.2286C13.7329 55.3432 14.2389 56.4957 15.2376 57.0285C16.2363 57.5612 17.4155 57.3517 18.5234 57.2224C19.9765 57.0548 21.4433 57.0414 22.8992 57.1823C24.1208 57.3004 25.5564 57.7128 25.9152 58.8876C26.2095 59.8461 25.6255 60.8247 25.2465 61.7498C24.5198 63.4796 24.4618 65.5238 25.2933 67.2045C26.1248 68.8853 27.81 70.1381 28.5144 71.9125C28.7185 72.3563 28.7778 72.8531 28.6839 73.3325C28.5797 73.6682 28.4083 73.9791 28.1801 74.2464C27.6272 74.9575 26.9674 75.5839 26.4636 76.3329C25.4137 77.8933 25.1261 79.8327 25.0057 81.7074C24.8857 83.5509 24.8961 85.4005 25.037 87.2424C23.6683 86.7966 22.1569 87.1934 20.7458 86.9014C17.7432 86.2817 15.8684 82.7284 12.81 82.5122C11.3633 82.4096 9.80737 83.0917 8.51669 82.4297C7.90008 82.0744 7.41754 81.526 7.14353 80.8693C6.59802 79.7068 6.47351 78.3908 6.79133 77.1466C7.01424 76.2861 7.46007 75.4435 7.37314 74.5585C7.29957 73.8006 6.84483 73.1319 6.32321 72.5768C4.83636 70.9986 2.67854 70.0333 1.61077 68.1453C1.12514 67.2484 0.922497 66.2255 1.02953 65.2112C1.13657 64.1969 1.54827 63.2389 2.21041 62.4631C2.59151 62.0911 2.95241 61.699 3.29156 61.2884C3.80426 60.5661 3.9603 59.6544 4.0294 58.7694C4.17653 56.6495 3.80649 54.4047 4.49976 52.345C5.12169 50.4814 7.02093 49.4917 8.7775 48.8675Z" fill="#6C63FF"/>
<path opacity="0.6" d="M8.80872 48.9299C8.80872 48.9299 14.8965 82.7395 22.8011 86.7721" stroke="#535461" stroke-width="0.222915" stroke-miterlimit="10"/>
<path opacity="0.6" d="M25.7458 58.2879C25.7458 58.2879 19.2256 59.1796 12.712 65.8782" stroke="#535461" stroke-width="0.222915" stroke-miterlimit="10"/>
<path opacity="0.6" d="M13.8578 69.806C13.8578 69.806 8.83994 64.9018 1 65.7333" stroke="#535461" stroke-width="0.222915" stroke-miterlimit="10"/>
<path opacity="0.6" d="M28.617 71.9393C28.617 71.9393 19.4596 72.7172 16.0691 76.2326" stroke="#535461" stroke-width="0.222915" stroke-miterlimit="10"/>
<path opacity="0.6" d="M17.44 79.5072C17.44 79.5072 12.3129 78.6156 7.58044 81.6361" stroke="#535461" stroke-width="0.222915" stroke-miterlimit="10"/>
<path opacity="0.6" d="M197.25 22.3094C196.227 21.946 195.142 21.6139 194.074 21.7989C192.29 22.111 191.033 23.8051 190.507 25.5417C189.981 27.2782 189.992 29.1306 189.653 30.9139C189.315 32.6972 188.503 34.5452 186.903 35.4012C185.302 36.2572 183.412 35.9184 181.635 35.7133C179.308 35.442 176.959 35.4173 174.627 35.6397C172.667 35.8292 170.369 36.4913 169.794 38.3727C169.323 39.9108 170.257 41.4756 170.882 42.958C172.047 45.7289 172.141 49.008 170.806 51.703C169.448 54.4449 166.771 56.4065 165.643 59.2487C165.358 59.9709 165.177 60.7712 165.371 61.5224C165.538 62.0613 165.814 62.5603 166.18 62.9892C167.072 64.1305 168.124 65.1359 168.931 66.3329C170.614 68.8296 171.071 71.9415 171.267 74.9464C171.46 77.9005 171.444 80.8644 171.218 83.8162C173.412 83.094 175.837 83.7382 178.097 83.2723C182.91 82.2803 185.915 76.5848 190.817 76.2371C193.135 76.0744 195.63 77.1644 197.698 76.1033C198.706 75.5862 199.422 74.6209 199.901 73.5933C200.761 71.7306 200.949 69.6274 200.434 67.6415C200.07 66.2616 199.364 64.913 199.502 63.493C199.62 62.2781 200.347 61.2059 201.185 60.3187C203.568 57.7886 207.027 56.2416 208.739 53.2166C210.344 50.3811 209.939 46.5447 207.779 44.1083C207.212 43.4685 206.539 42.9201 206.044 42.2246C205.222 41.0677 204.959 39.6054 204.861 38.1876C204.627 34.7882 205.204 31.1926 204.105 27.8912C203.102 24.8863 200.059 23.2969 197.25 22.3094Z" fill="#6C63FF"/>
<path opacity="0.6" d="M197.192 22.3985C197.192 22.3985 187.435 76.5915 174.763 83.0538" stroke="#535461" stroke-width="0.222915" stroke-miterlimit="10"/>
<path opacity="0.6" d="M170.043 37.3985C170.043 37.3985 180.494 38.8341 190.935 49.5675" stroke="#535461" stroke-width="0.222915" stroke-miterlimit="10"/>
<path opacity="0.6" d="M189.098 55.8604C189.098 55.8604 197.143 47.9937 209.707 49.3312" stroke="#535461" stroke-width="0.222915" stroke-miterlimit="10"/>
<path opacity="0.6" d="M165.454 59.2799C165.454 59.2799 180.13 60.526 185.565 66.1635" stroke="#535461" stroke-width="0.222915" stroke-miterlimit="10"/>
<path opacity="0.6" d="M183.358 71.411C183.358 71.411 191.582 69.9709 199.163 74.8216" stroke="#535461" stroke-width="0.222915" stroke-miterlimit="10"/>
<path d="M17.6874 0V5.57066V110.388H179.731V5.57066V0H17.6874Z" fill="url(#paint1_linear_8_237)"/>
<path d="M178.015 5.00891H20.0905V108.39H178.015V5.00891Z" fill="white"/>
<path d="M178.015 0.0913953H20.0905V7.69727H178.015V0.0913953Z" fill="#EEEEEE"/>
<path d="M26.1003 5.62193C27.1184 5.62193 27.9438 4.79656 27.9438 3.77842C27.9438 2.76027 27.1184 1.93491 26.1003 1.93491C25.0821 1.93491 24.2568 2.76027 24.2568 3.77842C24.2568 4.79656 25.0821 5.62193 26.1003 5.62193Z" fill="#FF5252"/>
<path d="M31.1716 5.62193C32.1897 5.62193 33.0151 4.79656 33.0151 3.77842C33.0151 2.76027 32.1897 1.93491 31.1716 1.93491C30.1534 1.93491 29.3281 2.76027 29.3281 3.77842C29.3281 4.79656 30.1534 5.62193 31.1716 5.62193Z" fill="#FFFF00"/>
<path d="M36.2429 5.62193C37.2611 5.62193 38.0864 4.79656 38.0864 3.77842C38.0864 2.76027 37.2611 1.93491 36.2429 1.93491C35.2248 1.93491 34.3994 2.76027 34.3994 3.77842C34.3994 4.79656 35.2248 5.62193 36.2429 5.62193Z" fill="#69F0AE"/>
<path opacity="0.5" d="M84.9923 19.8796H26.1426V22.3317H84.9923V19.8796Z" fill="#6C63FF"/>
<path opacity="0.5" d="M84.9923 24.7837H26.1426V27.2358H84.9923V24.7837Z" fill="#6C63FF"/>
<path opacity="0.5" d="M84.9923 29.6879H26.1426V32.1399H84.9923V29.6879Z" fill="#6C63FF"/>
<path opacity="0.5" d="M84.9923 34.592H46.4279V37.0441H84.9923V34.592Z" fill="#6C63FF"/>
<path opacity="0.5" d="M57.1279 39.4962H26.1426V41.9482H57.1279V39.4962Z" fill="#6C63FF"/>
<path opacity="0.5" d="M66.7132 44.4003H42.8613V46.8524H66.7132V44.4003Z" fill="#6C63FF"/>
<path opacity="0.5" d="M162.121 37.0441H92.7944V76.9459H162.121V37.0441Z" fill="#6C63FF"/>
<path d="M170.369 40.8336H101.042V80.7355H170.369V40.8336Z" fill="#EEEEEE"/>
<path opacity="0.5" d="M212.05 77.6459C212.194 77.4619 212.272 77.2352 212.273 77.0017C212.273 77.0017 212.273 76.9883 212.273 76.9838C212.273 76.9794 212.286 76.937 212.293 76.9147V76.8858C212.294 76.8642 212.294 76.8427 212.293 76.8211C212.293 76.8211 212.293 76.8033 212.293 76.7944C212.295 76.7677 212.295 76.7408 212.293 76.7141C212.161 75.8225 206.862 70.0133 205.538 62.9268C205.392 62.1553 205.173 61.3992 204.885 60.6687C204.926 60.3032 204.902 59.9334 204.814 59.5764C204.591 58.6691 204.145 57.7485 204.368 56.8434C204.399 56.7251 204.44 56.6095 204.491 56.4979C204.768 56.0894 205.024 55.666 205.255 55.2295C205.341 55.0872 205.416 54.9381 205.478 54.7837C206.292 52.6392 203.773 50.4257 204.236 48.1876C204.437 47.2179 205.188 46.3709 205.168 45.3834C205.144 44.2532 204.105 43.3771 203.026 42.958C201.947 42.539 200.759 42.4186 199.7 41.9505C197.38 40.9228 196.109 38.4418 193.991 37.0619C191.301 35.312 187.79 35.6241 184.564 36.0766C184.458 36.0922 184.357 36.1337 184.271 36.1975C184.185 36.2613 184.115 36.3453 184.069 36.4422H184.038C184.014 36.5135 183.985 36.5827 183.953 36.6518C183.508 37.4119 182.756 37.9893 182.014 38.522C181.109 39.1596 180.139 39.7882 179.586 40.7333C179.504 40.8738 179.435 41.0075 179.375 41.1368C178.171 43.2835 179.618 44.2108 181.381 44.7258C181.328 45.0328 181.301 45.3438 181.301 45.6553C181.301 48.7761 183.911 51.3241 187.128 51.3241C187.382 51.3237 187.636 51.3073 187.888 51.275L188.075 51.3976H188.117C188.715 51.8278 189.232 52.3673 189.455 53.0093L187.587 54.4359C187.587 54.4359 187.663 54.6321 187.774 54.9442L180.431 58.3281C177.649 58.4573 173.146 49.6945 173.146 49.6945C173.146 49.6945 172.478 44.67 170.099 43.7672C169.381 43.4953 169.096 44.0637 169.047 44.991C167.984 46.1056 169.769 52.3651 169.769 52.3651L175.465 62.4163C175.995 63.4462 176.134 64.0904 178.644 64.4783C180.71 64.7948 187.148 62.5077 189.388 61.6785L189.493 62.5701C189.232 63.2499 189.117 63.9765 189.154 64.7034C189.154 66.3463 189.887 68.736 193.467 70.6397C193.467 70.6397 197.163 75.4168 196.753 79.9263C196.753 79.9263 196.932 80.1136 197.217 80.3588C197.177 81.6294 196.994 83.1965 196.354 83.8073C196.312 83.8471 196.28 83.8971 196.263 83.9525C196.245 84.0079 196.242 84.0669 196.254 84.1238C196.24 84.1905 196.248 84.2598 196.276 84.3219C196.304 84.3839 196.351 84.4355 196.41 84.4693L191.744 92.6392C191.57 92.8621 191.394 93.085 191.214 93.3079C190.348 94.412 189.386 95.4376 188.34 96.373C187.562 97.0663 186.753 97.8242 186.593 98.1073C186.345 98.5532 185.723 99.991 185.986 101.179C186.327 102.62 186.466 104.101 186.401 105.579L185.797 116.148C185.594 117.328 185.315 118.493 184.961 119.636H184.87C184.87 119.636 182.618 122.343 179.043 122.98C175.467 123.618 175.599 125.432 176.657 125.686C177.716 125.941 190.565 125.428 190.565 125.428C190.565 125.428 191.051 124.48 190.917 123.616C195.019 123.221 200.701 122.552 200.701 122.552C200.701 122.552 201.479 120.682 200.349 119.866C199.923 119.539 199.608 119.091 199.444 118.58C199.377 118.295 199.303 117.969 199.232 117.628C199.214 117.461 199.214 117.358 199.214 117.358H199.176C198.978 116.362 198.82 115.294 198.911 114.735C199.243 113.252 200.104 104.683 197.984 102.236C197.021 101.121 197.152 99.855 197.58 98.7984C200.124 97.1332 203.681 93.5509 205.739 91.3842C205.855 91.48 205.962 91.5759 206.062 91.6717L206.129 91.7364C206.129 91.7364 213.131 88.2701 213.16 82.151C213.171 80.5803 212.789 79.0317 212.05 77.6459ZM189.622 120.811C189.61 120.588 189.618 120.364 189.647 120.143L189.424 120.118C189.553 119.146 189.87 118.058 190.578 117.307C191.796 115.102 192.656 112.719 193.129 110.245L194.415 115.111C194.415 115.111 194.544 116.119 194.58 117.184H194.557C194.557 117.184 192.763 119.746 189.622 120.811Z" fill="url(#paint2_linear_8_237)"/>
<path d="M195.436 57.7841C195.436 57.7841 192.29 58.9166 190.532 60.8046C190.532 60.8046 181.974 64.2019 179.582 63.8251C177.19 63.4484 177.065 62.8176 176.562 61.8189L171.149 52.0106C171.149 52.0106 168.884 43.8296 171.149 44.7101C173.414 45.5907 174.047 50.5059 174.047 50.5059C174.047 50.5059 178.327 59.0637 180.969 58.9388L188.135 55.5238C188.135 55.5238 189.771 53.1319 190.527 53.259C191.283 53.386 195.436 57.7841 195.436 57.7841Z" fill="#FDB797"/>
<g opacity="0.05">
<path d="M195.436 57.7841C195.436 57.7841 192.29 58.9166 190.532 60.8046C190.532 60.8046 181.974 64.2019 179.582 63.8251C177.19 63.4484 177.065 62.8176 176.562 61.8189L171.149 52.0106C171.149 52.0106 168.884 43.8296 171.149 44.7101C173.414 45.5907 174.047 50.5059 174.047 50.5059C174.047 50.5059 178.327 59.0637 180.969 58.9388L188.135 55.5238C188.135 55.5238 189.771 53.1319 190.527 53.259C191.283 53.386 195.436 57.7841 195.436 57.7841Z" fill="black"/>
</g>
<path d="M190.269 53.1453L187.759 55.1158C187.759 55.1158 189.014 58.3994 188.699 59.5496C188.385 60.6999 193.719 57.744 193.719 57.744L191.524 52.8176L190.269 53.1453Z" fill="#F9CE43"/>
<g opacity="0.05">
<path d="M190.269 53.1453L187.759 55.1158C187.759 55.1158 189.014 58.3994 188.699 59.5496C188.385 60.6999 193.719 57.744 193.719 57.744L191.524 52.8176L190.269 53.1453Z" fill="black"/>
</g>
<path d="M185.935 50.9518C185.935 50.9518 191.535 52.7775 188.956 55.9852L197.01 52.0842C197.01 52.0842 193.612 52.3361 191.472 47.1801L185.935 50.9518Z" fill="#FDB797"/>
<path d="M196.506 83.8006L189.584 96.2593L194.243 114.373C194.243 114.373 194.747 118.402 193.991 118.778H199.277C199.277 118.778 198.258 115.212 198.521 113.997C198.835 112.55 199.653 104.188 197.629 101.79C195.605 99.3913 198.637 96.2527 198.637 96.2527L204.678 86.6873L196.506 83.8006Z" fill="#FDB797"/>
<g opacity="0.05">
<path d="M196.506 83.8006L189.584 96.2593L194.243 114.373C194.243 114.373 194.747 118.402 193.991 118.778H199.277C199.277 118.778 198.334 115.192 198.521 113.997C198.708 112.802 199.653 104.188 197.629 101.79C195.605 99.3913 198.637 96.2527 198.637 96.2527L204.678 86.6873L196.506 83.8006Z" fill="black"/>
</g>
<path d="M194.377 116.406C194.377 116.406 192.46 119.231 189.116 120.127C185.772 121.023 186.044 122.771 187.068 122.94C188.091 123.11 200.22 121.64 200.22 121.64C200.22 121.64 200.957 119.815 199.885 119.017C198.813 118.219 198.806 116.565 198.806 116.565L194.377 116.406Z" fill="#0D134D"/>
<g opacity="0.1">
<path d="M196.885 78.7649C196.885 78.7649 197.183 82.8577 196.093 83.9321C196.055 83.9677 196.026 84.0119 196.008 84.061C195.991 84.1101 195.985 84.1627 195.991 84.2145C195.998 84.2663 196.016 84.3158 196.046 84.3589C196.075 84.402 196.114 84.4376 196.16 84.4627L199.401 86.1903L202.299 80.653L196.885 78.7649Z" fill="black"/>
</g>
<path d="M196.885 78.6401C196.885 78.6401 197.183 82.7328 196.093 83.8073C196.055 83.8429 196.026 83.8871 196.008 83.9362C195.991 83.9853 195.985 84.0379 195.991 84.0896C195.998 84.1414 196.016 84.1909 196.046 84.2341C196.075 84.2772 196.114 84.3128 196.16 84.3378L199.401 86.0654L202.299 80.5282L196.885 78.6401Z" fill="#E23553"/>
<g opacity="0.1">
<path d="M196.885 78.863C196.885 78.863 197.183 82.9557 196.093 84.0302C196.055 84.0658 196.026 84.11 196.008 84.1591C195.991 84.2082 195.985 84.2608 195.991 84.3126C195.998 84.3643 196.016 84.4138 196.046 84.457C196.075 84.5001 196.114 84.5357 196.16 84.5607L199.401 86.2883L202.299 80.7511L196.885 78.863Z" fill="black"/>
</g>
<path d="M197.01 86.694C197.01 86.694 195.139 87.9424 191.214 93.0806C190.393 94.1565 189.479 95.1583 188.483 96.0743C187.745 96.7431 186.976 97.4921 186.822 97.7685C186.586 98.1943 185.995 99.6098 186.247 100.769C186.571 102.177 186.704 103.623 186.642 105.067L186.069 115.39C186.069 115.39 185.313 120.047 184.308 120.55L189.468 121.442C189.468 121.442 189.092 118.17 190.601 116.538C190.601 116.538 194.125 110.497 193.245 103.7C193.245 103.7 192.868 100.68 196.265 99.0436C199.662 97.4074 206.586 89.4783 206.586 89.4783L197.01 86.694Z" fill="#FDB797"/>
<path d="M185.179 118.787C185.179 118.787 183.039 121.431 179.642 122.06C176.245 122.688 176.37 124.451 177.377 124.703C178.385 124.955 190.592 124.451 190.592 124.451C190.592 124.451 191.483 122.69 190.467 121.808C189.45 120.925 189.711 119.291 189.711 119.291L185.179 118.787Z" fill="#0D134D"/>
<g opacity="0.1">
<path d="M200.157 80.0244C200.157 80.0244 198.621 85.1827 196.675 86.6851C196.639 86.7121 196.611 86.7484 196.594 86.79C196.577 86.8317 196.571 86.8772 196.578 86.9218C196.584 86.9663 196.603 87.0083 196.632 87.0431C196.66 87.078 196.697 87.1045 196.74 87.1198C198.349 87.7061 203.521 89.6811 205.318 91.4778L205.38 91.5402C205.38 91.5402 216.14 86.0654 210.351 76.752L200.157 80.0244Z" fill="black"/>
</g>
<path d="M200.157 79.8996C200.157 79.8996 198.621 85.0578 196.675 86.5603C196.639 86.5873 196.611 86.6235 196.594 86.6652C196.577 86.7068 196.571 86.7524 196.578 86.7969C196.584 86.8415 196.603 86.8834 196.632 86.9183C196.66 86.9531 196.697 86.9797 196.74 86.995C198.349 87.5812 203.521 89.5563 205.318 91.353L205.38 91.4154C205.38 91.4154 216.14 85.9406 210.351 76.6272L200.157 79.8996Z" fill="#E23553"/>
<g opacity="0.1">
<path d="M191.321 54.3223C190.521 54.8602 189.647 55.2777 188.726 55.5617L189.591 63.259C189.591 63.259 187.569 67.7841 193.352 70.9451C193.352 70.9451 196.862 75.6107 196.472 80.0155C196.472 80.0155 198.356 82.0351 199.615 81.5336C200.875 81.032 199.74 81.7854 199.992 81.6606C200.244 81.5358 200.746 82.6704 204.649 81.6718C208.552 80.6731 211.336 78.0405 211.205 77.1577C211.073 76.275 206.062 70.5996 204.82 63.6736C203.579 56.7476 196.167 51.8212 196.167 51.8212C196.167 51.8212 195.922 51.9571 195.498 52.1377C194.049 52.7525 192.652 53.4831 191.321 54.3223Z" fill="black"/>
</g>
<g opacity="0.1">
<path d="M196.577 86.7319C196.573 86.786 196.586 86.8401 196.615 86.8857C196.645 86.9312 196.689 86.9658 196.74 86.9838C198.126 87.4898 202.157 89.0257 204.395 90.5906C202.458 89.0257 198.336 87.4007 196.577 86.7319Z" fill="black"/>
<path d="M210.351 76.6272L210.128 76.703C215.075 85.3499 205.759 90.5728 204.945 91.0075C205.086 91.1234 205.213 91.2304 205.329 91.353L205.391 91.4154C205.391 91.4154 216.14 85.9406 210.351 76.6272Z" fill="black"/>
</g>
<path d="M204.687 81.4087C200.786 82.4163 200.282 81.2839 200.03 81.4087C199.778 81.5336 200.922 80.7801 199.653 81.2839C198.385 81.7877 196.508 79.7725 196.508 79.7725C196.526 79.5496 196.535 79.3423 196.535 79.1261C196.548 74.9174 193.352 70.711 193.352 70.711C187.556 67.5657 189.575 63.0338 189.575 63.0338L189.339 60.9696L188.69 55.3388C189.61 55.0532 190.483 54.6341 191.281 54.0949C192.61 53.2536 194.005 52.52 195.451 51.9014C195.877 51.7186 196.12 51.5826 196.12 51.5826C196.12 51.5826 203.545 56.4868 204.814 63.4128C206.082 70.3387 211.107 75.9986 211.232 76.8791C211.356 77.7596 208.588 80.4011 204.687 81.4087Z" fill="#F9CE43"/>
<g opacity="0.1">
<path d="M191.597 47.3027L186.06 51.0788C186.823 51.3436 187.549 51.7055 188.22 52.1555C190.106 51.8903 191.261 50.5394 192.039 48.8764C191.735 48.3905 191.869 47.9558 191.597 47.3027Z" fill="black"/>
</g>
<path d="M187.319 52.0864C190.378 52.0864 192.857 49.6073 192.857 46.5492C192.857 43.4911 190.378 41.012 187.319 41.012C184.261 41.012 181.782 43.4911 181.782 46.5492C181.782 49.6073 184.261 52.0864 187.319 52.0864Z" fill="#FDB797"/>
<g opacity="0.1">
<path d="M205.567 80.7801C201.666 81.7877 201.162 80.6553 200.911 80.7801C200.659 80.9049 201.802 80.1515 200.534 80.6553C199.265 81.1591 197.388 79.1439 197.388 79.1439C197.406 78.921 197.415 78.7137 197.415 78.4974C197.431 74.2955 194.241 70.0824 194.241 70.0824C188.445 66.9371 190.465 62.4052 190.465 62.4052L190.231 60.3388L189.618 55.0088C189.321 55.1423 189.015 55.2519 188.701 55.3365L189.339 60.9696L189.578 63.0338C189.578 63.0338 187.571 67.5657 193.354 70.711C193.354 70.711 196.544 74.9241 196.528 79.1261C196.528 79.349 196.528 79.5563 196.501 79.7725C196.501 79.7725 198.389 81.7788 199.647 81.2839C200.904 80.789 199.771 81.5358 200.023 81.4087C200.275 81.2817 200.779 82.4163 204.68 81.4087C206.45 80.9508 208.108 80.1386 209.555 79.0213C208.328 79.8163 206.982 80.4101 205.567 80.7801Z" fill="black"/>
</g>
<path d="M195.121 58.8809C195.121 58.8809 191.976 60.0133 190.217 61.9014C190.217 61.9014 181.66 65.2986 179.268 64.9219C176.876 64.5452 176.751 63.9143 176.247 62.9157L170.835 53.1074C170.835 53.1074 168.57 44.9264 170.835 45.8069C173.1 46.6874 173.733 51.6027 173.733 51.6027C173.733 51.6027 178.013 60.1604 180.654 60.0356L187.823 56.6161C187.823 56.6161 189.459 54.2242 190.215 54.3512C190.971 54.4783 195.121 58.8809 195.121 58.8809Z" fill="#FDB797"/>
<g opacity="0.1">
<path d="M190.873 54.2732C190.873 54.2732 188.262 54.0347 187.507 57.3071C186.751 60.5795 193.302 62.5924 193.302 62.5924L196.827 57.6883L190.873 54.2732Z" fill="black"/>
</g>
<path d="M191 54.2732C191 54.2732 188.389 54.0347 187.634 57.3071C186.878 60.5795 193.43 62.5924 193.43 62.5924L196.954 57.6883L191 54.2732Z" fill="#F9CE43"/>
<g opacity="0.1">
<path d="M189.934 54.855C189.539 55.0541 189.126 55.2139 188.699 55.3321L188.722 55.5215C189.137 55.321 189.542 55.0986 189.934 54.855Z" fill="black"/>
<path d="M211.232 76.8791C211.107 75.9874 206.071 70.3343 204.814 63.4128C203.557 56.4912 196.12 51.5826 196.12 51.5826C196.12 51.5826 195.875 51.7186 195.451 51.9014C194.32 52.3873 193.22 52.9419 192.157 53.5621C192.863 53.1906 193.583 52.8473 194.319 52.5322C194.745 52.3495 194.988 52.2135 194.988 52.2135C194.988 52.2135 202.413 57.1176 203.681 64.0436C204.95 70.9696 209.974 76.6294 210.099 77.5099C210.179 78.065 209.107 79.32 207.326 80.4257C209.771 79.2108 211.327 77.5434 211.232 76.8791Z" fill="black"/>
</g>
<path opacity="0.1" d="M192.495 54.3245C192.495 54.3245 195.75 55.9362 196.363 59.0347" stroke="black" stroke-width="0.222915" stroke-miterlimit="10"/>
<g opacity="0.1">
<path d="M184.537 46.2371C185.057 46.353 185.636 46.5158 185.893 46.9817C186.078 47.3205 186.044 47.7463 186.225 48.0962C186.689 48.9701 188.048 48.6691 188.9 49.1818C190.46 50.1225 189.442 53.0561 190.995 54.0013C191.287 54.1796 191.633 54.2509 191.934 54.4137C193.247 55.1314 193.062 57.0307 192.825 58.5086C192.589 59.9865 192.87 62.0084 194.352 62.2179C195.168 62.3316 196.084 61.7922 196.771 62.2447C197.13 62.481 197.293 62.9134 197.594 63.2277C197.8 63.4339 198.063 63.5752 198.349 63.6342C198.635 63.6932 198.932 63.6674 199.203 63.5599C199.707 63.3503 200.07 62.8711 200.594 62.7173C201.437 62.4698 202.377 63.1519 203.189 62.8376C204 62.5233 204.185 61.3508 203.976 60.4658C203.766 59.5808 203.338 58.6825 203.561 57.7908C203.746 57.0552 204.348 56.4935 204.611 55.7846C205.382 53.6914 202.99 51.5291 203.432 49.3423C203.623 48.3949 204.337 47.559 204.323 46.6027C204.301 45.4881 203.314 44.6433 202.286 44.2331C201.258 43.8229 200.13 43.707 199.125 43.2501C196.92 42.2469 195.714 39.8216 193.699 38.4752C192.797 37.8862 191.779 37.4956 190.714 37.3294C189.34 37.1082 187.935 37.1827 186.592 37.5479C185.248 37.913 183.999 38.5605 182.926 39.4471C182.727 39.6076 182.525 39.7592 182.319 39.9063C181.459 40.5283 180.536 41.1413 180.012 42.0641C178.1 45.3945 182.493 45.7757 184.537 46.2371Z" fill="black"/>
</g>
<path d="M184.693 45.9228C185.213 46.0387 185.792 46.2015 186.049 46.6673C186.234 47.0062 186.2 47.4319 186.381 47.7819C186.845 48.6558 188.204 48.3548 189.056 48.8675C190.616 49.8082 189.598 52.7418 191.151 53.687C191.443 53.8653 191.789 53.9366 192.09 54.0993C193.403 54.8171 193.218 56.7164 192.981 58.1943C192.745 59.6722 193.026 61.6941 194.508 61.9036C195.324 62.0173 196.241 61.4778 196.927 61.9304C197.286 62.1667 197.449 62.5991 197.75 62.9134C197.956 63.1196 198.219 63.2609 198.505 63.3199C198.791 63.3789 199.088 63.3531 199.359 63.2456C199.863 63.036 200.226 62.5568 200.75 62.4029C201.593 62.1555 202.533 62.8376 203.345 62.5233C204.156 62.209 204.341 61.0365 204.132 60.1515C203.922 59.2665 203.494 58.3682 203.717 57.4765C203.902 56.7409 204.504 56.1792 204.767 55.4703C205.538 53.3771 203.146 51.2148 203.588 49.028C203.78 48.0806 204.493 47.2447 204.479 46.2884C204.457 45.1738 203.47 44.329 202.442 43.9188C201.414 43.5086 200.286 43.3927 199.281 42.9357C197.076 41.9326 195.87 39.5073 193.855 38.1609C193.037 37.6234 192.12 37.2523 191.158 37.0686C189.742 36.7969 188.283 36.8414 186.885 37.199C185.488 37.5566 184.187 38.2185 183.075 39.1373C182.879 39.2955 182.676 39.4471 182.475 39.5831C181.615 40.205 180.692 40.818 180.168 41.7409C178.256 45.0802 182.652 45.4636 184.693 45.9228Z" fill="#6C63FF"/>
<path d="M139.83 80.7355H101.042V73.4261C110.518 68.9968 125.099 66.509 139.83 80.7355Z" fill="#6C63FF"/>
<g opacity="0.1">
<path d="M169.923 79.69V80.7355H121.55V80.5126C121.55 80.5126 145.353 57.3361 169.923 79.69Z" fill="black"/>
</g>
<path d="M170.369 79.69V80.7355H121.996V80.5126C121.996 80.5126 145.799 57.3361 170.369 79.69Z" fill="#6C63FF"/>
<path d="M109.067 51.5336C111.037 51.5336 112.634 49.9367 112.634 47.9669C112.634 45.9971 111.037 44.4003 109.067 44.4003C107.097 44.4003 105.501 45.9971 105.501 47.9669C105.501 49.9367 107.097 51.5336 109.067 51.5336Z" fill="#6C63FF"/>
<path d="M139.433 45.2697C139.025 45.2697 138.57 45.2697 138.26 45.2942C138.122 45.3018 137.985 45.3296 137.854 45.3767L135.757 46.1301C137.451 46.1725 139.219 46.1591 140.955 46.1457L150.692 46.0699C151.686 46.0699 152.73 46.0521 153.557 45.9941C154.112 45.954 154.52 45.8961 155.032 45.8515C156.876 45.6865 159.562 45.7177 161.963 45.7266C164.364 45.7356 167.261 45.6731 168.106 45.4324H162.953C162.397 45.4324 161.813 45.4324 161.323 45.4056C160.75 45.3722 160.4 45.3098 159.896 45.2652C159.063 45.1939 157.912 45.185 156.842 45.1805C150.969 45.156 145.168 45.2942 139.433 45.2697Z" fill="#F4F4F4"/>
<path d="M145.202 49.5898C145.113 49.5898 145.015 49.5898 144.948 49.5898C144.917 49.5913 144.887 49.5973 144.858 49.6076L144.413 49.7703C144.78 49.7703 145.162 49.7703 145.538 49.7703L147.647 49.7547C147.87 49.7547 148.093 49.7547 148.267 49.7391C148.387 49.7391 148.476 49.7168 148.586 49.7079C148.985 49.6722 149.566 49.6789 150.088 49.6812C150.535 49.6962 150.982 49.6746 151.426 49.6165H150.311C150.191 49.6165 150.064 49.6165 149.959 49.6165C149.854 49.6165 149.758 49.5965 149.649 49.5853C149.468 49.5697 149.219 49.5675 148.98 49.5675C147.71 49.5675 146.452 49.5965 145.202 49.5898Z" fill="#F4F4F4"/>
<path d="M130.266 55.8314C130.177 55.8314 130.079 55.8314 130.012 55.8314C129.982 55.8329 129.952 55.8389 129.923 55.8492L129.477 56.012C129.845 56.012 130.226 56.012 130.603 56.012L132.712 55.9964C132.935 55.9964 133.158 55.9964 133.332 55.9807C133.452 55.9807 133.541 55.9585 133.65 55.9495C134.049 55.9139 134.631 55.9206 135.153 55.9228C135.6 55.9378 136.047 55.9162 136.49 55.8581H135.376C135.255 55.8581 135.128 55.8581 135.023 55.8581C134.919 55.8581 134.823 55.8381 134.714 55.8269C134.533 55.8113 134.283 55.8091 134.045 55.8091C132.774 55.8091 131.517 55.8381 130.266 55.8314Z" fill="#F4F4F4"/>
<path d="M121.887 78.7583H120.211C120.211 78.7583 119.687 60.4257 121.887 54.7681H122.306C122.306 54.7681 120.839 75.5104 121.887 78.7583Z" fill="#6C63FF"/>
<path d="M120.735 53.8252C120.735 53.8252 119.373 57.5969 120.001 59.2732C120.001 59.2732 120.944 55.8158 122.043 55.2919C123.142 54.7681 124.295 59.2732 124.295 59.2732C124.295 59.2732 124.923 56.4444 123.771 54.1462C123.771 54.1462 126.076 55.4034 127.228 57.8131C127.228 57.8131 127.438 56.2527 124.714 52.9937C124.714 52.9937 127.123 53.6223 128.695 55.0891C128.695 55.0891 129.219 53.9366 125.971 52.0508C125.971 52.0508 126.39 50.6887 128.904 51.3174C128.904 51.3174 128.904 49.534 124.923 49.8506C124.923 49.8506 124.923 48.6981 127.542 48.9076C127.542 48.9076 127.542 47.4409 124.504 47.9647C124.504 47.9647 125.133 47.0218 125.552 46.8122C125.028 46.7638 124.504 46.9133 124.085 47.2313C124.085 47.2313 124.19 45.3455 122.618 44.6121L122.409 47.2313C122.409 47.2313 120.648 45.156 121.047 45.555C121.151 45.6598 121.466 46.917 121.361 47.5456C121.361 47.5456 119.578 46.0788 117.38 47.6504C117.38 47.6504 120.104 47.8599 120.523 48.8029C120.523 48.8029 118.218 48.3838 117.694 48.6981C117.694 48.6981 119.477 49.3267 119.37 49.7458C119.37 49.7458 116.227 49.7458 115.804 50.8983C115.804 50.8983 119.052 51.3174 119.261 51.6317C119.261 51.6317 115.489 54.3557 115.28 55.0891C115.28 55.0891 119.156 52.7841 119.785 52.7841C120.414 52.7841 116.956 56.1279 117.166 56.975C117.175 56.9683 120.012 53.6156 120.735 53.8252Z" fill="#6C63FF"/>
<path d="M142.562 78.0717H143.842C143.842 78.0717 144.243 64.0659 142.562 59.7436H142.241C142.241 59.7436 143.365 75.5862 142.562 78.0717Z" fill="#6C63FF"/>
<path d="M143.443 59.0236C143.443 59.0236 144.484 61.9058 144.002 63.1854C144.002 63.1854 143.282 60.5438 142.442 60.1448C141.602 59.7458 140.721 63.1854 140.721 63.1854C140.721 63.1854 140.242 61.0253 141.122 59.2643C139.996 59.9312 139.08 60.9024 138.481 62.0664C138.481 62.0664 138.32 60.8648 140.402 58.3838C140.402 58.3838 138.561 58.8631 137.362 59.9843C137.362 59.9843 136.961 59.1038 139.444 57.6638C139.444 57.6638 139.123 56.6228 137.204 57.1043C137.204 57.1043 137.204 55.7445 140.244 55.9897C140.244 55.9897 140.244 55.1092 138.238 55.2697C138.238 55.2697 138.238 54.1551 140.558 54.5496C140.558 54.5496 140.079 53.8296 139.758 53.6691C140.157 53.6339 140.554 53.7483 140.873 53.9901C140.873 53.9901 140.792 52.5501 141.987 51.9839L142.148 53.9901C142.148 53.9901 143.485 52.4052 143.189 52.7106C142.997 53.1933 142.915 53.7125 142.948 54.2309C142.948 54.2309 144.308 53.1163 145.989 54.3111C145.989 54.3111 143.907 54.4716 143.588 55.1916C143.588 55.1916 145.349 54.8706 145.748 55.1114C145.748 55.1114 144.388 55.5907 144.468 55.9117C144.468 55.9117 146.869 55.9117 147.19 56.7922C147.19 56.7922 144.709 57.1132 144.549 57.3517C144.549 57.3517 147.431 59.4337 147.589 59.9932C147.589 59.9932 144.629 58.2322 144.147 58.2322C143.666 58.2322 146.307 60.7935 146.154 61.4333C146.165 61.4244 144.005 58.8675 143.443 59.0236Z" fill="#6C63FF"/>
<path d="M157.883 75.3343H158.677C158.677 75.3343 158.924 66.6606 157.883 63.9834H157.685C157.685 63.9834 158.378 73.8028 157.883 75.3343Z" fill="#6C63FF"/>
<path d="M158.43 63.5376C158.43 63.5376 159.074 65.3209 158.777 66.1145C158.777 66.1145 158.331 64.4783 157.81 64.2308C157.288 63.9834 156.744 66.1145 156.744 66.1145C156.744 66.1145 156.448 64.777 156.992 63.6847C156.294 64.0974 155.727 64.6985 155.356 65.419C155.356 65.419 155.257 64.6745 156.546 63.1386C155.854 63.331 155.212 63.6692 154.662 64.1305C154.662 64.1305 154.415 63.5844 155.951 62.6927C155.951 62.6927 155.752 62.0485 154.562 62.345C154.562 62.345 154.562 61.5024 156.446 61.6517C156.446 61.6517 156.446 61.1056 155.206 61.2059C155.206 61.2059 155.206 60.5126 156.644 60.7601C156.511 60.5512 156.344 60.3665 156.149 60.2139C156.397 60.1912 156.644 60.2619 156.842 60.4123C156.842 60.4123 156.793 59.5206 157.536 59.1729L157.634 60.4123C157.634 60.4123 158.467 59.4315 158.278 59.6187C158.159 59.9174 158.108 60.2387 158.129 60.5594C158.404 60.3587 158.738 60.2546 159.079 60.2635C159.419 60.2724 159.748 60.3937 160.012 60.6085C160.012 60.6085 158.724 60.7066 158.525 61.1546C158.525 61.1546 159.615 60.9562 159.863 61.1056C159.863 61.1056 159.02 61.4021 159.069 61.6004C159.069 61.6004 160.556 61.6004 160.755 62.1466C160.755 62.1466 159.219 62.345 159.118 62.4943C159.118 62.4943 160.902 63.7828 161.002 64.1305C161.002 64.1305 159.167 63.0405 158.871 63.0405C158.574 63.0405 160.208 64.6276 160.11 65.0222C160.115 65.0244 158.775 63.4373 158.43 63.5376Z" fill="#6C63FF"/>
<path d="M128.904 65.526L128.737 64.6343C128.737 64.5688 128.723 64.5039 128.697 64.4438C128.671 64.3836 128.633 64.3294 128.586 64.2844L127.812 63.9054C127.755 63.8384 127.709 63.7633 127.674 63.6825L127.687 63.6624C127.73 63.6095 127.76 63.5479 127.776 63.4819C127.778 63.4648 127.778 63.4476 127.776 63.4306H127.788C127.859 63.4401 127.931 63.4225 127.99 63.3812C128.049 63.3399 128.091 63.278 128.106 63.2077V63.1876C128.093 63.2479 128.06 63.3021 128.013 63.3422C127.966 63.3824 127.907 63.4063 127.846 63.4105C127.953 63.3384 128.041 63.2409 128.103 63.1266C128.164 63.0123 128.196 62.8847 128.196 62.7552C128.196 62.7552 128.196 62.7329 128.196 62.7217C128.23 62.7008 128.259 62.6729 128.282 62.6399C128.304 62.6068 128.32 62.5694 128.327 62.53V62.5099C128.318 62.5473 128.301 62.5824 128.277 62.613C128.254 62.6437 128.225 62.6693 128.191 62.6883C128.186 62.612 128.169 62.5369 128.142 62.4654H128.162C128.238 62.4654 128.312 62.4351 128.365 62.3811C128.419 62.3272 128.45 62.2541 128.45 62.1778C128.45 62.1778 128.45 62.1644 128.45 62.1577C128.445 62.2301 128.412 62.2979 128.359 62.3475C128.307 62.3971 128.237 62.4249 128.164 62.4252H128.129V62.4119C128.214 62.3862 128.291 62.3367 128.349 62.2692C128.407 62.2017 128.445 62.119 128.459 62.0307C128.459 62.0307 128.459 62.0173 128.459 62.0106C128.455 62.0665 128.435 62.12 128.401 62.1644C128.404 62.093 128.381 62.0227 128.336 61.9673C128.291 61.9119 128.227 61.8754 128.156 61.8648C128.085 61.8542 128.013 61.8703 127.954 61.9101C127.894 61.9498 127.852 62.0103 127.834 62.0797L127.783 62.0507C127.799 61.9933 127.833 61.9423 127.879 61.9048C127.925 61.8672 127.982 61.845 128.042 61.8412H128.022C127.961 61.8407 127.903 61.8592 127.853 61.894C127.804 61.9288 127.767 61.9782 127.747 62.0351C127.575 61.955 127.38 61.9398 127.197 61.9922C127.014 62.0446 126.857 62.1612 126.753 62.3205C126.693 62.365 126.615 62.4297 126.617 62.4854C126.592 62.5113 126.568 62.5397 126.548 62.5701C126.463 62.7563 126.432 62.9625 126.459 63.1653C126.471 63.2661 126.459 63.3684 126.423 63.4635C126.388 63.5586 126.33 63.6437 126.254 63.7115C126.287 63.7253 126.323 63.7325 126.359 63.7325C126.395 63.7325 126.43 63.7253 126.464 63.7115C126.53 63.6835 126.592 63.6467 126.649 63.6022C126.701 63.5702 126.746 63.5268 126.78 63.4752V63.464C126.817 63.4888 126.857 63.5097 126.898 63.5264C126.914 63.6602 126.918 63.814 126.858 63.8653L126.869 63.8408C126.726 63.9489 126.547 63.9998 126.368 63.9834C126.26 63.9895 126.155 64.0235 126.064 64.0821C125.973 64.1407 125.899 64.2219 125.848 64.3178L125.605 65.3321V65.3499V65.3677C125.609 65.3814 125.616 65.3938 125.627 65.4036C125.637 65.4134 125.649 65.4203 125.663 65.4235L125.739 65.4435C125.75 65.6168 125.733 65.7908 125.688 65.9584C125.637 66.2081 125.608 66.4617 125.601 66.7164C125.619 66.8434 125.65 67.5055 125.665 67.8198C125.638 67.9271 125.617 68.0357 125.601 68.1452L125.242 70.2986C125.242 70.2986 124.974 72.0218 124.988 72.5434L124.941 72.8443C124.941 72.8443 124.212 73.7583 124.426 73.8876C124.64 74.0168 124.97 74.0726 125.284 73.5866C125.327 73.4721 125.396 73.3691 125.485 73.2857C125.521 73.2548 125.548 73.2158 125.566 73.172C125.583 73.1281 125.59 73.0807 125.585 73.0338L125.563 72.8109L125.601 72.8242H125.623C125.623 72.8242 125.982 71.645 125.942 70.818C125.942 70.818 126.611 68.4506 127.112 68.0784V68.0628L127.159 68.0405L127.266 70.3343L127.157 72.8621L127.132 73.0137C127.132 73.0137 126.403 73.9277 126.617 74.057C126.831 74.1863 127.161 74.242 127.476 73.756C127.518 73.6415 127.587 73.5385 127.676 73.4551C127.712 73.4242 127.74 73.3852 127.757 73.3414C127.775 73.2976 127.781 73.2502 127.776 73.2032L127.743 72.8688C127.868 72.4431 128.189 71.217 128.057 70.5059L128.28 68.9946C128.503 68.7427 128.474 68.1029 128.474 68.1029C128.65 67.7351 128.697 66.2928 128.697 66.2928L128.742 65.5795C128.775 65.5767 128.809 65.5767 128.842 65.5795H128.864H128.878V65.5661C128.884 65.5605 128.889 65.5537 128.893 65.5461H128.907V65.5282L128.904 65.526ZM128.28 66.9749C128.26 66.9259 128.238 66.8769 128.213 66.8278H128.196V66.81C128.195 66.8041 128.195 66.7981 128.196 66.7921V66.7743C128.206 66.7504 128.215 66.7258 128.222 66.7008C128.251 66.6547 128.266 66.6013 128.265 66.5469C128.291 66.6881 128.296 66.8323 128.28 66.9749ZM128.213 66.3642L128.169 65.8871L128.182 65.8492L128.242 66.4556L128.213 66.3642ZM126.1 66.4288C126.085 66.4464 126.073 66.4669 126.066 66.4892C126.06 66.5115 126.057 66.5349 126.06 66.5581C126.06 66.5581 126.06 66.5581 126.06 66.5737C126.06 66.6219 126.067 66.6699 126.08 66.7164L126.011 67.0151V66.4444C126.057 66.3842 126.097 66.3201 126.131 66.2527C126.138 66.3132 126.128 66.3744 126.1 66.4288Z" fill="url(#paint3_linear_8_237)"/>
<path d="M126.55 62.7462C126.468 62.9253 126.438 63.1238 126.464 63.3191C126.475 63.4163 126.463 63.5149 126.429 63.6065C126.394 63.698 126.338 63.7799 126.265 63.8452C126.297 63.8586 126.332 63.8656 126.367 63.8656C126.401 63.8656 126.436 63.8586 126.468 63.8452C126.532 63.8184 126.592 63.7831 126.646 63.7404C126.697 63.7096 126.741 63.6677 126.773 63.6178C126.804 63.5408 126.814 63.457 126.802 63.3749C126.803 63.2292 126.815 63.0837 126.84 62.9402C126.854 62.851 126.938 62.608 126.84 62.5612C126.742 62.5144 126.593 62.6794 126.55 62.7462Z" fill="#72351C"/>
<path d="M125.077 72.2224L125.008 72.6682C125.008 72.6682 124.306 73.5599 124.513 73.6736C124.72 73.7872 125.037 73.8519 125.34 73.3838C125.381 73.2736 125.446 73.1744 125.532 73.094C125.566 73.0641 125.593 73.0265 125.609 72.9842C125.626 72.9419 125.632 72.8962 125.628 72.851L125.558 72.1711L125.077 72.2224Z" fill="#333333"/>
<path d="M127.19 72.3985L127.121 72.8443C127.121 72.8443 126.419 73.736 126.626 73.8497C126.834 73.9633 127.15 74.028 127.453 73.5599C127.494 73.4497 127.559 73.3505 127.645 73.2701C127.679 73.2402 127.706 73.2026 127.723 73.1603C127.739 73.118 127.746 73.0723 127.741 73.0271L127.672 72.3472L127.19 72.3985Z" fill="#333333"/>
<path d="M126.096 67.0686C126.096 67.0686 125.766 67.3071 125.65 68.1363L125.304 70.2117C125.304 70.2117 125.012 72.0931 125.066 72.4542L125.65 72.6548C125.65 72.6548 125.995 71.518 125.957 70.7266C125.957 70.7266 126.66 68.2255 127.152 68.0516L127.257 70.2607L127.146 72.7462L127.645 72.8465C127.645 72.8465 128.151 71.2638 127.99 70.4257L128.251 68.6423C128.251 68.6423 128.55 67.6905 128.135 66.859L126.096 67.0686Z" fill="#4D8AF0"/>
<g opacity="0.1">
<path d="M127.101 68.0851V68.0472C126.608 68.2233 125.906 70.7222 125.906 70.7222C125.894 71.369 125.793 72.0111 125.605 72.6303L125.668 72.6526C125.668 72.6526 126.013 71.5157 125.975 70.7244C125.973 70.7266 126.615 68.4529 127.101 68.0851Z" fill="black"/>
<path d="M128.155 66.8702H128.089C128.328 67.429 128.368 68.0534 128.2 68.6379L127.939 70.4212C128.093 71.2148 127.645 72.6749 127.598 72.8287L127.663 72.8421C127.663 72.8421 128.169 71.2594 128.008 70.4212L128.269 68.6379C128.269 68.6379 128.57 67.6905 128.155 66.8702Z" fill="black"/>
</g>
<path d="M125.648 65.4435C125.647 65.4606 125.653 65.4773 125.663 65.4907C125.674 65.5041 125.689 65.5134 125.706 65.5171C125.869 65.558 126.021 65.6341 126.151 65.74C126.397 65.9317 125.891 65.3566 125.891 65.3566L125.721 65.3945L125.652 65.4569L125.648 65.4435Z" fill="#F55F44"/>
<path opacity="0.1" d="M125.648 65.4435C125.647 65.4606 125.653 65.4773 125.663 65.4907C125.674 65.5041 125.689 65.5134 125.706 65.5171C125.869 65.558 126.021 65.6341 126.151 65.74C126.397 65.9317 125.891 65.3566 125.891 65.3566L125.721 65.3945L125.652 65.4569L125.648 65.4435Z" fill="black"/>
<path d="M128.06 65.9518C128.266 65.8054 128.504 65.7113 128.755 65.6776C128.772 65.6776 128.789 65.6708 128.801 65.6586C128.813 65.6465 128.82 65.6301 128.82 65.6129C128.82 65.6129 128.236 65.3833 128.06 65.9518Z" fill="#F55F44"/>
<path opacity="0.1" d="M128.82 65.6107C128.82 65.6107 128.236 65.3878 128.06 65.9495C128.06 65.9495 128.49 65.6196 128.789 65.6731" fill="black"/>
<path d="M127.382 63.6847C127.802 63.6847 128.142 63.3444 128.142 62.9246C128.142 62.5048 127.802 62.1644 127.382 62.1644C126.962 62.1644 126.622 62.5048 126.622 62.9246C126.622 63.3444 126.962 63.6847 127.382 63.6847Z" fill="#72351C"/>
<path d="M126.858 63.4573C126.858 63.4573 126.965 63.9032 126.858 63.9946C126.751 64.086 126.535 64.2554 126.698 64.3869C126.86 64.5184 127.442 64.7413 127.636 64.6321C127.83 64.5229 128.051 64.5563 127.997 64.3334C127.944 64.1105 127.52 64.1573 127.513 63.0494L126.858 63.4573Z" fill="#FDB797"/>
<path opacity="0.1" d="M125.781 65.3098C125.797 65.5515 125.782 65.7943 125.735 66.032C125.685 66.2721 125.657 66.516 125.65 66.7609C125.672 66.9214 125.719 67.9825 125.719 67.9825C125.719 67.9825 125.634 68.9121 126.087 68.8274C126.539 68.7427 126.018 67.7663 126.018 67.7663L126.04 66.4979C126.163 66.3312 126.24 66.1352 126.263 65.9295C126.296 65.6241 125.781 65.3098 125.781 65.3098Z" fill="black"/>
<path d="M125.775 65.3098C125.791 65.5515 125.775 65.7943 125.728 66.032C125.679 66.2721 125.65 66.516 125.643 66.7609C125.665 66.9214 125.712 67.9825 125.712 67.9825C125.712 67.9825 125.628 68.9121 126.08 68.8274C126.533 68.7427 126.011 67.7663 126.011 67.7663L126.033 66.4979C126.156 66.3312 126.233 66.1352 126.256 65.9295C126.287 65.6241 125.775 65.3098 125.775 65.3098Z" fill="#FDB797"/>
<path opacity="0.1" d="M128.67 65.3789L128.608 66.3708C128.608 66.3708 128.57 67.7618 128.401 68.114C128.401 68.114 128.447 69.0904 127.993 69.0659C127.538 69.0414 128.069 67.9981 128.069 67.9981C128.069 67.9981 128.311 66.9125 128.187 66.5692L128.069 65.3789H128.67Z" fill="black"/>
<path d="M128.677 65.3789L128.615 66.3708C128.615 66.3708 128.577 67.7618 128.407 68.114C128.407 68.114 128.454 69.0904 127.999 69.0659C127.545 69.0414 128.075 67.9981 128.075 67.9981C128.075 67.9981 128.318 66.9125 128.193 66.5692L128.075 65.3789H128.677Z" fill="#FDB797"/>
<path opacity="0.1" d="M127.204 64.4181C127.204 64.4181 127.571 64.5875 127.772 64.0837L128.519 64.4493C128.565 64.493 128.601 64.5455 128.626 64.6038C128.651 64.662 128.664 64.7248 128.664 64.7881L128.824 65.6486C128.824 65.6486 128.278 65.4636 128.109 65.9718L128.155 66.4555C128.191 66.575 128.182 66.7031 128.131 66.8167C128.126 66.8269 128.124 66.8379 128.124 66.849C128.124 66.8601 128.126 66.8711 128.131 66.8813C128.142 66.9165 128.145 66.9539 128.139 66.9903C128.133 67.0268 128.119 67.0614 128.097 67.0913C128.075 67.1212 128.047 67.1456 128.014 67.1626C127.981 67.1795 127.945 67.1886 127.908 67.1889C127.707 67.1912 127.507 67.2069 127.308 67.2358C127.148 67.2826 126.662 67.1444 126.501 67.2358C126.341 67.3271 126.002 67.1666 126.002 67.1666L126.093 66.7743C126.093 66.7743 126.031 66.5826 126.109 66.5135C126.187 66.4444 126.14 65.8448 126.071 65.6753C126.071 65.6753 125.795 65.4145 125.625 65.4524L125.848 64.4605C125.896 64.3679 125.968 64.2895 126.055 64.2328C126.143 64.1762 126.243 64.1432 126.348 64.1372C126.52 64.1527 126.693 64.1034 126.831 63.999C126.831 63.999 126.664 64.3646 127.204 64.4181Z" fill="black"/>
<path opacity="0.1" d="M127.241 64.4003C127.342 64.427 127.609 64.456 127.77 64.0525L128.517 64.4181C128.562 64.4618 128.599 64.5143 128.624 64.5726C128.649 64.6308 128.662 64.6936 128.661 64.7569L128.822 65.6174C128.822 65.6174 128.276 65.4324 128.106 65.9406L128.153 66.4243L128.184 66.5202C128.198 66.5612 128.201 66.6047 128.195 66.6473C128.188 66.6899 128.172 66.7304 128.147 66.7654C128.136 66.7774 128.129 66.7921 128.126 66.8078C128.123 66.8235 128.125 66.8397 128.131 66.8546C128.142 66.8898 128.145 66.9271 128.139 66.9636C128.133 67.0001 128.119 67.0346 128.097 67.0646C128.075 67.0945 128.047 67.1189 128.014 67.1358C127.981 67.1528 127.945 67.1618 127.908 67.1622C127.707 67.1645 127.507 67.1801 127.308 67.209C127.148 67.2558 126.662 67.1176 126.501 67.209C126.341 67.3004 126.002 67.1399 126.002 67.1399L126.093 66.7476C126.093 66.7476 126.031 66.5559 126.109 66.4868C126.187 66.4176 126.14 65.818 126.071 65.6486C126.071 65.6486 125.795 65.3878 125.625 65.4257L125.848 64.4337C125.896 64.3412 125.968 64.2628 126.055 64.2061C126.143 64.1494 126.243 64.1165 126.348 64.1105C126.52 64.1259 126.693 64.0767 126.831 63.9723C126.831 63.9723 126.651 64.3022 127.126 64.3735L127.241 64.4003Z" fill="black"/>
<path d="M127.241 64.4159C127.342 64.4426 127.609 64.4716 127.77 64.0681L128.517 64.4337C128.562 64.4774 128.599 64.5299 128.624 64.5882C128.649 64.6464 128.662 64.7092 128.661 64.7725L128.822 65.633C128.822 65.633 128.276 65.448 128.106 65.9562L128.153 66.4399C128.188 66.5594 128.18 66.6875 128.129 66.8011C128.124 66.8113 128.122 66.8223 128.122 66.8334C128.122 66.8445 128.124 66.8555 128.129 66.8657C128.14 66.9009 128.143 66.9383 128.137 66.9747C128.131 67.0112 128.116 67.0458 128.095 67.0757C128.073 67.1056 128.045 67.13 128.012 67.147C127.979 67.1639 127.943 67.173 127.906 67.1733C127.705 67.1756 127.505 67.1913 127.306 67.2201C127.146 67.267 126.66 67.1288 126.499 67.2201C126.339 67.3115 126 67.151 126 67.151L126.091 66.7587C126.091 66.7587 126.029 66.567 126.107 66.4979C126.185 66.4288 126.138 65.8292 126.069 65.6597C126.069 65.6597 125.793 65.3989 125.623 65.4368L125.846 64.4448C125.894 64.3523 125.965 64.2739 126.053 64.2172C126.141 64.1606 126.241 64.1276 126.345 64.1216C126.518 64.1371 126.691 64.0878 126.829 63.9834C126.829 63.9834 126.649 64.3133 127.123 64.3847L127.241 64.4159Z" fill="#F55F44"/>
<path opacity="0.1" d="M127.525 63.0895L126.871 63.4975C126.888 63.571 126.901 63.6454 126.909 63.7204C126.984 63.75 127.063 63.7652 127.143 63.765C127.303 63.7538 127.453 63.6857 127.567 63.5732C127.537 63.4137 127.523 63.2517 127.525 63.0895Z" fill="black"/>
<path d="M127.13 63.7159C127.478 63.7159 127.761 63.4335 127.761 63.0851C127.761 62.7367 127.478 62.4542 127.13 62.4542C126.782 62.4542 126.499 62.7367 126.499 63.0851C126.499 63.4335 126.782 63.7159 127.13 63.7159Z" fill="#FDB797"/>
<path d="M128.06 62.6013C128.212 62.6013 128.336 62.4776 128.336 62.3249C128.336 62.1723 128.212 62.0485 128.06 62.0485C127.907 62.0485 127.783 62.1723 127.783 62.3249C127.783 62.4776 127.907 62.6013 128.06 62.6013Z" fill="#72351C"/>
<path d="M128.113 62.6169C128.043 62.6171 127.976 62.5908 127.924 62.5432C127.873 62.4956 127.842 62.4304 127.837 62.3606C127.837 62.3606 127.837 62.374 127.837 62.3807C127.837 62.454 127.866 62.5243 127.918 62.5761C127.969 62.6279 128.04 62.6571 128.113 62.6571C128.186 62.6571 128.257 62.6279 128.309 62.5761C128.36 62.5243 128.39 62.454 128.39 62.3807C128.39 62.3807 128.39 62.3673 128.39 62.3606C128.384 62.4304 128.353 62.4956 128.302 62.5432C128.25 62.5908 128.183 62.6171 128.113 62.6169Z" fill="#72351C"/>
<path d="M127.955 62.88C127.886 62.8669 127.825 62.8284 127.784 62.7722C127.742 62.716 127.724 62.6462 127.732 62.5768V62.5947C127.719 62.6668 127.734 62.7412 127.776 62.8016C127.818 62.862 127.882 62.9035 127.954 62.9168C128.026 62.9301 128.1 62.9142 128.161 62.8726C128.221 62.831 128.262 62.7671 128.276 62.695V62.6749C128.259 62.7437 128.216 62.8034 128.156 62.8416C128.097 62.8797 128.024 62.8935 127.955 62.88Z" fill="#72351C"/>
<path d="M127.741 63.5487C127.672 63.5357 127.611 63.4972 127.57 63.4409C127.528 63.3847 127.51 63.3149 127.518 63.2456V63.2634C127.505 63.3355 127.52 63.41 127.562 63.4704C127.604 63.5308 127.668 63.5722 127.74 63.5855C127.812 63.5988 127.886 63.5829 127.947 63.5413C128.007 63.4997 128.049 63.4358 128.062 63.3637V63.3436C128.045 63.4125 128.002 63.4721 127.942 63.5103C127.883 63.5485 127.81 63.5622 127.741 63.5487Z" fill="#72351C"/>
<path d="M128.113 62.4698C128.043 62.47 127.975 62.4433 127.924 62.3953C127.872 62.3472 127.841 62.2814 127.837 62.2112C127.837 62.2112 127.837 62.2246 127.837 62.2313C127.837 62.3046 127.866 62.3749 127.918 62.4268C127.969 62.4786 128.04 62.5077 128.113 62.5077C128.186 62.5077 128.257 62.4786 128.309 62.4268C128.36 62.3749 128.39 62.3046 128.39 62.2313C128.39 62.2313 128.39 62.2179 128.39 62.2112C128.385 62.2814 128.354 62.3472 128.303 62.3953C128.251 62.4433 128.183 62.47 128.113 62.4698Z" fill="#72351C"/>
<path d="M127.727 62.3205C127.728 62.2502 127.755 62.1827 127.804 62.1317C127.852 62.0808 127.918 62.0503 127.988 62.0463H127.968C127.895 62.0463 127.825 62.0754 127.773 62.1272C127.721 62.1791 127.692 62.2494 127.692 62.3227C127.692 62.396 127.721 62.4663 127.773 62.5181C127.825 62.57 127.895 62.5991 127.968 62.5991H127.988C127.917 62.5951 127.851 62.5639 127.802 62.512C127.753 62.4601 127.727 62.3915 127.727 62.3205Z" fill="#72351C"/>
<path opacity="0.1" d="M128.006 64.9286C128.035 65.0653 128.035 65.2065 128.006 65.3432C128.006 65.3432 127.968 65.7043 128.028 65.7667" fill="black"/>
<path opacity="0.1" d="M126.138 65.0133C126.167 65.15 126.167 65.2912 126.138 65.4279C126.138 65.4279 126.1 65.789 126.16 65.8514" fill="black"/>
<path opacity="0.1" d="M126.122 66.4957C126.182 66.5171 126.248 66.5171 126.307 66.4957C126.38 66.4736 126.458 66.4736 126.53 66.4957" fill="black"/>
<path opacity="0.1" d="M126.216 65.9518C126.433 65.9621 126.65 65.928 126.854 65.8514C126.854 65.8514 127.638 66.0432 127.861 65.9049" fill="black"/>
<path d="M125.98 69.2643H125.795C125.712 69.2643 125.645 69.3312 125.645 69.4136C125.645 69.4961 125.712 69.563 125.795 69.563H125.98C126.062 69.563 126.129 69.4961 126.129 69.4136C126.129 69.3312 126.062 69.2643 125.98 69.2643Z" fill="#FDB797"/>
<path d="M125.648 69.3445L125.906 69.3334L126.129 69.369H126.051L125.648 69.3445Z" fill="#F0E4E4"/>
<path d="M127.391 68.094H127.649L127.872 68.1163H127.794L127.391 68.094Z" fill="#F0E4E4"/>
<path d="M127.391 68.1475H127.649L127.872 68.1698H127.794L127.391 68.1475Z" fill="#F0E4E4"/>
<path d="M127.391 68.2032H127.649L127.872 68.2255H127.794L127.391 68.2032Z" fill="#F0E4E4"/>
<path d="M127.391 68.2567H127.649L127.872 68.279H127.794L127.391 68.2567Z" fill="#F0E4E4"/>
<path d="M125.648 69.5518H125.906L126.129 69.5786H126.051L125.648 69.5518Z" fill="#F0E4E4"/>
<path d="M125.648 69.5251H125.906L126.129 69.5518H126.051L125.648 69.5251Z" fill="#F0E4E4"/>
<path d="M125.648 69.4983H125.906L126.129 69.5251H126.051L125.648 69.4983Z" fill="#F0E4E4"/>
<path d="M125.648 69.4716H125.906L126.129 69.4983H126.051L125.648 69.4716Z" fill="#F0E4E4"/>
<path d="M125.648 69.3044L125.906 69.2933L126.129 69.3289H126.051L125.648 69.3044Z" fill="#F0E4E4"/>
<path d="M125.648 69.2576L125.906 69.2464L126.129 69.2821H126.051L125.648 69.2576Z" fill="#F0E4E4"/>
<path opacity="0.1" d="M127.237 62.6816C127.212 62.9172 127.243 63.1553 127.326 63.3771C127.368 63.4847 127.386 63.5998 127.38 63.715C127.374 63.8302 127.345 63.9429 127.293 64.0458C127.327 64.0537 127.363 64.0534 127.397 64.0448C127.431 64.0363 127.462 64.0199 127.489 63.9968C127.544 63.9483 127.592 63.892 127.632 63.8296C127.673 63.7787 127.703 63.7194 127.719 63.6557C127.725 63.5556 127.71 63.4551 127.674 63.3615C127.631 63.1907 127.599 63.0172 127.58 62.8421C127.567 62.7351 127.58 62.4275 127.46 62.3963C127.34 62.365 127.259 62.5924 127.237 62.6816Z" fill="black"/>
<path d="M127.253 62.6749C127.228 62.9105 127.258 63.1486 127.342 63.3704C127.383 63.478 127.402 63.5931 127.396 63.7083C127.39 63.8235 127.36 63.9362 127.308 64.0391C127.343 64.047 127.378 64.0467 127.412 64.0381C127.446 64.0296 127.478 64.0132 127.505 63.9901C127.56 63.9416 127.608 63.8853 127.647 63.8229C127.689 63.7721 127.718 63.7127 127.734 63.649C127.741 63.5489 127.726 63.4485 127.69 63.3548C127.646 63.1841 127.615 63.0105 127.596 62.8354C127.583 62.7284 127.596 62.4208 127.476 62.3896C127.355 62.3584 127.275 62.5835 127.253 62.6749Z" fill="#72351C"/>
<path opacity="0.1" d="M126.981 62.8399C127.034 62.8956 127.045 62.9781 127.09 63.0405C127.13 63.083 127.178 63.1162 127.232 63.1378C127.286 63.1594 127.344 63.1688 127.402 63.1653C127.434 63.1636 127.465 63.1706 127.493 63.1854C127.542 63.2166 127.545 63.2879 127.576 63.337C127.593 63.3548 127.613 63.3691 127.635 63.3789C127.658 63.3886 127.682 63.3936 127.706 63.3936C127.731 63.3936 127.755 63.3886 127.777 63.3789C127.8 63.3691 127.82 63.3548 127.837 63.337C127.901 63.26 127.937 63.1631 127.937 63.0628C127.948 62.9523 127.948 62.8411 127.937 62.7306C127.934 62.6041 127.884 62.4833 127.797 62.3918C127.723 62.3376 127.639 62.301 127.549 62.2848C127.427 62.2416 127.295 62.2316 127.168 62.2558C127.106 62.2764 127.048 62.3057 126.994 62.3428C126.918 62.3918 126.844 62.4416 126.771 62.4921C126.689 62.5501 126.533 62.666 126.684 62.7284C126.78 62.773 126.9 62.7529 126.981 62.8399Z" fill="black"/>
<path d="M126.996 62.8309C127.05 62.8867 127.061 62.9692 127.106 63.0316C127.145 63.0741 127.194 63.1073 127.248 63.1289C127.302 63.1505 127.36 63.1599 127.418 63.1564C127.449 63.1547 127.481 63.1617 127.509 63.1765C127.558 63.2077 127.56 63.279 127.591 63.328C127.608 63.3459 127.628 63.3602 127.651 63.37C127.673 63.3797 127.697 63.3847 127.722 63.3847C127.746 63.3847 127.771 63.3797 127.793 63.37C127.815 63.3602 127.836 63.3459 127.852 63.328C127.917 63.2511 127.952 63.1542 127.953 63.0539C127.963 62.9434 127.963 62.8322 127.953 62.7217C127.95 62.5952 127.9 62.4744 127.812 62.3829C127.739 62.3287 127.654 62.2921 127.565 62.2759C127.442 62.2327 127.311 62.2227 127.184 62.2469C127.122 62.2675 127.063 62.2968 127.01 62.3338C126.934 62.3829 126.86 62.4327 126.787 62.4832C126.704 62.5412 126.548 62.6571 126.7 62.7195C126.796 62.7641 126.923 62.7462 126.996 62.8309Z" fill="#72351C"/>
<path d="M127.406 68.094H127.665L127.888 68.1163H127.814L127.406 68.094Z" fill="#F0E4E4"/>
<path d="M127.406 68.1475H127.665L127.888 68.1698H127.814L127.406 68.1475Z" fill="#F0E4E4"/>
<path d="M127.406 68.2032H127.665L127.888 68.2255H127.814L127.406 68.2032Z" fill="#F0E4E4"/>
<path d="M127.406 68.2567H127.665L127.888 68.279H127.814L127.406 68.2567Z" fill="#F0E4E4"/>
<path d="M127.295 71.2148H127.554L127.776 71.2371H127.698L127.295 71.2148Z" fill="#F0E4E4"/>
<path d="M127.295 71.2705H127.554L127.776 71.2928H127.698L127.295 71.2705Z" fill="#F0E4E4"/>
<path d="M127.295 71.324H127.554L127.776 71.3463H127.698L127.295 71.324Z" fill="#F0E4E4"/>
<path d="M127.295 71.3775H127.554L127.776 71.3998H127.698L127.295 71.3775Z" fill="#F0E4E4"/>
<defs>
<linearGradient id="paint0_linear_8_237" x1="101.042" y1="136.014" x2="101.042" y2="84.8015" gradientUnits="userSpaceOnUse">
<stop stop-color="#808080" stop-opacity="0.25"/>
<stop offset="0.54" stop-color="#808080" stop-opacity="0.12"/>
<stop offset="1" stop-color="#808080" stop-opacity="0.1"/>
</linearGradient>
<linearGradient id="paint1_linear_8_237" x1="98.7083" y1="110.388" x2="98.7083" y2="0" gradientUnits="userSpaceOnUse">
<stop stop-color="#808080" stop-opacity="0.25"/>
<stop offset="0.54" stop-color="#808080" stop-opacity="0.12"/>
<stop offset="1" stop-color="#808080" stop-opacity="0.1"/>
</linearGradient>
<linearGradient id="paint2_linear_8_237" x1="190.944" y1="125.749" x2="190.944" y2="35.72" gradientUnits="userSpaceOnUse">
<stop stop-color="#808080" stop-opacity="0.25"/>
<stop offset="0.54" stop-color="#808080" stop-opacity="0.12"/>
<stop offset="1" stop-color="#808080" stop-opacity="0.1"/>
</linearGradient>
<linearGradient id="paint3_linear_8_237" x1="126.649" y1="74.1573" x2="126.649" y2="61.8211" gradientUnits="userSpaceOnUse">
<stop stop-color="#808080" stop-opacity="0.25"/>
<stop offset="0.54" stop-color="#808080" stop-opacity="0.12"/>
<stop offset="1" stop-color="#808080" stop-opacity="0.1"/>
</linearGradient>
</defs>
</svg>
